  0
SECTION
  2
HEADER
  9
$ACADVER
  1
AC1032
  9
$ACADMAINTVER
 90
      228
  9
$DWGCODEPAGE
  3
ANSI_1252
  9
$REQUIREDVERSIONS
160
                 0
  9
$INSBASE
 10
0.0
 20
0.0
 30
0.0
  9
$EXTMIN
 10
1.000000000000000E+20
 20
1.000000000000000E+20
 30
1.000000000000000E+20
  9
$EXTMAX
 10
-1.000000000000000E+20
 20
-1.000000000000000E+20
 30
-1.000000000000000E+20
  9
$LIMMIN
 10
0.0
 20
0.0
  9
$LIMMAX
 10
12.0
 20
9.0
  9
$ORTHOMODE
 70
     0
  9
$REGENMODE
 70
     1
  9
$FILLMODE
 70
     1
  9
$QTEXTMODE
 70
     0
  9
$MIRRTEXT
 70
     0
  9
$LTSCALE
 40
1.0
  9
$ATTMODE
 70
     1
  9
$TEXTSIZE
 40
0.2
  9
$TRACEWID
 40
0.05
  9
$TEXTSTYLE
  7
Standard
  9
$CLAYER
  8
0
  9
$CELTYPE
  6
ByLayer
  9
$CECOLOR
 62
   256
  9
$CELTSCALE
 40
1.0
  9
$DISPSILH
 70
     0
  9
$DIMSCALE
 40
1.0
  9
$DIMASZ
 40
0.18
  9
$DIMEXO
 40
0.0625
  9
$DIMDLI
 40
0.38
  9
$DIMRND
 40
0.0
  9
$DIMDLE
 40
0.0
  9
$DIMEXE
 40
0.18
  9
$DIMTP
 40
0.0
  9
$DIMTM
 40
0.0
  9
$DIMTXT
 40
0.18
  9
$DIMCEN
 40
0.09
  9
$DIMTSZ
 40
0.0
  9
$DIMTOL
 70
     0
  9
$DIMLIM
 70
     0
  9
$DIMTIH
 70
     1
  9
$DIMTOH
 70
     1
  9
$DIMSE1
 70
     0
  9
$DIMSE2
 70
     0
  9
$DIMTAD
 70
     0
  9
$DIMZIN
 70
     0
  9
$DIMBLK
  1

  9
$DIMASO
 70
     1
  9
$DIMSHO
 70
     1
  9
$DIMPOST
  1

  9
$DIMAPOST
  1

  9
$DIMALT
 70
     0
  9
$DIMALTD
 70
     2
  9
$DIMALTF
 40
25.4
  9
$DIMLFAC
 40
1.0
  9
$DIMTOFL
 70
     0
  9
$DIMTVP
 40
0.0
  9
$DIMTIX
 70
     0
  9
$DIMSOXD
 70
     0
  9
$DIMSAH
 70
     0
  9
$DIMBLK1
  1

  9
$DIMBLK2
  1

  9
$DIMSTYLE
  2
Standard
  9
$DIMCLRD
 70
     0
  9
$DIMCLRE
 70
     0
  9
$DIMCLRT
 70
     0
  9
$DIMTFAC
 40
1.0
  9
$DIMGAP
 40
0.09
  9
$DIMJUST
 70
     0
  9
$DIMSD1
 70
     0
  9
$DIMSD2
 70
     0
  9
$DIMTOLJ
 70
     1
  9
$DIMTZIN
 70
     0
  9
$DIMALTZ
 70
     0
  9
$DIMALTTZ
 70
     0
  9
$DIMUPT
 70
     0
  9
$DIMDEC
 70
     4
  9
$DIMTDEC
 70
     4
  9
$DIMALTU
 70
     2
  9
$DIMALTTD
 70
     2
  9
$DIMTXSTY
  7
Standard
  9
$DIMAUNIT
 70
     0
  9
$DIMADEC
 70
     0
  9
$DIMALTRND
 40
0.0
  9
$DIMAZIN
 70
     0
  9
$DIMDSEP
 70
    46
  9
$DIMATFIT
 70
     3
  9
$DIMFRAC
 70
     0
  9
$DIMLDRBLK
  1

  9
$DIMLUNIT
 70
     2
  9
$DIMLWD
 70
    -2
  9
$DIMLWE
 70
    -2
  9
$DIMTMOVE
 70
     0
  9
$DIMFXL
 40
1.0
  9
$DIMFXLON
 70
     0
  9
$DIMJOGANG
 40
0.7853981633974483
  9
$DIMTFILL
 70
     0
  9
$DIMTFILLCLR
 70
     0
  9
$DIMARCSYM
 70
     0
  9
$DIMLTYPE
  6

  9
$DIMLTEX1
  6

  9
$DIMLTEX2
  6

  9
$DIMTXTDIRECTION
 70
     0
  9
$LUNITS
 70
     2
  9
$LUPREC
 70
     4
  9
$SKETCHINC
 40
0.1
  9
$FILLETRAD
 40
0.0
  9
$AUNITS
 70
     0
  9
$AUPREC
 70
     0
  9
$MENU
  1
.
  9
$ELEVATION
 40
0.0
  9
$PELEVATION
 40
0.0
  9
$THICKNESS
 40
0.0
  9
$LIMCHECK
 70
     0
  9
$CHAMFERA
 40
0.0
  9
$CHAMFERB
 40
0.0
  9
$CHAMFERC
 40
0.0
  9
$CHAMFERD
 40
0.0
  9
$SKPOLY
 70
     0
  9
$TDCREATE
 40
2459820.598541667
  9
$TDUCREATE
 40
2459820.556875000
  9
$TDUPDATE
 40
2459820.598541667
  9
$TDUUPDATE
 40
2459820.556875000
  9
$TDINDWG
 40
0.0000000000
  9
$TDUSRTIMER
 40
0.0000000000
  9
$USRTIMER
 70
     1
  9
$ANGBASE
 50
0.0
  9
$ANGDIR
 70
     0
  9
$PDMODE
 70
     0
  9
$PDSIZE
 40
0.0
  9
$PLINEWID
 40
0.0
  9
$SPLFRAME
 70
     0
  9
$SPLINETYPE
 70
     6
  9
$SPLINESEGS
 70
     8
  9
$HANDSEED
  5
C6
  9
$SURFTAB1
 70
     6
  9
$SURFTAB2
 70
     6
  9
$SURFTYPE
 70
     6
  9
$SURFU
 70
     6
  9
$SURFV
 70
     6
  9
$UCSBASE
  2

  9
$UCSNAME
  2

  9
$UCSORG
 10
0.0
 20
0.0
 30
0.0
  9
$UCSXDIR
 10
1.0
 20
0.0
 30
0.0
  9
$UCSYDIR
 10
0.0
 20
1.0
 30
0.0
  9
$UCSORTHOREF
  2

  9
$UCSORTHOVIEW
 70
     0
  9
$UCSORGTOP
 10
0.0
 20
0.0
 30
0.0
  9
$UCSORGBOTTOM
 10
0.0
 20
0.0
 30
0.0
  9
$UCSORGLEFT
 10
0.0
 20
0.0
 30
0.0
  9
$UCSORGRIGHT
 10
0.0
 20
0.0
 30
0.0
  9
$UCSORGFRONT
 10
0.0
 20
0.0
 30
0.0
  9
$UCSORGBACK
 10
0.0
 20
0.0
 30
0.0
  9
$PUCSBASE
  2

  9
$PUCSNAME
  2

  9
$PUCSORG
 10
0.0
 20
0.0
 30
0.0
  9
$PUCSXDIR
 10
1.0
 20
0.0
 30
0.0
  9
$PUCSYDIR
 10
0.0
 20
1.0
 30
0.0
  9
$PUCSORTHOREF
  2

  9
$PUCSORTHOVIEW
 70
     0
  9
$PUCSORGTOP
 10
0.0
 20
0.0
 30
0.0
  9
$PUCSORGBOTTOM
 10
0.0
 20
0.0
 30
0.0
  9
$PUCSORGLEFT
 10
0.0
 20
0.0
 30
0.0
  9
$PUCSORGRIGHT
 10
0.0
 20
0.0
 30
0.0
  9
$PUCSORGFRONT
 10
0.0
 20
0.0
 30
0.0
  9
$PUCSORGBACK
 10
0.0
 20
0.0
 30
0.0
  9
$USERI1
 70
     0
  9
$USERI2
 70
     0
  9
$USERI3
 70
     0
  9
$USERI4
 70
     0
  9
$USERI5
 70
     0
  9
$USERR1
 40
0.0
  9
$USERR2
 40
0.0
  9
$USERR3
 40
0.0
  9
$USERR4
 40
0.0
  9
$USERR5
 40
0.0
  9
$WORLDVIEW
 70
     1
  9
$SHADEDGE
 70
     3
  9
$SHADEDIF
 70
    70
  9
$TILEMODE
 70
     1
  9
$MAXACTVP
 70
    64
  9
$PINSBASE
 10
0.0
 20
0.0
 30
0.0
  9
$PLIMCHECK
 70
     0
  9
$PEXTMIN
 10
1.000000000000000E+20
 20
1.000000000000000E+20
 30
1.000000000000000E+20
  9
$PEXTMAX
 10
-1.000000000000000E+20
 20
-1.000000000000000E+20
 30
-1.000000000000000E+20
  9
$PLIMMIN
 10
0.0
 20
0.0
  9
$PLIMMAX
 10
12.0
 20
9.0
  9
$UNITMODE
 70
     0
  9
$VISRETAIN
 70
     1
  9
$PLINEGEN
 70
     0
  9
$PSLTSCALE
 70
     1
  9
$TREEDEPTH
 70
  3020
  9
$CMLSTYLE
  2
Standard
  9
$CMLJUST
 70
     0
  9
$CMLSCALE
 40
1.0
  9
$PROXYGRAPHICS
 70
     1
  9
$MEASUREMENT
 70
     0
  9
$CELWEIGHT
370
    -1
  9
$ENDCAPS
280
     0
  9
$JOINSTYLE
280
     0
  9
$LWDISPLAY
290
     1
  9
$INSUNITS
 70
     4
  9
$HYPERLINKBASE
  1

  9
$STYLESHEET
  1

  9
$XEDIT
290
     1
  9
$CEPSNTYPE
380
     0
  9
$PSTYLEMODE
290
     1
  9
$FINGERPRINTGUID
  2
{53AF6FDF-7605-934A-967D-AE944FD10078}
  9
$VERSIONGUID
  2
{5D60F8AD-800B-8E4F-B7C7-15C3D69A8ED8}
  9
$EXTNAMES
290
     1
  9
$PSVPSCALE
 40
0.0
  9
$OLESTARTUP
290
     0
  9
$SORTENTS
280
   127
  9
$INDEXCTL
280
     0
  9
$HIDETEXT
280
     1
  9
$XCLIPFRAME
280
     2
  9
$HALOGAP
280
     0
  9
$OBSCOLOR
 70
   257
  9
$OBSLTYPE
280
     0
  9
$INTERSECTIONDISPLAY
280
     0
  9
$INTERSECTIONCOLOR
 70
   257
  9
$DIMASSOC
280
     2
  9
$PROJECTNAME
  1

  9
$CAMERADISPLAY
290
     0
  9
$LENSLENGTH
 40
50.0
  9
$CAMERAHEIGHT
 40
0.0
  9
$STEPSPERSEC
 40
2.0
  9
$STEPSIZE
 40
6.0
  9
$3DDWFPREC
 40
2.0
  9
$PSOLWIDTH
 40
0.25
  9
$PSOLHEIGHT
 40
4.0
  9
$LOFTANG1
 40
1.570796326794896
  9
$LOFTANG2
 40
1.570796326794896
  9
$LOFTMAG1
 40
0.0
  9
$LOFTMAG2
 40
0.0
  9
$LOFTPARAM
 70
     7
  9
$LOFTNORMALS
280
     1
  9
$LATITUDE
 40
37.795
  9
$LONGITUDE
 40
-122.394
  9
$NORTHDIRECTION
 40
0.0
  9
$TIMEZONE
 70
 -8000
  9
$LIGHTGLYPHDISPLAY
280
     1
  9
$TILEMODELIGHTSYNCH
280
     1
  9
$CMATERIAL
347
11
  9
$SOLIDHIST
280
     0
  9
$SHOWHIST
280
     1
  9
$DWFFRAME
280
     2
  9
$DGNFRAME
280
     0
  9
$REALWORLDSCALE
290
     1
  9
$INTERFERECOLOR
 62
     1
  9
$INTERFEREOBJVS
345
33
  9
$INTERFEREVPVS
346
30
  9
$CSHADOW
280
     0
  9
$SHADOWPLANELOCATION
 40
0.0
  0
ENDSEC
  0
SECTION
  2
CLASSES
  0
CLASS
  1
ACDBDICTIONARYWDFLT
  2
AcDbDictionaryWithDefault
  3
ObjectDBX Classes
 90
        0
 91
        1
280
     0
281
     0
  0
CLASS
  1
MATERIAL
  2
AcDbMaterial
  3
ObjectDBX Classes
 90
     1153
 91
        3
280
     0
281
     0
  0
CLASS
  1
VISUALSTYLE
  2
AcDbVisualStyle
  3
ObjectDBX Classes
 90
     4095
 91
       24
280
     0
281
     0
  0
CLASS
  1
SCALE
  2
AcDbScale
  3
ObjectDBX Classes
 90
     1153
 91
       17
280
     0
281
     0
  0
CLASS
  1
TABLESTYLE
  2
AcDbTableStyle
  3
ObjectDBX Classes
 90
     4095
 91
        1
280
     0
281
     0
  0
CLASS
  1
MLEADERSTYLE
  2
AcDbMLeaderStyle
  3
ACDB_MLEADERSTYLE_CLASS
 90
     4095
 91
        1
280
     0
281
     0
  0
CLASS
  1
ACDBSECTIONVIEWSTYLE
  2
AcDbSectionViewStyle
  3
ObjectDBX Classes
 90
     1025
 91
        1
280
     0
281
     0
  0
CLASS
  1
ACDBDETAILVIEWSTYLE
  2
AcDbDetailViewStyle
  3
ObjectDBX Classes
 90
     1025
 91
        1
280
     0
281
     0
  0
CLASS
  1
DICTIONARYVAR
  2
AcDbDictionaryVar
  3
ObjectDBX Classes
 90
        0
 91
        5
280
     0
281
     0
  0
CLASS
  1
CELLSTYLEMAP
  2
AcDbCellStyleMap
  3
ObjectDBX Classes
 90
     1152
 91
        1
280
     0
281
     0
  0
ENDSEC
  0
SECTION
  2
TABLES
  0
TABLE
  2
VPORT
  5
8
330
0
100
AcDbSymbolTable
 70
     1
  0
VPORT
  5
57
330
8
100
AcDbSymbolTableRecord
100
AcDbViewportTableRecord
  2
*Active
 70
     0
 10
0.0
 20
0.0
 11
1.0
 21
1.0
 12
0.0
 22
0.0
 13
0.0
 23
0.0
 14
1.0
 24
1.0
 15
0.0
 25
0.0
 16
0.0
 26
0.0
 36
1.0
 17
139.699999965075
 27
-107.9499999730125
 37
0.0
 40
220.2179999449455
 41
1.294117647058823
 42
50.0
 43
0.0
 44
0.0
 50
0.0
 51
0.0
 71
     0
 72
   100
 73
     1
 74
     1
 75
     0
 76
     0
 77
     0
 78
     0
281
     0
 65
     1
110
0.0
120
0.0
130
0.0
111
1.0
121
0.0
131
0.0
112
0.0
122
1.0
132
0.0
 79
     0
146
0.0
 60
     3
 61
     5
292
     1
282
     1
141
0.0
142
0.0
 63
   250
421
  3355443
  0
ENDTAB
  0
TABLE
  2
LTYPE
  5
5
330
0
100
AcDbSymbolTable
 70
     1
  0
LTYPE
  5
5B
330
5
100
AcDbSymbolTableRecord
100
AcDbLinetypeTableRecord
  2
ByBlock
 70
     0
  3

 72
    65
 73
     0
 40
0.0
  0
LTYPE
  5
5C
330
5
100
AcDbSymbolTableRecord
100
AcDbLinetypeTableRecord
  2
ByLayer
 70
     0
  3

 72
    65
 73
     0
 40
0.0
  0
LTYPE
  5
5D
330
5
100
AcDbSymbolTableRecord
100
AcDbLinetypeTableRecord
  2
Continuous
 70
     0
  3
Solid line
 72
    65
 73
     0
 40
0.0
  0
ENDTAB
  0
TABLE
  2
LAYER
  5
2
330
0
100
AcDbSymbolTable
 70
     2
  0
LAYER
  5
54
330
2
100
AcDbSymbolTableRecord
100
AcDbLayerTableRecord
  2
0
 70
     0
 62
     7
  6
Continuous
370
    -3
390
F
347
21
348
0
  0
LAYER
  5
78
330
2
100
AcDbSymbolTableRecord
100
AcDbLayerTableRecord
  2
Layer 1
 70
     0
 62
     7
  6
Continuous
370
     0
390
F
347
21
348
0
  0
ENDTAB
  0
TABLE
  2
STYLE
  5
3
330
0
100
AcDbSymbolTable
 70
     2
  0
STYLE
  5
55
330
3
100
AcDbSymbolTableRecord
100
AcDbTextStyleTableRecord
  2
Standard
 70
     0
 40
0.0
 41
1.0
 50
0.0
 71
     0
 42
0.2
  3
txt
  4

  0
STYLE
  5
5A
330
3
100
AcDbSymbolTableRecord
100
AcDbTextStyleTableRecord
  2
Annotative
 70
     0
 40
0.0
 41
1.0
 50
0.0
 71
     0
 42
0.2
  3
txt
  4

1001
AcadAnnotative
1000
AnnotativeData
1002
{
1070
     1
1070
     1
1002
}
  0
ENDTAB
  0
TABLE
  2
VIEW
  5
6
330
0
100
AcDbSymbolTable
 70
     0
  0
ENDTAB
  0
TABLE
  2
UCS
  5
7
330
0
100
AcDbSymbolTable
 70
     0
  0
ENDTAB
  0
TABLE
  2
APPID
  5
9
330
0
100
AcDbSymbolTable
 70
     2
  0
APPID
  5
56
330
9
100
AcDbSymbolTableRecord
100
AcDbRegAppTableRecord
  2
ACAD
 70
     0
  0
APPID
  5
5E
330
9
100
AcDbSymbolTableRecord
100
AcDbRegAppTableRecord
  2
AcadAnnotative
 70
     0
  0
ENDTAB
  0
TABLE
  2
DIMSTYLE
  5
A
330
0
100
AcDbSymbolTable
 70
     2
100
AcDbDimStyleTable
 71
     0
  0
DIMSTYLE
105
58
330
A
100
AcDbSymbolTableRecord
100
AcDbDimStyleTableRecord
  2
Standard
 70
     0
340
55
  0
DIMSTYLE
105
59
330
A
100
AcDbSymbolTableRecord
100
AcDbDimStyleTableRecord
  2
Annotative
 70
     0
340
55
1001
AcadAnnotative
1000
AnnotativeData
1002
{
1070
     1
1070
     1
1002
}
  0
ENDTAB
  0
TABLE
  2
BLOCK_RECORD
  5
1
330
0
100
AcDbSymbolTable
 70
     1
  0
BLOCK_RECORD
  5
70
330
1
100
AcDbSymbolTableRecord
100
AcDbBlockTableRecord
  2
*Model_Space
340
73
 70
     0
280
     1
281
     0
  0
BLOCK_RECORD
  5
6C
330
1
100
AcDbSymbolTableRecord
100
AcDbBlockTableRecord
  2
*Paper_Space
340
6F
 70
     0
280
     1
281
     0
  0
BLOCK_RECORD
  5
74
330
1
100
AcDbSymbolTableRecord
100
AcDbBlockTableRecord
  2
*Paper_Space0
340
77
 70
     0
280
     1
281
     0
  0
ENDTAB
  0
ENDSEC
  0
SECTION
  2
BLOCKS
  0
BLOCK
  5
71
330
70
100
AcDbEntity
  8
0
100
AcDbBlockBegin
  2
*Model_Space
 70
     0
 10
0.0
 20
0.0
 30
0.0
  3
*Model_Space
  1

  0
ENDBLK
  5
72
330
70
100
AcDbEntity
  8
0
100
AcDbBlockEnd
  0
BLOCK
  5
6D
330
6C
100
AcDbEntity
 67
     1
  8
0
100
AcDbBlockBegin
  2
*Paper_Space
 70
     0
 10
0.0
 20
0.0
 30
0.0
  3
*Paper_Space
  1

  0
ENDBLK
  5
6E
330
6C
100
AcDbEntity
 67
     1
  8
0
100
AcDbBlockEnd
  0
BLOCK
  5
75
330
74
100
AcDbEntity
 67
     1
  8
0
100
AcDbBlockBegin
  2
*Paper_Space0
 70
     0
 10
0.0
 20
0.0
 30
0.0
  3
*Paper_Space0
  1

  0
ENDBLK
  5
76
330
74
100
AcDbEntity
 67
     1
  8
0
100
AcDbBlockEnd
  0
ENDSEC
  0
SECTION
  2
ENTITIES
  0
SPLINE
  5
79
330
70
100
AcDbEntity
  8
Layer 1
100
AcDbSpline
210
0.0
220
0.0
230
1.0
 70
     9
 71
     3
 72
    17
 73
    13
 74
     0
 42
0.0000000001
 43
0.0000000001
 40
0.0
 40
0.0
 40
0.0
 40
0.0
 40
1.0
 40
1.0
 40
1.0
 40
2.0
 40
2.0
 40
2.0
 40
3.0
 40
3.0
 40
3.0
 40
4.0
 40
4.0
 40
4.0
 40
4.0
 10
123.023194046627
 20
-63.81963270271729
 30
0.0
 10
125.546004507838
 20
-63.81963270271729
 30
0.0
 10
127.8222653020682
 20
-63.81963270271729
 30
0.0
 10
130.1122247770461
 20
-63.81963270271729
 30
0.0
 10
130.1122247770461
 20
-60.47220443560819
 30
0.0
 10
130.1122247770461
 20
-57.27701142896132
 30
0.0
 10
130.1122247770461
 20
-54.13840831902197
 30
0.0
 10
127.6167983840932
 20
-54.13840831902197
 30
0.0
 10
125.343827666025
 20
-54.13840831902197
 30
0.0
 10
123.023194046627
 20
-54.13840831902197
 30
0.0
 10
123.023194046627
 20
-57.42933306592433
 30
0.0
 10
123.023194046627
 20
-60.52387751611703
 30
0.0
 10
123.023194046627
 20
-63.81963270271729
 30
0.0
  0
SPLINE
  5
7A
330
70
100
AcDbEntity
  8
Layer 1
100
AcDbSpline
210
0.0
220
0.0
230
1.0
 70
     9
 71
     3
 72
    17
 73
    13
 74
     0
 42
0.0000000001
 43
0.0000000001
 40
0.0
 40
0.0
 40
0.0
 40
0.0
 40
1.0
 40
1.0
 40
1.0
 40
2.0
 40
2.0
 40
2.0
 40
3.0
 40
3.0
 40
3.0
 40
4.0
 40
4.0
 40
4.0
 40
4.0
 10
119.3617447219852
 20
-53.98562822217014
 30
0.0
 10
116.283310186497
 20
-53.81281542148252
 30
0.0
 10
113.4113462083786
 20
-53.65159036059266
 30
0.0
 10
110.4289686035854
 20
-53.48416612468479
 30
0.0
 10
110.9451317037738
 20
-57.23931140854136
 30
0.0
 10
111.4003120791398
 20
-60.55081369566977
 30
0.0
 10
111.8447249325209
 20
-63.78393927485382
 30
0.0
 10
114.4561215252228
 20
-63.78393927485382
 30
0.0
 10
116.8723335187831
 20
-63.78393927485382
 30
0.0
 10
119.3617447219852
 20
-63.78393927485382
 30
0.0
 10
119.3617447219852
 20
-60.50890115974974
 30
0.0
 10
119.3617447219852
 20
-57.41821043036136
 30
0.0
 10
119.3617447219852
 20
-53.98562822217014
 30
0.0
  0
SPLINE
  5
7B
330
70
100
AcDbEntity
  8
Layer 1
100
AcDbSpline
210
0.0
220
0.0
230
1.0
 70
     9
 71
     3
 72
    20
 73
    16
 74
     0
 42
0.0000000001
 43
0.0000000001
 40
0.0
 40
0.0
 40
0.0
 40
0.0
 40
1.0
 40
1.0
 40
1.0
 40
2.0
 40
2.0
 40
2.0
 40
3.0
 40
3.0
 40
3.0
 40
4.0
 40
4.0
 40
4.0
 40
5.0
 40
5.0
 40
5.0
 40
5.0
 10
144.8923103559742
 20
-70.97365342642021
 30
0.0
 10
144.6978369450128
 20
-70.94265090698417
 30
0.0
 10
144.5033701806706
 20
-70.91165503189441
 30
0.0
 10
144.3088967697099
 20
-70.88065251245868
 30
0.0
 10
141.7217403947112
 20
-76.33645143159537
 30
0.0
 10
139.333929402041
 20
-81.89960305251675
 30
0.0
 10
136.4730918633071
 20
-87.208003795236
 30
0.0
 10
134.7409099670036
 20
-90.42213983293978
 30
0.0
 10
135.2350195869783
 20
-93.58124739529662
 30
0.0
 10
135.2086790378264
 20
-96.92538006668328
 30
0.0
 10
138.5939879498847
 20
-96.92538006668328
 30
0.0
 10
141.7415938441982
 20
-96.92538006668328
 30
0.0
 10
144.8923103559742
 20
-96.92538006668328
 30
0.0
 10
144.8923103559742
 20
-88.17150043977118
 30
0.0
 10
144.8923103559742
 20
-79.57257361092239
 30
0.0
 10
144.8923103559742
 20
-70.97365342642021
 30
0.0
  0
SPLINE
  5
7C
330
70
100
AcDbEntity
  8
Layer 1
100
AcDbSpline
210
0.0
220
0.0
230
1.0
 70
     9
 71
     3
 72
    20
 73
    16
 74
     0
 42
0.0000000001
 43
0.0000000001
 40
0.0
 40
0.0
 40
0.0
 40
0.0
 40
1.0
 40
1.0
 40
1.0
 40
2.0
 40
2.0
 40
2.0
 40
3.0
 40
3.0
 40
3.0
 40
4.0
 40
4.0
 40
4.0
 40
5.0
 40
5.0
 40
5.0
 40
5.0
 10
122.6751172819185
 20
-68.45439640449964
 30
0.0
 10
122.6751172819185
 20
-72.02773244289466
 30
0.0
 10
122.6751172819185
 20
-75.31697617020485
 30
0.0
 10
122.6751172819185
 20
-78.82210135036412
 30
0.0
 10
125.8797179299484
 20
-78.82210135036412
 30
0.0
 10
129.0023325386676
 20
-78.35869806799386
 30
0.0
 10
131.9141828744591
 20
-78.94368624173913
 30
0.0
 10
135.2773651935004
 20
-79.61934316392514
 30
0.0
 10
136.9249024030893
 20
-78.53002253512973
 30
0.0
 10
138.0435615312817
 20
-75.56291000098092
 30
0.0
 10
138.940855030025
 20
-73.1829649861358
 30
0.0
 10
140.1218195601225
 20
-70.90990092449399
 30
0.0
 10
141.2382853042068
 20
-68.45439640449964
 30
0.0
 10
134.8720809832828
 20
-68.45439640449964
 30
0.0
 10
128.8223487560566
 20
-68.45439640449964
 30
0.0
 10
122.6751172819185
 20
-68.45439640449964
 30
0.0
  0
SPLINE
  5
7D
330
70
100
AcDbEntity
  8
Layer 1
100
AcDbSpline
210
0.0
220
0.0
230
1.0
 70
     9
 71
     3
 72
    20
 73
    16
 74
     0
 42
0.0000000001
 43
0.0000000001
 40
0.0
 40
0.0
 40
0.0
 40
0.0
 40
1.0
 40
1.0
 40
1.0
 40
2.0
 40
2.0
 40
2.0
 40
3.0
 40
3.0
 40
3.0
 40
4.0
 40
4.0
 40
4.0
 40
5.0
 40
5.0
 40
5.0
 40
5.0
 10
172.7208512868628
 20
-176.5970710876922
 30
0.0
 10
171.5705343147115
 20
-173.1210149222214
 30
0.0
 10
170.5469151845821
 20
-169.9154368024409
 30
0.0
 10
169.4147301877236
 20
-166.7486483758606
 30
0.0
 10
169.2728514690256
 20
-166.3518081538653
 30
0.0
 10
168.5539266245957
 20
-165.9053745317266
 30
0.0
 10
168.1088025830341
 20
-165.9120321666337
 30
0.0
 10
163.4330925671238
 20
-165.9818908227309
 30
0.0
 10
158.7586719952042
 20
-166.1393884053943
 30
0.0
 10
153.9979783150356
 20
-166.2751058211675
 30
0.0
 10
153.9979783150356
 20
-169.8677968400852
 30
0.0
 10
153.9979783150356
 20
-173.1579309097879
 30
0.0
 10
153.9979783150356
 20
-176.5970710876922
 30
0.0
 10
160.1904333815099
 20
-176.5970710876922
 30
0.0
 10
166.2446786627045
 20
-176.5970710876922
 30
0.0
 10
172.7208512868628
 20
-176.5970710876922
 30
0.0
  0
SPLINE
  5
7E
330
70
100
AcDbEntity
  8
Layer 1
100
AcDbSpline
210
0.0
220
0.0
230
1.0
 70
     9
 71
     3
 72
    17
 73
    13
 74
     0
 42
0.0000000001
 43
0.0000000001
 40
0.0
 40
0.0
 40
0.0
 40
0.0
 40
1.0
 40
1.0
 40
1.0
 40
2.0
 40
2.0
 40
2.0
 40
3.0
 40
3.0
 40
3.0
 40
4.0
 40
4.0
 40
4.0
 40
4.0
 10
101.3563409851339
 20
-176.1267975513368
 30
0.0
 10
109.0086593409713
 20
-176.1267975513368
 30
0.0
 10
116.1149513396586
 20
-176.1267975513368
 30
0.0
 10
123.2010176782222
 20
-176.1267975513368
 30
0.0
 10
123.2010176782222
 20
-172.9221629287197
 30
0.0
 10
123.2010176782222
 20
-169.9176028593067
 30
0.0
 10
123.2010176782222
 20
-166.8463601312881
 30
0.0
 10
116.2695450395641
 20
-166.8463601312881
 30
0.0
 10
109.5001302533977
 20
-166.8463601312881
 30
0.0
 10
102.3944497436131
 20
-166.8463601312881
 30
0.0
 10
102.0500684987956
 20
-169.9250843931441
 30
0.0
 10
101.7176777537684
 20
-172.8965157523323
 30
0.0
 10
101.3563409851339
 20
-176.1267975513368
 30
0.0
  0
SPLINE
  5
7F
330
70
100
AcDbEntity
  8
Layer 1
100
AcDbSpline
210
0.0
220
0.0
230
1.0
 70
     9
 71
     3
 72
    29
 73
    25
 74
     0
 42
0.0000000001
 43
0.0000000001
 40
0.0
 40
0.0
 40
0.0
 40
0.0
 40
1.0
 40
1.0
 40
1.0
 40
2.0
 40
2.0
 40
2.0
 40
3.0
 40
3.0
 40
3.0
 40
4.0
 40
4.0
 40
4.0
 40
5.0
 40
5.0
 40
5.0
 40
6.0
 40
6.0
 40
6.0
 40
7.0
 40
7.0
 40
7.0
 40
8.0
 40
8.0
 40
8.0
 40
8.0
 10
150.1952484673614
 20
-23.89987242169913
 30
0.0
 10
150.1952484673614
 20
-23.40963594714296
 30
0.0
 10
150.2418412631112
 20
-23.24914840868284
 30
0.0
 10
150.1885486759043
 20
-23.13542710105167
 30
0.0
 10
147.8688921094271
 20
-18.1852728953421
 30
0.0
 10
145.5582616508862
 20
-13.23063873919739
 30
0.0
 10
143.1808326763269
 20
-8.308254578490528
 30
0.0
 10
142.9793736693129
 20
-7.891150761628341
 30
0.0
 10
142.3338806661724
 20
-7.451886389054897
 30
0.0
 10
141.8784011929731
 20
-7.433871905381454
 30
0.0
 10
139.6376732212935
 20
-7.345246293402145
 30
0.0
 10
137.3855795319622
 20
-7.306890143793364
 30
0.0
 10
135.1510262688776
 20
-7.454849767466424
 30
0.0
 10
134.5436848559801
 20
-7.495064672928538
 30
0.0
 10
133.4843800310749
 20
-8.237874341215478
 30
0.0
 10
133.4781986758611
 20
-8.670306664794098
 30
0.0
 10
133.4120648216947
 20
-13.29501082640783
 30
0.0
 10
133.4781255630574
 20
-17.92339595582492
 30
0.0
 10
133.6314829919206
 20
-22.54668154952231
 30
0.0
 10
133.6469031468619
 20
-23.01151004415522
 30
0.0
 10
134.4663780360991
 20
-23.83263163801066
 30
0.0
 10
134.9246823221648
 20
-23.84110317943353
 30
0.0
 10
139.9823801504181
 20
-23.9345891306687
 30
0.0
 10
145.0424508214784
 20
-23.89987242169913
 30
0.0
 10
150.1952484673614
 20
-23.89987242169913
 30
0.0
  0
SPLINE
  5
80
330
70
100
AcDbEntity
  8
Layer 1
100
AcDbSpline
210
0.0
220
0.0
230
1.0
 70
     9
 71
     3
 72
    17
 73
    13
 74
     0
 42
0.0000000001
 43
0.0000000001
 40
0.0
 40
0.0
 40
0.0
 40
0.0
 40
1.0
 40
1.0
 40
1.0
 40
2.0
 40
2.0
 40
2.0
 40
3.0
 40
3.0
 40
3.0
 40
4.0
 40
4.0
 40
4.0
 40
4.0
 10
127.0559101879563
 20
-166.4454535694095
 30
0.0
 10
127.0559101879563
 20
-169.8086355813927
 30
0.0
 10
127.0559101879563
 20
-173.0058418249427
 30
0.0
 10
127.0559101879563
 20
-176.1686835098716
 30
0.0
 10
134.9059189181134
 20
-176.1686835098716
 30
0.0
 10
142.5517235878114
 20
-176.1686835098716
 30
0.0
 10
150.2183919930104
 20
-176.1686835098716
 30
0.0
 10
150.2183919930104
 20
-172.8210758454153
 30
0.0
 10
150.2183919930104
 20
-169.6680545041905
 30
0.0
 10
150.2183919930104
 20
-166.4454535694095
 30
0.0
 10
142.4192897140162
 20
-166.4454535694095
 30
0.0
 10
134.7719496754417
 20
-166.4454535694095
 30
0.0
 10
127.0559101879563
 20
-166.4454535694095
 30
0.0
  0
SPLINE
  5
81
330
70
100
AcDbEntity
  8
Layer 1
100
AcDbSpline
210
0.0
220
0.0
230
1.0
 70
     9
 71
     3
 72
    20
 73
    16
 74
     0
 42
0.0000000001
 43
0.0000000001
 40
0.0
 40
0.0
 40
0.0
 40
0.0
 40
1.0
 40
1.0
 40
1.0
 40
2.0
 40
2.0
 40
2.0
 40
3.0
 40
3.0
 40
3.0
 40
4.0
 40
4.0
 40
4.0
 40
5.0
 40
5.0
 40
5.0
 40
5.0
 10
153.9526483768024
 20
-201.1850988222411
 30
0.0
 10
156.9125471177977
 20
-200.1978287069509
 30
0.0
 10
159.5027609373105
 20
-199.1502810828056
 30
0.0
 10
162.1873434464169
 20
-198.4812751511799
 30
0.0
 10
166.2552999590822
 20
-197.4675206718807
 30
0.0
 10
169.1015681100436
 20
-195.0387995114763
 30
0.0
 10
171.1109738177478
 20
-191.5012964322145
 30
0.0
 10
172.9238788958451
 20
-188.3097245942548
 30
0.0
 10
173.7093762712635
 20
-184.9018527096342
 30
0.0
 10
173.2882598157573
 20
-181.2933348580345
 30
0.0
 10
166.6778122044752
 20
-181.2933348580345
 30
0.0
 10
160.3372970640899
 20
-181.2933348580345
 30
0.0
 10
153.9526483768024
 20
-181.2933348580345
 30
0.0
 10
153.9526483768024
 20
-187.9293224847937
 30
0.0
 10
153.9526483768024
 20
-194.3669365109783
 30
0.0
 10
153.9526483768024
 20
-201.1850988222411
 30
0.0
  0
SPLINE
  5
82
330
70
100
AcDbEntity
  8
Layer 1
100
AcDbSpline
210
0.0
220
0.0
230
1.0
 70
     9
 71
     3
 72
    29
 73
    25
 74
     0
 42
0.0000000001
 43
0.0000000001
 40
0.0
 40
0.0
 40
0.0
 40
0.0
 40
1.0
 40
1.0
 40
1.0
 40
2.0
 40
2.0
 40
2.0
 40
3.0
 40
3.0
 40
3.0
 40
4.0
 40
4.0
 40
4.0
 40
5.0
 40
5.0
 40
5.0
 40
6.0
 40
6.0
 40
6.0
 40
7.0
 40
7.0
 40
7.0
 40
8.0
 40
8.0
 40
8.0
 40
8.0
 10
112.2789684595832
 20
-68.4634659370824
 30
0.0
 10
112.3612403034903
 20
-70.29085383205407
 30
0.0
 10
112.5152690408227
 20
-71.79813705945939
 30
0.0
 10
112.4802214214236
 20
-73.3010084409792
 30
0.0
 10
112.3841910772024
 20
-77.41909449244538
 30
0.0
 10
112.1447931717378
 20
-81.53435005242455
 30
0.0
 10
112.0810188671422
 20
-85.65256234646927
 30
0.0
 10
112.0046558670898
 20
-90.58351106944639
 30
0.0
 10
111.8860868395041
 20
-95.52293133384704
 30
0.0
 10
112.082248491566
 20
-100.446890204607
 30
0.0
 10
112.403958120649
 20
-108.5223687943469
 30
0.0
 10
112.9629121507994
 20
-116.5884323455011
 30
0.0
 10
113.4351743357342
 20
-124.6576851828388
 30
0.0
 10
113.4464137676334
 20
-124.8498263866636
 30
0.0
 10
113.6153907499929
 20
-125.0327186605587
 30
0.0
 10
113.6925779307405
 20
-125.1841831768597
 30
0.0
 10
115.4430446745624
 20
-125.1841831768597
 30
0.0
 10
117.139839973923
 20
-125.1841831768597
 30
0.0
 10
118.852607097561
 20
-125.1841831768597
 30
0.0
 10
118.852607097561
 20
-106.1854060551622
 30
0.0
 10
118.852607097561
 20
-87.36724884095389
 30
0.0
 10
118.852607097561
 20
-68.4634659370824
 30
0.0
 10
116.5609062085338
 20
-68.4634659370824
 30
0.0
 10
114.4241778766676
 20
-68.4634659370824
 30
0.0
 10
112.2789684595832
 20
-68.4634659370824
 30
0.0
  0
SPLINE
  5
83
330
70
100
AcDbEntity
  8
Layer 1
100
AcDbSpline
210
0.0
220
0.0
230
1.0
 70
     9
 71
     3
 72
    17
 73
    13
 74
     0
 42
0.0000000001
 43
0.0000000001
 40
0.0
 40
0.0
 40
0.0
 40
0.0
 40
1.0
 40
1.0
 40
1.0
 40
2.0
 40
2.0
 40
2.0
 40
3.0
 40
3.0
 40
3.0
 40
4.0
 40
4.0
 40
4.0
 40
4.0
 10
161.5992905204329
 20
-68.51968375040127
 30
0.0
 10
157.0565926341293
 20
-68.51968375040127
 30
0.0
 10
152.7002659308232
 20
-68.51968375040127
 30
0.0
 10
148.5531614849504
 20
-68.51968375040127
 30
0.0
 10
148.5531614849504
 20
-78.0848779161563
 30
0.0
 10
148.5531614849504
 20
-87.45235627161296
 30
0.0
 10
148.5531614849504
 20
-97.14328140078144
 30
0.0
 10
153.0933336562203
 20
-97.14328140078144
 30
0.0
 10
157.2948872009211
 20
-97.14328140078144
 30
0.0
 10
161.5992905204329
 20
-97.14328140078144
 30
0.0
 10
161.5992905204329
 20
-87.66369963599734
 30
0.0
 10
161.5992905204329
 20
-78.19819059649518
 30
0.0
 10
161.5992905204329
 20
-68.51968375040127
 30
0.0
  0
SPLINE
  5
84
330
70
100
AcDbEntity
  8
Layer 1
100
AcDbSpline
210
0.0
220
0.0
230
1.0
 70
     9
 71
     3
 72
    17
 73
    13
 74
     0
 42
0.0000000001
 43
0.0000000001
 40
0.0
 40
0.0
 40
0.0
 40
0.0
 40
1.0
 40
1.0
 40
1.0
 40
2.0
 40
2.0
 40
2.0
 40
3.0
 40
3.0
 40
3.0
 40
4.0
 40
4.0
 40
4.0
 40
4.0
 10
133.9218405214954
 20
-63.78595251175693
 30
0.0
 10
137.6598455981265
 20
-63.78595251175693
 30
0.0
 10
141.1020030382938
 20
-63.78595251175693
 30
0.0
 10
144.5431236059745
 20
-63.78595251175693
 30
0.0
 10
144.5431236059745
 20
-51.89309104717054
 30
0.0
 10
144.5431236059745
 20
-40.18184281983304
 30
0.0
 10
144.5431236059745
 20
-28.40638363068022
 30
0.0
 10
140.9346013045211
 20
-28.40638363068022
 30
0.0
 10
137.4902770667196
 20
-28.40638363068022
 30
0.0
 10
133.9218405214954
 20
-28.40638363068022
 30
0.0
 10
133.9218405214954
 20
-40.25536915504032
 30
0.0
 10
133.9218405214954
 20
-51.96496294017078
 30
0.0
 10
133.9218405214954
 20
-63.78595251175693
 30
0.0
  0
SPLINE
  5
85
330
70
100
AcDbEntity
  8
Layer 1
100
AcDbSpline
210
0.0
220
0.0
230
1.0
 70
     9
 71
     3
 72
    23
 73
    19
 74
     0
 42
0.0000000001
 43
0.0000000001
 40
0.0
 40
0.0
 40
0.0
 40
0.0
 40
1.0
 40
1.0
 40
1.0
 40
2.0
 40
2.0
 40
2.0
 40
3.0
 40
3.0
 40
3.0
 40
4.0
 40
4.0
 40
4.0
 40
5.0
 40
5.0
 40
5.0
 40
6.0
 40
6.0
 40
6.0
 40
6.0
 10
161.584880651505
 20
-63.8360973926363
 30
0.0
 10
161.3137119095665
 20
-57.51100536959017
 30
0.0
 10
161.0592527665598
 20
-51.44817898031529
 30
0.0
 10
160.7795896461665
 20
-45.3865153516275
 30
0.0
 10
160.763770694114
 20
-45.043554133084
 30
0.0
 10
160.5648374021338
 20
-44.69902484883426
 30
0.0
 10
160.4114467401783
 20
-44.37394024378047
 30
0.0
 10
158.5337903045636
 20
-40.39443532130565
 30
0.0
 10
156.7593957341079
 20
-36.36114773839898
 30
0.0
 10
154.7370955864964
 20
-32.45624221304524
 30
0.0
 10
152.295181119161
 20
-27.74106863337722
 30
0.0
 10
152.118567172134
 20
-27.73663685445251
 30
0.0
 10
148.3314834644307
 20
-28.59076423812704
 30
0.0
 10
148.3314834644307
 20
-40.28202959422527
 30
0.0
 10
148.3314834644307
 20
-51.9936997375473
 30
0.0
 10
148.3314834644307
 20
-63.8360973926363
 30
0.0
 10
152.7777655026405
 20
-63.8360973926363
 30
0.0
 10
157.0900118319934
 20
-63.8360973926363
 30
0.0
 10
161.584880651505
 20
-63.8360973926363
 30
0.0
  0
SPLINE
  5
86
330
70
100
AcDbEntity
  8
Layer 1
100
AcDbSpline
210
0.0
220
0.0
230
1.0
 70
     9
 71
     3
 72
    26
 73
    22
 74
     0
 42
0.0000000001
 43
0.0000000001
 40
0.0
 40
0.0
 40
0.0
 40
0.0
 40
1.0
 40
1.0
 40
1.0
 40
2.0
 40
2.0
 40
2.0
 40
3.0
 40
3.0
 40
3.0
 40
4.0
 40
4.0
 40
4.0
 40
5.0
 40
5.0
 40
5.0
 40
6.0
 40
6.0
 40
6.0
 40
7.0
 40
7.0
 40
7.0
 40
7.0
 10
122.6180161823058
 20
-125.1630674445907
 30
0.0
 10
125.7574799689456
 20
-125.1630674445907
 30
0.0
 10
128.6148147397246
 20
-125.1630674445907
 30
0.0
 10
131.6385941312117
 20
-125.1630674445907
 30
0.0
 10
131.6385941312117
 20
-124.1934712902309
 30
0.0
 10
131.6386007778302
 20
-123.4059833769124
 30
0.0
 10
131.6386007778302
 20
-122.6184954635939
 30
0.0
 10
131.6386007778302
 20
-112.1863270707583
 30
0.0
 10
131.5489578339968
 20
-101.7527301434873
 30
0.0
 10
131.7151432365824
 20
-91.3232062004455
 30
0.0
 10
131.7478977725959
 20
-89.2674255487034
 30
0.0
 10
132.740111630269
 20
-87.21942542637846
 30
0.0
 10
133.3474397499294
 20
-85.18501299206148
 30
0.0
 10
133.5224252754212
 20
-84.5988487690362
 30
0.0
 10
133.8985840033315
 20
-84.07270292536475
 30
0.0
 10
134.4060998528393
 20
-83.08303420109174
 30
0.0
 10
130.2659876496383
 20
-83.08303420109174
 30
0.0
 10
126.5056632280534
 20
-83.08303420109174
 30
0.0
 10
122.6180161823058
 20
-83.08303420109174
 30
0.0
 10
122.6180161823058
 20
-97.02421471662109
 30
0.0
 10
122.6180161823058
 20
-111.0392870063994
 30
0.0
 10
122.6180161823058
 20
-125.1630674445907
 30
0.0
  0
SPLINE
  5
87
330
70
100
AcDbEntity
  8
Layer 1
100
AcDbSpline
210
0.0
220
0.0
230
1.0
 70
     9
 71
     3
 72
    32
 73
    28
 74
     0
 42
0.0000000001
 43
0.0000000001
 40
0.0
 40
0.0
 40
0.0
 40
0.0
 40
1.0
 40
1.0
 40
1.0
 40
2.0
 40
2.0
 40
2.0
 40
3.0
 40
3.0
 40
3.0
 40
4.0
 40
4.0
 40
4.0
 40
5.0
 40
5.0
 40
5.0
 40
6.0
 40
6.0
 40
6.0
 40
7.0
 40
7.0
 40
7.0
 40
8.0
 40
8.0
 40
8.0
 40
9.0
 40
9.0
 40
9.0
 40
9.0
 10
101.9884942249259
 20
-180.2596074740145
 30
0.0
 10
102.198853054124
 20
-181.5083857676071
 30
0.0
 10
102.3248596478217
 20
-182.3493473792575
 30
0.0
 10
102.4836739504807
 20
-183.1840765941595
 30
0.0
 10
103.5120321196072
 20
-188.589106063873
 30
0.0
 10
105.826025767114
 20
-193.4950122459683
 30
0.0
 10
109.3476169450854
 20
-197.602254724414
 30
0.0
 10
112.1145709973763
 20
-200.8293605259283
 30
0.0
 10
115.4388307184278
 20
-203.6787485338514
 30
0.0
 10
119.7226095807055
 20
-204.9810271031618
 30
0.0
 10
120.3367637775747
 20
-205.1677199430905
 30
0.0
 10
120.9845299242453
 20
-205.3960329677058
 30
0.0
 10
121.4841828240567
 20
-205.7782556280302
 30
0.0
 10
122.9364025021338
 20
-206.8891504489831
 30
0.0
 10
123.3673758928894
 20
-206.3202748148077
 30
0.0
 10
123.365867110488
 20
-204.7736437691207
 30
0.0
 10
123.3586621760237
 20
-197.3847188293575
 30
0.0
 10
123.356615017523
 20
-189.9957673122093
 30
0.0
 10
123.3666181783794
 20
-182.6068556611388
 30
0.0
 10
123.3688447955799
 20
-180.9626989017185
 30
0.0
 10
122.5238734777412
 20
-180.2636472365126
 30
0.0
 10
120.9468834770094
 20
-180.2690557343309
 30
0.0
 10
118.8454353961898
 20
-180.2762449169348
 30
0.0
 10
116.743920849185
 20
-180.261122384951
 30
0.0
 10
114.6424395352727
 20
-180.2601655990963
 30
0.0
 10
110.5299972049256
 20
-180.258291893464
 30
0.0
 10
106.4175548745782
 20
-180.2596074740145
 30
0.0
 10
101.9884942249259
 20
-180.2596074740145
 30
0.0
  0
SPLINE
  5
88
330
70
100
AcDbEntity
  8
Layer 1
100
AcDbSpline
210
0.0
220
0.0
230
1.0
 70
     9
 71
     3
 72
    17
 73
    13
 74
     0
 42
0.0000000001
 43
0.0000000001
 40
0.0
 40
0.0
 40
0.0
 40
0.0
 40
1.0
 40
1.0
 40
1.0
 40
2.0
 40
2.0
 40
2.0
 40
3.0
 40
3.0
 40
3.0
 40
4.0
 40
4.0
 40
4.0
 40
4.0
 10
127.0521880815915
 20
-129.3829581687522
 30
0.0
 10
127.0521880815915
 20
-140.4674684729075
 30
0.0
 10
127.0521880815915
 20
-151.3616315467149
 30
0.0
 10
127.0521880815915
 20
-162.1869990598198
 30
0.0
 10
131.4206515102948
 20
-162.1869990598198
 30
0.0
 10
135.5876891650769
 20
-162.1869990598198
 30
0.0
 10
140.0475768313745
 20
-162.1869990598198
 30
0.0
 10
140.0475768313745
 20
-151.1580886447865
 30
0.0
 10
140.0475768313745
 20
-140.3268209522437
 30
0.0
 10
140.0475768313745
 20
-129.3829581687522
 30
0.0
 10
135.7719533700075
 20
-129.3829581687522
 30
0.0
 10
131.5116503643044
 20
-129.3829581687522
 30
0.0
 10
127.0521880815915
 20
-129.3829581687522
 30
0.0
  0
SPLINE
  5
89
330
70
100
AcDbEntity
  8
Layer 1
100
AcDbSpline
210
0.0
220
0.0
230
1.0
 70
     9
 71
     3
 72
    17
 73
    13
 74
     0
 42
0.0000000001
 43
0.0000000001
 40
0.0
 40
0.0
 40
0.0
 40
0.0
 40
1.0
 40
1.0
 40
1.0
 40
2.0
 40
2.0
 40
2.0
 40
3.0
 40
3.0
 40
3.0
 40
4.0
 40
4.0
 40
4.0
 40
4.0
 10
113.51116512515
 20
-129.3930708636905
 30
0.0
 10
112.7860190457951
 20
-141.2333091062596
 30
0.0
 10
108.4201743847845
 20
-151.8136331309809
 30
0.0
 10
104.1979099768095
 20
-162.4548858104877
 30
0.0
 10
110.6504871052603
 20
-162.4548858104877
 30
0.0
 10
116.8866370418146
 20
-162.4548858104877
 30
0.0
 10
123.1732481060911
 20
-162.4548858104877
 30
0.0
 10
123.1732481060911
 20
-151.215376197846
 30
0.0
 10
123.1732481060911
 20
-140.3273259225559
 30
0.0
 10
123.1732481060911
 20
-129.3930708636905
 30
0.0
 10
119.8878910431738
 20
-129.3930708636905
 30
0.0
 10
116.7928532546496
 20
-129.3930708636905
 30
0.0
 10
113.51116512515
 20
-129.3930708636905
 30
0.0
  0
SPLINE
  5
8A
330
70
100
AcDbEntity
  8
Layer 1
100
AcDbSpline
210
0.0
220
0.0
230
1.0
 70
     9
 71
     3
 72
    23
 73
    19
 74
     0
 42
0.0000000001
 43
0.0000000001
 40
0.0
 40
0.0
 40
0.0
 40
0.0
 40
1.0
 40
1.0
 40
1.0
 40
2.0
 40
2.0
 40
2.0
 40
3.0
 40
3.0
 40
3.0
 40
4.0
 40
4.0
 40
4.0
 40
5.0
 40
5.0
 40
5.0
 40
6.0
 40
6.0
 40
6.0
 40
6.0
 10
150.3658538712556
 20
-181.2689501074285
 30
0.0
 10
142.3833115680256
 20
-181.2689501074285
 30
0.0
 10
134.6919110953539
 20
-181.2689501074285
 30
0.0
 10
126.8568107305131
 20
-181.2689501074285
 30
0.0
 10
126.8568107305131
 20
-189.6521748807754
 30
0.0
 10
126.8161799515661
 20
-197.8333716631318
 30
0.0
 10
126.9476633589154
 20
-206.0118043974628
 30
0.0
 10
126.9564834216772
 20
-206.5607204156107
 30
0.0
 10
128.2328668070932
 20
-207.5006562084701
 30
0.0
 10
128.9773811327836
 20
-207.5622758752606
 30
0.0
 10
135.9188835187724
 20
-208.1367859150262
 30
0.0
 10
142.5938830890151
 20
-206.9680454159319
 30
0.0
 10
148.897795301271
 20
-203.9776378039553
 30
0.0
 10
149.5367879115096
 20
-203.6745227296591
 30
0.0
 10
150.2934323159794
 20
-202.7617490241237
 30
0.0
 10
150.3028439277882
 20
-202.1216991533007
 30
0.0
 10
150.404005461499
 20
-195.2457974734365
 30
0.0
 10
150.3658538712556
 20
-188.3678360462445
 30
0.0
 10
150.3658538712556
 20
-181.2689501074285
 30
0.0
  0
SPLINE
  5
8B
330
70
100
AcDbEntity
  8
Layer 1
100
AcDbSpline
210
0.0
220
0.0
230
1.0
 70
     9
 71
     3
 72
    17
 73
    13
 74
     0
 42
0.0000000001
 43
0.0000000001
 40
0.0
 40
0.0
 40
0.0
 40
0.0
 40
1.0
 40
1.0
 40
1.0
 40
2.0
 40
2.0
 40
2.0
 40
3.0
 40
3.0
 40
3.0
 40
4.0
 40
4.0
 40
4.0
 40
4.0
 10
135.2589208271373
 20
-101.2986953892796
 30
0.0
 10
135.2589208271373
 20
-109.2150153098027
 30
0.0
 10
135.2589208271373
 20
-117.1415343017642
 30
0.0
 10
135.2589208271373
 20
-124.9434319361307
 30
0.0
 10
144.9595342555763
 20
-124.9434319361307
 30
0.0
 10
154.5295083972164
 20
-124.9434319361307
 30
0.0
 10
164.0686821086857
 20
-124.9434319361307
 30
0.0
 10
164.0686821086857
 20
-116.9223904749244
 30
0.0
 10
164.0686821086857
 20
-109.257366372572
 30
0.0
 10
164.0686821086857
 20
-101.2986953892796
 30
0.0
 10
154.4618857005042
 20
-101.2986953892796
 30
0.0
 10
144.9980248233636
 20
-101.2986953892796
 30
0.0
 10
135.2589208271373
 20
-101.2986953892796
 30
0.0
  0
SPLINE
  5
8C
330
70
100
AcDbEntity
  8
Layer 1
100
AcDbSpline
210
0.0
220
0.0
230
1.0
 70
     9
 71
     3
 72
    17
 73
    13
 74
     0
 42
0.0000000001
 43
0.0000000001
 40
0.0
 40
0.0
 40
0.0
 40
0.0
 40
1.0
 40
1.0
 40
1.0
 40
2.0
 40
2.0
 40
2.0
 40
3.0
 40
3.0
 40
3.0
 40
4.0
 40
4.0
 40
4.0
 40
4.0
 10
143.7446320913706
 20
-129.338879575967
 30
0.0
 10
143.7446320913706
 20
-140.1740408553922
 30
0.0
 10
143.7446320913706
 20
-150.7635606552741
 30
0.0
 10
143.7446320913706
 20
-161.388920058636
 30
0.0
 10
151.6931968807819
 20
-161.388920058636
 30
0.0
 10
159.6193426259618
 20
-161.388920058636
 30
0.0
 10
167.8568691550611
 20
-161.388920058636
 30
0.0
 10
163.9142146945316
 20
-150.8935506446104
 30
0.0
 10
164.2871431658462
 20
-140.1193047312781
 30
0.0
 10
164.3153248283249
 20
-129.338879575967
 30
0.0
 10
157.3698876441788
 20
-129.338879575967
 30
0.0
 10
150.7925667795468
 20
-129.338879575967
 30
0.0
 10
143.7446320913706
 20
-129.338879575967
 30
0.0
  0
SPLINE
  5
8D
330
70
100
AcDbEntity
  8
Layer 1
100
AcDbSpline
210
0.0
220
0.0
230
1.0
 70
     9
 71
     3
 72
    41
 73
    37
 74
     0
 42
0.0000000001
 43
0.0000000001
 40
0.0
 40
0.0
 40
0.0
 40
0.0
 40
1.0
 40
1.0
 40
1.0
 40
2.0
 40
2.0
 40
2.0
 40
3.0
 40
3.0
 40
3.0
 40
4.0
 40
4.0
 40
4.0
 40
5.0
 40
5.0
 40
5.0
 40
6.0
 40
6.0
 40
6.0
 40
7.0
 40
7.0
 40
7.0
 40
8.0
 40
8.0
 40
8.0
 40
9.0
 40
9.0
 40
9.0
 40
10.0
 40
10.0
 40
10.0
 40
11.0
 40
11.0
 40
11.0
 40
12.0
 40
12.0
 40
12.0
 40
12.0
 10
165.1844632510637
 20
-93.12992353434436
 30
0.0
 10
166.3060801244923
 20
-85.394841445509
 30
0.0
 10
169.7941191722289
 20
-78.6502054694538
 30
0.0
 10
173.4496397131606
 20
-71.92687791170776
 30
0.0
 10
175.3403634007648
 20
-68.44939985614677
 30
0.0
 10
176.7219694037997
 20
-64.70210154516895
 30
0.0
 10
176.4832228669487
 20
-60.59152360492463
 30
0.0
 10
176.2072951461575
 20
-55.84055693220009
 30
0.0
 10
175.9081840200059
 20
-51.09083939656409
 30
0.0
 10
175.653844516133
 20
-46.33872325194471
 30
0.0
 10
175.1835696701327
 20
-37.55194746692538
 30
0.0
 10
173.4335548963683
 20
-29.03671282299182
 30
0.0
 10
169.897500676521
 20
-20.97074229268436
 30
0.0
 10
167.3882027907398
 20
-15.24683902054091
 30
0.0
 10
163.7161720494307
 20
-10.59231835528992
 30
0.0
 10
157.103464587856
 20
-9.247982735530468
 30
0.0
 10
156.3363650524715
 20
-9.0920332855344
 30
0.0
 10
155.5738118041464
 20
-8.909616082394476
 30
0.0
 10
154.8023255005458
 20
-8.780149335321894
 30
0.0
 10
152.3956248180722
 20
-8.37627607285929
 30
0.0
 10
149.9856539992923
 20
-7.991935527179844
 30
0.0
 10
146.9617483220529
 20
-7.499923351097667
 30
0.0
 10
148.3363620824167
 20
-10.39312417795861
 30
0.0
 10
149.3645806725543
 20
-12.57857921259177
 30
0.0
 10
150.4108248920887
 20
-14.75537666410789
 30
0.0
 10
153.7230077073091
 20
-21.64664173350702
 30
0.0
 10
157.0685166677341
 20
-28.52206169827103
 30
0.0
 10
160.3483969170002
 20
-35.42863035808817
 30
0.0
 10
162.3496937501227
 20
-39.64284016623675
 30
0.0
 10
164.7362020055654
 20
-43.68505442828226
 30
0.0
 10
164.7530844165787
 20
-48.63235820946625
 30
0.0
 10
164.7904118261257
 20
-59.56814811230643
 30
0.0
 10
165.0426642917876
 20
-70.50308753883124
 30
0.0
 10
165.1768063465406
 20
-81.43873791040096
 30
0.0
 10
165.2246088268591
 20
-85.33524830431318
 30
0.0
 10
165.1844632510637
 20
-89.23282843796544
 30
0.0
 10
165.1844632510637
 20
-93.12992353434436
 30
0.0
  0
SPLINE
  5
8E
330
70
100
AcDbEntity
  8
Layer 1
100
AcDbSpline
210
0.0
220
0.0
230
1.0
 70
     9
 71
     3
 72
    23
 73
    19
 74
     0
 42
0.0000000001
 43
0.0000000001
 40
0.0
 40
0.0
 40
0.0
 40
0.0
 40
1.0
 40
1.0
 40
1.0
 40
2.0
 40
2.0
 40
2.0
 40
3.0
 40
3.0
 40
3.0
 40
4.0
 40
4.0
 40
4.0
 40
5.0
 40
5.0
 40
5.0
 40
6.0
 40
6.0
 40
6.0
 40
6.0
 10
129.8267392188384
 20
-7.755742307954035
 30
0.0
 10
125.2849186861779
 20
-8.058397261275072
 30
0.0
 10
121.0914009032551
 20
-7.543266082540196
 30
0.0
 10
116.7933052247084
 20
-8.985504482680866
 30
0.0
 10
110.5705814575428
 20
-11.07355174072621
 30
0.0
 10
107.6207523435891
 20
-15.82553499842141
 30
0.0
 10
105.6245268803891
 20
-21.28827892043887
 30
0.0
 10
103.8053473944183
 20
-26.26655864367342
 30
0.0
 10
104.1315301977579
 20
-31.47847683501487
 30
0.0
 10
105.8629743194068
 20
-36.58071680339676
 30
0.0
 10
107.3122163123917
 20
-40.85137365480892
 30
0.0
 10
108.5408902701485
 20
-45.19683255590172
 30
0.0
 10
109.9427352265444
 20
-49.75462150679194
 30
0.0
 10
116.530311823536
 20
-49.75462150679194
 30
0.0
 10
123.154099198166
 20
-49.75462150679194
 30
0.0
 10
129.8267392188384
 20
-49.75462150679194
 30
0.0
 10
129.8267392188384
 20
-35.80382994446303
 30
0.0
 10
129.8267392188384
 20
-21.96876296014896
 30
0.0
 10
129.8267392188384
 20
-7.755742307954035
 30
0.0
  0
SPLINE
  5
8F
330
70
100
AcDbEntity
  8
Layer 1
100
AcDbSpline
210
0.0
220
0.0
230
1.0
 70
     9
 71
     3
 72
    98
 73
    94
 74
     0
 42
0.0000000001
 43
0.0000000001
 40
0.0
 40
0.0
 40
0.0
 40
0.0
 40
1.0
 40
1.0
 40
1.0
 40
2.0
 40
2.0
 40
2.0
 40
3.0
 40
3.0
 40
3.0
 40
4.0
 40
4.0
 40
4.0
 40
5.0
 40
5.0
 40
5.0
 40
6.0
 40
6.0
 40
6.0
 40
7.0
 40
7.0
 40
7.0
 40
8.0
 40
8.0
 40
8.0
 40
9.0
 40
9.0
 40
9.0
 40
10.0
 40
10.0
 40
10.0
 40
11.0
 40
11.0
 40
11.0
 40
12.0
 40
12.0
 40
12.0
 40
13.0
 40
13.0
 40
13.0
 40
14.0
 40
14.0
 40
14.0
 40
15.0
 40
15.0
 40
15.0
 40
16.0
 40
16.0
 40
16.0
 40
17.0
 40
17.0
 40
17.0
 40
18.0
 40
18.0
 40
18.0
 40
19.0
 40
19.0
 40
19.0
 40
20.0
 40
20.0
 40
20.0
 40
21.0
 40
21.0
 40
21.0
 40
22.0
 40
22.0
 40
22.0
 40
23.0
 40
23.0
 40
23.0
 40
24.0
 40
24.0
 40
24.0
 40
25.0
 40
25.0
 40
25.0
 40
26.0
 40
26.0
 40
26.0
 40
27.0
 40
27.0
 40
27.0
 40
28.0
 40
28.0
 40
28.0
 40
29.0
 40
29.0
 40
29.0
 40
30.0
 40
30.0
 40
30.0
 40
31.0
 40
31.0
 40
31.0
 40
31.0
 10
108.5447453088839
 20
-95.35088263297399
 30
0.0
 10
100.6693797291145
 20
-95.35088263297399
 30
0.0
 10
92.77044524011115
 20
-95.35088263297399
 30
0.0
 10
84.73393571789545
 20
-95.35088263297399
 30
0.0
 10
84.73393571789545
 20
-94.06273658806183
 30
0.0
 10
84.73393571789545
 20
-92.86971100355396
 30
0.0
 10
84.73393571789545
 20
-91.49526154566483
 30
0.0
 10
92.60891579379148
 20
-91.49526154566483
 30
0.0
 10
100.5611129602179
 20
-91.49526154566483
 30
0.0
 10
108.7626015237603
 20
-91.49526154566483
 30
0.0
 10
108.9880947033035
 20
-87.02808818844534
 30
0.0
 10
109.4080679404263
 20
-82.71699052379949
 30
0.0
 10
109.3859745805017
 20
-78.40815858121349
 30
0.0
 10
109.3144569653428
 20
-64.45772249140685
 30
0.0
 10
107.6617088068429
 20
-50.77117990019431
 30
0.0
 10
102.8907660409327
 20
-37.51642346989036
 30
0.0
 10
99.69249962034194
 20
-28.63088944491522
 30
0.0
 10
101.1211238027112
 20
-20.24789722368486
 30
0.0
 10
106.8072461177729
 20
-12.54360503520623
 30
0.0
 10
111.0186233646301
 20
-6.837480372445852
 30
0.0
 10
116.5400757061261
 20
-4.240614895112646
 30
0.0
 10
123.5317201821483
 20
-4.29789497328283
 30
0.0
 10
131.9441657705542
 20
-4.366815115477395
 30
0.0
 10
140.3576681713031
 20
-4.29540085182259
 30
0.0
 10
148.7704793237275
 20
-4.335226232487922
 30
0.0
 10
153.2652019176324
 20
-4.356503090152689
 30
0.0
 10
157.6150016415622
 20
-5.262258704998768
 30
0.0
 10
161.69730155697
 20
-7.126823378126386
 30
0.0
 10
166.4583009815903
 20
-9.30137836279532
 30
0.0
 10
169.4783250336198
 20
-13.21143159537855
 30
0.0
 10
171.7740404802259
 20
-17.77849273141047
 30
0.0
 10
176.811472768645
 20
-27.79994418518184
 30
0.0
 10
178.3719392757631
 20
-38.61890654853636
 30
0.0
 10
179.1122396453186
 20
-49.62443218706893
 30
0.0
 10
179.3116913735428
 20
-52.58926571046597
 30
0.0
 10
179.3156261717004
 20
-55.56933471973266
 30
0.0
 10
179.5786461593467
 20
-58.52736443260644
 30
0.0
 10
180.1291456907537
 20
-64.71878549851294
 30
0.0
 10
178.0936320655454
 20
-70.26151904351795
 30
0.0
 10
175.0911683796171
 20
-75.4214983805022
 30
0.0
 10
171.1041809736317
 20
-82.27344054791808
 30
0.0
 10
168.8566269247424
 20
-89.59723096174228
 30
0.0
 10
167.8044140417865
 20
-97.39883624487555
 30
0.0
 10
166.5760923548104
 20
-106.5060090486944
 30
0.0
 10
166.9134348306266
 20
-115.6092151778233
 30
0.0
 10
167.5121622259365
 20
-124.8938916907569
 30
0.0
 10
176.5294966250102
 20
-124.8938916907569
 30
0.0
 10
185.5589810427187
 20
-124.8938916907569
 30
0.0
 10
194.6956222440331
 20
-124.8938916907569
 30
0.0
 10
194.6956222440331
 20
-126.250481146022
 30
0.0
 10
194.6956222440331
 20
-127.4425167229443
 30
0.0
 10
194.6956222440331
 20
-128.9459196521609
 30
0.0
 10
185.7220624744607
 20
-128.9459196521609
 30
0.0
 10
176.7602007534644
 20
-128.9459196521609
 30
0.0
 10
167.5284730277581
 20
-128.9459196521609
 30
0.0
 10
167.5284730277581
 20
-131.6886924807306
 30
0.0
 10
167.6226423187965
 20
-134.1324564409639
 30
0.0
 10
167.5121090529881
 20
-136.566931605189
 30
0.0
 10
167.0421931243874
 20
-146.9163114441948
 30
0.0
 10
169.1989011914929
 20
-156.7917367790414
 30
0.0
 10
172.572831092663
 20
-166.502422193851
 30
0.0
 10
174.5031952130557
 20
-172.0583049000141
 30
0.0
 10
176.9079683761614
 20
-177.528661581707
 30
0.0
 10
176.5040533693568
 20
-183.6587221103237
 30
0.0
 10
176.0183716616519
 20
-191.0296940266167
 30
0.0
 10
171.5766359105027
 20
-199.9214504818219
 30
0.0
 10
162.7116818873714
 20
-201.9587930728189
 30
0.0
 10
160.1676221867862
 20
-202.5434822509844
 30
0.0
 10
157.6562505560298
 20
-203.4194994332623
 30
0.0
 10
155.2600116510894
 20
-204.461080434508
 30
0.0
 10
152.0874875839856
 20
-205.8401410686697
 30
0.0
 10
149.1505529099398
 20
-207.8143756593235
 30
0.0
 10
145.9117952893908
 20
-208.9720732550106
 30
0.0
 10
142.8944298847647
 20
-210.0506233985925
 30
0.0
 10
139.6426116588457
 20
-210.6588335623567
 30
0.0
 10
136.4433947718081
 20
-211.0006851750821
 30
0.0
 10
131.594620103155
 20
-211.5187847154881
 30
0.0
 10
126.6480271499019
 20
-211.4369795248974
 30
0.0
 10
122.0313125198795
 20
-209.7505780122478
 30
0.0
 10
113.5343020041808
 20
-206.6468178538552
 30
0.0
 10
106.7747109201705
 20
-201.4509656916597
 30
0.0
 10
102.7226198858865
 20
-193.0286588738797
 30
0.0
 10
98.96157098288433
 20
-185.2112932015263
 30
0.0
 10
97.42012045132105
 20
-177.0504281185865
 30
0.0
 10
99.15143828721824
 20
-168.6113908370382
 30
0.0
 10
100.1384345493618
 20
-163.8004589397302
 30
0.0
 10
102.2536610703511
 20
-159.2027308237462
 30
0.0
 10
104.0368889968054
 20
-154.5768173911208
 30
0.0
 10
108.1232632893596
 20
-143.9762546878303
 30
0.0
 10
111.2256987642844
 20
-133.2240812926224
 30
0.0
 10
110.3256070391489
 20
-121.6629454571312
 30
0.0
 10
109.6460368229117
 20
-112.9344538771035
 30
0.0
 10
109.1368593187769
 20
-104.1926868933402
 30
0.0
 10
108.5447453088839
 20
-95.35088263297399
 30
0.0
  0
HATCH
  5
90
330
70
100
AcDbEntity
  8
Layer 1
 62
    18
420
   591880
440
 33554687
100
AcDbHatch
 10
0.0
 20
0.0
 30
0.0
210
0.0
220
0.0
230
1.0
  2
SOLID
 70
     1
 71
     1
 91
       23
 92
        1
 93
        1
 72
     4
 94
        3
 73
     0
 74
     0
 95
       17
 96
       13
 40
0.0
 40
0.0
 40
0.0
 40
0.0
 40
1.0
 40
1.0
 40
1.0
 40
2.0
 40
2.0
 40
2.0
 40
3.0
 40
3.0
 40
3.0
 40
4.0
 40
4.0
 40
4.0
 40
4.0
 10
123.023194046627
 20
-63.81963270271729
 10
125.546004507838
 20
-63.81963270271729
 10
127.8222653020682
 20
-63.81963270271729
 10
130.1122247770461
 20
-63.81963270271729
 10
130.1122247770461
 20
-60.47220443560819
 10
130.1122247770461
 20
-57.27701142896132
 10
130.1122247770461
 20
-54.13840831902197
 10
127.6167983840932
 20
-54.13840831902197
 10
125.343827666025
 20
-54.13840831902197
 10
123.023194046627
 20
-54.13840831902197
 10
123.023194046627
 20
-57.42933306592433
 10
123.023194046627
 20
-60.52387751611703
 10
123.023194046627
 20
-63.81963270271729
 97
        0
 97
        1
330
79
 92
        1
 93
        1
 72
     4
 94
        3
 73
     0
 74
     0
 95
       17
 96
       13
 40
0.0
 40
0.0
 40
0.0
 40
0.0
 40
1.0
 40
1.0
 40
1.0
 40
2.0
 40
2.0
 40
2.0
 40
3.0
 40
3.0
 40
3.0
 40
4.0
 40
4.0
 40
4.0
 40
4.0
 10
119.3617447219852
 20
-53.98562822217014
 10
116.283310186497
 20
-53.81281542148252
 10
113.4113462083786
 20
-53.65159036059266
 10
110.4289686035854
 20
-53.48416612468479
 10
110.9451317037738
 20
-57.23931140854136
 10
111.4003120791398
 20
-60.55081369566977
 10
111.8447249325209
 20
-63.78393927485382
 10
114.4561215252228
 20
-63.78393927485382
 10
116.8723335187831
 20
-63.78393927485382
 10
119.3617447219852
 20
-63.78393927485382
 10
119.3617447219852
 20
-60.50890115974974
 10
119.3617447219852
 20
-57.41821043036136
 10
119.3617447219852
 20
-53.98562822217014
 97
        0
 97
        1
330
7A
 92
        1
 93
        1
 72
     4
 94
        3
 73
     0
 74
     0
 95
       20
 96
       16
 40
0.0
 40
0.0
 40
0.0
 40
0.0
 40
1.0
 40
1.0
 40
1.0
 40
2.0
 40
2.0
 40
2.0
 40
3.0
 40
3.0
 40
3.0
 40
4.0
 40
4.0
 40
4.0
 40
5.0
 40
5.0
 40
5.0
 40
5.0
 10
144.8923103559742
 20
-70.97365342642021
 10
144.6978369450128
 20
-70.94265090698417
 10
144.5033701806706
 20
-70.91165503189441
 10
144.3088967697099
 20
-70.88065251245868
 10
141.7217403947112
 20
-76.33645143159537
 10
139.333929402041
 20
-81.89960305251675
 10
136.4730918633071
 20
-87.208003795236
 10
134.7409099670036
 20
-90.42213983293978
 10
135.2350195869783
 20
-93.58124739529662
 10
135.2086790378264
 20
-96.92538006668328
 10
138.5939879498847
 20
-96.92538006668328
 10
141.7415938441982
 20
-96.92538006668328
 10
144.8923103559742
 20
-96.92538006668328
 10
144.8923103559742
 20
-88.17150043977118
 10
144.8923103559742
 20
-79.57257361092239
 10
144.8923103559742
 20
-70.97365342642021
 97
        0
 97
        1
330
7B
 92
        1
 93
        1
 72
     4
 94
        3
 73
     0
 74
     0
 95
       20
 96
       16
 40
0.0
 40
0.0
 40
0.0
 40
0.0
 40
1.0
 40
1.0
 40
1.0
 40
2.0
 40
2.0
 40
2.0
 40
3.0
 40
3.0
 40
3.0
 40
4.0
 40
4.0
 40
4.0
 40
5.0
 40
5.0
 40
5.0
 40
5.0
 10
122.6751172819185
 20
-68.45439640449964
 10
122.6751172819185
 20
-72.02773244289466
 10
122.6751172819185
 20
-75.31697617020485
 10
122.6751172819185
 20
-78.82210135036412
 10
125.8797179299484
 20
-78.82210135036412
 10
129.0023325386676
 20
-78.35869806799386
 10
131.9141828744591
 20
-78.94368624173913
 10
135.2773651935004
 20
-79.61934316392514
 10
136.9249024030893
 20
-78.53002253512973
 10
138.0435615312817
 20
-75.56291000098092
 10
138.940855030025
 20
-73.1829649861358
 10
140.1218195601225
 20
-70.90990092449399
 10
141.2382853042068
 20
-68.45439640449964
 10
134.8720809832828
 20
-68.45439640449964
 10
128.8223487560566
 20
-68.45439640449964
 10
122.6751172819185
 20
-68.45439640449964
 97
        0
 97
        1
330
7C
 92
        1
 93
        1
 72
     4
 94
        3
 73
     0
 74
     0
 95
       20
 96
       16
 40
0.0
 40
0.0
 40
0.0
 40
0.0
 40
1.0
 40
1.0
 40
1.0
 40
2.0
 40
2.0
 40
2.0
 40
3.0
 40
3.0
 40
3.0
 40
4.0
 40
4.0
 40
4.0
 40
5.0
 40
5.0
 40
5.0
 40
5.0
 10
172.7208512868628
 20
-176.5970710876922
 10
171.5705343147115
 20
-173.1210149222214
 10
170.5469151845821
 20
-169.9154368024409
 10
169.4147301877236
 20
-166.7486483758606
 10
169.2728514690256
 20
-166.3518081538653
 10
168.5539266245957
 20
-165.9053745317266
 10
168.1088025830341
 20
-165.9120321666337
 10
163.4330925671238
 20
-165.9818908227309
 10
158.7586719952042
 20
-166.1393884053943
 10
153.9979783150356
 20
-166.2751058211675
 10
153.9979783150356
 20
-169.8677968400852
 10
153.9979783150356
 20
-173.1579309097879
 10
153.9979783150356
 20
-176.5970710876922
 10
160.1904333815099
 20
-176.5970710876922
 10
166.2446786627045
 20
-176.5970710876922
 10
172.7208512868628
 20
-176.5970710876922
 97
        0
 97
        1
330
7D
 92
        1
 93
        1
 72
     4
 94
        3
 73
     0
 74
     0
 95
       17
 96
       13
 40
0.0
 40
0.0
 40
0.0
 40
0.0
 40
1.0
 40
1.0
 40
1.0
 40
2.0
 40
2.0
 40
2.0
 40
3.0
 40
3.0
 40
3.0
 40
4.0
 40
4.0
 40
4.0
 40
4.0
 10
101.3563409851339
 20
-176.1267975513368
 10
109.0086593409713
 20
-176.1267975513368
 10
116.1149513396586
 20
-176.1267975513368
 10
123.2010176782222
 20
-176.1267975513368
 10
123.2010176782222
 20
-172.9221629287197
 10
123.2010176782222
 20
-169.9176028593067
 10
123.2010176782222
 20
-166.8463601312881
 10
116.2695450395641
 20
-166.8463601312881
 10
109.5001302533977
 20
-166.8463601312881
 10
102.3944497436131
 20
-166.8463601312881
 10
102.0500684987956
 20
-169.9250843931441
 10
101.7176777537684
 20
-172.8965157523323
 10
101.3563409851339
 20
-176.1267975513368
 97
        0
 97
        1
330
7E
 92
        1
 93
        1
 72
     4
 94
        3
 73
     0
 74
     0
 95
       29
 96
       25
 40
0.0
 40
0.0
 40
0.0
 40
0.0
 40
1.0
 40
1.0
 40
1.0
 40
2.0
 40
2.0
 40
2.0
 40
3.0
 40
3.0
 40
3.0
 40
4.0
 40
4.0
 40
4.0
 40
5.0
 40
5.0
 40
5.0
 40
6.0
 40
6.0
 40
6.0
 40
7.0
 40
7.0
 40
7.0
 40
8.0
 40
8.0
 40
8.0
 40
8.0
 10
150.1952484673614
 20
-23.89987242169913
 10
150.1952484673614
 20
-23.40963594714296
 10
150.2418412631112
 20
-23.24914840868284
 10
150.1885486759043
 20
-23.13542710105167
 10
147.8688921094271
 20
-18.1852728953421
 10
145.5582616508862
 20
-13.23063873919739
 10
143.1808326763269
 20
-8.308254578490528
 10
142.9793736693129
 20
-7.891150761628341
 10
142.3338806661724
 20
-7.451886389054897
 10
141.8784011929731
 20
-7.433871905381454
 10
139.6376732212935
 20
-7.345246293402145
 10
137.3855795319622
 20
-7.306890143793364
 10
135.1510262688776
 20
-7.454849767466424
 10
134.5436848559801
 20
-7.495064672928538
 10
133.4843800310749
 20
-8.237874341215478
 10
133.4781986758611
 20
-8.670306664794098
 10
133.4120648216947
 20
-13.29501082640783
 10
133.4781255630574
 20
-17.92339595582492
 10
133.6314829919206
 20
-22.54668154952231
 10
133.6469031468619
 20
-23.01151004415522
 10
134.4663780360991
 20
-23.83263163801066
 10
134.9246823221648
 20
-23.84110317943353
 10
139.9823801504181
 20
-23.9345891306687
 10
145.0424508214784
 20
-23.89987242169913
 10
150.1952484673614
 20
-23.89987242169913
 97
        0
 97
        1
330
7F
 92
        1
 93
        1
 72
     4
 94
        3
 73
     0
 74
     0
 95
       17
 96
       13
 40
0.0
 40
0.0
 40
0.0
 40
0.0
 40
1.0
 40
1.0
 40
1.0
 40
2.0
 40
2.0
 40
2.0
 40
3.0
 40
3.0
 40
3.0
 40
4.0
 40
4.0
 40
4.0
 40
4.0
 10
127.0559101879563
 20
-166.4454535694095
 10
127.0559101879563
 20
-169.8086355813927
 10
127.0559101879563
 20
-173.0058418249427
 10
127.0559101879563
 20
-176.1686835098716
 10
134.9059189181134
 20
-176.1686835098716
 10
142.5517235878114
 20
-176.1686835098716
 10
150.2183919930104
 20
-176.1686835098716
 10
150.2183919930104
 20
-172.8210758454153
 10
150.2183919930104
 20
-169.6680545041905
 10
150.2183919930104
 20
-166.4454535694095
 10
142.4192897140162
 20
-166.4454535694095
 10
134.7719496754417
 20
-166.4454535694095
 10
127.0559101879563
 20
-166.4454535694095
 97
        0
 97
        1
330
80
 92
        1
 93
        1
 72
     4
 94
        3
 73
     0
 74
     0
 95
       20
 96
       16
 40
0.0
 40
0.0
 40
0.0
 40
0.0
 40
1.0
 40
1.0
 40
1.0
 40
2.0
 40
2.0
 40
2.0
 40
3.0
 40
3.0
 40
3.0
 40
4.0
 40
4.0
 40
4.0
 40
5.0
 40
5.0
 40
5.0
 40
5.0
 10
153.9526483768024
 20
-201.1850988222411
 10
156.9125471177977
 20
-200.1978287069509
 10
159.5027609373105
 20
-199.1502810828056
 10
162.1873434464169
 20
-198.4812751511799
 10
166.2552999590822
 20
-197.4675206718807
 10
169.1015681100436
 20
-195.0387995114763
 10
171.1109738177478
 20
-191.5012964322145
 10
172.9238788958451
 20
-188.3097245942548
 10
173.7093762712635
 20
-184.9018527096342
 10
173.2882598157573
 20
-181.2933348580345
 10
166.6778122044752
 20
-181.2933348580345
 10
160.3372970640899
 20
-181.2933348580345
 10
153.9526483768024
 20
-181.2933348580345
 10
153.9526483768024
 20
-187.9293224847937
 10
153.9526483768024
 20
-194.3669365109783
 10
153.9526483768024
 20
-201.1850988222411
 97
        0
 97
        1
330
81
 92
        1
 93
        1
 72
     4
 94
        3
 73
     0
 74
     0
 95
       29
 96
       25
 40
0.0
 40
0.0
 40
0.0
 40
0.0
 40
1.0
 40
1.0
 40
1.0
 40
2.0
 40
2.0
 40
2.0
 40
3.0
 40
3.0
 40
3.0
 40
4.0
 40
4.0
 40
4.0
 40
5.0
 40
5.0
 40
5.0
 40
6.0
 40
6.0
 40
6.0
 40
7.0
 40
7.0
 40
7.0
 40
8.0
 40
8.0
 40
8.0
 40
8.0
 10
112.2789684595832
 20
-68.4634659370824
 10
112.3612403034903
 20
-70.29085383205407
 10
112.5152690408227
 20
-71.79813705945939
 10
112.4802214214236
 20
-73.3010084409792
 10
112.3841910772024
 20
-77.41909449244538
 10
112.1447931717378
 20
-81.53435005242455
 10
112.0810188671422
 20
-85.65256234646927
 10
112.0046558670898
 20
-90.58351106944639
 10
111.8860868395041
 20
-95.52293133384704
 10
112.082248491566
 20
-100.446890204607
 10
112.403958120649
 20
-108.5223687943469
 10
112.9629121507994
 20
-116.5884323455011
 10
113.4351743357342
 20
-124.6576851828388
 10
113.4464137676334
 20
-124.8498263866636
 10
113.6153907499929
 20
-125.0327186605587
 10
113.6925779307405
 20
-125.1841831768597
 10
115.4430446745624
 20
-125.1841831768597
 10
117.139839973923
 20
-125.1841831768597
 10
118.852607097561
 20
-125.1841831768597
 10
118.852607097561
 20
-106.1854060551622
 10
118.852607097561
 20
-87.36724884095389
 10
118.852607097561
 20
-68.4634659370824
 10
116.5609062085338
 20
-68.4634659370824
 10
114.4241778766676
 20
-68.4634659370824
 10
112.2789684595832
 20
-68.4634659370824
 97
        0
 97
        1
330
82
 92
        1
 93
        1
 72
     4
 94
        3
 73
     0
 74
     0
 95
       17
 96
       13
 40
0.0
 40
0.0
 40
0.0
 40
0.0
 40
1.0
 40
1.0
 40
1.0
 40
2.0
 40
2.0
 40
2.0
 40
3.0
 40
3.0
 40
3.0
 40
4.0
 40
4.0
 40
4.0
 40
4.0
 10
161.5992905204329
 20
-68.51968375040127
 10
157.0565926341293
 20
-68.51968375040127
 10
152.7002659308232
 20
-68.51968375040127
 10
148.5531614849504
 20
-68.51968375040127
 10
148.5531614849504
 20
-78.0848779161563
 10
148.5531614849504
 20
-87.45235627161296
 10
148.5531614849504
 20
-97.14328140078144
 10
153.0933336562203
 20
-97.14328140078144
 10
157.2948872009211
 20
-97.14328140078144
 10
161.5992905204329
 20
-97.14328140078144
 10
161.5992905204329
 20
-87.66369963599734
 10
161.5992905204329
 20
-78.19819059649518
 10
161.5992905204329
 20
-68.51968375040127
 97
        0
 97
        1
330
83
 92
        1
 93
        1
 72
     4
 94
        3
 73
     0
 74
     0
 95
       17
 96
       13
 40
0.0
 40
0.0
 40
0.0
 40
0.0
 40
1.0
 40
1.0
 40
1.0
 40
2.0
 40
2.0
 40
2.0
 40
3.0
 40
3.0
 40
3.0
 40
4.0
 40
4.0
 40
4.0
 40
4.0
 10
133.9218405214954
 20
-63.78595251175693
 10
137.6598455981265
 20
-63.78595251175693
 10
141.1020030382938
 20
-63.78595251175693
 10
144.5431236059745
 20
-63.78595251175693
 10
144.5431236059745
 20
-51.89309104717054
 10
144.5431236059745
 20
-40.18184281983304
 10
144.5431236059745
 20
-28.40638363068022
 10
140.9346013045211
 20
-28.40638363068022
 10
137.4902770667196
 20
-28.40638363068022
 10
133.9218405214954
 20
-28.40638363068022
 10
133.9218405214954
 20
-40.25536915504032
 10
133.9218405214954
 20
-51.96496294017078
 10
133.9218405214954
 20
-63.78595251175693
 97
        0
 97
        1
330
84
 92
        1
 93
        1
 72
     4
 94
        3
 73
     0
 74
     0
 95
       23
 96
       19
 40
0.0
 40
0.0
 40
0.0
 40
0.0
 40
1.0
 40
1.0
 40
1.0
 40
2.0
 40
2.0
 40
2.0
 40
3.0
 40
3.0
 40
3.0
 40
4.0
 40
4.0
 40
4.0
 40
5.0
 40
5.0
 40
5.0
 40
6.0
 40
6.0
 40
6.0
 40
6.0
 10
161.584880651505
 20
-63.8360973926363
 10
161.3137119095665
 20
-57.51100536959017
 10
161.0592527665598
 20
-51.44817898031529
 10
160.7795896461665
 20
-45.3865153516275
 10
160.763770694114
 20
-45.043554133084
 10
160.5648374021338
 20
-44.69902484883426
 10
160.4114467401783
 20
-44.37394024378047
 10
158.5337903045636
 20
-40.39443532130565
 10
156.7593957341079
 20
-36.36114773839898
 10
154.7370955864964
 20
-32.45624221304524
 10
152.295181119161
 20
-27.74106863337722
 10
152.118567172134
 20
-27.73663685445251
 10
148.3314834644307
 20
-28.59076423812704
 10
148.3314834644307
 20
-40.28202959422527
 10
148.3314834644307
 20
-51.9936997375473
 10
148.3314834644307
 20
-63.8360973926363
 10
152.7777655026405
 20
-63.8360973926363
 10
157.0900118319934
 20
-63.8360973926363
 10
161.584880651505
 20
-63.8360973926363
 97
        0
 97
        1
330
85
 92
        1
 93
        1
 72
     4
 94
        3
 73
     0
 74
     0
 95
       26
 96
       22
 40
0.0
 40
0.0
 40
0.0
 40
0.0
 40
1.0
 40
1.0
 40
1.0
 40
2.0
 40
2.0
 40
2.0
 40
3.0
 40
3.0
 40
3.0
 40
4.0
 40
4.0
 40
4.0
 40
5.0
 40
5.0
 40
5.0
 40
6.0
 40
6.0
 40
6.0
 40
7.0
 40
7.0
 40
7.0
 40
7.0
 10
122.6180161823058
 20
-125.1630674445907
 10
125.7574799689456
 20
-125.1630674445907
 10
128.6148147397246
 20
-125.1630674445907
 10
131.6385941312117
 20
-125.1630674445907
 10
131.6385941312117
 20
-124.1934712902309
 10
131.6386007778302
 20
-123.4059833769124
 10
131.6386007778302
 20
-122.6184954635939
 10
131.6386007778302
 20
-112.1863270707583
 10
131.5489578339968
 20
-101.7527301434873
 10
131.7151432365824
 20
-91.3232062004455
 10
131.7478977725959
 20
-89.2674255487034
 10
132.740111630269
 20
-87.21942542637846
 10
133.3474397499294
 20
-85.18501299206148
 10
133.5224252754212
 20
-84.5988487690362
 10
133.8985840033315
 20
-84.07270292536475
 10
134.4060998528393
 20
-83.08303420109174
 10
130.2659876496383
 20
-83.08303420109174
 10
126.5056632280534
 20
-83.08303420109174
 10
122.6180161823058
 20
-83.08303420109174
 10
122.6180161823058
 20
-97.02421471662109
 10
122.6180161823058
 20
-111.0392870063994
 10
122.6180161823058
 20
-125.1630674445907
 97
        0
 97
        1
330
86
 92
        1
 93
        1
 72
     4
 94
        3
 73
     0
 74
     0
 95
       32
 96
       28
 40
0.0
 40
0.0
 40
0.0
 40
0.0
 40
1.0
 40
1.0
 40
1.0
 40
2.0
 40
2.0
 40
2.0
 40
3.0
 40
3.0
 40
3.0
 40
4.0
 40
4.0
 40
4.0
 40
5.0
 40
5.0
 40
5.0
 40
6.0
 40
6.0
 40
6.0
 40
7.0
 40
7.0
 40
7.0
 40
8.0
 40
8.0
 40
8.0
 40
9.0
 40
9.0
 40
9.0
 40
9.0
 10
101.9884942249259
 20
-180.2596074740145
 10
102.198853054124
 20
-181.5083857676071
 10
102.3248596478217
 20
-182.3493473792575
 10
102.4836739504807
 20
-183.1840765941595
 10
103.5120321196072
 20
-188.589106063873
 10
105.826025767114
 20
-193.4950122459683
 10
109.3476169450854
 20
-197.602254724414
 10
112.1145709973763
 20
-200.8293605259283
 10
115.4388307184278
 20
-203.6787485338514
 10
119.7226095807055
 20
-204.9810271031618
 10
120.3367637775747
 20
-205.1677199430905
 10
120.9845299242453
 20
-205.3960329677058
 10
121.4841828240567
 20
-205.7782556280302
 10
122.9364025021338
 20
-206.8891504489831
 10
123.3673758928894
 20
-206.3202748148077
 10
123.365867110488
 20
-204.7736437691207
 10
123.3586621760237
 20
-197.3847188293575
 10
123.356615017523
 20
-189.9957673122093
 10
123.3666181783794
 20
-182.6068556611388
 10
123.3688447955799
 20
-180.9626989017185
 10
122.5238734777412
 20
-180.2636472365126
 10
120.9468834770094
 20
-180.2690557343309
 10
118.8454353961898
 20
-180.2762449169348
 10
116.743920849185
 20
-180.261122384951
 10
114.6424395352727
 20
-180.2601655990963
 10
110.5299972049256
 20
-180.258291893464
 10
106.4175548745782
 20
-180.2596074740145
 10
101.9884942249259
 20
-180.2596074740145
 97
        0
 97
        1
330
87
 92
        1
 93
        1
 72
     4
 94
        3
 73
     0
 74
     0
 95
       17
 96
       13
 40
0.0
 40
0.0
 40
0.0
 40
0.0
 40
1.0
 40
1.0
 40
1.0
 40
2.0
 40
2.0
 40
2.0
 40
3.0
 40
3.0
 40
3.0
 40
4.0
 40
4.0
 40
4.0
 40
4.0
 10
127.0521880815915
 20
-129.3829581687522
 10
127.0521880815915
 20
-140.4674684729075
 10
127.0521880815915
 20
-151.3616315467149
 10
127.0521880815915
 20
-162.1869990598198
 10
131.4206515102948
 20
-162.1869990598198
 10
135.5876891650769
 20
-162.1869990598198
 10
140.0475768313745
 20
-162.1869990598198
 10
140.0475768313745
 20
-151.1580886447865
 10
140.0475768313745
 20
-140.3268209522437
 10
140.0475768313745
 20
-129.3829581687522
 10
135.7719533700075
 20
-129.3829581687522
 10
131.5116503643044
 20
-129.3829581687522
 10
127.0521880815915
 20
-129.3829581687522
 97
        0
 97
        1
330
88
 92
        1
 93
        1
 72
     4
 94
        3
 73
     0
 74
     0
 95
       17
 96
       13
 40
0.0
 40
0.0
 40
0.0
 40
0.0
 40
1.0
 40
1.0
 40
1.0
 40
2.0
 40
2.0
 40
2.0
 40
3.0
 40
3.0
 40
3.0
 40
4.0
 40
4.0
 40
4.0
 40
4.0
 10
113.51116512515
 20
-129.3930708636905
 10
112.7860190457951
 20
-141.2333091062596
 10
108.4201743847845
 20
-151.8136331309809
 10
104.1979099768095
 20
-162.4548858104877
 10
110.6504871052603
 20
-162.4548858104877
 10
116.8866370418146
 20
-162.4548858104877
 10
123.1732481060911
 20
-162.4548858104877
 10
123.1732481060911
 20
-151.215376197846
 10
123.1732481060911
 20
-140.3273259225559
 10
123.1732481060911
 20
-129.3930708636905
 10
119.8878910431738
 20
-129.3930708636905
 10
116.7928532546496
 20
-129.3930708636905
 10
113.51116512515
 20
-129.3930708636905
 97
        0
 97
        1
330
89
 92
        1
 93
        1
 72
     4
 94
        3
 73
     0
 74
     0
 95
       23
 96
       19
 40
0.0
 40
0.0
 40
0.0
 40
0.0
 40
1.0
 40
1.0
 40
1.0
 40
2.0
 40
2.0
 40
2.0
 40
3.0
 40
3.0
 40
3.0
 40
4.0
 40
4.0
 40
4.0
 40
5.0
 40
5.0
 40
5.0
 40
6.0
 40
6.0
 40
6.0
 40
6.0
 10
150.3658538712556
 20
-181.2689501074285
 10
142.3833115680256
 20
-181.2689501074285
 10
134.6919110953539
 20
-181.2689501074285
 10
126.8568107305131
 20
-181.2689501074285
 10
126.8568107305131
 20
-189.6521748807754
 10
126.8161799515661
 20
-197.8333716631318
 10
126.9476633589154
 20
-206.0118043974628
 10
126.9564834216772
 20
-206.5607204156107
 10
128.2328668070932
 20
-207.5006562084701
 10
128.9773811327836
 20
-207.5622758752606
 10
135.9188835187724
 20
-208.1367859150262
 10
142.5938830890151
 20
-206.9680454159319
 10
148.897795301271
 20
-203.9776378039553
 10
149.5367879115096
 20
-203.6745227296591
 10
150.2934323159794
 20
-202.7617490241237
 10
150.3028439277882
 20
-202.1216991533007
 10
150.404005461499
 20
-195.2457974734365
 10
150.3658538712556
 20
-188.3678360462445
 10
150.3658538712556
 20
-181.2689501074285
 97
        0
 97
        1
330
8A
 92
        1
 93
        1
 72
     4
 94
        3
 73
     0
 74
     0
 95
       17
 96
       13
 40
0.0
 40
0.0
 40
0.0
 40
0.0
 40
1.0
 40
1.0
 40
1.0
 40
2.0
 40
2.0
 40
2.0
 40
3.0
 40
3.0
 40
3.0
 40
4.0
 40
4.0
 40
4.0
 40
4.0
 10
135.2589208271373
 20
-101.2986953892796
 10
135.2589208271373
 20
-109.2150153098027
 10
135.2589208271373
 20
-117.1415343017642
 10
135.2589208271373
 20
-124.9434319361307
 10
144.9595342555763
 20
-124.9434319361307
 10
154.5295083972164
 20
-124.9434319361307
 10
164.0686821086857
 20
-124.9434319361307
 10
164.0686821086857
 20
-116.9223904749244
 10
164.0686821086857
 20
-109.257366372572
 10
164.0686821086857
 20
-101.2986953892796
 10
154.4618857005042
 20
-101.2986953892796
 10
144.9980248233636
 20
-101.2986953892796
 10
135.2589208271373
 20
-101.2986953892796
 97
        0
 97
        1
330
8B
 92
        1
 93
        1
 72
     4
 94
        3
 73
     0
 74
     0
 95
       17
 96
       13
 40
0.0
 40
0.0
 40
0.0
 40
0.0
 40
1.0
 40
1.0
 40
1.0
 40
2.0
 40
2.0
 40
2.0
 40
3.0
 40
3.0
 40
3.0
 40
4.0
 40
4.0
 40
4.0
 40
4.0
 10
143.7446320913706
 20
-129.338879575967
 10
143.7446320913706
 20
-140.1740408553922
 10
143.7446320913706
 20
-150.7635606552741
 10
143.7446320913706
 20
-161.388920058636
 10
151.6931968807819
 20
-161.388920058636
 10
159.6193426259618
 20
-161.388920058636
 10
167.8568691550611
 20
-161.388920058636
 10
163.9142146945316
 20
-150.8935506446104
 10
164.2871431658462
 20
-140.1193047312781
 10
164.3153248283249
 20
-129.338879575967
 10
157.3698876441788
 20
-129.338879575967
 10
150.7925667795468
 20
-129.338879575967
 10
143.7446320913706
 20
-129.338879575967
 97
        0
 97
        1
330
8C
 92
        1
 93
        1
 72
     4
 94
        3
 73
     0
 74
     0
 95
       41
 96
       37
 40
0.0
 40
0.0
 40
0.0
 40
0.0
 40
1.0
 40
1.0
 40
1.0
 40
2.0
 40
2.0
 40
2.0
 40
3.0
 40
3.0
 40
3.0
 40
4.0
 40
4.0
 40
4.0
 40
5.0
 40
5.0
 40
5.0
 40
6.0
 40
6.0
 40
6.0
 40
7.0
 40
7.0
 40
7.0
 40
8.0
 40
8.0
 40
8.0
 40
9.0
 40
9.0
 40
9.0
 40
10.0
 40
10.0
 40
10.0
 40
11.0
 40
11.0
 40
11.0
 40
12.0
 40
12.0
 40
12.0
 40
12.0
 10
165.1844632510637
 20
-93.12992353434436
 10
166.3060801244923
 20
-85.394841445509
 10
169.7941191722289
 20
-78.6502054694538
 10
173.4496397131606
 20
-71.92687791170776
 10
175.3403634007648
 20
-68.44939985614677
 10
176.7219694037997
 20
-64.70210154516895
 10
176.4832228669487
 20
-60.59152360492463
 10
176.2072951461575
 20
-55.84055693220009
 10
175.9081840200059
 20
-51.09083939656409
 10
175.653844516133
 20
-46.33872325194471
 10
175.1835696701327
 20
-37.55194746692538
 10
173.4335548963683
 20
-29.03671282299182
 10
169.897500676521
 20
-20.97074229268436
 10
167.3882027907398
 20
-15.24683902054091
 10
163.7161720494307
 20
-10.59231835528992
 10
157.103464587856
 20
-9.247982735530468
 10
156.3363650524715
 20
-9.0920332855344
 10
155.5738118041464
 20
-8.909616082394476
 10
154.8023255005458
 20
-8.780149335321894
 10
152.3956248180722
 20
-8.37627607285929
 10
149.9856539992923
 20
-7.991935527179844
 10
146.9617483220529
 20
-7.499923351097667
 10
148.3363620824167
 20
-10.39312417795861
 10
149.3645806725543
 20
-12.57857921259177
 10
150.4108248920887
 20
-14.75537666410789
 10
153.7230077073091
 20
-21.64664173350702
 10
157.0685166677341
 20
-28.52206169827103
 10
160.3483969170002
 20
-35.42863035808817
 10
162.3496937501227
 20
-39.64284016623675
 10
164.7362020055654
 20
-43.68505442828226
 10
164.7530844165787
 20
-48.63235820946625
 10
164.7904118261257
 20
-59.56814811230643
 10
165.0426642917876
 20
-70.50308753883124
 10
165.1768063465406
 20
-81.43873791040096
 10
165.2246088268591
 20
-85.33524830431318
 10
165.1844632510637
 20
-89.23282843796544
 10
165.1844632510637
 20
-93.12992353434436
 97
        0
 97
        1
330
8D
 92
        1
 93
        1
 72
     4
 94
        3
 73
     0
 74
     0
 95
       23
 96
       19
 40
0.0
 40
0.0
 40
0.0
 40
0.0
 40
1.0
 40
1.0
 40
1.0
 40
2.0
 40
2.0
 40
2.0
 40
3.0
 40
3.0
 40
3.0
 40
4.0
 40
4.0
 40
4.0
 40
5.0
 40
5.0
 40
5.0
 40
6.0
 40
6.0
 40
6.0
 40
6.0
 10
129.8267392188384
 20
-7.755742307954035
 10
125.2849186861779
 20
-8.058397261275072
 10
121.0914009032551
 20
-7.543266082540196
 10
116.7933052247084
 20
-8.985504482680866
 10
110.5705814575428
 20
-11.07355174072621
 10
107.6207523435891
 20
-15.82553499842141
 10
105.6245268803891
 20
-21.28827892043887
 10
103.8053473944183
 20
-26.26655864367342
 10
104.1315301977579
 20
-31.47847683501487
 10
105.8629743194068
 20
-36.58071680339676
 10
107.3122163123917
 20
-40.85137365480892
 10
108.5408902701485
 20
-45.19683255590172
 10
109.9427352265444
 20
-49.75462150679194
 10
116.530311823536
 20
-49.75462150679194
 10
123.154099198166
 20
-49.75462150679194
 10
129.8267392188384
 20
-49.75462150679194
 10
129.8267392188384
 20
-35.80382994446303
 10
129.8267392188384
 20
-21.96876296014896
 10
129.8267392188384
 20
-7.755742307954035
 97
        0
 97
        1
330
8E
 92
        1
 93
        1
 72
     4
 94
        3
 73
     0
 74
     0
 95
       98
 96
       94
 40
0.0
 40
0.0
 40
0.0
 40
0.0
 40
1.0
 40
1.0
 40
1.0
 40
2.0
 40
2.0
 40
2.0
 40
3.0
 40
3.0
 40
3.0
 40
4.0
 40
4.0
 40
4.0
 40
5.0
 40
5.0
 40
5.0
 40
6.0
 40
6.0
 40
6.0
 40
7.0
 40
7.0
 40
7.0
 40
8.0
 40
8.0
 40
8.0
 40
9.0
 40
9.0
 40
9.0
 40
10.0
 40
10.0
 40
10.0
 40
11.0
 40
11.0
 40
11.0
 40
12.0
 40
12.0
 40
12.0
 40
13.0
 40
13.0
 40
13.0
 40
14.0
 40
14.0
 40
14.0
 40
15.0
 40
15.0
 40
15.0
 40
16.0
 40
16.0
 40
16.0
 40
17.0
 40
17.0
 40
17.0
 40
18.0
 40
18.0
 40
18.0
 40
19.0
 40
19.0
 40
19.0
 40
20.0
 40
20.0
 40
20.0
 40
21.0
 40
21.0
 40
21.0
 40
22.0
 40
22.0
 40
22.0
 40
23.0
 40
23.0
 40
23.0
 40
24.0
 40
24.0
 40
24.0
 40
25.0
 40
25.0
 40
25.0
 40
26.0
 40
26.0
 40
26.0
 40
27.0
 40
27.0
 40
27.0
 40
28.0
 40
28.0
 40
28.0
 40
29.0
 40
29.0
 40
29.0
 40
30.0
 40
30.0
 40
30.0
 40
31.0
 40
31.0
 40
31.0
 40
31.0
 10
108.5447453088839
 20
-95.35088263297399
 10
100.6693797291145
 20
-95.35088263297399
 10
92.77044524011115
 20
-95.35088263297399
 10
84.73393571789545
 20
-95.35088263297399
 10
84.73393571789545
 20
-94.06273658806183
 10
84.73393571789545
 20
-92.86971100355396
 10
84.73393571789545
 20
-91.49526154566483
 10
92.60891579379148
 20
-91.49526154566483
 10
100.5611129602179
 20
-91.49526154566483
 10
108.7626015237603
 20
-91.49526154566483
 10
108.9880947033035
 20
-87.02808818844534
 10
109.4080679404263
 20
-82.71699052379949
 10
109.3859745805017
 20
-78.40815858121349
 10
109.3144569653428
 20
-64.45772249140685
 10
107.6617088068429
 20
-50.77117990019431
 10
102.8907660409327
 20
-37.51642346989036
 10
99.69249962034194
 20
-28.63088944491522
 10
101.1211238027112
 20
-20.24789722368486
 10
106.8072461177729
 20
-12.54360503520623
 10
111.0186233646301
 20
-6.837480372445852
 10
116.5400757061261
 20
-4.240614895112646
 10
123.5317201821483
 20
-4.29789497328283
 10
131.9441657705542
 20
-4.366815115477395
 10
140.3576681713031
 20
-4.29540085182259
 10
148.7704793237275
 20
-4.335226232487922
 10
153.2652019176324
 20
-4.356503090152689
 10
157.6150016415622
 20
-5.262258704998768
 10
161.69730155697
 20
-7.126823378126386
 10
166.4583009815903
 20
-9.30137836279532
 10
169.4783250336198
 20
-13.21143159537855
 10
171.7740404802259
 20
-17.77849273141047
 10
176.811472768645
 20
-27.79994418518184
 10
178.3719392757631
 20
-38.61890654853636
 10
179.1122396453186
 20
-49.62443218706893
 10
179.3116913735428
 20
-52.58926571046597
 10
179.3156261717004
 20
-55.56933471973266
 10
179.5786461593467
 20
-58.52736443260644
 10
180.1291456907537
 20
-64.71878549851294
 10
178.0936320655454
 20
-70.26151904351795
 10
175.0911683796171
 20
-75.4214983805022
 10
171.1041809736317
 20
-82.27344054791808
 10
168.8566269247424
 20
-89.59723096174228
 10
167.8044140417865
 20
-97.39883624487555
 10
166.5760923548104
 20
-106.5060090486944
 10
166.9134348306266
 20
-115.6092151778233
 10
167.5121622259365
 20
-124.8938916907569
 10
176.5294966250102
 20
-124.8938916907569
 10
185.5589810427187
 20
-124.8938916907569
 10
194.6956222440331
 20
-124.8938916907569
 10
194.6956222440331
 20
-126.250481146022
 10
194.6956222440331
 20
-127.4425167229443
 10
194.6956222440331
 20
-128.9459196521609
 10
185.7220624744607
 20
-128.9459196521609
 10
176.7602007534644
 20
-128.9459196521609
 10
167.5284730277581
 20
-128.9459196521609
 10
167.5284730277581
 20
-131.6886924807306
 10
167.6226423187965
 20
-134.1324564409639
 10
167.5121090529881
 20
-136.566931605189
 10
167.0421931243874
 20
-146.9163114441948
 10
169.1989011914929
 20
-156.7917367790414
 10
172.572831092663
 20
-166.502422193851
 10
174.5031952130557
 20
-172.0583049000141
 10
176.9079683761614
 20
-177.528661581707
 10
176.5040533693568
 20
-183.6587221103237
 10
176.0183716616519
 20
-191.0296940266167
 10
171.5766359105027
 20
-199.9214504818219
 10
162.7116818873714
 20
-201.9587930728189
 10
160.1676221867862
 20
-202.5434822509844
 10
157.6562505560298
 20
-203.4194994332623
 10
155.2600116510894
 20
-204.461080434508
 10
152.0874875839856
 20
-205.8401410686697
 10
149.1505529099398
 20
-207.8143756593235
 10
145.9117952893908
 20
-208.9720732550106
 10
142.8944298847647
 20
-210.0506233985925
 10
139.6426116588457
 20
-210.6588335623567
 10
136.4433947718081
 20
-211.0006851750821
 10
131.594620103155
 20
-211.5187847154881
 10
126.6480271499019
 20
-211.4369795248974
 10
122.0313125198795
 20
-209.7505780122478
 10
113.5343020041808
 20
-206.6468178538552
 10
106.7747109201705
 20
-201.4509656916597
 10
102.7226198858865
 20
-193.0286588738797
 10
98.96157098288433
 20
-185.2112932015263
 10
97.42012045132105
 20
-177.0504281185865
 10
99.15143828721824
 20
-168.6113908370382
 10
100.1384345493618
 20
-163.8004589397302
 10
102.2536610703511
 20
-159.2027308237462
 10
104.0368889968054
 20
-154.5768173911208
 10
108.1232632893596
 20
-143.9762546878303
 10
111.2256987642844
 20
-133.2240812926224
 10
110.3256070391489
 20
-121.6629454571312
 10
109.6460368229117
 20
-112.9344538771035
 10
109.1368593187769
 20
-104.1926868933402
 10
108.5447453088839
 20
-95.35088263297399
 97
        0
 97
        1
330
8F
 75
     2
 76
     1
 98
        1
 10
0.0
 20
0.0
450
        0
451
        0
460
0.0
461
0.0
452
        0
462
0.0
453
        0
470

  0
SPLINE
  5
91
330
70
100
AcDbEntity
  8
Layer 1
100
AcDbSpline
210
0.0
220
0.0
230
1.0
 70
     9
 71
     3
 72
    23
 73
    19
 74
     0
 42
0.0000000001
 43
0.0000000001
 40
0.0
 40
0.0
 40
0.0
 40
0.0
 40
1.0
 40
1.0
 40
1.0
 40
2.0
 40
2.0
 40
2.0
 40
3.0
 40
3.0
 40
3.0
 40
4.0
 40
4.0
 40
4.0
 40
5.0
 40
5.0
 40
5.0
 40
6.0
 40
6.0
 40
6.0
 40
6.0
 10
129.8267392188384
 20
-7.755742307954035
 30
0.0
 10
129.8267392188384
 20
-21.96876296014896
 30
0.0
 10
129.8267392188384
 20
-35.80382994446303
 30
0.0
 10
129.8267392188384
 20
-49.75462150679194
 30
0.0
 10
123.154099198166
 20
-49.75462150679194
 30
0.0
 10
116.530311823536
 20
-49.75462150679194
 30
0.0
 10
109.9427352265444
 20
-49.75462150679194
 30
0.0
 10
108.5408902701485
 20
-45.19683255590172
 30
0.0
 10
107.3122163123917
 20
-40.85137365480892
 30
0.0
 10
105.8629743194068
 20
-36.58071680339676
 30
0.0
 10
104.1315301977579
 20
-31.47847683501487
 30
0.0
 10
103.8053473944183
 20
-26.26655864367342
 30
0.0
 10
105.6245268803891
 20
-21.28827892043887
 30
0.0
 10
107.6207523435891
 20
-15.82553499842141
 30
0.0
 10
110.5705814575428
 20
-11.07355174072621
 30
0.0
 10
116.7933052247084
 20
-8.985504482680866
 30
0.0
 10
121.0914009032551
 20
-7.543266082540196
 30
0.0
 10
125.2849186861779
 20
-8.058397261275072
 30
0.0
 10
129.8267392188384
 20
-7.755742307954035
 30
0.0
  0
HATCH
  5
92
330
70
100
AcDbEntity
  8
Layer 1
 62
   251
420
  5131598
440
 33554687
100
AcDbHatch
 10
0.0
 20
0.0
 30
0.0
210
0.0
220
0.0
230
1.0
  2
SOLID
 70
     1
 71
     1
 91
        1
 92
        1
 93
        1
 72
     4
 94
        3
 73
     0
 74
     0
 95
       23
 96
       19
 40
0.0
 40
0.0
 40
0.0
 40
0.0
 40
1.0
 40
1.0
 40
1.0
 40
2.0
 40
2.0
 40
2.0
 40
3.0
 40
3.0
 40
3.0
 40
4.0
 40
4.0
 40
4.0
 40
5.0
 40
5.0
 40
5.0
 40
6.0
 40
6.0
 40
6.0
 40
6.0
 10
129.8267392188384
 20
-7.755742307954035
 10
129.8267392188384
 20
-21.96876296014896
 10
129.8267392188384
 20
-35.80382994446303
 10
129.8267392188384
 20
-49.75462150679194
 10
123.154099198166
 20
-49.75462150679194
 10
116.530311823536
 20
-49.75462150679194
 10
109.9427352265444
 20
-49.75462150679194
 10
108.5408902701485
 20
-45.19683255590172
 10
107.3122163123917
 20
-40.85137365480892
 10
105.8629743194068
 20
-36.58071680339676
 10
104.1315301977579
 20
-31.47847683501487
 10
103.8053473944183
 20
-26.26655864367342
 10
105.6245268803891
 20
-21.28827892043887
 10
107.6207523435891
 20
-15.82553499842141
 10
110.5705814575428
 20
-11.07355174072621
 10
116.7933052247084
 20
-8.985504482680866
 10
121.0914009032551
 20
-7.543266082540196
 10
125.2849186861779
 20
-8.058397261275072
 10
129.8267392188384
 20
-7.755742307954035
 97
        0
 97
        1
330
91
 75
     2
 76
     1
 98
        1
 10
0.0
 20
0.0
450
        0
451
        0
460
0.0
461
0.0
452
        0
462
0.0
453
        0
470

  0
SPLINE
  5
93
330
70
100
AcDbEntity
  8
Layer 1
100
AcDbSpline
210
0.0
220
0.0
230
1.0
 70
     9
 71
     3
 72
    41
 73
    37
 74
     0
 42
0.0000000001
 43
0.0000000001
 40
0.0
 40
0.0
 40
0.0
 40
0.0
 40
1.0
 40
1.0
 40
1.0
 40
2.0
 40
2.0
 40
2.0
 40
3.0
 40
3.0
 40
3.0
 40
4.0
 40
4.0
 40
4.0
 40
5.0
 40
5.0
 40
5.0
 40
6.0
 40
6.0
 40
6.0
 40
7.0
 40
7.0
 40
7.0
 40
8.0
 40
8.0
 40
8.0
 40
9.0
 40
9.0
 40
9.0
 40
10.0
 40
10.0
 40
10.0
 40
11.0
 40
11.0
 40
11.0
 40
12.0
 40
12.0
 40
12.0
 40
12.0
 10
165.1844632510637
 20
-93.12992353434436
 30
0.0
 10
165.1844632510637
 20
-89.23282843796544
 30
0.0
 10
165.2246088268591
 20
-85.33524830431318
 30
0.0
 10
165.1768063465406
 20
-81.43873791040096
 30
0.0
 10
165.0426642917876
 20
-70.50308753883124
 30
0.0
 10
164.7904118261257
 20
-59.56814811230643
 30
0.0
 10
164.7530844165787
 20
-48.63235820946625
 30
0.0
 10
164.7362020055654
 20
-43.68505442828226
 30
0.0
 10
162.3496937501227
 20
-39.64284016623675
 30
0.0
 10
160.3483969170002
 20
-35.42863035808817
 30
0.0
 10
157.0685166677341
 20
-28.52206169827103
 30
0.0
 10
153.7230077073091
 20
-21.64664173350702
 30
0.0
 10
150.4108248920887
 20
-14.75537666410789
 30
0.0
 10
149.3645806725543
 20
-12.57857921259177
 30
0.0
 10
148.3363620824167
 20
-10.39312417795861
 30
0.0
 10
146.9617483220529
 20
-7.499923351097667
 30
0.0
 10
149.9856539992923
 20
-7.991935527179844
 30
0.0
 10
152.3956248180722
 20
-8.37627607285929
 30
0.0
 10
154.8023255005458
 20
-8.780149335321894
 30
0.0
 10
155.5738118041464
 20
-8.909616082394476
 30
0.0
 10
156.3363650524715
 20
-9.0920332855344
 30
0.0
 10
157.103464587856
 20
-9.247982735530468
 30
0.0
 10
163.7161720494307
 20
-10.59231835528992
 30
0.0
 10
167.3882027907398
 20
-15.24683902054091
 30
0.0
 10
169.897500676521
 20
-20.97074229268436
 30
0.0
 10
173.4335548963683
 20
-29.03671282299182
 30
0.0
 10
175.1835696701327
 20
-37.55194746692538
 30
0.0
 10
175.653844516133
 20
-46.33872325194471
 30
0.0
 10
175.9081840200059
 20
-51.09083939656409
 30
0.0
 10
176.2072951461575
 20
-55.84055693220009
 30
0.0
 10
176.4832228669487
 20
-60.59152360492463
 30
0.0
 10
176.7219694037997
 20
-64.70210154516895
 30
0.0
 10
175.3403634007648
 20
-68.44939985614677
 30
0.0
 10
173.4496397131606
 20
-71.92687791170776
 30
0.0
 10
169.7941191722289
 20
-78.6502054694538
 30
0.0
 10
166.3060801244923
 20
-85.394841445509
 30
0.0
 10
165.1844632510637
 20
-93.12992353434436
 30
0.0
  0
HATCH
  5
94
330
70
100
AcDbEntity
  8
Layer 1
 62
   251
420
  5066061
440
 33554687
100
AcDbHatch
 10
0.0
 20
0.0
 30
0.0
210
0.0
220
0.0
230
1.0
  2
SOLID
 70
     1
 71
     1
 91
        1
 92
        1
 93
        1
 72
     4
 94
        3
 73
     0
 74
     0
 95
       41
 96
       37
 40
0.0
 40
0.0
 40
0.0
 40
0.0
 40
1.0
 40
1.0
 40
1.0
 40
2.0
 40
2.0
 40
2.0
 40
3.0
 40
3.0
 40
3.0
 40
4.0
 40
4.0
 40
4.0
 40
5.0
 40
5.0
 40
5.0
 40
6.0
 40
6.0
 40
6.0
 40
7.0
 40
7.0
 40
7.0
 40
8.0
 40
8.0
 40
8.0
 40
9.0
 40
9.0
 40
9.0
 40
10.0
 40
10.0
 40
10.0
 40
11.0
 40
11.0
 40
11.0
 40
12.0
 40
12.0
 40
12.0
 40
12.0
 10
165.1844632510637
 20
-93.12992353434436
 10
165.1844632510637
 20
-89.23282843796544
 10
165.2246088268591
 20
-85.33524830431318
 10
165.1768063465406
 20
-81.43873791040096
 10
165.0426642917876
 20
-70.50308753883124
 10
164.7904118261257
 20
-59.56814811230643
 10
164.7530844165787
 20
-48.63235820946625
 10
164.7362020055654
 20
-43.68505442828226
 10
162.3496937501227
 20
-39.64284016623675
 10
160.3483969170002
 20
-35.42863035808817
 10
157.0685166677341
 20
-28.52206169827103
 10
153.7230077073091
 20
-21.64664173350702
 10
150.4108248920887
 20
-14.75537666410789
 10
149.3645806725543
 20
-12.57857921259177
 10
148.3363620824167
 20
-10.39312417795861
 10
146.9617483220529
 20
-7.499923351097667
 10
149.9856539992923
 20
-7.991935527179844
 10
152.3956248180722
 20
-8.37627607285929
 10
154.8023255005458
 20
-8.780149335321894
 10
155.5738118041464
 20
-8.909616082394476
 10
156.3363650524715
 20
-9.0920332855344
 10
157.103464587856
 20
-9.247982735530468
 10
163.7161720494307
 20
-10.59231835528992
 10
167.3882027907398
 20
-15.24683902054091
 10
169.897500676521
 20
-20.97074229268436
 10
173.4335548963683
 20
-29.03671282299182
 10
175.1835696701327
 20
-37.55194746692538
 10
175.653844516133
 20
-46.33872325194471
 10
175.9081840200059
 20
-51.09083939656409
 10
176.2072951461575
 20
-55.84055693220009
 10
176.4832228669487
 20
-60.59152360492463
 10
176.7219694037997
 20
-64.70210154516895
 10
175.3403634007648
 20
-68.44939985614677
 10
173.4496397131606
 20
-71.92687791170776
 10
169.7941191722289
 20
-78.6502054694538
 10
166.3060801244923
 20
-85.394841445509
 10
165.1844632510637
 20
-93.12992353434436
 97
        0
 97
        1
330
93
 75
     2
 76
     1
 98
        1
 10
0.0
 20
0.0
450
        0
451
        0
460
0.0
461
0.0
452
        0
462
0.0
453
        0
470

  0
SPLINE
  5
95
330
70
100
AcDbEntity
  8
Layer 1
100
AcDbSpline
210
0.0
220
0.0
230
1.0
 70
     9
 71
     3
 72
    17
 73
    13
 74
     0
 42
0.0000000001
 43
0.0000000001
 40
0.0
 40
0.0
 40
0.0
 40
0.0
 40
1.0
 40
1.0
 40
1.0
 40
2.0
 40
2.0
 40
2.0
 40
3.0
 40
3.0
 40
3.0
 40
4.0
 40
4.0
 40
4.0
 40
4.0
 10
143.7446320913706
 20
-129.338879575967
 30
0.0
 10
150.7925667795468
 20
-129.338879575967
 30
0.0
 10
157.3698876441788
 20
-129.338879575967
 30
0.0
 10
164.3153248283249
 20
-129.338879575967
 30
0.0
 10
164.2871431658462
 20
-140.1193047312781
 30
0.0
 10
163.9142146945316
 20
-150.8935506446104
 30
0.0
 10
167.8568691550611
 20
-161.388920058636
 30
0.0
 10
159.6193426259618
 20
-161.388920058636
 30
0.0
 10
151.6931968807819
 20
-161.388920058636
 30
0.0
 10
143.7446320913706
 20
-161.388920058636
 30
0.0
 10
143.7446320913706
 20
-150.7635606552741
 30
0.0
 10
143.7446320913706
 20
-140.1740408553922
 30
0.0
 10
143.7446320913706
 20
-129.338879575967
 30
0.0
  0
HATCH
  5
96
330
70
100
AcDbEntity
  8
Layer 1
 62
   251
420
  5131598
440
 33554687
100
AcDbHatch
 10
0.0
 20
0.0
 30
0.0
210
0.0
220
0.0
230
1.0
  2
SOLID
 70
     1
 71
     1
 91
        1
 92
        1
 93
        1
 72
     4
 94
        3
 73
     0
 74
     0
 95
       17
 96
       13
 40
0.0
 40
0.0
 40
0.0
 40
0.0
 40
1.0
 40
1.0
 40
1.0
 40
2.0
 40
2.0
 40
2.0
 40
3.0
 40
3.0
 40
3.0
 40
4.0
 40
4.0
 40
4.0
 40
4.0
 10
143.7446320913706
 20
-129.338879575967
 10
150.7925667795468
 20
-129.338879575967
 10
157.3698876441788
 20
-129.338879575967
 10
164.3153248283249
 20
-129.338879575967
 10
164.2871431658462
 20
-140.1193047312781
 10
163.9142146945316
 20
-150.8935506446104
 10
167.8568691550611
 20
-161.388920058636
 10
159.6193426259618
 20
-161.388920058636
 10
151.6931968807819
 20
-161.388920058636
 10
143.7446320913706
 20
-161.388920058636
 10
143.7446320913706
 20
-150.7635606552741
 10
143.7446320913706
 20
-140.1740408553922
 10
143.7446320913706
 20
-129.338879575967
 97
        0
 97
        1
330
95
 75
     2
 76
     1
 98
        1
 10
0.0
 20
0.0
450
        0
451
        0
460
0.0
461
0.0
452
        0
462
0.0
453
        0
470

  0
SPLINE
  5
97
330
70
100
AcDbEntity
  8
Layer 1
100
AcDbSpline
210
0.0
220
0.0
230
1.0
 70
     9
 71
     3
 72
    17
 73
    13
 74
     0
 42
0.0000000001
 43
0.0000000001
 40
0.0
 40
0.0
 40
0.0
 40
0.0
 40
1.0
 40
1.0
 40
1.0
 40
2.0
 40
2.0
 40
2.0
 40
3.0
 40
3.0
 40
3.0
 40
4.0
 40
4.0
 40
4.0
 40
4.0
 10
135.2589208271373
 20
-101.2986953892796
 30
0.0
 10
144.9980248233636
 20
-101.2986953892796
 30
0.0
 10
154.4618857005042
 20
-101.2986953892796
 30
0.0
 10
164.0686821086857
 20
-101.2986953892796
 30
0.0
 10
164.0686821086857
 20
-109.257366372572
 30
0.0
 10
164.0686821086857
 20
-116.9223904749244
 30
0.0
 10
164.0686821086857
 20
-124.9434319361307
 30
0.0
 10
154.5295083972164
 20
-124.9434319361307
 30
0.0
 10
144.9595342555763
 20
-124.9434319361307
 30
0.0
 10
135.2589208271373
 20
-124.9434319361307
 30
0.0
 10
135.2589208271373
 20
-117.1415343017642
 30
0.0
 10
135.2589208271373
 20
-109.2150153098027
 30
0.0
 10
135.2589208271373
 20
-101.2986953892796
 30
0.0
  0
HATCH
  5
98
330
70
100
AcDbEntity
  8
Layer 1
 62
   251
420
  5131598
440
 33554687
100
AcDbHatch
 10
0.0
 20
0.0
 30
0.0
210
0.0
220
0.0
230
1.0
  2
SOLID
 70
     1
 71
     1
 91
        1
 92
        1
 93
        1
 72
     4
 94
        3
 73
     0
 74
     0
 95
       17
 96
       13
 40
0.0
 40
0.0
 40
0.0
 40
0.0
 40
1.0
 40
1.0
 40
1.0
 40
2.0
 40
2.0
 40
2.0
 40
3.0
 40
3.0
 40
3.0
 40
4.0
 40
4.0
 40
4.0
 40
4.0
 10
135.2589208271373
 20
-101.2986953892796
 10
144.9980248233636
 20
-101.2986953892796
 10
154.4618857005042
 20
-101.2986953892796
 10
164.0686821086857
 20
-101.2986953892796
 10
164.0686821086857
 20
-109.257366372572
 10
164.0686821086857
 20
-116.9223904749244
 10
164.0686821086857
 20
-124.9434319361307
 10
154.5295083972164
 20
-124.9434319361307
 10
144.9595342555763
 20
-124.9434319361307
 10
135.2589208271373
 20
-124.9434319361307
 10
135.2589208271373
 20
-117.1415343017642
 10
135.2589208271373
 20
-109.2150153098027
 10
135.2589208271373
 20
-101.2986953892796
 97
        0
 97
        1
330
97
 75
     2
 76
     1
 98
        1
 10
0.0
 20
0.0
450
        0
451
        0
460
0.0
461
0.0
452
        0
462
0.0
453
        0
470

  0
SPLINE
  5
99
330
70
100
AcDbEntity
  8
Layer 1
100
AcDbSpline
210
0.0
220
0.0
230
1.0
 70
     9
 71
     3
 72
    23
 73
    19
 74
     0
 42
0.0000000001
 43
0.0000000001
 40
0.0
 40
0.0
 40
0.0
 40
0.0
 40
1.0
 40
1.0
 40
1.0
 40
2.0
 40
2.0
 40
2.0
 40
3.0
 40
3.0
 40
3.0
 40
4.0
 40
4.0
 40
4.0
 40
5.0
 40
5.0
 40
5.0
 40
6.0
 40
6.0
 40
6.0
 40
6.0
 10
150.3658538712556
 20
-181.2689501074285
 30
0.0
 10
150.3658538712556
 20
-188.3678360462445
 30
0.0
 10
150.404005461499
 20
-195.2457974734365
 30
0.0
 10
150.3028439277882
 20
-202.1216991533007
 30
0.0
 10
150.2934323159794
 20
-202.7617490241237
 30
0.0
 10
149.5367879115096
 20
-203.6745227296591
 30
0.0
 10
148.897795301271
 20
-203.9776378039553
 30
0.0
 10
142.5938830890151
 20
-206.9680454159319
 30
0.0
 10
135.9188835187724
 20
-208.1367859150262
 30
0.0
 10
128.9773811327836
 20
-207.5622758752606
 30
0.0
 10
128.2328668070932
 20
-207.5006562084701
 30
0.0
 10
126.9564834216772
 20
-206.5607204156107
 30
0.0
 10
126.9476633589154
 20
-206.0118043974628
 30
0.0
 10
126.8161799515661
 20
-197.8333716631318
 30
0.0
 10
126.8568107305131
 20
-189.6521748807754
 30
0.0
 10
126.8568107305131
 20
-181.2689501074285
 30
0.0
 10
134.6919110953539
 20
-181.2689501074285
 30
0.0
 10
142.3833115680256
 20
-181.2689501074285
 30
0.0
 10
150.3658538712556
 20
-181.2689501074285
 30
0.0
  0
HATCH
  5
9A
330
70
100
AcDbEntity
  8
Layer 1
 62
   251
420
  5131598
440
 33554687
100
AcDbHatch
 10
0.0
 20
0.0
 30
0.0
210
0.0
220
0.0
230
1.0
  2
SOLID
 70
     1
 71
     1
 91
        1
 92
        1
 93
        1
 72
     4
 94
        3
 73
     0
 74
     0
 95
       23
 96
       19
 40
0.0
 40
0.0
 40
0.0
 40
0.0
 40
1.0
 40
1.0
 40
1.0
 40
2.0
 40
2.0
 40
2.0
 40
3.0
 40
3.0
 40
3.0
 40
4.0
 40
4.0
 40
4.0
 40
5.0
 40
5.0
 40
5.0
 40
6.0
 40
6.0
 40
6.0
 40
6.0
 10
150.3658538712556
 20
-181.2689501074285
 10
150.3658538712556
 20
-188.3678360462445
 10
150.404005461499
 20
-195.2457974734365
 10
150.3028439277882
 20
-202.1216991533007
 10
150.2934323159794
 20
-202.7617490241237
 10
149.5367879115096
 20
-203.6745227296591
 10
148.897795301271
 20
-203.9776378039553
 10
142.5938830890151
 20
-206.9680454159319
 10
135.9188835187724
 20
-208.1367859150262
 10
128.9773811327836
 20
-207.5622758752606
 10
128.2328668070932
 20
-207.5006562084701
 10
126.9564834216772
 20
-206.5607204156107
 10
126.9476633589154
 20
-206.0118043974628
 10
126.8161799515661
 20
-197.8333716631318
 10
126.8568107305131
 20
-189.6521748807754
 10
126.8568107305131
 20
-181.2689501074285
 10
134.6919110953539
 20
-181.2689501074285
 10
142.3833115680256
 20
-181.2689501074285
 10
150.3658538712556
 20
-181.2689501074285
 97
        0
 97
        1
330
99
 75
     2
 76
     1
 98
        1
 10
0.0
 20
0.0
450
        0
451
        0
460
0.0
461
0.0
452
        0
462
0.0
453
        0
470

  0
SPLINE
  5
9B
330
70
100
AcDbEntity
  8
Layer 1
100
AcDbSpline
210
0.0
220
0.0
230
1.0
 70
     9
 71
     3
 72
    17
 73
    13
 74
     0
 42
0.0000000001
 43
0.0000000001
 40
0.0
 40
0.0
 40
0.0
 40
0.0
 40
1.0
 40
1.0
 40
1.0
 40
2.0
 40
2.0
 40
2.0
 40
3.0
 40
3.0
 40
3.0
 40
4.0
 40
4.0
 40
4.0
 40
4.0
 10
113.51116512515
 20
-129.3930708636905
 30
0.0
 10
116.7928532546496
 20
-129.3930708636905
 30
0.0
 10
119.8878910431738
 20
-129.3930708636905
 30
0.0
 10
123.1732481060911
 20
-129.3930708636905
 30
0.0
 10
123.1732481060911
 20
-140.3273259225559
 30
0.0
 10
123.1732481060911
 20
-151.215376197846
 30
0.0
 10
123.1732481060911
 20
-162.4548858104877
 30
0.0
 10
116.8866370418146
 20
-162.4548858104877
 30
0.0
 10
110.6504871052603
 20
-162.4548858104877
 30
0.0
 10
104.1979099768095
 20
-162.4548858104877
 30
0.0
 10
108.4201743847845
 20
-151.8136331309809
 30
0.0
 10
112.7860190457951
 20
-141.2333091062596
 30
0.0
 10
113.51116512515
 20
-129.3930708636905
 30
0.0
  0
HATCH
  5
9C
330
70
100
AcDbEntity
  8
Layer 1
 62
   251
420
  5131597
440
 33554687
100
AcDbHatch
 10
0.0
 20
0.0
 30
0.0
210
0.0
220
0.0
230
1.0
  2
SOLID
 70
     1
 71
     1
 91
        1
 92
        1
 93
        1
 72
     4
 94
        3
 73
     0
 74
     0
 95
       17
 96
       13
 40
0.0
 40
0.0
 40
0.0
 40
0.0
 40
1.0
 40
1.0
 40
1.0
 40
2.0
 40
2.0
 40
2.0
 40
3.0
 40
3.0
 40
3.0
 40
4.0
 40
4.0
 40
4.0
 40
4.0
 10
113.51116512515
 20
-129.3930708636905
 10
116.7928532546496
 20
-129.3930708636905
 10
119.8878910431738
 20
-129.3930708636905
 10
123.1732481060911
 20
-129.3930708636905
 10
123.1732481060911
 20
-140.3273259225559
 10
123.1732481060911
 20
-151.215376197846
 10
123.1732481060911
 20
-162.4548858104877
 10
116.8866370418146
 20
-162.4548858104877
 10
110.6504871052603
 20
-162.4548858104877
 10
104.1979099768095
 20
-162.4548858104877
 10
108.4201743847845
 20
-151.8136331309809
 10
112.7860190457951
 20
-141.2333091062596
 10
113.51116512515
 20
-129.3930708636905
 97
        0
 97
        1
330
9B
 75
     2
 76
     1
 98
        1
 10
0.0
 20
0.0
450
        0
451
        0
460
0.0
461
0.0
452
        0
462
0.0
453
        0
470

  0
SPLINE
  5
9D
330
70
100
AcDbEntity
  8
Layer 1
100
AcDbSpline
210
0.0
220
0.0
230
1.0
 70
     9
 71
     3
 72
    17
 73
    13
 74
     0
 42
0.0000000001
 43
0.0000000001
 40
0.0
 40
0.0
 40
0.0
 40
0.0
 40
1.0
 40
1.0
 40
1.0
 40
2.0
 40
2.0
 40
2.0
 40
3.0
 40
3.0
 40
3.0
 40
4.0
 40
4.0
 40
4.0
 40
4.0
 10
127.0521880815915
 20
-129.3829581687522
 30
0.0
 10
131.5116503643044
 20
-129.3829581687522
 30
0.0
 10
135.7719533700075
 20
-129.3829581687522
 30
0.0
 10
140.0475768313745
 20
-129.3829581687522
 30
0.0
 10
140.0475768313745
 20
-140.3268209522437
 30
0.0
 10
140.0475768313745
 20
-151.1580886447865
 30
0.0
 10
140.0475768313745
 20
-162.1869990598198
 30
0.0
 10
135.5876891650769
 20
-162.1869990598198
 30
0.0
 10
131.4206515102948
 20
-162.1869990598198
 30
0.0
 10
127.0521880815915
 20
-162.1869990598198
 30
0.0
 10
127.0521880815915
 20
-151.3616315467149
 30
0.0
 10
127.0521880815915
 20
-140.4674684729075
 30
0.0
 10
127.0521880815915
 20
-129.3829581687522
 30
0.0
  0
HATCH
  5
9E
330
70
100
AcDbEntity
  8
Layer 1
 62
   251
420
  5131598
440
 33554687
100
AcDbHatch
 10
0.0
 20
0.0
 30
0.0
210
0.0
220
0.0
230
1.0
  2
SOLID
 70
     1
 71
     1
 91
        1
 92
        1
 93
        1
 72
     4
 94
        3
 73
     0
 74
     0
 95
       17
 96
       13
 40
0.0
 40
0.0
 40
0.0
 40
0.0
 40
1.0
 40
1.0
 40
1.0
 40
2.0
 40
2.0
 40
2.0
 40
3.0
 40
3.0
 40
3.0
 40
4.0
 40
4.0
 40
4.0
 40
4.0
 10
127.0521880815915
 20
-129.3829581687522
 10
131.5116503643044
 20
-129.3829581687522
 10
135.7719533700075
 20
-129.3829581687522
 10
140.0475768313745
 20
-129.3829581687522
 10
140.0475768313745
 20
-140.3268209522437
 10
140.0475768313745
 20
-151.1580886447865
 10
140.0475768313745
 20
-162.1869990598198
 10
135.5876891650769
 20
-162.1869990598198
 10
131.4206515102948
 20
-162.1869990598198
 10
127.0521880815915
 20
-162.1869990598198
 10
127.0521880815915
 20
-151.3616315467149
 10
127.0521880815915
 20
-140.4674684729075
 10
127.0521880815915
 20
-129.3829581687522
 97
        0
 97
        1
330
9D
 75
     2
 76
     1
 98
        1
 10
0.0
 20
0.0
450
        0
451
        0
460
0.0
461
0.0
452
        0
462
0.0
453
        0
470

  0
SPLINE
  5
9F
330
70
100
AcDbEntity
  8
Layer 1
100
AcDbSpline
210
0.0
220
0.0
230
1.0
 70
     9
 71
     3
 72
    32
 73
    28
 74
     0
 42
0.0000000001
 43
0.0000000001
 40
0.0
 40
0.0
 40
0.0
 40
0.0
 40
1.0
 40
1.0
 40
1.0
 40
2.0
 40
2.0
 40
2.0
 40
3.0
 40
3.0
 40
3.0
 40
4.0
 40
4.0
 40
4.0
 40
5.0
 40
5.0
 40
5.0
 40
6.0
 40
6.0
 40
6.0
 40
7.0
 40
7.0
 40
7.0
 40
8.0
 40
8.0
 40
8.0
 40
9.0
 40
9.0
 40
9.0
 40
9.0
 10
101.9884942249259
 20
-180.2596074740145
 30
0.0
 10
106.4175548745782
 20
-180.2596074740145
 30
0.0
 10
110.5299972049256
 20
-180.258291893464
 30
0.0
 10
114.6424395352727
 20
-180.2601655990963
 30
0.0
 10
116.743920849185
 20
-180.261122384951
 30
0.0
 10
118.8454353961898
 20
-180.2762449169348
 30
0.0
 10
120.9468834770094
 20
-180.2690557343309
 30
0.0
 10
122.5238734777412
 20
-180.2636472365126
 30
0.0
 10
123.3688447955799
 20
-180.9626989017185
 30
0.0
 10
123.3666181783794
 20
-182.6068556611388
 30
0.0
 10
123.356615017523
 20
-189.9957673122093
 30
0.0
 10
123.3586621760237
 20
-197.3847188293575
 30
0.0
 10
123.365867110488
 20
-204.7736437691207
 30
0.0
 10
123.3673758928894
 20
-206.3202748148077
 30
0.0
 10
122.9364025021338
 20
-206.8891504489831
 30
0.0
 10
121.4841828240567
 20
-205.7782556280302
 30
0.0
 10
120.9845299242453
 20
-205.3960329677058
 30
0.0
 10
120.3367637775747
 20
-205.1677199430905
 30
0.0
 10
119.7226095807055
 20
-204.9810271031618
 30
0.0
 10
115.4388307184278
 20
-203.6787485338514
 30
0.0
 10
112.1145709973763
 20
-200.8293605259283
 30
0.0
 10
109.3476169450854
 20
-197.602254724414
 30
0.0
 10
105.826025767114
 20
-193.4950122459683
 30
0.0
 10
103.5120321196072
 20
-188.589106063873
 30
0.0
 10
102.4836739504807
 20
-183.1840765941595
 30
0.0
 10
102.3248596478217
 20
-182.3493473792575
 30
0.0
 10
102.198853054124
 20
-181.5083857676071
 30
0.0
 10
101.9884942249259
 20
-180.2596074740145
 30
0.0
  0
HATCH
  5
A0
330
70
100
AcDbEntity
  8
Layer 1
 62
   251
420
  5066061
440
 33554687
100
AcDbHatch
 10
0.0
 20
0.0
 30
0.0
210
0.0
220
0.0
230
1.0
  2
SOLID
 70
     1
 71
     1
 91
        1
 92
        1
 93
        1
 72
     4
 94
        3
 73
     0
 74
     0
 95
       32
 96
       28
 40
0.0
 40
0.0
 40
0.0
 40
0.0
 40
1.0
 40
1.0
 40
1.0
 40
2.0
 40
2.0
 40
2.0
 40
3.0
 40
3.0
 40
3.0
 40
4.0
 40
4.0
 40
4.0
 40
5.0
 40
5.0
 40
5.0
 40
6.0
 40
6.0
 40
6.0
 40
7.0
 40
7.0
 40
7.0
 40
8.0
 40
8.0
 40
8.0
 40
9.0
 40
9.0
 40
9.0
 40
9.0
 10
101.9884942249259
 20
-180.2596074740145
 10
106.4175548745782
 20
-180.2596074740145
 10
110.5299972049256
 20
-180.258291893464
 10
114.6424395352727
 20
-180.2601655990963
 10
116.743920849185
 20
-180.261122384951
 10
118.8454353961898
 20
-180.2762449169348
 10
120.9468834770094
 20
-180.2690557343309
 10
122.5238734777412
 20
-180.2636472365126
 10
123.3688447955799
 20
-180.9626989017185
 10
123.3666181783794
 20
-182.6068556611388
 10
123.356615017523
 20
-189.9957673122093
 10
123.3586621760237
 20
-197.3847188293575
 10
123.365867110488
 20
-204.7736437691207
 10
123.3673758928894
 20
-206.3202748148077
 10
122.9364025021338
 20
-206.8891504489831
 10
121.4841828240567
 20
-205.7782556280302
 10
120.9845299242453
 20
-205.3960329677058
 10
120.3367637775747
 20
-205.1677199430905
 10
119.7226095807055
 20
-204.9810271031618
 10
115.4388307184278
 20
-203.6787485338514
 10
112.1145709973763
 20
-200.8293605259283
 10
109.3476169450854
 20
-197.602254724414
 10
105.826025767114
 20
-193.4950122459683
 10
103.5120321196072
 20
-188.589106063873
 10
102.4836739504807
 20
-183.1840765941595
 10
102.3248596478217
 20
-182.3493473792575
 10
102.198853054124
 20
-181.5083857676071
 10
101.9884942249259
 20
-180.2596074740145
 97
        0
 97
        1
330
9F
 75
     2
 76
     1
 98
        1
 10
0.0
 20
0.0
450
        0
451
        0
460
0.0
461
0.0
452
        0
462
0.0
453
        0
470

  0
SPLINE
  5
A1
330
70
100
AcDbEntity
  8
Layer 1
100
AcDbSpline
210
0.0
220
0.0
230
1.0
 70
     9
 71
     3
 72
    26
 73
    22
 74
     0
 42
0.0000000001
 43
0.0000000001
 40
0.0
 40
0.0
 40
0.0
 40
0.0
 40
1.0
 40
1.0
 40
1.0
 40
2.0
 40
2.0
 40
2.0
 40
3.0
 40
3.0
 40
3.0
 40
4.0
 40
4.0
 40
4.0
 40
5.0
 40
5.0
 40
5.0
 40
6.0
 40
6.0
 40
6.0
 40
7.0
 40
7.0
 40
7.0
 40
7.0
 10
122.6180161823058
 20
-125.1630674445907
 30
0.0
 10
122.6180161823058
 20
-111.0392870063994
 30
0.0
 10
122.6180161823058
 20
-97.02421471662109
 30
0.0
 10
122.6180161823058
 20
-83.08303420109174
 30
0.0
 10
126.5056632280534
 20
-83.08303420109174
 30
0.0
 10
130.2659876496383
 20
-83.08303420109174
 30
0.0
 10
134.4060998528393
 20
-83.08303420109174
 30
0.0
 10
133.8985840033315
 20
-84.07270292536475
 30
0.0
 10
133.5224252754212
 20
-84.5988487690362
 30
0.0
 10
133.3474397499294
 20
-85.18501299206148
 30
0.0
 10
132.740111630269
 20
-87.21942542637846
 30
0.0
 10
131.7478977725959
 20
-89.2674255487034
 30
0.0
 10
131.7151432365824
 20
-91.3232062004455
 30
0.0
 10
131.5489578339968
 20
-101.7527301434873
 30
0.0
 10
131.6386007778302
 20
-112.1863270707583
 30
0.0
 10
131.6386007778302
 20
-122.6184954635939
 30
0.0
 10
131.6386007778302
 20
-123.4059833769124
 30
0.0
 10
131.6385941312117
 20
-124.1934712902309
 30
0.0
 10
131.6385941312117
 20
-125.1630674445907
 30
0.0
 10
128.6148147397246
 20
-125.1630674445907
 30
0.0
 10
125.7574799689456
 20
-125.1630674445907
 30
0.0
 10
122.6180161823058
 20
-125.1630674445907
 30
0.0
  0
HATCH
  5
A2
330
70
100
AcDbEntity
  8
Layer 1
 62
   251
420
  5131598
440
 33554687
100
AcDbHatch
 10
0.0
 20
0.0
 30
0.0
210
0.0
220
0.0
230
1.0
  2
SOLID
 70
     1
 71
     1
 91
        1
 92
        1
 93
        1
 72
     4
 94
        3
 73
     0
 74
     0
 95
       26
 96
       22
 40
0.0
 40
0.0
 40
0.0
 40
0.0
 40
1.0
 40
1.0
 40
1.0
 40
2.0
 40
2.0
 40
2.0
 40
3.0
 40
3.0
 40
3.0
 40
4.0
 40
4.0
 40
4.0
 40
5.0
 40
5.0
 40
5.0
 40
6.0
 40
6.0
 40
6.0
 40
7.0
 40
7.0
 40
7.0
 40
7.0
 10
122.6180161823058
 20
-125.1630674445907
 10
122.6180161823058
 20
-111.0392870063994
 10
122.6180161823058
 20
-97.02421471662109
 10
122.6180161823058
 20
-83.08303420109174
 10
126.5056632280534
 20
-83.08303420109174
 10
130.2659876496383
 20
-83.08303420109174
 10
134.4060998528393
 20
-83.08303420109174
 10
133.8985840033315
 20
-84.07270292536475
 10
133.5224252754212
 20
-84.5988487690362
 10
133.3474397499294
 20
-85.18501299206148
 10
132.740111630269
 20
-87.21942542637846
 10
131.7478977725959
 20
-89.2674255487034
 10
131.7151432365824
 20
-91.3232062004455
 10
131.5489578339968
 20
-101.7527301434873
 10
131.6386007778302
 20
-112.1863270707583
 10
131.6386007778302
 20
-122.6184954635939
 10
131.6386007778302
 20
-123.4059833769124
 10
131.6385941312117
 20
-124.1934712902309
 10
131.6385941312117
 20
-125.1630674445907
 10
128.6148147397246
 20
-125.1630674445907
 10
125.7574799689456
 20
-125.1630674445907
 10
122.6180161823058
 20
-125.1630674445907
 97
        0
 97
        1
330
A1
 75
     2
 76
     1
 98
        1
 10
0.0
 20
0.0
450
        0
451
        0
460
0.0
461
0.0
452
        0
462
0.0
453
        0
470

  0
SPLINE
  5
A3
330
70
100
AcDbEntity
  8
Layer 1
100
AcDbSpline
210
0.0
220
0.0
230
1.0
 70
     9
 71
     3
 72
    23
 73
    19
 74
     0
 42
0.0000000001
 43
0.0000000001
 40
0.0
 40
0.0
 40
0.0
 40
0.0
 40
1.0
 40
1.0
 40
1.0
 40
2.0
 40
2.0
 40
2.0
 40
3.0
 40
3.0
 40
3.0
 40
4.0
 40
4.0
 40
4.0
 40
5.0
 40
5.0
 40
5.0
 40
6.0
 40
6.0
 40
6.0
 40
6.0
 10
161.584880651505
 20
-63.8360973926363
 30
0.0
 10
157.0900118319934
 20
-63.8360973926363
 30
0.0
 10
152.7777655026405
 20
-63.8360973926363
 30
0.0
 10
148.3314834644307
 20
-63.8360973926363
 30
0.0
 10
148.3314834644307
 20
-51.9936997375473
 30
0.0
 10
148.3314834644307
 20
-40.28202959422527
 30
0.0
 10
148.3314834644307
 20
-28.59076423812704
 30
0.0
 10
152.118567172134
 20
-27.73663685445251
 30
0.0
 10
152.295181119161
 20
-27.74106863337722
 30
0.0
 10
154.7370955864964
 20
-32.45624221304524
 30
0.0
 10
156.7593957341079
 20
-36.36114773839898
 30
0.0
 10
158.5337903045636
 20
-40.39443532130565
 30
0.0
 10
160.4114467401783
 20
-44.37394024378047
 30
0.0
 10
160.5648374021338
 20
-44.69902484883426
 30
0.0
 10
160.763770694114
 20
-45.043554133084
 30
0.0
 10
160.7795896461665
 20
-45.3865153516275
 30
0.0
 10
161.0592527665598
 20
-51.44817898031529
 30
0.0
 10
161.3137119095665
 20
-57.51100536959017
 30
0.0
 10
161.584880651505
 20
-63.8360973926363
 30
0.0
  0
HATCH
  5
A4
330
70
100
AcDbEntity
  8
Layer 1
 62
   251
420
  5131598
440
 33554687
100
AcDbHatch
 10
0.0
 20
0.0
 30
0.0
210
0.0
220
0.0
230
1.0
  2
SOLID
 70
     1
 71
     1
 91
        1
 92
        1
 93
        1
 72
     4
 94
        3
 73
     0
 74
     0
 95
       23
 96
       19
 40
0.0
 40
0.0
 40
0.0
 40
0.0
 40
1.0
 40
1.0
 40
1.0
 40
2.0
 40
2.0
 40
2.0
 40
3.0
 40
3.0
 40
3.0
 40
4.0
 40
4.0
 40
4.0
 40
5.0
 40
5.0
 40
5.0
 40
6.0
 40
6.0
 40
6.0
 40
6.0
 10
161.584880651505
 20
-63.8360973926363
 10
157.0900118319934
 20
-63.8360973926363
 10
152.7777655026405
 20
-63.8360973926363
 10
148.3314834644307
 20
-63.8360973926363
 10
148.3314834644307
 20
-51.9936997375473
 10
148.3314834644307
 20
-40.28202959422527
 10
148.3314834644307
 20
-28.59076423812704
 10
152.118567172134
 20
-27.73663685445251
 10
152.295181119161
 20
-27.74106863337722
 10
154.7370955864964
 20
-32.45624221304524
 10
156.7593957341079
 20
-36.36114773839898
 10
158.5337903045636
 20
-40.39443532130565
 10
160.4114467401783
 20
-44.37394024378047
 10
160.5648374021338
 20
-44.69902484883426
 10
160.763770694114
 20
-45.043554133084
 10
160.7795896461665
 20
-45.3865153516275
 10
161.0592527665598
 20
-51.44817898031529
 10
161.3137119095665
 20
-57.51100536959017
 10
161.584880651505
 20
-63.8360973926363
 97
        0
 97
        1
330
A3
 75
     2
 76
     1
 98
        1
 10
0.0
 20
0.0
450
        0
451
        0
460
0.0
461
0.0
452
        0
462
0.0
453
        0
470

  0
SPLINE
  5
A5
330
70
100
AcDbEntity
  8
Layer 1
100
AcDbSpline
210
0.0
220
0.0
230
1.0
 70
     9
 71
     3
 72
    17
 73
    13
 74
     0
 42
0.0000000001
 43
0.0000000001
 40
0.0
 40
0.0
 40
0.0
 40
0.0
 40
1.0
 40
1.0
 40
1.0
 40
2.0
 40
2.0
 40
2.0
 40
3.0
 40
3.0
 40
3.0
 40
4.0
 40
4.0
 40
4.0
 40
4.0
 10
133.9218405214954
 20
-63.78595251175693
 30
0.0
 10
133.9218405214954
 20
-51.96496294017078
 30
0.0
 10
133.9218405214954
 20
-40.25536915504032
 30
0.0
 10
133.9218405214954
 20
-28.40638363068022
 30
0.0
 10
137.4902770667196
 20
-28.40638363068022
 30
0.0
 10
140.9346013045211
 20
-28.40638363068022
 30
0.0
 10
144.5431236059745
 20
-28.40638363068022
 30
0.0
 10
144.5431236059745
 20
-40.18184281983304
 30
0.0
 10
144.5431236059745
 20
-51.89309104717054
 30
0.0
 10
144.5431236059745
 20
-63.78595251175693
 30
0.0
 10
141.1020030382938
 20
-63.78595251175693
 30
0.0
 10
137.6598455981265
 20
-63.78595251175693
 30
0.0
 10
133.9218405214954
 20
-63.78595251175693
 30
0.0
  0
HATCH
  5
A6
330
70
100
AcDbEntity
  8
Layer 1
 62
   251
420
  5131854
440
 33554687
100
AcDbHatch
 10
0.0
 20
0.0
 30
0.0
210
0.0
220
0.0
230
1.0
  2
SOLID
 70
     1
 71
     1
 91
        1
 92
        1
 93
        1
 72
     4
 94
        3
 73
     0
 74
     0
 95
       17
 96
       13
 40
0.0
 40
0.0
 40
0.0
 40
0.0
 40
1.0
 40
1.0
 40
1.0
 40
2.0
 40
2.0
 40
2.0
 40
3.0
 40
3.0
 40
3.0
 40
4.0
 40
4.0
 40
4.0
 40
4.0
 10
133.9218405214954
 20
-63.78595251175693
 10
133.9218405214954
 20
-51.96496294017078
 10
133.9218405214954
 20
-40.25536915504032
 10
133.9218405214954
 20
-28.40638363068022
 10
137.4902770667196
 20
-28.40638363068022
 10
140.9346013045211
 20
-28.40638363068022
 10
144.5431236059745
 20
-28.40638363068022
 10
144.5431236059745
 20
-40.18184281983304
 10
144.5431236059745
 20
-51.89309104717054
 10
144.5431236059745
 20
-63.78595251175693
 10
141.1020030382938
 20
-63.78595251175693
 10
137.6598455981265
 20
-63.78595251175693
 10
133.9218405214954
 20
-63.78595251175693
 97
        0
 97
        1
330
A5
 75
     2
 76
     1
 98
        1
 10
0.0
 20
0.0
450
        0
451
        0
460
0.0
461
0.0
452
        0
462
0.0
453
        0
470

  0
SPLINE
  5
A7
330
70
100
AcDbEntity
  8
Layer 1
100
AcDbSpline
210
0.0
220
0.0
230
1.0
 70
     9
 71
     3
 72
    17
 73
    13
 74
     0
 42
0.0000000001
 43
0.0000000001
 40
0.0
 40
0.0
 40
0.0
 40
0.0
 40
1.0
 40
1.0
 40
1.0
 40
2.0
 40
2.0
 40
2.0
 40
3.0
 40
3.0
 40
3.0
 40
4.0
 40
4.0
 40
4.0
 40
4.0
 10
161.5992905204329
 20
-68.51968375040127
 30
0.0
 10
161.5992905204329
 20
-78.19819059649518
 30
0.0
 10
161.5992905204329
 20
-87.66369963599734
 30
0.0
 10
161.5992905204329
 20
-97.14328140078144
 30
0.0
 10
157.2948872009211
 20
-97.14328140078144
 30
0.0
 10
153.0933336562203
 20
-97.14328140078144
 30
0.0
 10
148.5531614849504
 20
-97.14328140078144
 30
0.0
 10
148.5531614849504
 20
-87.45235627161296
 30
0.0
 10
148.5531614849504
 20
-78.0848779161563
 30
0.0
 10
148.5531614849504
 20
-68.51968375040127
 30
0.0
 10
152.7002659308232
 20
-68.51968375040127
 30
0.0
 10
157.0565926341293
 20
-68.51968375040127
 30
0.0
 10
161.5992905204329
 20
-68.51968375040127
 30
0.0
  0
HATCH
  5
A8
330
70
100
AcDbEntity
  8
Layer 1
 62
   251
420
  5131598
440
 33554687
100
AcDbHatch
 10
0.0
 20
0.0
 30
0.0
210
0.0
220
0.0
230
1.0
  2
SOLID
 70
     1
 71
     1
 91
        1
 92
        1
 93
        1
 72
     4
 94
        3
 73
     0
 74
     0
 95
       17
 96
       13
 40
0.0
 40
0.0
 40
0.0
 40
0.0
 40
1.0
 40
1.0
 40
1.0
 40
2.0
 40
2.0
 40
2.0
 40
3.0
 40
3.0
 40
3.0
 40
4.0
 40
4.0
 40
4.0
 40
4.0
 10
161.5992905204329
 20
-68.51968375040127
 10
161.5992905204329
 20
-78.19819059649518
 10
161.5992905204329
 20
-87.66369963599734
 10
161.5992905204329
 20
-97.14328140078144
 10
157.2948872009211
 20
-97.14328140078144
 10
153.0933336562203
 20
-97.14328140078144
 10
148.5531614849504
 20
-97.14328140078144
 10
148.5531614849504
 20
-87.45235627161296
 10
148.5531614849504
 20
-78.0848779161563
 10
148.5531614849504
 20
-68.51968375040127
 10
152.7002659308232
 20
-68.51968375040127
 10
157.0565926341293
 20
-68.51968375040127
 10
161.5992905204329
 20
-68.51968375040127
 97
        0
 97
        1
330
A7
 75
     2
 76
     1
 98
        1
 10
0.0
 20
0.0
450
        0
451
        0
460
0.0
461
0.0
452
        0
462
0.0
453
        0
470

  0
SPLINE
  5
A9
330
70
100
AcDbEntity
  8
Layer 1
100
AcDbSpline
210
0.0
220
0.0
230
1.0
 70
     9
 71
     3
 72
    29
 73
    25
 74
     0
 42
0.0000000001
 43
0.0000000001
 40
0.0
 40
0.0
 40
0.0
 40
0.0
 40
1.0
 40
1.0
 40
1.0
 40
2.0
 40
2.0
 40
2.0
 40
3.0
 40
3.0
 40
3.0
 40
4.0
 40
4.0
 40
4.0
 40
5.0
 40
5.0
 40
5.0
 40
6.0
 40
6.0
 40
6.0
 40
7.0
 40
7.0
 40
7.0
 40
8.0
 40
8.0
 40
8.0
 40
8.0
 10
112.2789684595832
 20
-68.4634659370824
 30
0.0
 10
114.4241778766676
 20
-68.4634659370824
 30
0.0
 10
116.5609062085338
 20
-68.4634659370824
 30
0.0
 10
118.852607097561
 20
-68.4634659370824
 30
0.0
 10
118.852607097561
 20
-87.36724884095389
 30
0.0
 10
118.852607097561
 20
-106.1854060551622
 30
0.0
 10
118.852607097561
 20
-125.1841831768597
 30
0.0
 10
117.139839973923
 20
-125.1841831768597
 30
0.0
 10
115.4430446745624
 20
-125.1841831768597
 30
0.0
 10
113.6925779307405
 20
-125.1841831768597
 30
0.0
 10
113.6153907499929
 20
-125.0327186605587
 30
0.0
 10
113.4464137676334
 20
-124.8498263866636
 30
0.0
 10
113.4351743357342
 20
-124.6576851828388
 30
0.0
 10
112.9629121507994
 20
-116.5884323455011
 30
0.0
 10
112.403958120649
 20
-108.5223687943469
 30
0.0
 10
112.082248491566
 20
-100.446890204607
 30
0.0
 10
111.8860868395041
 20
-95.52293133384704
 30
0.0
 10
112.0046558670898
 20
-90.58351106944639
 30
0.0
 10
112.0810188671422
 20
-85.65256234646927
 30
0.0
 10
112.1447931717378
 20
-81.53435005242455
 30
0.0
 10
112.3841910772024
 20
-77.41909449244538
 30
0.0
 10
112.4802214214236
 20
-73.3010084409792
 30
0.0
 10
112.5152690408227
 20
-71.79813705945939
 30
0.0
 10
112.3612403034903
 20
-70.29085383205407
 30
0.0
 10
112.2789684595832
 20
-68.4634659370824
 30
0.0
  0
HATCH
  5
AA
330
70
100
AcDbEntity
  8
Layer 1
 62
   251
420
  5131597
440
 33554687
100
AcDbHatch
 10
0.0
 20
0.0
 30
0.0
210
0.0
220
0.0
230
1.0
  2
SOLID
 70
     1
 71
     1
 91
        1
 92
        1
 93
        1
 72
     4
 94
        3
 73
     0
 74
     0
 95
       29
 96
       25
 40
0.0
 40
0.0
 40
0.0
 40
0.0
 40
1.0
 40
1.0
 40
1.0
 40
2.0
 40
2.0
 40
2.0
 40
3.0
 40
3.0
 40
3.0
 40
4.0
 40
4.0
 40
4.0
 40
5.0
 40
5.0
 40
5.0
 40
6.0
 40
6.0
 40
6.0
 40
7.0
 40
7.0
 40
7.0
 40
8.0
 40
8.0
 40
8.0
 40
8.0
 10
112.2789684595832
 20
-68.4634659370824
 10
114.4241778766676
 20
-68.4634659370824
 10
116.5609062085338
 20
-68.4634659370824
 10
118.852607097561
 20
-68.4634659370824
 10
118.852607097561
 20
-87.36724884095389
 10
118.852607097561
 20
-106.1854060551622
 10
118.852607097561
 20
-125.1841831768597
 10
117.139839973923
 20
-125.1841831768597
 10
115.4430446745624
 20
-125.1841831768597
 10
113.6925779307405
 20
-125.1841831768597
 10
113.6153907499929
 20
-125.0327186605587
 10
113.4464137676334
 20
-124.8498263866636
 10
113.4351743357342
 20
-124.6576851828388
 10
112.9629121507994
 20
-116.5884323455011
 10
112.403958120649
 20
-108.5223687943469
 10
112.082248491566
 20
-100.446890204607
 10
111.8860868395041
 20
-95.52293133384704
 10
112.0046558670898
 20
-90.58351106944639
 10
112.0810188671422
 20
-85.65256234646927
 10
112.1447931717378
 20
-81.53435005242455
 10
112.3841910772024
 20
-77.41909449244538
 10
112.4802214214236
 20
-73.3010084409792
 10
112.5152690408227
 20
-71.79813705945939
 10
112.3612403034903
 20
-70.29085383205407
 10
112.2789684595832
 20
-68.4634659370824
 97
        0
 97
        1
330
A9
 75
     2
 76
     1
 98
        1
 10
0.0
 20
0.0
450
        0
451
        0
460
0.0
461
0.0
452
        0
462
0.0
453
        0
470

  0
SPLINE
  5
AB
330
70
100
AcDbEntity
  8
Layer 1
100
AcDbSpline
210
0.0
220
0.0
230
1.0
 70
     9
 71
     3
 72
    20
 73
    16
 74
     0
 42
0.0000000001
 43
0.0000000001
 40
0.0
 40
0.0
 40
0.0
 40
0.0
 40
1.0
 40
1.0
 40
1.0
 40
2.0
 40
2.0
 40
2.0
 40
3.0
 40
3.0
 40
3.0
 40
4.0
 40
4.0
 40
4.0
 40
5.0
 40
5.0
 40
5.0
 40
5.0
 10
153.9526483768024
 20
-201.1850988222411
 30
0.0
 10
153.9526483768024
 20
-194.3669365109783
 30
0.0
 10
153.9526483768024
 20
-187.9293224847937
 30
0.0
 10
153.9526483768024
 20
-181.2933348580345
 30
0.0
 10
160.3372970640899
 20
-181.2933348580345
 30
0.0
 10
166.6778122044752
 20
-181.2933348580345
 30
0.0
 10
173.2882598157573
 20
-181.2933348580345
 30
0.0
 10
173.7093762712635
 20
-184.9018527096342
 30
0.0
 10
172.9238788958451
 20
-188.3097245942548
 30
0.0
 10
171.1109738177478
 20
-191.5012964322145
 30
0.0
 10
169.1015681100436
 20
-195.0387995114763
 30
0.0
 10
166.2552999590822
 20
-197.4675206718807
 30
0.0
 10
162.1873434464169
 20
-198.4812751511799
 30
0.0
 10
159.5027609373105
 20
-199.1502810828056
 30
0.0
 10
156.9125471177977
 20
-200.1978287069509
 30
0.0
 10
153.9526483768024
 20
-201.1850988222411
 30
0.0
  0
HATCH
  5
AC
330
70
100
AcDbEntity
  8
Layer 1
 62
   251
420
  5131597
440
 33554687
100
AcDbHatch
 10
0.0
 20
0.0
 30
0.0
210
0.0
220
0.0
230
1.0
  2
SOLID
 70
     1
 71
     1
 91
        1
 92
        1
 93
        1
 72
     4
 94
        3
 73
     0
 74
     0
 95
       20
 96
       16
 40
0.0
 40
0.0
 40
0.0
 40
0.0
 40
1.0
 40
1.0
 40
1.0
 40
2.0
 40
2.0
 40
2.0
 40
3.0
 40
3.0
 40
3.0
 40
4.0
 40
4.0
 40
4.0
 40
5.0
 40
5.0
 40
5.0
 40
5.0
 10
153.9526483768024
 20
-201.1850988222411
 10
153.9526483768024
 20
-194.3669365109783
 10
153.9526483768024
 20
-187.9293224847937
 10
153.9526483768024
 20
-181.2933348580345
 10
160.3372970640899
 20
-181.2933348580345
 10
166.6778122044752
 20
-181.2933348580345
 10
173.2882598157573
 20
-181.2933348580345
 10
173.7093762712635
 20
-184.9018527096342
 10
172.9238788958451
 20
-188.3097245942548
 10
171.1109738177478
 20
-191.5012964322145
 10
169.1015681100436
 20
-195.0387995114763
 10
166.2552999590822
 20
-197.4675206718807
 10
162.1873434464169
 20
-198.4812751511799
 10
159.5027609373105
 20
-199.1502810828056
 10
156.9125471177977
 20
-200.1978287069509
 10
153.9526483768024
 20
-201.1850988222411
 97
        0
 97
        1
330
AB
 75
     2
 76
     1
 98
        1
 10
0.0
 20
0.0
450
        0
451
        0
460
0.0
461
0.0
452
        0
462
0.0
453
        0
470

  0
SPLINE
  5
AD
330
70
100
AcDbEntity
  8
Layer 1
100
AcDbSpline
210
0.0
220
0.0
230
1.0
 70
     9
 71
     3
 72
    17
 73
    13
 74
     0
 42
0.0000000001
 43
0.0000000001
 40
0.0
 40
0.0
 40
0.0
 40
0.0
 40
1.0
 40
1.0
 40
1.0
 40
2.0
 40
2.0
 40
2.0
 40
3.0
 40
3.0
 40
3.0
 40
4.0
 40
4.0
 40
4.0
 40
4.0
 10
127.0559101879563
 20
-166.4454535694095
 30
0.0
 10
134.7719496754417
 20
-166.4454535694095
 30
0.0
 10
142.4192897140162
 20
-166.4454535694095
 30
0.0
 10
150.2183919930104
 20
-166.4454535694095
 30
0.0
 10
150.2183919930104
 20
-169.6680545041905
 30
0.0
 10
150.2183919930104
 20
-172.8210758454153
 30
0.0
 10
150.2183919930104
 20
-176.1686835098716
 30
0.0
 10
142.5517235878114
 20
-176.1686835098716
 30
0.0
 10
134.9059189181134
 20
-176.1686835098716
 30
0.0
 10
127.0559101879563
 20
-176.1686835098716
 30
0.0
 10
127.0559101879563
 20
-173.0058418249427
 30
0.0
 10
127.0559101879563
 20
-169.8086355813927
 30
0.0
 10
127.0559101879563
 20
-166.4454535694095
 30
0.0
  0
HATCH
  5
AE
330
70
100
AcDbEntity
  8
Layer 1
 62
   251
420
  5131598
440
 33554687
100
AcDbHatch
 10
0.0
 20
0.0
 30
0.0
210
0.0
220
0.0
230
1.0
  2
SOLID
 70
     1
 71
     1
 91
        1
 92
        1
 93
        1
 72
     4
 94
        3
 73
     0
 74
     0
 95
       17
 96
       13
 40
0.0
 40
0.0
 40
0.0
 40
0.0
 40
1.0
 40
1.0
 40
1.0
 40
2.0
 40
2.0
 40
2.0
 40
3.0
 40
3.0
 40
3.0
 40
4.0
 40
4.0
 40
4.0
 40
4.0
 10
127.0559101879563
 20
-166.4454535694095
 10
134.7719496754417
 20
-166.4454535694095
 10
142.4192897140162
 20
-166.4454535694095
 10
150.2183919930104
 20
-166.4454535694095
 10
150.2183919930104
 20
-169.6680545041905
 10
150.2183919930104
 20
-172.8210758454153
 10
150.2183919930104
 20
-176.1686835098716
 10
142.5517235878114
 20
-176.1686835098716
 10
134.9059189181134
 20
-176.1686835098716
 10
127.0559101879563
 20
-176.1686835098716
 10
127.0559101879563
 20
-173.0058418249427
 10
127.0559101879563
 20
-169.8086355813927
 10
127.0559101879563
 20
-166.4454535694095
 97
        0
 97
        1
330
AD
 75
     2
 76
     1
 98
        1
 10
0.0
 20
0.0
450
        0
451
        0
460
0.0
461
0.0
452
        0
462
0.0
453
        0
470

  0
SPLINE
  5
AF
330
70
100
AcDbEntity
  8
Layer 1
100
AcDbSpline
210
0.0
220
0.0
230
1.0
 70
     9
 71
     3
 72
    29
 73
    25
 74
     0
 42
0.0000000001
 43
0.0000000001
 40
0.0
 40
0.0
 40
0.0
 40
0.0
 40
1.0
 40
1.0
 40
1.0
 40
2.0
 40
2.0
 40
2.0
 40
3.0
 40
3.0
 40
3.0
 40
4.0
 40
4.0
 40
4.0
 40
5.0
 40
5.0
 40
5.0
 40
6.0
 40
6.0
 40
6.0
 40
7.0
 40
7.0
 40
7.0
 40
8.0
 40
8.0
 40
8.0
 40
8.0
 10
150.1952484673614
 20
-23.89987242169913
 30
0.0
 10
145.0424508214784
 20
-23.89987242169913
 30
0.0
 10
139.9823801504181
 20
-23.9345891306687
 30
0.0
 10
134.9246823221648
 20
-23.84110317943353
 30
0.0
 10
134.4663780360991
 20
-23.83263163801066
 30
0.0
 10
133.6469031468619
 20
-23.01151004415522
 30
0.0
 10
133.6314829919206
 20
-22.54668154952231
 30
0.0
 10
133.4781255630574
 20
-17.92339595582492
 30
0.0
 10
133.4120648216947
 20
-13.29501082640783
 30
0.0
 10
133.4781986758611
 20
-8.670306664794098
 30
0.0
 10
133.4843800310749
 20
-8.237874341215478
 30
0.0
 10
134.5436848559801
 20
-7.495064672928538
 30
0.0
 10
135.1510262688776
 20
-7.454849767466424
 30
0.0
 10
137.3855795319622
 20
-7.306890143793364
 30
0.0
 10
139.6376732212935
 20
-7.345246293402145
 30
0.0
 10
141.8784011929731
 20
-7.433871905381454
 30
0.0
 10
142.3338806661724
 20
-7.451886389054897
 30
0.0
 10
142.9793736693129
 20
-7.891150761628341
 30
0.0
 10
143.1808326763269
 20
-8.308254578490528
 30
0.0
 10
145.5582616508862
 20
-13.23063873919739
 30
0.0
 10
147.8688921094271
 20
-18.1852728953421
 30
0.0
 10
150.1885486759043
 20
-23.13542710105167
 30
0.0
 10
150.2418412631112
 20
-23.24914840868284
 30
0.0
 10
150.1952484673614
 20
-23.40963594714296
 30
0.0
 10
150.1952484673614
 20
-23.89987242169913
 30
0.0
  0
HATCH
  5
B0
330
70
100
AcDbEntity
  8
Layer 1
 62
   251
420
  5066061
440
 33554687
100
AcDbHatch
 10
0.0
 20
0.0
 30
0.0
210
0.0
220
0.0
230
1.0
  2
SOLID
 70
     1
 71
     1
 91
        1
 92
        1
 93
        1
 72
     4
 94
        3
 73
     0
 74
     0
 95
       29
 96
       25
 40
0.0
 40
0.0
 40
0.0
 40
0.0
 40
1.0
 40
1.0
 40
1.0
 40
2.0
 40
2.0
 40
2.0
 40
3.0
 40
3.0
 40
3.0
 40
4.0
 40
4.0
 40
4.0
 40
5.0
 40
5.0
 40
5.0
 40
6.0
 40
6.0
 40
6.0
 40
7.0
 40
7.0
 40
7.0
 40
8.0
 40
8.0
 40
8.0
 40
8.0
 10
150.1952484673614
 20
-23.89987242169913
 10
145.0424508214784
 20
-23.89987242169913
 10
139.9823801504181
 20
-23.9345891306687
 10
134.9246823221648
 20
-23.84110317943353
 10
134.4663780360991
 20
-23.83263163801066
 10
133.6469031468619
 20
-23.01151004415522
 10
133.6314829919206
 20
-22.54668154952231
 10
133.4781255630574
 20
-17.92339595582492
 10
133.4120648216947
 20
-13.29501082640783
 10
133.4781986758611
 20
-8.670306664794098
 10
133.4843800310749
 20
-8.237874341215478
 10
134.5436848559801
 20
-7.495064672928538
 10
135.1510262688776
 20
-7.454849767466424
 10
137.3855795319622
 20
-7.306890143793364
 10
139.6376732212935
 20
-7.345246293402145
 10
141.8784011929731
 20
-7.433871905381454
 10
142.3338806661724
 20
-7.451886389054897
 10
142.9793736693129
 20
-7.891150761628341
 10
143.1808326763269
 20
-8.308254578490528
 10
145.5582616508862
 20
-13.23063873919739
 10
147.8688921094271
 20
-18.1852728953421
 10
150.1885486759043
 20
-23.13542710105167
 10
150.2418412631112
 20
-23.24914840868284
 10
150.1952484673614
 20
-23.40963594714296
 10
150.1952484673614
 20
-23.89987242169913
 97
        0
 97
        1
330
AF
 75
     2
 76
     1
 98
        1
 10
0.0
 20
0.0
450
        0
451
        0
460
0.0
461
0.0
452
        0
462
0.0
453
        0
470

  0
SPLINE
  5
B1
330
70
100
AcDbEntity
  8
Layer 1
100
AcDbSpline
210
0.0
220
0.0
230
1.0
 70
     9
 71
     3
 72
    17
 73
    13
 74
     0
 42
0.0000000001
 43
0.0000000001
 40
0.0
 40
0.0
 40
0.0
 40
0.0
 40
1.0
 40
1.0
 40
1.0
 40
2.0
 40
2.0
 40
2.0
 40
3.0
 40
3.0
 40
3.0
 40
4.0
 40
4.0
 40
4.0
 40
4.0
 10
101.3563409851339
 20
-176.1267975513368
 30
0.0
 10
101.7176777537684
 20
-172.8965157523323
 30
0.0
 10
102.0500684987956
 20
-169.9250843931441
 30
0.0
 10
102.3944497436131
 20
-166.8463601312881
 30
0.0
 10
109.5001302533977
 20
-166.8463601312881
 30
0.0
 10
116.2695450395641
 20
-166.8463601312881
 30
0.0
 10
123.2010176782222
 20
-166.8463601312881
 30
0.0
 10
123.2010176782222
 20
-169.9176028593067
 30
0.0
 10
123.2010176782222
 20
-172.9221629287197
 30
0.0
 10
123.2010176782222
 20
-176.1267975513368
 30
0.0
 10
116.1149513396586
 20
-176.1267975513368
 30
0.0
 10
109.0086593409713
 20
-176.1267975513368
 30
0.0
 10
101.3563409851339
 20
-176.1267975513368
 30
0.0
  0
HATCH
  5
B2
330
70
100
AcDbEntity
  8
Layer 1
 62
   251
420
  5131598
440
 33554687
100
AcDbHatch
 10
0.0
 20
0.0
 30
0.0
210
0.0
220
0.0
230
1.0
  2
SOLID
 70
     1
 71
     1
 91
        1
 92
        1
 93
        1
 72
     4
 94
        3
 73
     0
 74
     0
 95
       17
 96
       13
 40
0.0
 40
0.0
 40
0.0
 40
0.0
 40
1.0
 40
1.0
 40
1.0
 40
2.0
 40
2.0
 40
2.0
 40
3.0
 40
3.0
 40
3.0
 40
4.0
 40
4.0
 40
4.0
 40
4.0
 10
101.3563409851339
 20
-176.1267975513368
 10
101.7176777537684
 20
-172.8965157523323
 10
102.0500684987956
 20
-169.9250843931441
 10
102.3944497436131
 20
-166.8463601312881
 10
109.5001302533977
 20
-166.8463601312881
 10
116.2695450395641
 20
-166.8463601312881
 10
123.2010176782222
 20
-166.8463601312881
 10
123.2010176782222
 20
-169.9176028593067
 10
123.2010176782222
 20
-172.9221629287197
 10
123.2010176782222
 20
-176.1267975513368
 10
116.1149513396586
 20
-176.1267975513368
 10
109.0086593409713
 20
-176.1267975513368
 10
101.3563409851339
 20
-176.1267975513368
 97
        0
 97
        1
330
B1
 75
     2
 76
     1
 98
        1
 10
0.0
 20
0.0
450
        0
451
        0
460
0.0
461
0.0
452
        0
462
0.0
453
        0
470

  0
SPLINE
  5
B3
330
70
100
AcDbEntity
  8
Layer 1
100
AcDbSpline
210
0.0
220
0.0
230
1.0
 70
     9
 71
     3
 72
    20
 73
    16
 74
     0
 42
0.0000000001
 43
0.0000000001
 40
0.0
 40
0.0
 40
0.0
 40
0.0
 40
1.0
 40
1.0
 40
1.0
 40
2.0
 40
2.0
 40
2.0
 40
3.0
 40
3.0
 40
3.0
 40
4.0
 40
4.0
 40
4.0
 40
5.0
 40
5.0
 40
5.0
 40
5.0
 10
172.7208512868628
 20
-176.5970710876922
 30
0.0
 10
166.2446786627045
 20
-176.5970710876922
 30
0.0
 10
160.1904333815099
 20
-176.5970710876922
 30
0.0
 10
153.9979783150356
 20
-176.5970710876922
 30
0.0
 10
153.9979783150356
 20
-173.1579309097879
 30
0.0
 10
153.9979783150356
 20
-169.8677968400852
 30
0.0
 10
153.9979783150356
 20
-166.2751058211675
 30
0.0
 10
158.7586719952042
 20
-166.1393884053943
 30
0.0
 10
163.4330925671238
 20
-165.9818908227309
 30
0.0
 10
168.1088025830341
 20
-165.9120321666337
 30
0.0
 10
168.5539266245957
 20
-165.9053745317266
 30
0.0
 10
169.2728514690256
 20
-166.3518081538653
 30
0.0
 10
169.4147301877236
 20
-166.7486483758606
 30
0.0
 10
170.5469151845821
 20
-169.9154368024409
 30
0.0
 10
171.5705343147115
 20
-173.1210149222214
 30
0.0
 10
172.7208512868628
 20
-176.5970710876922
 30
0.0
  0
HATCH
  5
B4
330
70
100
AcDbEntity
  8
Layer 1
 62
   251
420
  5066061
440
 33554687
100
AcDbHatch
 10
0.0
 20
0.0
 30
0.0
210
0.0
220
0.0
230
1.0
  2
SOLID
 70
     1
 71
     1
 91
        1
 92
        1
 93
        1
 72
     4
 94
        3
 73
     0
 74
     0
 95
       20
 96
       16
 40
0.0
 40
0.0
 40
0.0
 40
0.0
 40
1.0
 40
1.0
 40
1.0
 40
2.0
 40
2.0
 40
2.0
 40
3.0
 40
3.0
 40
3.0
 40
4.0
 40
4.0
 40
4.0
 40
5.0
 40
5.0
 40
5.0
 40
5.0
 10
172.7208512868628
 20
-176.5970710876922
 10
166.2446786627045
 20
-176.5970710876922
 10
160.1904333815099
 20
-176.5970710876922
 10
153.9979783150356
 20
-176.5970710876922
 10
153.9979783150356
 20
-173.1579309097879
 10
153.9979783150356
 20
-169.8677968400852
 10
153.9979783150356
 20
-166.2751058211675
 10
158.7586719952042
 20
-166.1393884053943
 10
163.4330925671238
 20
-165.9818908227309
 10
168.1088025830341
 20
-165.9120321666337
 10
168.5539266245957
 20
-165.9053745317266
 10
169.2728514690256
 20
-166.3518081538653
 10
169.4147301877236
 20
-166.7486483758606
 10
170.5469151845821
 20
-169.9154368024409
 10
171.5705343147115
 20
-173.1210149222214
 10
172.7208512868628
 20
-176.5970710876922
 97
        0
 97
        1
330
B3
 75
     2
 76
     1
 98
        1
 10
0.0
 20
0.0
450
        0
451
        0
460
0.0
461
0.0
452
        0
462
0.0
453
        0
470

  0
SPLINE
  5
B5
330
70
100
AcDbEntity
  8
Layer 1
100
AcDbSpline
210
0.0
220
0.0
230
1.0
 70
     9
 71
     3
 72
    20
 73
    16
 74
     0
 42
0.0000000001
 43
0.0000000001
 40
0.0
 40
0.0
 40
0.0
 40
0.0
 40
1.0
 40
1.0
 40
1.0
 40
2.0
 40
2.0
 40
2.0
 40
3.0
 40
3.0
 40
3.0
 40
4.0
 40
4.0
 40
4.0
 40
5.0
 40
5.0
 40
5.0
 40
5.0
 10
122.6751172819185
 20
-68.45439640449964
 30
0.0
 10
128.8223487560566
 20
-68.45439640449964
 30
0.0
 10
134.8720809832828
 20
-68.45439640449964
 30
0.0
 10
141.2382853042068
 20
-68.45439640449964
 30
0.0
 10
140.1218195601225
 20
-70.90990092449399
 30
0.0
 10
138.940855030025
 20
-73.1829649861358
 30
0.0
 10
138.0435615312817
 20
-75.56291000098092
 30
0.0
 10
136.9249024030893
 20
-78.53002253512973
 30
0.0
 10
135.2773651935004
 20
-79.61934316392514
 30
0.0
 10
131.9141828744591
 20
-78.94368624173913
 30
0.0
 10
129.0023325386676
 20
-78.35869806799386
 30
0.0
 10
125.8797179299484
 20
-78.82210135036412
 30
0.0
 10
122.6751172819185
 20
-78.82210135036412
 30
0.0
 10
122.6751172819185
 20
-75.31697617020485
 30
0.0
 10
122.6751172819185
 20
-72.02773244289466
 30
0.0
 10
122.6751172819185
 20
-68.45439640449964
 30
0.0
  0
HATCH
  5
B6
330
70
100
AcDbEntity
  8
Layer 1
 62
   251
420
  5131598
440
 33554687
100
AcDbHatch
 10
0.0
 20
0.0
 30
0.0
210
0.0
220
0.0
230
1.0
  2
SOLID
 70
     1
 71
     1
 91
        1
 92
        1
 93
        1
 72
     4
 94
        3
 73
     0
 74
     0
 95
       20
 96
       16
 40
0.0
 40
0.0
 40
0.0
 40
0.0
 40
1.0
 40
1.0
 40
1.0
 40
2.0
 40
2.0
 40
2.0
 40
3.0
 40
3.0
 40
3.0
 40
4.0
 40
4.0
 40
4.0
 40
5.0
 40
5.0
 40
5.0
 40
5.0
 10
122.6751172819185
 20
-68.45439640449964
 10
128.8223487560566
 20
-68.45439640449964
 10
134.8720809832828
 20
-68.45439640449964
 10
141.2382853042068
 20
-68.45439640449964
 10
140.1218195601225
 20
-70.90990092449399
 10
138.940855030025
 20
-73.1829649861358
 10
138.0435615312817
 20
-75.56291000098092
 10
136.9249024030893
 20
-78.53002253512973
 10
135.2773651935004
 20
-79.61934316392514
 10
131.9141828744591
 20
-78.94368624173913
 10
129.0023325386676
 20
-78.35869806799386
 10
125.8797179299484
 20
-78.82210135036412
 10
122.6751172819185
 20
-78.82210135036412
 10
122.6751172819185
 20
-75.31697617020485
 10
122.6751172819185
 20
-72.02773244289466
 10
122.6751172819185
 20
-68.45439640449964
 97
        0
 97
        1
330
B5
 75
     2
 76
     1
 98
        1
 10
0.0
 20
0.0
450
        0
451
        0
460
0.0
461
0.0
452
        0
462
0.0
453
        0
470

  0
SPLINE
  5
B7
330
70
100
AcDbEntity
  8
Layer 1
100
AcDbSpline
210
0.0
220
0.0
230
1.0
 70
     9
 71
     3
 72
    20
 73
    16
 74
     0
 42
0.0000000001
 43
0.0000000001
 40
0.0
 40
0.0
 40
0.0
 40
0.0
 40
1.0
 40
1.0
 40
1.0
 40
2.0
 40
2.0
 40
2.0
 40
3.0
 40
3.0
 40
3.0
 40
4.0
 40
4.0
 40
4.0
 40
5.0
 40
5.0
 40
5.0
 40
5.0
 10
144.8923103559742
 20
-70.97365342642021
 30
0.0
 10
144.8923103559742
 20
-79.57257361092239
 30
0.0
 10
144.8923103559742
 20
-88.17150043977118
 30
0.0
 10
144.8923103559742
 20
-96.92538006668328
 30
0.0
 10
141.7415938441982
 20
-96.92538006668328
 30
0.0
 10
138.5939879498847
 20
-96.92538006668328
 30
0.0
 10
135.2086790378264
 20
-96.92538006668328
 30
0.0
 10
135.2350195869783
 20
-93.58124739529662
 30
0.0
 10
134.7409099670036
 20
-90.42213983293978
 30
0.0
 10
136.4730918633071
 20
-87.208003795236
 30
0.0
 10
139.333929402041
 20
-81.89960305251675
 30
0.0
 10
141.7217403947112
 20
-76.33645143159537
 30
0.0
 10
144.3088967697099
 20
-70.88065251245868
 30
0.0
 10
144.5033701806706
 20
-70.91165503189441
 30
0.0
 10
144.6978369450128
 20
-70.94265090698417
 30
0.0
 10
144.8923103559742
 20
-70.97365342642021
 30
0.0
  0
HATCH
  5
B8
330
70
100
AcDbEntity
  8
Layer 1
 62
   251
420
  5066061
440
 33554687
100
AcDbHatch
 10
0.0
 20
0.0
 30
0.0
210
0.0
220
0.0
230
1.0
  2
SOLID
 70
     1
 71
     1
 91
        1
 92
        1
 93
        1
 72
     4
 94
        3
 73
     0
 74
     0
 95
       20
 96
       16
 40
0.0
 40
0.0
 40
0.0
 40
0.0
 40
1.0
 40
1.0
 40
1.0
 40
2.0
 40
2.0
 40
2.0
 40
3.0
 40
3.0
 40
3.0
 40
4.0
 40
4.0
 40
4.0
 40
5.0
 40
5.0
 40
5.0
 40
5.0
 10
144.8923103559742
 20
-70.97365342642021
 10
144.8923103559742
 20
-79.57257361092239
 10
144.8923103559742
 20
-88.17150043977118
 10
144.8923103559742
 20
-96.92538006668328
 10
141.7415938441982
 20
-96.92538006668328
 10
138.5939879498847
 20
-96.92538006668328
 10
135.2086790378264
 20
-96.92538006668328
 10
135.2350195869783
 20
-93.58124739529662
 10
134.7409099670036
 20
-90.42213983293978
 10
136.4730918633071
 20
-87.208003795236
 10
139.333929402041
 20
-81.89960305251675
 10
141.7217403947112
 20
-76.33645143159537
 10
144.3088967697099
 20
-70.88065251245868
 10
144.5033701806706
 20
-70.91165503189441
 10
144.6978369450128
 20
-70.94265090698417
 10
144.8923103559742
 20
-70.97365342642021
 97
        0
 97
        1
330
B7
 75
     2
 76
     1
 98
        1
 10
0.0
 20
0.0
450
        0
451
        0
460
0.0
461
0.0
452
        0
462
0.0
453
        0
470

  0
SPLINE
  5
B9
330
70
100
AcDbEntity
  8
Layer 1
100
AcDbSpline
210
0.0
220
0.0
230
1.0
 70
     9
 71
     3
 72
    17
 73
    13
 74
     0
 42
0.0000000001
 43
0.0000000001
 40
0.0
 40
0.0
 40
0.0
 40
0.0
 40
1.0
 40
1.0
 40
1.0
 40
2.0
 40
2.0
 40
2.0
 40
3.0
 40
3.0
 40
3.0
 40
4.0
 40
4.0
 40
4.0
 40
4.0
 10
119.3617447219852
 20
-53.98562822217014
 30
0.0
 10
119.3617447219852
 20
-57.41821043036136
 30
0.0
 10
119.3617447219852
 20
-60.50890115974974
 30
0.0
 10
119.3617447219852
 20
-63.78393927485382
 30
0.0
 10
116.8723335187831
 20
-63.78393927485382
 30
0.0
 10
114.4561215252228
 20
-63.78393927485382
 30
0.0
 10
111.8447249325209
 20
-63.78393927485382
 30
0.0
 10
111.4003120791398
 20
-60.55081369566977
 30
0.0
 10
110.9451317037738
 20
-57.23931140854136
 30
0.0
 10
110.4289686035854
 20
-53.48416612468479
 30
0.0
 10
113.4113462083786
 20
-53.65159036059266
 30
0.0
 10
116.283310186497
 20
-53.81281542148252
 30
0.0
 10
119.3617447219852
 20
-53.98562822217014
 30
0.0
  0
HATCH
  5
BA
330
70
100
AcDbEntity
  8
Layer 1
 62
   251
420
  5066061
440
 33554687
100
AcDbHatch
 10
0.0
 20
0.0
 30
0.0
210
0.0
220
0.0
230
1.0
  2
SOLID
 70
     1
 71
     1
 91
        1
 92
        1
 93
        1
 72
     4
 94
        3
 73
     0
 74
     0
 95
       17
 96
       13
 40
0.0
 40
0.0
 40
0.0
 40
0.0
 40
1.0
 40
1.0
 40
1.0
 40
2.0
 40
2.0
 40
2.0
 40
3.0
 40
3.0
 40
3.0
 40
4.0
 40
4.0
 40
4.0
 40
4.0
 10
119.3617447219852
 20
-53.98562822217014
 10
119.3617447219852
 20
-57.41821043036136
 10
119.3617447219852
 20
-60.50890115974974
 10
119.3617447219852
 20
-63.78393927485382
 10
116.8723335187831
 20
-63.78393927485382
 10
114.4561215252228
 20
-63.78393927485382
 10
111.8447249325209
 20
-63.78393927485382
 10
111.4003120791398
 20
-60.55081369566977
 10
110.9451317037738
 20
-57.23931140854136
 10
110.4289686035854
 20
-53.48416612468479
 10
113.4113462083786
 20
-53.65159036059266
 10
116.283310186497
 20
-53.81281542148252
 10
119.3617447219852
 20
-53.98562822217014
 97
        0
 97
        1
330
B9
 75
     2
 76
     1
 98
        1
 10
0.0
 20
0.0
450
        0
451
        0
460
0.0
461
0.0
452
        0
462
0.0
453
        0
470

  0
SPLINE
  5
BB
330
70
100
AcDbEntity
  8
Layer 1
100
AcDbSpline
210
0.0
220
0.0
230
1.0
 70
     9
 71
     3
 72
    17
 73
    13
 74
     0
 42
0.0000000001
 43
0.0000000001
 40
0.0
 40
0.0
 40
0.0
 40
0.0
 40
1.0
 40
1.0
 40
1.0
 40
2.0
 40
2.0
 40
2.0
 40
3.0
 40
3.0
 40
3.0
 40
4.0
 40
4.0
 40
4.0
 40
4.0
 10
123.023194046627
 20
-63.81963270271729
 30
0.0
 10
123.023194046627
 20
-60.52387751611703
 30
0.0
 10
123.023194046627
 20
-57.42933306592433
 30
0.0
 10
123.023194046627
 20
-54.13840831902197
 30
0.0
 10
125.343827666025
 20
-54.13840831902197
 30
0.0
 10
127.6167983840932
 20
-54.13840831902197
 30
0.0
 10
130.1122247770461
 20
-54.13840831902197
 30
0.0
 10
130.1122247770461
 20
-57.27701142896132
 30
0.0
 10
130.1122247770461
 20
-60.47220443560819
 30
0.0
 10
130.1122247770461
 20
-63.81963270271729
 30
0.0
 10
127.8222653020682
 20
-63.81963270271729
 30
0.0
 10
125.546004507838
 20
-63.81963270271729
 30
0.0
 10
123.023194046627
 20
-63.81963270271729
 30
0.0
  0
HATCH
  5
BC
330
70
100
AcDbEntity
  8
Layer 1
 62
   251
420
  5131598
440
 33554687
100
AcDbHatch
 10
0.0
 20
0.0
 30
0.0
210
0.0
220
0.0
230
1.0
  2
SOLID
 70
     1
 71
     1
 91
        1
 92
        1
 93
        1
 72
     4
 94
        3
 73
     0
 74
     0
 95
       17
 96
       13
 40
0.0
 40
0.0
 40
0.0
 40
0.0
 40
1.0
 40
1.0
 40
1.0
 40
2.0
 40
2.0
 40
2.0
 40
3.0
 40
3.0
 40
3.0
 40
4.0
 40
4.0
 40
4.0
 40
4.0
 10
123.023194046627
 20
-63.81963270271729
 10
123.023194046627
 20
-60.52387751611703
 10
123.023194046627
 20
-57.42933306592433
 10
123.023194046627
 20
-54.13840831902197
 10
125.343827666025
 20
-54.13840831902197
 10
127.6167983840932
 20
-54.13840831902197
 10
130.1122247770461
 20
-54.13840831902197
 10
130.1122247770461
 20
-57.27701142896132
 10
130.1122247770461
 20
-60.47220443560819
 10
130.1122247770461
 20
-63.81963270271729
 10
127.8222653020682
 20
-63.81963270271729
 10
125.546004507838
 20
-63.81963270271729
 10
123.023194046627
 20
-63.81963270271729
 97
        0
 97
        1
330
BB
 75
     2
 76
     1
 98
        1
 10
0.0
 20
0.0
450
        0
451
        0
460
0.0
461
0.0
452
        0
462
0.0
453
        0
470

  0
ENDSEC
  0
SECTION
  2
OBJECTS
  0
DICTIONARY
  5
C
330
0
100
AcDbDictionary
281
     1
  3
ACAD_COLOR
350
63
  3
ACAD_DETAILVIEWSTYLE
350
6A
  3
ACAD_GROUP
350
D
  3
ACAD_LAYOUT
350
62
  3
ACAD_MATERIAL
350
10
  3
ACAD_MLEADERSTYLE
350
66
  3
ACAD_MLINESTYLE
350
5F
  3
ACAD_PLOTSETTINGS
350
61
  3
ACAD_PLOTSTYLENAME
350
E
  3
ACAD_SCALELIST
350
42
  3
ACAD_SECTIONVIEWSTYLE
350
68
  3
ACAD_TABLESTYLE
350
64
  3
ACAD_VISUALSTYLE
350
29
  3
ACDB_RECOMPOSE_DATA
350
C5
  3
AcDbVariableDictionary
350
BD
  0
DICTIONARY
  5
63
102
{ACAD_REACTORS
330
C
102
}
330
C
100
AcDbDictionary
281
     1
  0
DICTIONARY
  5
6A
102
{ACAD_REACTORS
330
C
102
}
330
C
100
AcDbDictionary
281
     1
  3
Imperial24
350
6B
  0
DICTIONARY
  5
D
102
{ACAD_REACTORS
330
C
102
}
330
C
100
AcDbDictionary
281
     1
  0
DICTIONARY
  5
62
102
{ACAD_REACTORS
330
C
102
}
330
C
100
AcDbDictionary
281
     1
  3
Layout1
350
6F
  3
Layout2
350
77
  3
Model
350
73
  0
DICTIONARY
  5
10
102
{ACAD_REACTORS
330
C
102
}
330
C
100
AcDbDictionary
281
     1
  3
ByBlock
350
19
  3
ByLayer
350
11
  3
Global
350
21
  0
DICTIONARY
  5
66
102
{ACAD_REACTORS
330
C
102
}
330
C
100
AcDbDictionary
281
     1
  3
Standard
350
67
  0
DICTIONARY
  5
5F
102
{ACAD_REACTORS
330
C
102
}
330
C
100
AcDbDictionary
281
     1
  3
Standard
350
60
  0
DICTIONARY
  5
61
102
{ACAD_REACTORS
330
C
102
}
330
C
100
AcDbDictionary
281
     1
  0
ACDBDICTIONARYWDFLT
  5
E
102
{ACAD_REACTORS
330
C
102
}
330
C
100
AcDbDictionary
281
     1
  3
Normal
350
F
100
AcDbDictionaryWithDefault
340
F
  0
DICTIONARY
  5
42
102
{ACAD_REACTORS
330
C
102
}
330
C
100
AcDbDictionary
281
     1
  3
A0
350
43
  3
A1
350
44
  3
A2
350
45
  3
A3
350
46
  3
A4
350
47
  3
A5
350
48
  3
A6
350
49
  3
A7
350
4A
  3
A8
350
4B
  3
A9
350
4C
  3
B0
350
4D
  3
B1
350
4E
  3
B2
350
4F
  3
B3
350
50
  3
B4
350
51
  3
B5
350
52
  3
B6
350
53
  0
DICTIONARY
  5
68
102
{ACAD_REACTORS
330
C
102
}
330
C
100
AcDbDictionary
281
     1
  3
Imperial24
350
69
  0
DICTIONARY
  5
64
102
{ACAD_REACTORS
330
C
102
}
330
C
100
AcDbDictionary
281
     1
  3
Standard
350
65
  0
DICTIONARY
  5
29
102
{ACAD_REACTORS
330
C
102
}
330
C
100
AcDbDictionary
281
     1
  3
2dWireframe
350
2F
  3
Basic
350
2E
  3
Brighten
350
35
  3
ColorChange
350
39
  3
Conceptual
350
32
  3
Dim
350
34
  3
EdgeColorOff
350
41
  3
Facepattern
350
38
  3
Flat
350
2A
  3
FlatWithEdges
350
2B
  3
Gouraud
350
2C
  3
GouraudWithEdges
350
2D
  3
Hidden
350
31
  3
JitterOff
350
3F
  3
Linepattern
350
37
  3
OverhangOff
350
40
  3
Realistic
350
33
  3
Shaded
350
3E
  3
Shaded with edges
350
3D
  3
Shades of Gray
350
3A
  3
Sketchy
350
3B
  3
Thicken
350
36
  3
Wireframe
350
30
  3
X-Ray
350
3C
  0
XRECORD
  5
C5
102
{ACAD_REACTORS
330
C
102
}
330
C
100
AcDbXrecord
280
     1
 90
        1
330
65
  0
DICTIONARY
  5
BD
102
{ACAD_REACTORS
330
C
102
}
330
C
100
AcDbDictionary
281
     1
  3
CANNOSCALE
350
C2
  3
CMLEADERSTYLE
350
BF
  3
CTABLESTYLE
350
BE
  3
CVIEWDETAILSTYLE
350
C0
  3
CVIEWSECTIONSTYLE
350
C1
  0
ACDBDETAILVIEWSTYLE
  5
6B
102
{ACAD_REACTORS
330
6A
102
}
330
6A
100
AcDbModelDocViewStyle
 70
     0
  3
Imperial24
290
     1
300
Imperial24
 90
        0
100
AcDbDetailViewStyle
 70
     0
 71
     0
 90
        3
 71
     1
340
55
 62
   256
 40
0.24
340
0
 62
   256
 40
0.24
300

 40
0.36
280
     3
 71
     2
340
5D
 90
       25
 62
   256
 71
     3
340
55
 62
   256
 40
0.24
 90
        1
 40
0.75
 90
        1
300
%<\AcVar ViewType \f "%tc1">% %<\AcVar ViewDetailId>%\PSCALE %<\AcVar ViewScale \f "%sn">%
 71
     4
340
5D
 90
       25
 62
   256
340
5D
 90
       25
 62
   256
280
     0
  0
LAYOUT
  5
6F
102
{ACAD_REACTORS
330
62
102
}
330
62
100
AcDbPlotSettings
  1

  2

  4

  6

 40
0.0
 41
0.0
 42
0.0
 43
0.0
 44
0.0
 45
0.0
 46
0.0
 47
0.0
 48
0.0
 49
0.0
140
0.0
141
0.0
142
1.0
143
1.0
 70
   688
 72
     0
 73
     0
 74
     5
  7

 75
    16
147
1.0
 76
     0
 77
     2
 78
   300
148
0.0
149
0.0
100
AcDbLayout
  1
Layout1
 70
     1
 71
     1
 10
0.0
 20
0.0
 11
12.0
 21
9.0
 12
0.0
 22
0.0
 32
0.0
 14
0.0
 24
0.0
 34
0.0
 15
0.0
 25
0.0
 35
0.0
146
0.0
 13
0.0
 23
0.0
 33
0.0
 16
1.0
 26
0.0
 36
0.0
 17
0.0
 27
1.0
 37
0.0
 76
     0
330
6C
  0
LAYOUT
  5
77
102
{ACAD_REACTORS
330
62
102
}
330
62
100
AcDbPlotSettings
  1

  2

  4

  6

 40
0.0
 41
0.0
 42
0.0
 43
0.0
 44
0.0
 45
0.0
 46
0.0
 47
0.0
 48
0.0
 49
0.0
140
0.0
141
0.0
142
1.0
143
1.0
 70
   688
 72
     0
 73
     0
 74
     5
  7

 75
    16
147
1.0
 76
     0
 77
     2
 78
   300
148
0.0
149
0.0
100
AcDbLayout
  1
Layout2
 70
     1
 71
     2
 10
0.0
 20
0.0
 11
12.0
 21
9.0
 12
0.0
 22
0.0
 32
0.0
 14
0.0
 24
0.0
 34
0.0
 15
0.0
 25
0.0
 35
0.0
146
0.0
 13
0.0
 23
0.0
 33
0.0
 16
1.0
 26
0.0
 36
0.0
 17
0.0
 27
1.0
 37
0.0
 76
     0
330
74
  0
LAYOUT
  5
73
102
{ACAD_REACTORS
330
62
102
}
330
62
100
AcDbPlotSettings
  1

  2

  4

  6

 40
0.0
 41
0.0
 42
0.0
 43
0.0
 44
0.0
 45
0.0
 46
0.0
 47
0.0
 48
0.0
 49
0.0
140
0.0
141
0.0
142
1.0
143
1.0
 70
  1712
 72
     0
 73
     0
 74
     0
  7

 75
     0
147
1.0
 76
     0
 77
     2
 78
   300
148
0.0
149
0.0
100
AcDbLayout
  1
Model
 70
     1
 71
     0
 10
0.0
 20
0.0
 11
12.0
 21
9.0
 12
0.0
 22
0.0
 32
0.0
 14
0.0
 24
0.0
 34
0.0
 15
0.0
 25
0.0
 35
0.0
146
0.0
 13
0.0
 23
0.0
 33
0.0
 16
1.0
 26
0.0
 36
0.0
 17
0.0
 27
1.0
 37
0.0
 76
     0
330
70
  0
MATERIAL
  5
19
102
{ACAD_XDICTIONARY
360
1A
102
}
102
{ACAD_REACTORS
330
10
102
}
330
10
100
AcDbMaterial
  1
ByBlock
 72
     0
 43
0.0208333333333333
 43
0.0
 43
0.0
 43
0.0
 43
0.0
 43
0.0208333333333333
 43
0.0
 43
0.0
 43
0.0
 43
0.0
 43
1.0
 43
0.0
 43
0.0
 43
0.0
 43
0.0
 43
1.0
 77
     0
 47
0.0208333333333333
 47
0.0
 47
0.0
 47
0.0
 47
0.0
 47
0.0208333333333333
 47
0.0
 47
0.0
 47
0.0
 47
0.0
 47
1.0
 47
0.0
 47
0.0
 47
0.0
 47
0.0
 47
1.0
171
     0
 49
0.0208333333333333
 49
0.0
 49
0.0
 49
0.0
 49
0.0
 49
0.0208333333333333
 49
0.0
 49
0.0
 49
0.0
 49
0.0
 49
1.0
 49
0.0
 49
0.0
 49
0.0
 49
0.0
 49
1.0
175
     0
142
0.0208333333333333
142
0.0
142
0.0
142
0.0
142
0.0
142
0.0208333333333333
142
0.0
142
0.0
142
0.0
142
0.0
142
1.0
142
0.0
142
0.0
142
0.0
142
0.0
142
1.0
179
     0
144
0.0208333333333333
144
0.0
144
0.0
144
0.0
144
0.0
144
0.0208333333333333
144
0.0
144
0.0
144
0.0
144
0.0
144
1.0
144
0.0
144
0.0
144
0.0
144
0.0
144
1.0
147
0.0208333333333333
147
0.0
147
0.0
147
0.0
147
0.0
147
0.0208333333333333
147
0.0
147
0.0
147
0.0
147
0.0
147
1.0
147
0.0
147
0.0
147
0.0
147
0.0
147
1.0
  0
MATERIAL
  5
11
102
{ACAD_XDICTIONARY
360
12
102
}
102
{ACAD_REACTORS
330
10
102
}
330
10
100
AcDbMaterial
  1
ByLayer
 72
     0
 43
0.0208333333333333
 43
0.0
 43
0.0
 43
0.0
 43
0.0
 43
0.0208333333333333
 43
0.0
 43
0.0
 43
0.0
 43
0.0
 43
1.0
 43
0.0
 43
0.0
 43
0.0
 43
0.0
 43
1.0
 77
     0
 47
0.0208333333333333
 47
0.0
 47
0.0
 47
0.0
 47
0.0
 47
0.0208333333333333
 47
0.0
 47
0.0
 47
0.0
 47
0.0
 47
1.0
 47
0.0
 47
0.0
 47
0.0
 47
0.0
 47
1.0
171
     0
 49
0.0208333333333333
 49
0.0
 49
0.0
 49
0.0
 49
0.0
 49
0.0208333333333333
 49
0.0
 49
0.0
 49
0.0
 49
0.0
 49
1.0
 49
0.0
 49
0.0
 49
0.0
 49
0.0
 49
1.0
175
     0
142
0.0208333333333333
142
0.0
142
0.0
142
0.0
142
0.0
142
0.0208333333333333
142
0.0
142
0.0
142
0.0
142
0.0
142
1.0
142
0.0
142
0.0
142
0.0
142
0.0
142
1.0
179
     0
144
0.0208333333333333
144
0.0
144
0.0
144
0.0
144
0.0
144
0.0208333333333333
144
0.0
144
0.0
144
0.0
144
0.0
144
1.0
144
0.0
144
0.0
144
0.0
144
0.0
144
1.0
147
0.0208333333333333
147
0.0
147
0.0
147
0.0
147
0.0
147
0.0208333333333333
147
0.0
147
0.0
147
0.0
147
0.0
147
1.0
147
0.0
147
0.0
147
0.0
147
0.0
147
1.0
  0
MATERIAL
  5
21
102
{ACAD_XDICTIONARY
360
22
102
}
102
{ACAD_REACTORS
330
10
102
}
330
10
100
AcDbMaterial
  1
Global
 72
     0
 43
0.0208333333333333
 43
0.0
 43
0.0
 43
0.0
 43
0.0
 43
0.0208333333333333
 43
0.0
 43
0.0
 43
0.0
 43
0.0
 43
1.0
 43
0.0
 43
0.0
 43
0.0
 43
0.0
 43
1.0
 77
     0
 47
0.0208333333333333
 47
0.0
 47
0.0
 47
0.0
 47
0.0
 47
0.0208333333333333
 47
0.0
 47
0.0
 47
0.0
 47
0.0
 47
1.0
 47
0.0
 47
0.0
 47
0.0
 47
0.0
 47
1.0
171
     0
 49
0.0208333333333333
 49
0.0
 49
0.0
 49
0.0
 49
0.0
 49
0.0208333333333333
 49
0.0
 49
0.0
 49
0.0
 49
0.0
 49
1.0
 49
0.0
 49
0.0
 49
0.0
 49
0.0
 49
1.0
175
     0
142
0.0208333333333333
142
0.0
142
0.0
142
0.0
142
0.0
142
0.0208333333333333
142
0.0
142
0.0
142
0.0
142
0.0
142
1.0
142
0.0
142
0.0
142
0.0
142
0.0
142
1.0
179
     0
144
0.0208333333333333
144
0.0
144
0.0
144
0.0
144
0.0
144
0.0208333333333333
144
0.0
144
0.0
144
0.0
144
0.0
144
1.0
144
0.0
144
0.0
144
0.0
144
0.0
144
1.0
147
0.0208333333333333
147
0.0
147
0.0
147
0.0
147
0.0
147
0.0208333333333333
147
0.0
147
0.0
147
0.0
147
0.0
147
1.0
147
0.0
147
0.0
147
0.0
147
0.0
147
1.0
  0
MLEADERSTYLE
  5
67
102
{ACAD_REACTORS
330
66
102
}
330
66
100
AcDbMLeaderStyle
179
     2
170
     2
171
     1
172
     0
 90
        2
 40
0.0
 41
0.0
173
     1
 91
-1056964608
340
5B
 92
       -2
290
     1
 42
0.09
291
     1
 43
0.36
  3
Standard
 44
0.18
300

342
55
174
     1
178
     6
175
     1
176
     0
 93
-1056964608
 45
0.18
292
     0
297
     0
 46
0.18
 94
-1056964608
 47
1.0
 49
1.0
140
1.0
293
     1
141
0.0
294
     1
177
     0
142
1.0
295
     1
296
     0
143
0.125
271
     0
272
     9
273
     9
298
     1
  0
MLINESTYLE
  5
60
102
{ACAD_REACTORS
330
5F
102
}
330
5F
100
AcDbMlineStyle
  2
STANDARD
 70
     0
  3

 62
   256
 51
90.0
 52
90.0
 71
     2
 49
0.5
 62
   256
  6
BYLAYER
 49
-0.5
 62
   256
  6
BYLAYER
  0
ACDBPLACEHOLDER
  5
F
102
{ACAD_REACTORS
330
E
102
}
330
E
  0
SCALE
  5
43
102
{ACAD_REACTORS
330
42
102
}
330
42
100
AcDbScale
 70
     0
300
1:1
140
1.0
141
1.0
290
     1
  0
SCALE
  5
44
102
{ACAD_REACTORS
330
42
102
}
330
42
100
AcDbScale
 70
     0
300
1/128" = 1'-0"
140
0.0078125
141
12.0
290
     0
  0
SCALE
  5
45
102
{ACAD_REACTORS
330
42
102
}
330
42
100
AcDbScale
 70
     0
300
1/64" = 1'-0"
140
0.015625
141
12.0
290
     0
  0
SCALE
  5
46
102
{ACAD_REACTORS
330
42
102
}
330
42
100
AcDbScale
 70
     0
300
1/32" = 1'-0"
140
0.03125
141
12.0
290
     0
  0
SCALE
  5
47
102
{ACAD_REACTORS
330
42
102
}
330
42
100
AcDbScale
 70
     0
300
1/16" = 1'-0"
140
0.0625
141
12.0
290
     0
  0
SCALE
  5
48
102
{ACAD_REACTORS
330
42
102
}
330
42
100
AcDbScale
 70
     0
300
3/32" = 1'-0"
140
0.09375
141
12.0
290
     0
  0
SCALE
  5
49
102
{ACAD_REACTORS
330
42
102
}
330
42
100
AcDbScale
 70
     0
300
1/8" = 1'-0"
140
0.125
141
12.0
290
     0
  0
SCALE
  5
4A
102
{ACAD_REACTORS
330
42
102
}
330
42
100
AcDbScale
 70
     0
300
3/16" = 1'-0"
140
0.1875
141
12.0
290
     0
  0
SCALE
  5
4B
102
{ACAD_REACTORS
330
42
102
}
330
42
100
AcDbScale
 70
     0
300
1/4" = 1'-0"
140
0.25
141
12.0
290
     0
  0
SCALE
  5
4C
102
{ACAD_REACTORS
330
42
102
}
330
42
100
AcDbScale
 70
     0
300
3/8" = 1'-0"
140
0.375
141
12.0
290
     0
  0
SCALE
  5
4D
102
{ACAD_REACTORS
330
42
102
}
330
42
100
AcDbScale
 70
     0
300
1/2" = 1'-0"
140
0.5
141
12.0
290
     0
  0
SCALE
  5
4E
102
{ACAD_REACTORS
330
42
102
}
330
42
100
AcDbScale
 70
     0
300
3/4" = 1'-0"
140
0.75
141
12.0
290
     0
  0
SCALE
  5
4F
102
{ACAD_REACTORS
330
42
102
}
330
42
100
AcDbScale
 70
     0
300
1" = 1'-0"
140
1.0
141
12.0
290
     0
  0
SCALE
  5
50
102
{ACAD_REACTORS
330
42
102
}
330
42
100
AcDbScale
 70
     0
300
1-1/2" = 1'-0"
140
1.5
141
12.0
290
     0
  0
SCALE
  5
51
102
{ACAD_REACTORS
330
42
102
}
330
42
100
AcDbScale
 70
     0
300
3" = 1'-0"
140
3.0
141
12.0
290
     0
  0
SCALE
  5
52
102
{ACAD_REACTORS
330
42
102
}
330
42
100
AcDbScale
 70
     0
300
6" = 1'-0"
140
6.0
141
12.0
290
     0
  0
SCALE
  5
53
102
{ACAD_REACTORS
330
42
102
}
330
42
100
AcDbScale
 70
     0
300
1'-0" = 1'-0"
140
12.0
141
12.0
290
     0
  0
ACDBSECTIONVIEWSTYLE
  5
69
102
{ACAD_REACTORS
330
68
102
}
330
68
100
AcDbModelDocViewStyle
 70
     0
  3
Imperial24
290
     1
300
Imperial24
 90
        0
100
AcDbSectionViewStyle
 70
     0
 71
     0
 90
       78
 71
     1
340
55
 62
   256
 40
0.24
340
0
340
0
 62
   256
 40
0.24
300
I, O, Q, S, X, Z
 40
0.48
 90
        3
 40
0.18
 90
        1
 71
     2
340
5D
 90
       25
 62
   256
340
5D
 90
       50
 62
   256
 40
0.24
 40
0.0
 40
0.24
 71
     3
340
55
 62
   256
 40
0.24
 90
        1
 40
0.75
 90
        1
300
%<\AcVar ViewType \f "%tc1">% %<\AcVar ViewSectionStartId>%-%<\AcVar ViewSectionEndId>%\PSCALE %<\AcVar ViewScale \f "%sn">%
 71
     4
 62
   256
 62
   257
300
ANSI31
 40
1.0
 90
        0
290
     0
290
     0
 90
        6
 40
0.0
 40
1.570796326794896
 40
0.2617993877991494
 40
1.308996938995747
 40
-0.2617993877991494
 40
1.832595714594046
  0
TABLESTYLE
  5
65
102
{ACAD_XDICTIONARY
360
C3
102
}
102
{ACAD_REACTORS
330
64
102
}
330
64
100
AcDbTableStyle
280
     0
  3
Standard
 70
     0
 71
     0
 40
0.06
 41
0.06
280
     0
281
     0
  7
Standard
140
0.18
170
     2
 62
     0
 63
     7
283
     0
 90
      512
 91
        0
  1

274
    -2
284
     1
 64
     0
275
    -2
285
     1
 65
     0
276
    -2
286
     1
 66
     0
277
    -2
287
     1
 67
     0
278
    -2
288
     1
 68
     0
279
    -2
289
     1
 69
     0
  7
Standard
140
0.25
170
     5
 62
     0
 63
     7
283
     0
 90
      512
 91
        0
  1

274
    -2
284
     1
 64
     0
275
    -2
285
     1
 65
     0
276
    -2
286
     1
 66
     0
277
    -2
287
     1
 67
     0
278
    -2
288
     1
 68
     0
279
    -2
289
     1
 69
     0
  7
Standard
140
0.18
170
     5
 62
     0
 63
     7
283
     0
 90
      512
 91
        0
  1

274
    -2
284
     1
 64
     0
275
    -2
285
     1
 65
     0
276
    -2
286
     1
 66
     0
277
    -2
287
     1
 67
     0
278
    -2
288
     1
 68
     0
279
    -2
289
     1
 69
     0
  0
VISUALSTYLE
  5
2F
102
{ACAD_REACTORS
330
29
102
}
330
29
100
AcDbVisualStyle
  2
2dWireframe
 70
     4
177
     3
291
     0
 70
    58
 90
        0
176
     1
 90
        2
176
     1
 90
        0
176
     1
 90
        0
176
     1
 40
0.6
176
     1
 40
30.0
176
     1
 62
     7
420
 16777215
176
     1
 90
        1
176
     1
 90
        4
176
     1
 62
     7
176
     1
 62
   257
176
     1
 90
        1
176
     1
 90
        1
176
     1
 40
1.0
176
     1
 90
        0
176
     1
 62
   257
176
     1
 40
1.0
176
     1
 90
        1
176
     1
 90
        6
176
     1
 90
        2
176
     1
 62
     7
176
     1
 90
        5
176
     1
 90
        0
176
     1
 90
        0
176
     1
290
     0
176
     1
 90
        1
176
     1
 40
0.0
176
     1
 90
        0
176
     1
290
     1
176
     1
290
     1
176
     1
290
     0
176
     1
290
     0
176
     1
290
     0
176
     1
290
     0
176
     1
290
     0
176
     1
290
     0
176
     1
290
     0
176
     1
 90
       50
176
     1
 40
0.0
176
     1
 40
1.0
176
     1
 90
        0
176
     1
 62
    18
420
        0
176
     1
 90
       50
176
     1
 90
        3
176
     1
 62
     5
420
      255
176
     1
290
     0
176
     1
 90
       50
176
     1
 90
       50
176
     1
 90
       50
176
     1
290
     0
176
     1
 90
       50
176
     1
 62
   256
176
     0
 40
1.0
176
     0
 90
        2
176
     1
  1
strokes_ogs.tif
176
     1
290
     0
176
     1
 40
1.0
176
     1
 40
1.0
176
     1
  0
VISUALSTYLE
  5
2E
102
{ACAD_REACTORS
330
29
102
}
330
29
100
AcDbVisualStyle
  2
Basic
 70
     7
177
     3
291
     1
 70
    58
 90
        1
176
     1
 90
        0
176
     1
 90
        1
176
     1
 90
        0
176
     1
 40
0.6
176
     1
 40
30.0
176
     1
 62
     7
420
 16777215
176
     1
 90
        0
176
     1
 90
        4
176
     1
 62
     7
176
     1
 62
   257
176
     1
 90
        1
176
     1
 90
        1
176
     1
 40
1.0
176
     1
 90
        8
176
     1
 62
     7
176
     1
 40
1.0
176
     1
 90
        1
176
     1
 90
        6
176
     1
 90
        2
176
     1
 62
     7
176
     1
 90
        5
176
     1
 90
        0
176
     1
 90
        0
176
     1
290
     0
176
     1
 90
        1
176
     1
 40
0.0
176
     1
 90
        0
176
     1
290
     0
176
     1
290
     1
176
     1
290
     1
176
     1
290
     0
176
     1
290
     0
176
     1
290
     0
176
     1
290
     0
176
     1
290
     0
176
     1
290
     0
176
     1
 90
       50
176
     1
 40
0.0
176
     1
 40
1.0
176
     1
 90
        0
176
     1
 62
    18
420
        0
176
     1
 90
       50
176
     1
 90
        3
176
     1
 62
     5
420
      255
176
     1
290
     0
176
     1
 90
       50
176
     1
 90
       50
176
     1
 90
       50
176
     1
290
     0
176
     1
 90
       50
176
     1
 62
   256
176
     0
 40
1.0
176
     0
 90
        2
176
     1
  1
strokes_ogs.tif
176
     1
290
     0
176
     1
 40
1.0
176
     1
 40
1.0
176
     1
  0
VISUALSTYLE
  5
35
102
{ACAD_REACTORS
330
29
102
}
330
29
100
AcDbVisualStyle
  2
Brighten
 70
    12
177
     3
291
     1
 70
    58
 90
        2
176
     1
 90
        2
176
     1
 90
        0
176
     1
 90
        0
176
     1
 40
0.6
176
     1
 40
30.0
176
     1
 62
     7
420
 16777215
176
     1
 90
        1
176
     1
 90
        4
176
     1
 62
     7
176
     1
 62
   257
176
     1
 90
        1
176
     1
 90
        1
176
     1
 40
1.0
176
     1
 90
        8
176
     1
 62
     7
176
     1
 40
1.0
176
     1
 90
        1
176
     1
 90
        6
176
     1
 90
        2
176
     1
 62
     7
176
     1
 90
        5
176
     1
 90
        0
176
     1
 90
        0
176
     1
290
     0
176
     1
 90
        1
176
     1
 40
50.0
176
     1
 90
        0
176
     1
290
     0
176
     1
290
     1
176
     1
290
     1
176
     1
290
     0
176
     1
290
     0
176
     1
290
     0
176
     1
290
     0
176
     1
290
     0
176
     1
290
     0
176
     1
 90
       50
176
     1
 40
0.0
176
     1
 40
1.0
176
     1
 90
        0
176
     1
 62
    18
420
        0
176
     1
 90
       50
176
     1
 90
        3
176
     1
 62
     5
420
      255
176
     1
290
     0
176
     1
 90
       50
176
     1
 90
       50
176
     1
 90
       50
176
     1
290
     0
176
     1
 90
       50
176
     1
 62
   256
176
     0
 40
1.0
176
     0
 90
        2
176
     1
  1
strokes_ogs.tif
176
     1
290
     0
176
     1
 40
1.0
176
     1
 40
1.0
176
     1
  0
VISUALSTYLE
  5
39
102
{ACAD_REACTORS
330
29
102
}
330
29
100
AcDbVisualStyle
  2
ColorChange
 70
    16
177
     3
291
     1
 70
    58
 90
        2
176
     1
 90
        2
176
     1
 90
        3
176
     1
 90
        0
176
     1
 40
0.6
176
     1
 40
30.0
176
     1
 62
     8
420
  8421504
176
     1
 90
        1
176
     1
 90
        4
176
     1
 62
     7
176
     1
 62
   257
176
     1
 90
        1
176
     1
 90
        1
176
     1
 40
1.0
176
     1
 90
        8
176
     1
 62
     8
420
  8421504
176
     1
 40
1.0
176
     1
 90
        1
176
     1
 90
        6
176
     1
 90
        2
176
     1
 62
     7
176
     1
 90
        5
176
     1
 90
        0
176
     1
 90
        0
176
     1
290
     0
176
     1
 90
        1
176
     1
 40
0.0
176
     1
 90
        0
176
     1
290
     0
176
     1
290
     1
176
     1
290
     1
176
     1
290
     0
176
     1
290
     0
176
     1
290
     0
176
     1
290
     0
176
     1
290
     0
176
     1
290
     0
176
     1
 90
       50
176
     1
 40
0.0
176
     1
 40
1.0
176
     1
 90
        0
176
     1
 62
    18
420
        0
176
     1
 90
       50
176
     1
 90
        3
176
     1
 62
     5
420
      255
176
     1
290
     0
176
     1
 90
       50
176
     1
 90
       50
176
     1
 90
       50
176
     1
290
     0
176
     1
 90
       50
176
     1
 62
   256
176
     0
 40
1.0
176
     0
 90
        2
176
     1
  1
strokes_ogs.tif
176
     1
290
     0
176
     1
 40
1.0
176
     1
 40
1.0
176
     1
  0
VISUALSTYLE
  5
32
102
{ACAD_REACTORS
330
29
102
}
330
29
100
AcDbVisualStyle
  2
Conceptual
 70
     9
177
     3
291
     0
 70
    58
 90
        3
176
     1
 90
        2
176
     1
 90
        0
176
     1
 90
        0
176
     1
 40
0.6
176
     1
 40
30.0
176
     1
 62
     7
420
 16777215
176
     1
 90
        2
176
     1
 90
        2
176
     1
 62
     7
176
     1
 62
   257
176
     1
 90
        1
176
     1
 90
        1
176
     1
 40
179.0
176
     1
 90
        8
176
     1
 62
     7
176
     1
 40
1.0
176
     1
 90
        1
176
     1
 90
        6
176
     1
 90
        2
176
     1
 62
     7
176
     1
 90
        3
176
     1
 90
        0
176
     1
 90
        0
176
     1
290
     0
176
     1
 90
        1
176
     1
 40
0.0
176
     1
 90
        0
176
     1
290
     0
176
     1
290
     1
176
     1
290
     1
176
     1
290
     0
176
     1
290
     0
176
     1
290
     0
176
     1
290
     0
176
     1
290
     0
176
     1
290
     0
176
     1
 90
       50
176
     1
 40
0.0
176
     1
 40
1.0
176
     1
 90
        0
176
     1
 62
    18
420
        0
176
     1
 90
       50
176
     1
 90
        3
176
     1
 62
     5
420
      255
176
     1
290
     0
176
     1
 90
       50
176
     1
 90
       50
176
     1
 90
       50
176
     1
290
     0
176
     1
 90
       50
176
     1
 62
   256
176
     0
 40
1.0
176
     0
 90
        2
176
     1
  1
strokes_ogs.tif
176
     1
290
     0
176
     1
 40
1.0
176
     1
 40
1.0
176
     1
  0
VISUALSTYLE
  5
34
102
{ACAD_REACTORS
330
29
102
}
330
29
100
AcDbVisualStyle
  2
Dim
 70
    11
177
     3
291
     1
 70
    58
 90
        2
176
     1
 90
        2
176
     1
 90
        0
176
     1
 90
        0
176
     1
 40
0.6
176
     1
 40
30.0
176
     1
 62
     7
420
 16777215
176
     1
 90
        1
176
     1
 90
        4
176
     1
 62
     7
176
     1
 62
   257
176
     1
 90
        1
176
     1
 90
        1
176
     1
 40
1.0
176
     1
 90
        8
176
     1
 62
     7
176
     1
 40
1.0
176
     1
 90
        1
176
     1
 90
        6
176
     1
 90
        2
176
     1
 62
     7
176
     1
 90
        5
176
     1
 90
        0
176
     1
 90
        0
176
     1
290
     0
176
     1
 90
        1
176
     1
 40
-50.0
176
     1
 90
        0
176
     1
290
     0
176
     1
290
     1
176
     1
290
     1
176
     1
290
     0
176
     1
290
     0
176
     1
290
     0
176
     1
290
     0
176
     1
290
     0
176
     1
290
     0
176
     1
 90
       50
176
     1
 40
0.0
176
     1
 40
1.0
176
     1
 90
        0
176
     1
 62
    18
420
        0
176
     1
 90
       50
176
     1
 90
        3
176
     1
 62
     5
420
      255
176
     1
290
     0
176
     1
 90
       50
176
     1
 90
       50
176
     1
 90
       50
176
     1
290
     0
176
     1
 90
       50
176
     1
 62
   256
176
     0
 40
1.0
176
     0
 90
        2
176
     1
  1
strokes_ogs.tif
176
     1
290
     0
176
     1
 40
1.0
176
     1
 40
1.0
176
     1
  0
VISUALSTYLE
  5
41
102
{ACAD_REACTORS
330
29
102
}
330
29
100
AcDbVisualStyle
  2
EdgeColorOff
 70
    22
177
     3
291
     1
 70
    58
 90
        2
176
     0
 90
        2
176
     0
 90
        0
176
     0
 90
        0
176
     0
 40
0.6
176
     0
 40
30.0
176
     0
 62
     7
420
 16777215
176
     0
 90
        1
176
     0
 90
        4
176
     0
 62
     7
176
     0
 62
   257
176
     0
 90
        1
176
     0
 90
        1
176
     0
 40
1.0
176
     0
 90
        8
176
     2
 62
     7
176
     0
 40
1.0
176
     0
 90
        1
176
     0
 90
        6
176
     0
 90
        2
176
     0
 62
     7
176
     0
 90
        5
176
     0
 90
        0
176
     0
 90
        0
176
     0
290
     0
176
     0
 90
        1
176
     0
 40
0.0
176
     0
 90
        0
176
     0
290
     0
176
     0
290
     1
176
     0
290
     1
176
     0
290
     0
176
     0
290
     0
176
     0
290
     0
176
     0
290
     0
176
     0
290
     0
176
     0
290
     0
176
     0
 90
       50
176
     0
 40
0.0
176
     0
 40
1.0
176
     0
 90
        0
176
     0
 62
    18
420
        0
176
     0
 90
       50
176
     0
 90
        3
176
     0
 62
     5
420
      255
176
     0
290
     0
176
     0
 90
       50
176
     0
 90
       50
176
     0
 90
       50
176
     0
290
     0
176
     0
 90
       50
176
     0
 62
   256
176
     0
 40
1.0
176
     0
 90
        2
176
     0
  1
strokes_ogs.tif
176
     0
290
     0
176
     0
 40
1.0
176
     0
 40
1.0
176
     0
  0
VISUALSTYLE
  5
38
102
{ACAD_REACTORS
330
29
102
}
330
29
100
AcDbVisualStyle
  2
Facepattern
 70
    15
177
     3
291
     1
 70
    58
 90
        2
176
     1
 90
        2
176
     1
 90
        0
176
     1
 90
        0
176
     1
 40
0.6
176
     1
 40
30.0
176
     1
 62
     7
420
 16777215
176
     1
 90
        1
176
     1
 90
        4
176
     1
 62
     7
176
     1
 62
   257
176
     1
 90
        1
176
     1
 90
        1
176
     1
 40
1.0
176
     1
 90
        8
176
     1
 62
     7
176
     1
 40
1.0
176
     1
 90
        1
176
     1
 90
        6
176
     1
 90
        2
176
     1
 62
     7
176
     1
 90
        5
176
     1
 90
        0
176
     1
 90
        0
176
     1
290
     0
176
     1
 90
        1
176
     1
 40
0.0
176
     1
 90
        0
176
     1
290
     0
176
     1
290
     1
176
     1
290
     1
176
     1
290
     0
176
     1
290
     0
176
     1
290
     0
176
     1
290
     0
176
     1
290
     0
176
     1
290
     0
176
     1
 90
       50
176
     1
 40
0.0
176
     1
 40
1.0
176
     1
 90
        0
176
     1
 62
    18
420
        0
176
     1
 90
       50
176
     1
 90
        3
176
     1
 62
     5
420
      255
176
     1
290
     0
176
     1
 90
       50
176
     1
 90
       50
176
     1
 90
       50
176
     1
290
     0
176
     1
 90
       50
176
     1
 62
   256
176
     0
 40
1.0
176
     0
 90
        2
176
     1
  1
strokes_ogs.tif
176
     1
290
     0
176
     1
 40
1.0
176
     1
 40
1.0
176
     1
  0
VISUALSTYLE
  5
2A
102
{ACAD_REACTORS
330
29
102
}
330
29
100
AcDbVisualStyle
  2
Flat
 70
     0
177
     3
291
     1
 70
    58
 90
        2
176
     1
 90
        1
176
     1
 90
        1
176
     1
 90
        2
176
     1
 40
0.6
176
     1
 40
30.0
176
     1
 62
     7
420
 16777215
176
     1
 90
        0
176
     1
 90
        0
176
     1
 62
     7
176
     1
 62
   257
176
     1
 90
        1
176
     1
 90
        1
176
     1
 40
1.0
176
     1
 90
        8
176
     1
 62
     7
176
     1
 40
1.0
176
     1
 90
        1
176
     1
 90
        6
176
     1
 90
        2
176
     1
 62
     7
176
     1
 90
        5
176
     1
 90
        0
176
     1
 90
        0
176
     1
290
     0
176
     1
 90
       13
176
     1
 40
0.0
176
     1
 90
        0
176
     1
290
     0
176
     1
290
     1
176
     1
290
     1
176
     1
290
     0
176
     1
290
     0
176
     1
290
     0
176
     1
290
     0
176
     1
290
     0
176
     1
290
     0
176
     1
 90
       50
176
     1
 40
0.0
176
     1
 40
1.0
176
     1
 90
        0
176
     1
 62
    18
420
        0
176
     1
 90
       50
176
     1
 90
        3
176
     1
 62
     5
420
      255
176
     1
290
     0
176
     1
 90
       50
176
     1
 90
       50
176
     1
 90
       50
176
     1
290
     0
176
     1
 90
       50
176
     1
 62
   256
176
     0
 40
1.0
176
     0
 90
        2
176
     1
  1
strokes_ogs.tif
176
     1
290
     0
176
     1
 40
1.0
176
     1
 40
1.0
176
     1
  0
VISUALSTYLE
  5
2B
102
{ACAD_REACTORS
330
29
102
}
330
29
100
AcDbVisualStyle
  2
FlatWithEdges
 70
     1
177
     3
291
     1
 70
    58
 90
        2
176
     1
 90
        1
176
     1
 90
        1
176
     1
 90
        2
176
     1
 40
0.6
176
     1
 40
30.0
176
     1
 62
     7
420
 16777215
176
     1
 90
        1
176
     1
 90
        0
176
     1
 62
     7
176
     1
 62
   257
176
     1
 90
        1
176
     1
 90
        1
176
     1
 40
1.0
176
     1
 90
        0
176
     1
 62
   257
176
     1
 40
1.0
176
     1
 90
        1
176
     1
 90
        6
176
     1
 90
        2
176
     1
 62
     7
176
     1
 90
        5
176
     1
 90
        0
176
     1
 90
        0
176
     1
290
     0
176
     1
 90
       13
176
     1
 40
0.0
176
     1
 90
        0
176
     1
290
     0
176
     1
290
     1
176
     1
290
     1
176
     1
290
     0
176
     1
290
     0
176
     1
290
     0
176
     1
290
     0
176
     1
290
     0
176
     1
290
     0
176
     1
 90
       50
176
     1
 40
0.0
176
     1
 40
1.0
176
     1
 90
        0
176
     1
 62
    18
420
        0
176
     1
 90
       50
176
     1
 90
        3
176
     1
 62
     5
420
      255
176
     1
290
     0
176
     1
 90
       50
176
     1
 90
       50
176
     1
 90
       50
176
     1
290
     0
176
     1
 90
       50
176
     1
 62
   256
176
     0
 40
1.0
176
     0
 90
        2
176
     1
  1
strokes_ogs.tif
176
     1
290
     0
176
     1
 40
1.0
176
     1
 40
1.0
176
     1
  0
VISUALSTYLE
  5
2C
102
{ACAD_REACTORS
330
29
102
}
330
29
100
AcDbVisualStyle
  2
Gouraud
 70
     2
177
     3
291
     1
 70
    58
 90
        2
176
     1
 90
        2
176
     1
 90
        1
176
     1
 90
        2
176
     1
 40
0.6
176
     1
 40
30.0
176
     1
 62
     7
420
 16777215
176
     1
 90
        0
176
     1
 90
        0
176
     1
 62
     7
176
     1
 62
   257
176
     1
 90
        1
176
     1
 90
        1
176
     1
 40
1.0
176
     1
 90
        0
176
     1
 62
     7
176
     1
 40
1.0
176
     1
 90
        1
176
     1
 90
        6
176
     1
 90
        2
176
     1
 62
     7
176
     1
 90
        5
176
     1
 90
        0
176
     1
 90
        0
176
     1
290
     0
176
     1
 90
       13
176
     1
 40
0.0
176
     1
 90
        0
176
     1
290
     0
176
     1
290
     1
176
     1
290
     1
176
     1
290
     0
176
     1
290
     0
176
     1
290
     0
176
     1
290
     0
176
     1
290
     0
176
     1
290
     0
176
     1
 90
       50
176
     1
 40
0.0
176
     1
 40
1.0
176
     1
 90
        0
176
     1
 62
    18
420
        0
176
     1
 90
       50
176
     1
 90
        3
176
     1
 62
     5
420
      255
176
     1
290
     0
176
     1
 90
       50
176
     1
 90
       50
176
     1
 90
       50
176
     1
290
     0
176
     1
 90
       50
176
     1
 62
   256
176
     0
 40
1.0
176
     0
 90
        2
176
     1
  1
strokes_ogs.tif
176
     1
290
     0
176
     1
 40
1.0
176
     1
 40
1.0
176
     1
  0
VISUALSTYLE
  5
2D
102
{ACAD_REACTORS
330
29
102
}
330
29
100
AcDbVisualStyle
  2
GouraudWithEdges
 70
     3
177
     3
291
     1
 70
    58
 90
        2
176
     1
 90
        2
176
     1
 90
        1
176
     1
 90
        2
176
     1
 40
0.6
176
     1
 40
30.0
176
     1
 62
     7
420
 16777215
176
     1
 90
        1
176
     1
 90
        0
176
     1
 62
     7
176
     1
 62
   257
176
     1
 90
        1
176
     1
 90
        1
176
     1
 40
1.0
176
     1
 90
        0
176
     1
 62
   257
176
     1
 40
1.0
176
     1
 90
        1
176
     1
 90
        6
176
     1
 90
        2
176
     1
 62
     7
176
     1
 90
        5
176
     1
 90
        0
176
     1
 90
        0
176
     1
290
     0
176
     1
 90
       13
176
     1
 40
0.0
176
     1
 90
        0
176
     1
290
     0
176
     1
290
     1
176
     1
290
     1
176
     1
290
     0
176
     1
290
     0
176
     1
290
     0
176
     1
290
     0
176
     1
290
     0
176
     1
290
     0
176
     1
 90
       50
176
     1
 40
0.0
176
     1
 40
1.0
176
     1
 90
        0
176
     1
 62
    18
420
        0
176
     1
 90
       50
176
     1
 90
        3
176
     1
 62
     5
420
      255
176
     1
290
     0
176
     1
 90
       50
176
     1
 90
       50
176
     1
 90
       50
176
     1
290
     0
176
     1
 90
       50
176
     1
 62
   256
176
     0
 40
1.0
176
     0
 90
        2
176
     1
  1
strokes_ogs.tif
176
     1
290
     0
176
     1
 40
1.0
176
     1
 40
1.0
176
     1
  0
VISUALSTYLE
  5
31
102
{ACAD_REACTORS
330
29
102
}
330
29
100
AcDbVisualStyle
  2
Hidden
 70
     6
177
     3
291
     0
 70
    58
 90
        1
176
     1
 90
        2
176
     1
 90
        2
176
     1
 90
        0
176
     1
 40
0.6
176
     1
 40
30.0
176
     1
 62
     7
420
 16777215
176
     1
 90
        2
176
     1
 90
        2
176
     1
 62
     7
176
     1
 62
   257
176
     1
 90
        2
176
     1
 90
        1
176
     1
 40
40.0
176
     1
 90
        0
176
     1
 62
   257
176
     1
 40
1.0
176
     1
 90
        1
176
     1
 90
        6
176
     1
 90
        2
176
     1
 62
     7
176
     1
 90
        3
176
     1
 90
        0
176
     1
 90
        0
176
     1
290
     0
176
     1
 90
        1
176
     1
 40
0.0
176
     1
 90
        0
176
     1
290
     0
176
     1
290
     1
176
     1
290
     1
176
     1
290
     0
176
     1
290
     0
176
     1
290
     0
176
     1
290
     0
176
     1
290
     0
176
     1
290
     0
176
     1
 90
       50
176
     1
 40
0.0
176
     1
 40
1.0
176
     1
 90
        0
176
     1
 62
    18
420
        0
176
     1
 90
       50
176
     1
 90
        3
176
     1
 62
     5
420
      255
176
     1
290
     0
176
     1
 90
       50
176
     1
 90
       50
176
     1
 90
       50
176
     1
290
     0
176
     1
 90
       50
176
     1
 62
   256
176
     0
 40
1.0
176
     0
 90
        2
176
     1
  1
strokes_ogs.tif
176
     1
290
     0
176
     1
 40
1.0
176
     1
 40
1.0
176
     1
  0
VISUALSTYLE
  5
3F
102
{ACAD_REACTORS
330
29
102
}
330
29
100
AcDbVisualStyle
  2
JitterOff
 70
    20
177
     3
291
     1
 70
    58
 90
        2
176
     0
 90
        2
176
     0
 90
        0
176
     0
 90
        0
176
     0
 40
0.6
176
     0
 40
30.0
176
     0
 62
     7
420
 16777215
176
     0
 90
        1
176
     0
 90
        4
176
     0
 62
     7
176
     0
 62
   257
176
     0
 90
        1
176
     0
 90
        1
176
     0
 40
1.0
176
     0
 90
       10
176
     2
 62
     7
176
     0
 40
1.0
176
     0
 90
        1
176
     0
 90
        6
176
     0
 90
        2
176
     0
 62
     7
176
     0
 90
        5
176
     0
 90
        0
176
     0
 90
        0
176
     0
290
     0
176
     0
 90
        1
176
     0
 40
0.0
176
     0
 90
        0
176
     0
290
     0
176
     0
290
     1
176
     0
290
     1
176
     0
290
     0
176
     0
290
     0
176
     0
290
     0
176
     0
290
     0
176
     0
290
     0
176
     0
290
     0
176
     0
 90
       50
176
     0
 40
0.0
176
     0
 40
1.0
176
     0
 90
        0
176
     0
 62
    18
420
        0
176
     0
 90
       50
176
     0
 90
        3
176
     0
 62
     5
420
      255
176
     0
290
     0
176
     0
 90
       50
176
     0
 90
       50
176
     0
 90
       50
176
     0
290
     0
176
     0
 90
       50
176
     0
 62
   256
176
     0
 40
1.0
176
     0
 90
        2
176
     0
  1
strokes_ogs.tif
176
     0
290
     0
176
     0
 40
1.0
176
     0
 40
1.0
176
     0
  0
VISUALSTYLE
  5
37
102
{ACAD_REACTORS
330
29
102
}
330
29
100
AcDbVisualStyle
  2
Linepattern
 70
    14
177
     3
291
     1
 70
    58
 90
        2
176
     1
 90
        2
176
     1
 90
        0
176
     1
 90
        0
176
     1
 40
0.6
176
     1
 40
30.0
176
     1
 62
     7
420
 16777215
176
     1
 90
        1
176
     1
 90
        4
176
     1
 62
     7
176
     1
 62
   257
176
     1
 90
        7
176
     1
 90
        7
176
     1
 40
1.0
176
     1
 90
        8
176
     1
 62
     7
176
     1
 40
1.0
176
     1
 90
        1
176
     1
 90
        6
176
     1
 90
        2
176
     1
 62
     7
176
     1
 90
        5
176
     1
 90
        0
176
     1
 90
        0
176
     1
290
     0
176
     1
 90
        1
176
     1
 40
0.0
176
     1
 90
        0
176
     1
290
     0
176
     1
290
     1
176
     1
290
     1
176
     1
290
     0
176
     1
290
     0
176
     1
290
     0
176
     1
290
     0
176
     1
290
     0
176
     1
290
     0
176
     1
 90
       50
176
     1
 40
0.0
176
     1
 40
1.0
176
     1
 90
        0
176
     1
 62
    18
420
        0
176
     1
 90
       50
176
     1
 90
        3
176
     1
 62
     5
420
      255
176
     1
290
     0
176
     1
 90
       50
176
     1
 90
       50
176
     1
 90
       50
176
     1
290
     0
176
     1
 90
       50
176
     1
 62
   256
176
     0
 40
1.0
176
     0
 90
        2
176
     1
  1
strokes_ogs.tif
176
     1
290
     0
176
     1
 40
1.0
176
     1
 40
1.0
176
     1
  0
VISUALSTYLE
  5
40
102
{ACAD_REACTORS
330
29
102
}
330
29
100
AcDbVisualStyle
  2
OverhangOff
 70
    21
177
     3
291
     1
 70
    58
 90
        2
176
     0
 90
        2
176
     0
 90
        0
176
     0
 90
        0
176
     0
 40
0.6
176
     0
 40
30.0
176
     0
 62
     7
420
 16777215
176
     0
 90
        1
176
     0
 90
        4
176
     0
 62
     7
176
     0
 62
   257
176
     0
 90
        1
176
     0
 90
        1
176
     0
 40
1.0
176
     0
 90
        9
176
     2
 62
     7
176
     0
 40
1.0
176
     0
 90
        1
176
     0
 90
        6
176
     0
 90
        2
176
     0
 62
     7
176
     0
 90
        5
176
     0
 90
        0
176
     0
 90
        0
176
     0
290
     0
176
     0
 90
        1
176
     0
 40
0.0
176
     0
 90
        0
176
     0
290
     0
176
     0
290
     1
176
     0
290
     1
176
     0
290
     0
176
     0
290
     0
176
     0
290
     0
176
     0
290
     0
176
     0
290
     0
176
     0
290
     0
176
     0
 90
       50
176
     0
 40
0.0
176
     0
 40
1.0
176
     0
 90
        0
176
     0
 62
    18
420
        0
176
     0
 90
       50
176
     0
 90
        3
176
     0
 62
     5
420
      255
176
     0
290
     0
176
     0
 90
       50
176
     0
 90
       50
176
     0
 90
       50
176
     0
290
     0
176
     0
 90
       50
176
     0
 62
   256
176
     0
 40
1.0
176
     0
 90
        2
176
     0
  1
strokes_ogs.tif
176
     0
290
     0
176
     0
 40
1.0
176
     0
 40
1.0
176
     0
  0
VISUALSTYLE
  5
33
102
{ACAD_REACTORS
330
29
102
}
330
29
100
AcDbVisualStyle
  2
Realistic
 70
     8
177
     3
291
     0
 70
    58
 90
        2
176
     1
 90
        3
176
     1
 90
        0
176
     1
 90
        2
176
     1
 40
0.6
176
     1
 40
30.0
176
     1
 62
     7
420
 16777215
176
     1
 90
        0
176
     1
 90
        0
176
     1
 62
     7
176
     1
 62
   257
176
     1
 90
        1
176
     1
 90
        1
176
     1
 40
1.0
176
     1
 90
        8
176
     1
 62
   257
176
     1
 40
1.0
176
     1
 90
        1
176
     1
 90
        6
176
     1
 90
        2
176
     1
 62
     7
176
     1
 90
        3
176
     1
 90
        0
176
     1
 90
        0
176
     1
290
     0
176
     1
 90
       13
176
     1
 40
0.0
176
     1
 90
        0
176
     1
290
     0
176
     1
290
     1
176
     1
290
     1
176
     1
290
     0
176
     1
290
     0
176
     1
290
     0
176
     1
290
     0
176
     1
290
     0
176
     1
290
     0
176
     1
 90
       50
176
     1
 40
0.0
176
     1
 40
1.0
176
     1
 90
        0
176
     1
 62
    18
420
        0
176
     1
 90
       50
176
     1
 90
        3
176
     1
 62
     5
420
      255
176
     1
290
     0
176
     1
 90
       50
176
     1
 90
       50
176
     1
 90
       50
176
     1
290
     0
176
     1
 90
       50
176
     1
 62
   256
176
     0
 40
1.0
176
     0
 90
        2
176
     1
  1
strokes_ogs.tif
176
     1
290
     0
176
     1
 40
1.0
176
     1
 40
1.0
176
     1
  0
VISUALSTYLE
  5
3E
102
{ACAD_REACTORS
330
29
102
}
330
29
100
AcDbVisualStyle
  2
Shaded
 70
    27
177
     3
291
     0
 70
    58
 90
        2
176
     1
 90
        2
176
     1
 90
        1
176
     1
 90
        2
176
     1
 40
0.6
176
     1
 40
30.0
176
     1
 62
     7
420
 16777215
176
     1
 90
        0
176
     1
 90
        4
176
     1
 62
     7
176
     1
 62
   257
176
     1
 90
        1
176
     1
 90
        1
176
     1
 40
1.0
176
     1
 90
        8
176
     1
 62
   257
176
     1
 40
1.0
176
     1
 90
        1
176
     1
 90
        6
176
     1
 90
        2
176
     1
 62
     8
420
  7895160
176
     1
 90
        3
176
     1
 90
        0
176
     1
 90
        0
176
     1
290
     0
176
     1
 90
        5
176
     1
 40
0.0
176
     1
 90
        0
176
     1
290
     0
176
     1
290
     1
176
     1
290
     1
176
     1
290
     0
176
     1
290
     0
176
     1
290
     0
176
     1
290
     0
176
     1
290
     0
176
     1
290
     0
176
     1
 90
       50
176
     1
 40
0.0
176
     1
 40
1.0
176
     1
 90
        0
176
     1
 62
    18
420
        0
176
     1
 90
       50
176
     1
 90
        3
176
     1
 62
     5
420
      255
176
     1
290
     0
176
     1
 90
       50
176
     1
 90
       50
176
     1
 90
       50
176
     1
290
     0
176
     1
 90
       50
176
     1
 62
   256
176
     0
 40
1.0
176
     0
 90
        2
176
     1
  1
strokes_ogs.tif
176
     1
290
     0
176
     1
 40
1.0
176
     1
 40
1.0
176
     1
  0
VISUALSTYLE
  5
3D
102
{ACAD_REACTORS
330
29
102
}
330
29
100
AcDbVisualStyle
  2
Shaded with edges
 70
    26
177
     3
291
     0
 70
    58
 90
        2
176
     1
 90
        2
176
     1
 90
        1
176
     1
 90
        2
176
     1
 40
0.6
176
     1
 40
30.0
176
     1
 62
     7
420
 16777215
176
     1
 90
        1
176
     1
 90
        2
176
     1
 62
     7
176
     1
 62
   257
176
     1
 90
        2
176
     1
 90
        1
176
     1
 40
1.0
176
     1
 90
        8
176
     1
 62
   257
176
     1
 40
1.0
176
     1
 90
        1
176
     1
 90
        6
176
     1
 90
        2
176
     1
 62
     7
176
     1
 90
        3
176
     1
 90
        0
176
     1
 90
        0
176
     1
290
     0
176
     1
 90
        5
176
     1
 40
0.0
176
     1
 90
        0
176
     1
290
     0
176
     1
290
     1
176
     1
290
     1
176
     1
290
     0
176
     1
290
     0
176
     1
290
     0
176
     1
290
     0
176
     1
290
     0
176
     1
290
     0
176
     1
 90
       50
176
     1
 40
0.0
176
     1
 40
1.0
176
     1
 90
        0
176
     1
 62
    18
420
        0
176
     1
 90
       50
176
     1
 90
        3
176
     1
 62
     5
420
      255
176
     1
290
     0
176
     1
 90
       50
176
     1
 90
       50
176
     1
 90
       50
176
     1
290
     0
176
     1
 90
       50
176
     1
 62
   256
176
     0
 40
1.0
176
     0
 90
        2
176
     1
  1
strokes_ogs.tif
176
     1
290
     0
176
     1
 40
1.0
176
     1
 40
1.0
176
     1
  0
VISUALSTYLE
  5
3A
102
{ACAD_REACTORS
330
29
102
}
330
29
100
AcDbVisualStyle
  2
Shades of Gray
 70
    23
177
     3
291
     0
 70
    58
 90
        2
176
     1
 90
        2
176
     1
 90
        3
176
     1
 90
        0
176
     1
 40
0.6
176
     1
 40
30.0
176
     1
 62
     7
420
 16777215
176
     1
 90
        2
176
     1
 90
        2
176
     1
 62
     7
176
     1
 62
     7
176
     1
 90
        1
176
     1
 90
        1
176
     1
 40
40.0
176
     1
 90
        8
176
     1
 62
     7
176
     1
 40
1.0
176
     1
 90
        1
176
     1
 90
        6
176
     1
 90
        2
176
     1
 62
     7
176
     1
 90
        3
176
     1
 90
        0
176
     1
 90
        0
176
     1
290
     0
176
     1
 90
        1
176
     1
 40
0.0
176
     1
 90
        0
176
     1
290
     0
176
     1
290
     1
176
     1
290
     1
176
     1
290
     0
176
     1
290
     0
176
     1
290
     0
176
     1
290
     0
176
     1
290
     0
176
     1
290
     0
176
     1
 90
       50
176
     1
 40
0.0
176
     1
 40
1.0
176
     1
 90
        0
176
     1
 62
    18
420
        0
176
     1
 90
       50
176
     1
 90
        3
176
     1
 62
     5
420
      255
176
     1
290
     0
176
     1
 90
       50
176
     1
 90
       50
176
     1
 90
       50
176
     1
290
     0
176
     1
 90
       50
176
     1
 62
   256
176
     0
 40
1.0
176
     0
 90
        2
176
     1
  1
strokes_ogs.tif
176
     1
290
     0
176
     1
 40
1.0
176
     1
 40
1.0
176
     1
  0
VISUALSTYLE
  5
3B
102
{ACAD_REACTORS
330
29
102
}
330
29
100
AcDbVisualStyle
  2
Sketchy
 70
    24
177
     3
291
     0
 70
    58
 90
        1
176
     1
 90
        2
176
     1
 90
        2
176
     1
 90
        0
176
     1
 40
0.6
176
     1
 40
30.0
176
     1
 62
     7
420
 16777215
176
     1
 90
        2
176
     1
 90
        2
176
     1
 62
     7
176
     1
 62
     7
176
     1
 90
        1
176
     1
 90
        1
176
     1
 40
40.0
176
     1
 90
       11
176
     1
 62
     7
176
     1
 40
1.0
176
     1
 90
        1
176
     1
 90
        6
176
     1
 90
        2
176
     1
 62
     7
176
     1
 90
        6
176
     1
 90
        0
176
     1
 90
        0
176
     1
290
     0
176
     1
 90
        1
176
     1
 40
0.0
176
     1
 90
        0
176
     1
290
     0
176
     1
290
     1
176
     1
290
     1
176
     1
290
     0
176
     1
290
     0
176
     1
290
     0
176
     1
290
     0
176
     1
290
     0
176
     1
290
     0
176
     1
 90
       50
176
     1
 40
0.0
176
     1
 40
1.0
176
     1
 90
        0
176
     1
 62
    18
420
        0
176
     1
 90
       50
176
     1
 90
        3
176
     1
 62
     5
420
      255
176
     1
290
     0
176
     1
 90
       50
176
     1
 90
       50
176
     1
 90
       50
176
     1
290
     0
176
     1
 90
       50
176
     1
 62
   256
176
     0
 40
1.0
176
     0
 90
        2
176
     1
  1
strokes_ogs.tif
176
     1
290
     0
176
     1
 40
1.0
176
     1
 40
1.0
176
     1
  0
VISUALSTYLE
  5
36
102
{ACAD_REACTORS
330
29
102
}
330
29
100
AcDbVisualStyle
  2
Thicken
 70
    13
177
     3
291
     1
 70
    58
 90
        2
176
     1
 90
        2
176
     1
 90
        0
176
     1
 90
        0
176
     1
 40
0.6
176
     1
 40
30.0
176
     1
 62
     7
420
 16777215
176
     1
 90
        1
176
     1
 90
        4
176
     1
 62
     7
176
     1
 62
   257
176
     1
 90
        1
176
     1
 90
        1
176
     1
 40
1.0
176
     1
 90
       12
176
     1
 62
     7
176
     1
 40
1.0
176
     1
 90
        1
176
     1
 90
        6
176
     1
 90
        2
176
     1
 62
     7
176
     1
 90
        5
176
     1
 90
        0
176
     1
 90
        0
176
     1
290
     0
176
     1
 90
        1
176
     1
 40
0.0
176
     1
 90
        0
176
     1
290
     0
176
     1
290
     1
176
     1
290
     1
176
     1
290
     0
176
     1
290
     0
176
     1
290
     0
176
     1
290
     0
176
     1
290
     0
176
     1
290
     0
176
     1
 90
       50
176
     1
 40
0.0
176
     1
 40
1.0
176
     1
 90
        0
176
     1
 62
    18
420
        0
176
     1
 90
       50
176
     1
 90
        3
176
     1
 62
     5
420
      255
176
     1
290
     0
176
     1
 90
       50
176
     1
 90
       50
176
     1
 90
       50
176
     1
290
     0
176
     1
 90
       50
176
     1
 62
   256
176
     0
 40
1.0
176
     0
 90
        2
176
     1
  1
strokes_ogs.tif
176
     1
290
     0
176
     1
 40
1.0
176
     1
 40
1.0
176
     1
  0
VISUALSTYLE
  5
30
102
{ACAD_REACTORS
330
29
102
}
330
29
100
AcDbVisualStyle
  2
Wireframe
 70
     5
177
     3
291
     0
 70
    58
 90
        0
176
     1
 90
        2
176
     1
 90
        0
176
     1
 90
        0
176
     1
 40
0.6
176
     1
 40
30.0
176
     1
 62
     7
420
 16777215
176
     1
 90
        1
176
     1
 90
        4
176
     1
 62
     7
176
     1
 62
   257
176
     1
 90
        1
176
     1
 90
        1
176
     1
 40
1.0
176
     1
 90
        0
176
     1
 62
   257
176
     1
 40
1.0
176
     1
 90
        1
176
     1
 90
        6
176
     1
 90
        2
176
     1
 62
     7
176
     1
 90
        3
176
     1
 90
        0
176
     1
 90
        0
176
     1
290
     0
176
     1
 90
        1
176
     1
 40
0.0
176
     1
 90
        0
176
     1
290
     0
176
     1
290
     1
176
     1
290
     1
176
     1
290
     0
176
     1
290
     0
176
     1
290
     0
176
     1
290
     0
176
     1
290
     0
176
     1
290
     0
176
     1
 90
       50
176
     1
 40
0.0
176
     1
 40
1.0
176
     1
 90
        0
176
     1
 62
    18
420
        0
176
     1
 90
       50
176
     1
 90
        3
176
     1
 62
     5
420
      255
176
     1
290
     0
176
     1
 90
       50
176
     1
 90
       50
176
     1
 90
       50
176
     1
290
     0
176
     1
 90
       50
176
     1
 62
   256
176
     0
 40
1.0
176
     0
 90
        2
176
     1
  1
strokes_ogs.tif
176
     1
290
     0
176
     1
 40
1.0
176
     1
 40
1.0
176
     1
  0
VISUALSTYLE
  5
3C
102
{ACAD_REACTORS
330
29
102
}
330
29
100
AcDbVisualStyle
  2
X-Ray
 70
    25
177
     3
291
     0
 70
    58
 90
        2
176
     1
 90
        2
176
     1
 90
        1
176
     1
 90
        1
176
     1
 40
0.5
176
     1
 40
30.0
176
     1
 62
     7
420
 16777215
176
     1
 90
        1
176
     1
 90
        0
176
     1
 62
     7
176
     1
 62
   257
176
     1
 90
        1
176
     1
 90
        1
176
     1
 40
1.0
176
     1
 90
        8
176
     1
 62
     7
176
     1
 40
1.0
176
     1
 90
        1
176
     1
 90
        6
176
     1
 90
        2
176
     1
 62
     7
176
     1
 90
        3
176
     1
 90
        0
176
     1
 90
        0
176
     1
290
     0
176
     1
 90
       13
176
     1
 40
0.0
176
     1
 90
        0
176
     1
290
     0
176
     1
290
     1
176
     1
290
     1
176
     1
290
     0
176
     1
290
     0
176
     1
290
     0
176
     1
290
     0
176
     1
290
     0
176
     1
290
     0
176
     1
 90
       50
176
     1
 40
0.0
176
     1
 40
1.0
176
     1
 90
        0
176
     1
 62
    18
420
        0
176
     1
 90
       50
176
     1
 90
        3
176
     1
 62
     5
420
      255
176
     1
290
     0
176
     1
 90
       50
176
     1
 90
       50
176
     1
 90
       50
176
     1
290
     0
176
     1
 90
       50
176
     1
 62
   256
176
     0
 40
1.0
176
     0
 90
        2
176
     1
  1
strokes_ogs.tif
176
     1
290
     0
176
     1
 40
1.0
176
     1
 40
1.0
176
     1
  0
DICTIONARYVAR
  5
C2
102
{ACAD_REACTORS
330
BD
102
}
330
BD
100
DictionaryVariables
280
     0
  1
1:1
  0
DICTIONARYVAR
  5
BF
102
{ACAD_REACTORS
330
BD
102
}
330
BD
100
DictionaryVariables
280
     0
  1
STANDARD
  0
DICTIONARYVAR
  5
BE
102
{ACAD_REACTORS
330
BD
102
}
330
BD
100
DictionaryVariables
280
     0
  1
STANDARD
  0
DICTIONARYVAR
  5
C0
102
{ACAD_REACTORS
330
BD
102
}
330
BD
100
DictionaryVariables
280
     0
  1
Imperial24
  0
DICTIONARYVAR
  5
C1
102
{ACAD_REACTORS
330
BD
102
}
330
BD
100
DictionaryVariables
280
     0
  1
Imperial24
  0
DICTIONARY
  5
1A
330
19
100
AcDbDictionary
280
     1
281
     1
  3
BUMPTILE
360
1C
  3
DIFFUSETILE
360
1B
  3
OPACITYTILE
360
1F
  3
REFLECTIONTILE
360
1E
  3
REFRACTIONTILE
360
20
  3
SPECULARTILE
360
1D
  0
DICTIONARY
  5
12
330
11
100
AcDbDictionary
280
     1
281
     1
  3
BUMPTILE
360
14
  3
DIFFUSETILE
360
13
  3
OPACITYTILE
360
17
  3
REFLECTIONTILE
360
16
  3
REFRACTIONTILE
360
18
  3
SPECULARTILE
360
15
  0
DICTIONARY
  5
22
330
21
100
AcDbDictionary
280
     1
281
     1
  3
BUMPTILE
360
24
  3
DIFFUSETILE
360
23
  3
OPACITYTILE
360
27
  3
REFLECTIONTILE
360
26
  3
REFRACTIONTILE
360
28
  3
SPECULARTILE
360
25
  0
DICTIONARY
  5
C3
330
65
100
AcDbDictionary
280
     1
281
     1
  3
ACAD_ROUNDTRIP_2008_TABLESTYLE_CELLSTYLEMAP
360
C4
  0
XRECORD
  5
1C
102
{ACAD_REACTORS
330
1A
102
}
330
1A
100
AcDbXrecord
280
     1
270
     1
271
     1
  0
XRECORD
  5
1B
102
{ACAD_REACTORS
330
1A
102
}
330
1A
100
AcDbXrecord
280
     1
270
     1
271
     1
  0
XRECORD
  5
1F
102
{ACAD_REACTORS
330
1A
102
}
330
1A
100
AcDbXrecord
280
     1
270
     1
271
     1
  0
XRECORD
  5
1E
102
{ACAD_REACTORS
330
1A
102
}
330
1A
100
AcDbXrecord
280
     1
270
     1
271
     1
  0
XRECORD
  5
20
102
{ACAD_REACTORS
330
1A
102
}
330
1A
100
AcDbXrecord
280
     1
270
     1
271
     1
  0
XRECORD
  5
1D
102
{ACAD_REACTORS
330
1A
102
}
330
1A
100
AcDbXrecord
280
     1
270
     1
271
     1
  0
XRECORD
  5
14
102
{ACAD_REACTORS
330
12
102
}
330
12
100
AcDbXrecord
280
     1
270
     1
271
     1
  0
XRECORD
  5
13
102
{ACAD_REACTORS
330
12
102
}
330
12
100
AcDbXrecord
280
     1
270
     1
271
     1
  0
XRECORD
  5
17
102
{ACAD_REACTORS
330
12
102
}
330
12
100
AcDbXrecord
280
     1
270
     1
271
     1
  0
XRECORD
  5
16
102
{ACAD_REACTORS
330
12
102
}
330
12
100
AcDbXrecord
280
     1
270
     1
271
     1
  0
XRECORD
  5
18
102
{ACAD_REACTORS
330
12
102
}
330
12
100
AcDbXrecord
280
     1
270
     1
271
     1
  0
XRECORD
  5
15
102
{ACAD_REACTORS
330
12
102
}
330
12
100
AcDbXrecord
280
     1
270
     1
271
     1
  0
XRECORD
  5
24
102
{ACAD_REACTORS
330
22
102
}
330
22
100
AcDbXrecord
280
     1
270
     1
271
     1
  0
XRECORD
  5
23
102
{ACAD_REACTORS
330
22
102
}
330
22
100
AcDbXrecord
280
     1
270
     1
271
     1
  0
XRECORD
  5
27
102
{ACAD_REACTORS
330
22
102
}
330
22
100
AcDbXrecord
280
     1
270
     1
271
     1
  0
XRECORD
  5
26
102
{ACAD_REACTORS
330
22
102
}
330
22
100
AcDbXrecord
280
     1
270
     1
271
     1
  0
XRECORD
  5
28
102
{ACAD_REACTORS
330
22
102
}
330
22
100
AcDbXrecord
280
     1
270
     1
271
     1
  0
XRECORD
  5
25
102
{ACAD_REACTORS
330
22
102
}
330
22
100
AcDbXrecord
280
     1
270
     1
271
     1
  0
CELLSTYLEMAP
  5
C4
102
{ACAD_REACTORS
330
C3
102
}
330
C3
100
AcDbCellStyleMap
 90
        3
300
CELLSTYLE
  1
TABLEFORMAT_BEGIN
 90
        5
170
     1
 91
        0
 92
    32768
 62
   257
 93
        1
300
CONTENTFORMAT
  1
CONTENTFORMAT_BEGIN
 90
        0
 91
        0
 92
      512
 93
        0
300

 40
0.0
140
1.0
 94
        5
 62
     0
340
55
144
0.25
309
CONTENTFORMAT_END
171
     0
 94
        0
309
TABLEFORMAT_END
  1
CELLSTYLE_BEGIN
 90
        1
 91
        1
300
_TITLE
309
CELLSTYLE_END
300
CELLSTYLE
  1
TABLEFORMAT_BEGIN
 90
        5
170
     1
 91
        0
 92
        0
 62
   257
 93
        1
300
CONTENTFORMAT
  1
CONTENTFORMAT_BEGIN
 90
        0
 91
        0
 92
      512
 93
        0
300

 40
0.0
140
1.0
 94
        5
 62
     0
340
55
144
0.18
309
CONTENTFORMAT_END
171
     0
 94
        0
309
TABLEFORMAT_END
  1
CELLSTYLE_BEGIN
 90
        2
 91
        1
300
_HEADER
309
CELLSTYLE_END
300
CELLSTYLE
  1
TABLEFORMAT_BEGIN
 90
        5
170
     1
 91
        0
 92
        0
 62
   257
 93
        1
300
CONTENTFORMAT
  1
CONTENTFORMAT_BEGIN
 90
        0
 91
        0
 92
      512
 93
        0
300

 40
0.0
140
1.0
 94
        2
 62
     0
340
55
144
0.18
309
CONTENTFORMAT_END
171
     0
 94
        0
309
TABLEFORMAT_END
  1
CELLSTYLE_BEGIN
 90
        3
 91
        2
300
_DATA
309
CELLSTYLE_END
  0
ENDSEC
  0
EOF
