  0
SECTION
  2
HEADER
  9
$ACADVER
  1
AC1032
  9
$ACADMAINTVER
 90
      228
  9
$DWGCODEPAGE
  3
ANSI_1252
  9
$REQUIREDVERSIONS
160
                 0
  9
$INSBASE
 10
0.0
 20
0.0
 30
0.0
  9
$EXTMIN
 10
1.000000000000000E+20
 20
1.000000000000000E+20
 30
1.000000000000000E+20
  9
$EXTMAX
 10
-1.000000000000000E+20
 20
-1.000000000000000E+20
 30
-1.000000000000000E+20
  9
$LIMMIN
 10
0.0
 20
0.0
  9
$LIMMAX
 10
12.0
 20
9.0
  9
$ORTHOMODE
 70
     0
  9
$REGENMODE
 70
     1
  9
$FILLMODE
 70
     1
  9
$QTEXTMODE
 70
     0
  9
$MIRRTEXT
 70
     0
  9
$LTSCALE
 40
1.0
  9
$ATTMODE
 70
     1
  9
$TEXTSIZE
 40
0.2
  9
$TRACEWID
 40
0.05
  9
$TEXTSTYLE
  7
Standard
  9
$CLAYER
  8
0
  9
$CELTYPE
  6
ByLayer
  9
$CECOLOR
 62
   256
  9
$CELTSCALE
 40
1.0
  9
$DISPSILH
 70
     0
  9
$DIMSCALE
 40
1.0
  9
$DIMASZ
 40
0.18
  9
$DIMEXO
 40
0.0625
  9
$DIMDLI
 40
0.38
  9
$DIMRND
 40
0.0
  9
$DIMDLE
 40
0.0
  9
$DIMEXE
 40
0.18
  9
$DIMTP
 40
0.0
  9
$DIMTM
 40
0.0
  9
$DIMTXT
 40
0.18
  9
$DIMCEN
 40
0.09
  9
$DIMTSZ
 40
0.0
  9
$DIMTOL
 70
     0
  9
$DIMLIM
 70
     0
  9
$DIMTIH
 70
     1
  9
$DIMTOH
 70
     1
  9
$DIMSE1
 70
     0
  9
$DIMSE2
 70
     0
  9
$DIMTAD
 70
     0
  9
$DIMZIN
 70
     0
  9
$DIMBLK
  1

  9
$DIMASO
 70
     1
  9
$DIMSHO
 70
     1
  9
$DIMPOST
  1

  9
$DIMAPOST
  1

  9
$DIMALT
 70
     0
  9
$DIMALTD
 70
     2
  9
$DIMALTF
 40
25.4
  9
$DIMLFAC
 40
1.0
  9
$DIMTOFL
 70
     0
  9
$DIMTVP
 40
0.0
  9
$DIMTIX
 70
     0
  9
$DIMSOXD
 70
     0
  9
$DIMSAH
 70
     0
  9
$DIMBLK1
  1

  9
$DIMBLK2
  1

  9
$DIMSTYLE
  2
Standard
  9
$DIMCLRD
 70
     0
  9
$DIMCLRE
 70
     0
  9
$DIMCLRT
 70
     0
  9
$DIMTFAC
 40
1.0
  9
$DIMGAP
 40
0.09
  9
$DIMJUST
 70
     0
  9
$DIMSD1
 70
     0
  9
$DIMSD2
 70
     0
  9
$DIMTOLJ
 70
     1
  9
$DIMTZIN
 70
     0
  9
$DIMALTZ
 70
     0
  9
$DIMALTTZ
 70
     0
  9
$DIMUPT
 70
     0
  9
$DIMDEC
 70
     4
  9
$DIMTDEC
 70
     4
  9
$DIMALTU
 70
     2
  9
$DIMALTTD
 70
     2
  9
$DIMTXSTY
  7
Standard
  9
$DIMAUNIT
 70
     0
  9
$DIMADEC
 70
     0
  9
$DIMALTRND
 40
0.0
  9
$DIMAZIN
 70
     0
  9
$DIMDSEP
 70
    46
  9
$DIMATFIT
 70
     3
  9
$DIMFRAC
 70
     0
  9
$DIMLDRBLK
  1

  9
$DIMLUNIT
 70
     2
  9
$DIMLWD
 70
    -2
  9
$DIMLWE
 70
    -2
  9
$DIMTMOVE
 70
     0
  9
$DIMFXL
 40
1.0
  9
$DIMFXLON
 70
     0
  9
$DIMJOGANG
 40
0.7853981633974483
  9
$DIMTFILL
 70
     0
  9
$DIMTFILLCLR
 70
     0
  9
$DIMARCSYM
 70
     0
  9
$DIMLTYPE
  6

  9
$DIMLTEX1
  6

  9
$DIMLTEX2
  6

  9
$DIMTXTDIRECTION
 70
     0
  9
$LUNITS
 70
     2
  9
$LUPREC
 70
     4
  9
$SKETCHINC
 40
0.1
  9
$FILLETRAD
 40
0.0
  9
$AUNITS
 70
     0
  9
$AUPREC
 70
     0
  9
$MENU
  1
.
  9
$ELEVATION
 40
0.0
  9
$PELEVATION
 40
0.0
  9
$THICKNESS
 40
0.0
  9
$LIMCHECK
 70
     0
  9
$CHAMFERA
 40
0.0
  9
$CHAMFERB
 40
0.0
  9
$CHAMFERC
 40
0.0
  9
$CHAMFERD
 40
0.0
  9
$SKPOLY
 70
     0
  9
$TDCREATE
 40
2459820.092210648
  9
$TDUCREATE
 40
2459820.050543982
  9
$TDUPDATE
 40
2459820.092210648
  9
$TDUUPDATE
 40
2459820.050543982
  9
$TDINDWG
 40
0.0000000000
  9
$TDUSRTIMER
 40
0.0000000000
  9
$USRTIMER
 70
     1
  9
$ANGBASE
 50
0.0
  9
$ANGDIR
 70
     0
  9
$PDMODE
 70
     0
  9
$PDSIZE
 40
0.0
  9
$PLINEWID
 40
0.0
  9
$SPLFRAME
 70
     0
  9
$SPLINETYPE
 70
     6
  9
$SPLINESEGS
 70
     8
  9
$HANDSEED
  5
9B
  9
$SURFTAB1
 70
     6
  9
$SURFTAB2
 70
     6
  9
$SURFTYPE
 70
     6
  9
$SURFU
 70
     6
  9
$SURFV
 70
     6
  9
$UCSBASE
  2

  9
$UCSNAME
  2

  9
$UCSORG
 10
0.0
 20
0.0
 30
0.0
  9
$UCSXDIR
 10
1.0
 20
0.0
 30
0.0
  9
$UCSYDIR
 10
0.0
 20
1.0
 30
0.0
  9
$UCSORTHOREF
  2

  9
$UCSORTHOVIEW
 70
     0
  9
$UCSORGTOP
 10
0.0
 20
0.0
 30
0.0
  9
$UCSORGBOTTOM
 10
0.0
 20
0.0
 30
0.0
  9
$UCSORGLEFT
 10
0.0
 20
0.0
 30
0.0
  9
$UCSORGRIGHT
 10
0.0
 20
0.0
 30
0.0
  9
$UCSORGFRONT
 10
0.0
 20
0.0
 30
0.0
  9
$UCSORGBACK
 10
0.0
 20
0.0
 30
0.0
  9
$PUCSBASE
  2

  9
$PUCSNAME
  2

  9
$PUCSORG
 10
0.0
 20
0.0
 30
0.0
  9
$PUCSXDIR
 10
1.0
 20
0.0
 30
0.0
  9
$PUCSYDIR
 10
0.0
 20
1.0
 30
0.0
  9
$PUCSORTHOREF
  2

  9
$PUCSORTHOVIEW
 70
     0
  9
$PUCSORGTOP
 10
0.0
 20
0.0
 30
0.0
  9
$PUCSORGBOTTOM
 10
0.0
 20
0.0
 30
0.0
  9
$PUCSORGLEFT
 10
0.0
 20
0.0
 30
0.0
  9
$PUCSORGRIGHT
 10
0.0
 20
0.0
 30
0.0
  9
$PUCSORGFRONT
 10
0.0
 20
0.0
 30
0.0
  9
$PUCSORGBACK
 10
0.0
 20
0.0
 30
0.0
  9
$USERI1
 70
     0
  9
$USERI2
 70
     0
  9
$USERI3
 70
     0
  9
$USERI4
 70
     0
  9
$USERI5
 70
     0
  9
$USERR1
 40
0.0
  9
$USERR2
 40
0.0
  9
$USERR3
 40
0.0
  9
$USERR4
 40
0.0
  9
$USERR5
 40
0.0
  9
$WORLDVIEW
 70
     1
  9
$SHADEDGE
 70
     3
  9
$SHADEDIF
 70
    70
  9
$TILEMODE
 70
     1
  9
$MAXACTVP
 70
    64
  9
$PINSBASE
 10
0.0
 20
0.0
 30
0.0
  9
$PLIMCHECK
 70
     0
  9
$PEXTMIN
 10
1.000000000000000E+20
 20
1.000000000000000E+20
 30
1.000000000000000E+20
  9
$PEXTMAX
 10
-1.000000000000000E+20
 20
-1.000000000000000E+20
 30
-1.000000000000000E+20
  9
$PLIMMIN
 10
0.0
 20
0.0
  9
$PLIMMAX
 10
12.0
 20
9.0
  9
$UNITMODE
 70
     0
  9
$VISRETAIN
 70
     1
  9
$PLINEGEN
 70
     0
  9
$PSLTSCALE
 70
     1
  9
$TREEDEPTH
 70
  3020
  9
$CMLSTYLE
  2
Standard
  9
$CMLJUST
 70
     0
  9
$CMLSCALE
 40
1.0
  9
$PROXYGRAPHICS
 70
     1
  9
$MEASUREMENT
 70
     0
  9
$CELWEIGHT
370
    -1
  9
$ENDCAPS
280
     0
  9
$JOINSTYLE
280
     0
  9
$LWDISPLAY
290
     1
  9
$INSUNITS
 70
     4
  9
$HYPERLINKBASE
  1

  9
$STYLESHEET
  1

  9
$XEDIT
290
     1
  9
$CEPSNTYPE
380
     0
  9
$PSTYLEMODE
290
     1
  9
$FINGERPRINTGUID
  2
{95D1B0B9-A139-094C-8165-988929826FB7}
  9
$VERSIONGUID
  2
{FD6BFA1E-7DC9-FB40-882D-73DF35978C30}
  9
$EXTNAMES
290
     1
  9
$PSVPSCALE
 40
0.0
  9
$OLESTARTUP
290
     0
  9
$SORTENTS
280
   127
  9
$INDEXCTL
280
     0
  9
$HIDETEXT
280
     1
  9
$XCLIPFRAME
280
     2
  9
$HALOGAP
280
     0
  9
$OBSCOLOR
 70
   257
  9
$OBSLTYPE
280
     0
  9
$INTERSECTIONDISPLAY
280
     0
  9
$INTERSECTIONCOLOR
 70
   257
  9
$DIMASSOC
280
     2
  9
$PROJECTNAME
  1

  9
$CAMERADISPLAY
290
     0
  9
$LENSLENGTH
 40
50.0
  9
$CAMERAHEIGHT
 40
0.0
  9
$STEPSPERSEC
 40
2.0
  9
$STEPSIZE
 40
6.0
  9
$3DDWFPREC
 40
2.0
  9
$PSOLWIDTH
 40
0.25
  9
$PSOLHEIGHT
 40
4.0
  9
$LOFTANG1
 40
1.570796326794896
  9
$LOFTANG2
 40
1.570796326794896
  9
$LOFTMAG1
 40
0.0
  9
$LOFTMAG2
 40
0.0
  9
$LOFTPARAM
 70
     7
  9
$LOFTNORMALS
280
     1
  9
$LATITUDE
 40
37.795
  9
$LONGITUDE
 40
-122.394
  9
$NORTHDIRECTION
 40
0.0
  9
$TIMEZONE
 70
 -8000
  9
$LIGHTGLYPHDISPLAY
280
     1
  9
$TILEMODELIGHTSYNCH
280
     1
  9
$CMATERIAL
347
11
  9
$SOLIDHIST
280
     0
  9
$SHOWHIST
280
     1
  9
$DWFFRAME
280
     2
  9
$DGNFRAME
280
     0
  9
$REALWORLDSCALE
290
     1
  9
$INTERFERECOLOR
 62
     1
  9
$INTERFEREOBJVS
345
33
  9
$INTERFEREVPVS
346
30
  9
$CSHADOW
280
     0
  9
$SHADOWPLANELOCATION
 40
0.0
  0
ENDSEC
  0
SECTION
  2
CLASSES
  0
CLASS
  1
ACDBDICTIONARYWDFLT
  2
AcDbDictionaryWithDefault
  3
ObjectDBX Classes
 90
        0
 91
        1
280
     0
281
     0
  0
CLASS
  1
MATERIAL
  2
AcDbMaterial
  3
ObjectDBX Classes
 90
     1153
 91
        3
280
     0
281
     0
  0
CLASS
  1
VISUALSTYLE
  2
AcDbVisualStyle
  3
ObjectDBX Classes
 90
     4095
 91
       24
280
     0
281
     0
  0
CLASS
  1
SCALE
  2
AcDbScale
  3
ObjectDBX Classes
 90
     1153
 91
       17
280
     0
281
     0
  0
CLASS
  1
TABLESTYLE
  2
AcDbTableStyle
  3
ObjectDBX Classes
 90
     4095
 91
        1
280
     0
281
     0
  0
CLASS
  1
MLEADERSTYLE
  2
AcDbMLeaderStyle
  3
ACDB_MLEADERSTYLE_CLASS
 90
     4095
 91
        1
280
     0
281
     0
  0
CLASS
  1
ACDBSECTIONVIEWSTYLE
  2
AcDbSectionViewStyle
  3
ObjectDBX Classes
 90
     1025
 91
        1
280
     0
281
     0
  0
CLASS
  1
ACDBDETAILVIEWSTYLE
  2
AcDbDetailViewStyle
  3
ObjectDBX Classes
 90
     1025
 91
        1
280
     0
281
     0
  0
CLASS
  1
DICTIONARYVAR
  2
AcDbDictionaryVar
  3
ObjectDBX Classes
 90
        0
 91
        5
280
     0
281
     0
  0
CLASS
  1
CELLSTYLEMAP
  2
AcDbCellStyleMap
  3
ObjectDBX Classes
 90
     1152
 91
        1
280
     0
281
     0
  0
ENDSEC
  0
SECTION
  2
TABLES
  0
TABLE
  2
VPORT
  5
8
330
0
100
AcDbSymbolTable
 70
     1
  0
VPORT
  5
57
330
8
100
AcDbSymbolTableRecord
100
AcDbViewportTableRecord
  2
*Active
 70
     0
 10
0.0
 20
0.0
 11
1.0
 21
1.0
 12
0.0
 22
0.0
 13
0.0
 23
0.0
 14
1.0
 24
1.0
 15
0.0
 25
0.0
 16
0.0
 26
0.0
 36
1.0
 17
139.699999965075
 27
-107.9499999730125
 37
0.0
 40
220.2179999449455
 41
1.294117647058823
 42
50.0
 43
0.0
 44
0.0
 50
0.0
 51
0.0
 71
     0
 72
   100
 73
     1
 74
     1
 75
     0
 76
     0
 77
     0
 78
     0
281
     0
 65
     1
110
0.0
120
0.0
130
0.0
111
1.0
121
0.0
131
0.0
112
0.0
122
1.0
132
0.0
 79
     0
146
0.0
 60
     3
 61
     5
292
     1
282
     1
141
0.0
142
0.0
 63
   250
421
  3355443
  0
ENDTAB
  0
TABLE
  2
LTYPE
  5
5
330
0
100
AcDbSymbolTable
 70
     1
  0
LTYPE
  5
5B
330
5
100
AcDbSymbolTableRecord
100
AcDbLinetypeTableRecord
  2
ByBlock
 70
     0
  3

 72
    65
 73
     0
 40
0.0
  0
LTYPE
  5
5C
330
5
100
AcDbSymbolTableRecord
100
AcDbLinetypeTableRecord
  2
ByLayer
 70
     0
  3

 72
    65
 73
     0
 40
0.0
  0
LTYPE
  5
5D
330
5
100
AcDbSymbolTableRecord
100
AcDbLinetypeTableRecord
  2
Continuous
 70
     0
  3
Solid line
 72
    65
 73
     0
 40
0.0
  0
ENDTAB
  0
TABLE
  2
LAYER
  5
2
330
0
100
AcDbSymbolTable
 70
     2
  0
LAYER
  5
54
330
2
100
AcDbSymbolTableRecord
100
AcDbLayerTableRecord
  2
0
 70
     0
 62
     7
  6
Continuous
370
    -3
390
F
347
21
348
0
  0
LAYER
  5
78
330
2
100
AcDbSymbolTableRecord
100
AcDbLayerTableRecord
  2
Layer 1
 70
     0
 62
     7
  6
Continuous
370
     0
390
F
347
21
348
0
  0
ENDTAB
  0
TABLE
  2
STYLE
  5
3
330
0
100
AcDbSymbolTable
 70
     2
  0
STYLE
  5
55
330
3
100
AcDbSymbolTableRecord
100
AcDbTextStyleTableRecord
  2
Standard
 70
     0
 40
0.0
 41
1.0
 50
0.0
 71
     0
 42
0.2
  3
txt
  4

  0
STYLE
  5
5A
330
3
100
AcDbSymbolTableRecord
100
AcDbTextStyleTableRecord
  2
Annotative
 70
     0
 40
0.0
 41
1.0
 50
0.0
 71
     0
 42
0.2
  3
txt
  4

1001
AcadAnnotative
1000
AnnotativeData
1002
{
1070
     1
1070
     1
1002
}
  0
ENDTAB
  0
TABLE
  2
VIEW
  5
6
330
0
100
AcDbSymbolTable
 70
     0
  0
ENDTAB
  0
TABLE
  2
UCS
  5
7
330
0
100
AcDbSymbolTable
 70
     0
  0
ENDTAB
  0
TABLE
  2
APPID
  5
9
330
0
100
AcDbSymbolTable
 70
     2
  0
APPID
  5
56
330
9
100
AcDbSymbolTableRecord
100
AcDbRegAppTableRecord
  2
ACAD
 70
     0
  0
APPID
  5
5E
330
9
100
AcDbSymbolTableRecord
100
AcDbRegAppTableRecord
  2
AcadAnnotative
 70
     0
  0
ENDTAB
  0
TABLE
  2
DIMSTYLE
  5
A
330
0
100
AcDbSymbolTable
 70
     2
100
AcDbDimStyleTable
 71
     0
  0
DIMSTYLE
105
58
330
A
100
AcDbSymbolTableRecord
100
AcDbDimStyleTableRecord
  2
Standard
 70
     0
340
55
  0
DIMSTYLE
105
59
330
A
100
AcDbSymbolTableRecord
100
AcDbDimStyleTableRecord
  2
Annotative
 70
     0
340
55
1001
AcadAnnotative
1000
AnnotativeData
1002
{
1070
     1
1070
     1
1002
}
  0
ENDTAB
  0
TABLE
  2
BLOCK_RECORD
  5
1
330
0
100
AcDbSymbolTable
 70
     1
  0
BLOCK_RECORD
  5
70
330
1
100
AcDbSymbolTableRecord
100
AcDbBlockTableRecord
  2
*Model_Space
340
73
 70
     0
280
     1
281
     0
  0
BLOCK_RECORD
  5
6C
330
1
100
AcDbSymbolTableRecord
100
AcDbBlockTableRecord
  2
*Paper_Space
340
6F
 70
     0
280
     1
281
     0
  0
BLOCK_RECORD
  5
74
330
1
100
AcDbSymbolTableRecord
100
AcDbBlockTableRecord
  2
*Paper_Space0
340
77
 70
     0
280
     1
281
     0
  0
ENDTAB
  0
ENDSEC
  0
SECTION
  2
BLOCKS
  0
BLOCK
  5
71
330
70
100
AcDbEntity
  8
0
100
AcDbBlockBegin
  2
*Model_Space
 70
     0
 10
0.0
 20
0.0
 30
0.0
  3
*Model_Space
  1

  0
ENDBLK
  5
72
330
70
100
AcDbEntity
  8
0
100
AcDbBlockEnd
  0
BLOCK
  5
6D
330
6C
100
AcDbEntity
 67
     1
  8
0
100
AcDbBlockBegin
  2
*Paper_Space
 70
     0
 10
0.0
 20
0.0
 30
0.0
  3
*Paper_Space
  1

  0
ENDBLK
  5
6E
330
6C
100
AcDbEntity
 67
     1
  8
0
100
AcDbBlockEnd
  0
BLOCK
  5
75
330
74
100
AcDbEntity
 67
     1
  8
0
100
AcDbBlockBegin
  2
*Paper_Space0
 70
     0
 10
0.0
 20
0.0
 30
0.0
  3
*Paper_Space0
  1

  0
ENDBLK
  5
76
330
74
100
AcDbEntity
 67
     1
  8
0
100
AcDbBlockEnd
  0
ENDSEC
  0
SECTION
  2
ENTITIES
  0
SPLINE
  5
79
330
70
100
AcDbEntity
  8
Layer 1
100
AcDbSpline
210
0.0
220
0.0
230
1.0
 70
     9
 71
     3
 72
    26
 73
    22
 74
     0
 42
0.0000000001
 43
0.0000000001
 40
0.0
 40
0.0
 40
0.0
 40
0.0
 40
1.0
 40
1.0
 40
1.0
 40
2.0
 40
2.0
 40
2.0
 40
3.0
 40
3.0
 40
3.0
 40
4.0
 40
4.0
 40
4.0
 40
5.0
 40
5.0
 40
5.0
 40
6.0
 40
6.0
 40
6.0
 40
7.0
 40
7.0
 40
7.0
 40
7.0
 10
132.0899207737855
 20
-65.51552644148741
 30
0.0
 10
132.0899207737855
 20
-64.375348827832
 30
0.0
 10
132.0902611352419
 20
-63.34151835878851
 30
0.0
 10
132.089834136324
 20
-62.3076940817182
 30
0.0
 10
132.0892029205319
 20
-60.78965747808941
 30
0.0
 10
132.0151773979297
 20
-59.26697070237324
 30
0.0
 10
132.1114378062286
 20
-57.75513226420335
 30
0.0
 10
132.1812985422805
 20
-56.6579331385101
 30
0.0
 10
131.6560836845034
 20
-56.4204957232389
 30
0.0
 10
130.7495959231143
 20
-56.42772794826976
 30
0.0
 10
129.2662450000166
 20
-56.43956700157357
 30
0.0
 10
127.7827269903855
 20
-56.42983321925464
 30
0.0
 10
126.2992770530455
 20
-56.42931309348191
 30
0.0
 10
125.742996476872
 20
-56.42912114230364
 30
0.0
 10
125.186722089089
 20
-56.42928213361445
 30
0.0
 10
124.6254908008203
 20
-56.42928213361445
 30
0.0
 10
124.6254908008203
 20
-59.55214204124336
 30
0.0
 10
124.6254908008203
 20
-62.50409728870195
 30
0.0
 10
124.6254908008203
 20
-65.51552644148741
 30
0.0
 10
127.1721494793093
 20
-65.51552644148741
 30
0.0
 10
129.6496714633903
 20
-65.51552644148741
 30
0.0
 10
132.0899207737855
 20
-65.51552644148741
 30
0.0
  0
SPLINE
  5
7A
330
70
100
AcDbEntity
  8
Layer 1
100
AcDbSpline
210
0.0
220
0.0
230
1.0
 70
     9
 71
     3
 72
    35
 73
    31
 74
     0
 42
0.0000000001
 43
0.0000000001
 40
0.0
 40
0.0
 40
0.0
 40
0.0
 40
1.0
 40
1.0
 40
1.0
 40
2.0
 40
2.0
 40
2.0
 40
3.0
 40
3.0
 40
3.0
 40
4.0
 40
4.0
 40
4.0
 40
5.0
 40
5.0
 40
5.0
 40
6.0
 40
6.0
 40
6.0
 40
7.0
 40
7.0
 40
7.0
 40
8.0
 40
8.0
 40
8.0
 40
9.0
 40
9.0
 40
9.0
 40
10.0
 40
10.0
 40
10.0
 40
10.0
 10
120.7329129669933
 20
-61.09610443785561
 30
0.0
 10
120.7329129669933
 20
-59.77773421123727
 30
0.0
 10
120.7077757263304
 20
-58.45869525148238
 30
0.0
 10
120.7431114339089
 20
-57.14127239680742
 30
0.0
 10
120.7618746327494
 20
-56.44160416085035
 30
0.0
 10
120.5039734745463
 20
-56.17118829479577
 30
0.0
 10
119.7993571872242
 20
-56.18628432615341
 30
0.0
 10
118.516571987878
 20
-56.21376430448156
 30
0.0
 10
117.232004532178
 20
-56.19554132651376
 30
0.0
 10
115.9489903623975
 20
-56.16381365437458
 30
0.0
 10
114.806830140112
 20
-56.13557825528133
 30
0.0
 10
113.6661241895049
 20
-56.03830235182592
 30
0.0
 10
112.5240506046815
 20
-56.02172643880519
 30
0.0
 10
112.0095602269806
 20
-56.01425891878193
 30
0.0
 10
111.5317422491241
 20
-56.05719406292964
 30
0.0
 10
111.6655971273948
 20
-56.87800826012831
 30
0.0
 10
112.0803677867205
 20
-59.42146044083393
 30
0.0
 10
112.4331184002749
 20
-61.97559377580221
 30
0.0
 10
112.7705218063347
 20
-64.53078593823609
 30
0.0
 10
112.873676081226
 20
-65.31200246499564
 30
0.0
 10
113.1525992006629
 20
-65.78799804273923
 30
0.0
 10
114.0167893155894
 20
-65.78183702912127
 30
0.0
 10
115.9762007137502
 20
-65.76786174496449
 30
0.0
 10
117.9359029662464
 20
-65.76533541978244
 30
0.0
 10
119.8952277269454
 20
-65.78432620246204
 30
0.0
 10
120.498106880714
 20
-65.79015904148554
 30
0.0
 10
120.7511872830141
 20
-65.56322940521886
 30
0.0
 10
120.7397511380745
 20
-64.94966056057676
 30
0.0
 10
120.7158268218752
 20
-63.66554433127962
 30
0.0
 10
120.7325045332452
 20
-62.38066648924355
 30
0.0
 10
120.7329129669933
 20
-61.09610443785561
 30
0.0
  0
SPLINE
  5
7B
330
70
100
AcDbEntity
  8
Layer 1
100
AcDbSpline
210
0.0
220
0.0
230
1.0
 70
     9
 71
     3
 72
    26
 73
    22
 74
     0
 42
0.0000000001
 43
0.0000000001
 40
0.0
 40
0.0
 40
0.0
 40
0.0
 40
1.0
 40
1.0
 40
1.0
 40
2.0
 40
2.0
 40
2.0
 40
3.0
 40
3.0
 40
3.0
 40
4.0
 40
4.0
 40
4.0
 40
5.0
 40
5.0
 40
5.0
 40
6.0
 40
6.0
 40
6.0
 40
7.0
 40
7.0
 40
7.0
 40
7.0
 10
147.9423236842721
 20
-97.43066057797085
 30
0.0
 10
147.83704679157
 20
-89.09969461992764
 30
0.0
 10
147.7341833710147
 20
-80.95993061113933
 30
0.0
 10
147.6293025352807
 20
-72.66066136536783
 30
0.0
 10
147.4384154536742
 20
-72.86988814943973
 30
0.0
 10
147.3354282653166
 20
-72.94728162603391
 30
0.0
 10
147.2786807279266
 20
-73.05020460930802
 30
0.0
 10
146.1284075261957
 20
-75.13646623574553
 30
0.0
 10
144.9836048613292
 20
-77.22573716129684
 30
0.0
 10
143.8373417363956
 20
-79.31422170621525
 30
0.0
 10
142.3514350081781
 20
-82.02158780902653
 30
0.0
 10
140.8512578523474
 20
-84.72123871287518
 30
0.0
 10
139.385525275918
 20
-87.43950268902102
 30
0.0
 10
138.7346922871189
 20
-88.64648550461035
 30
0.0
 10
137.8189405057216
 20
-89.83896052632351
 30
0.0
 10
137.6185171149426
 20
-91.13047616393547
 30
0.0
 10
137.3175880802433
 20
-93.06960411641266
 30
0.0
 10
137.5402092263785
 20
-95.09008221654122
 30
0.0
 10
137.5402092263785
 20
-97.27540922677151
 30
0.0
 10
141.0002619096296
 20
-97.56028335091434
 30
0.0
 10
144.383071107416
 20
-97.34116798518682
 30
0.0
 10
147.9423236842721
 20
-97.43066057797085
 30
0.0
  0
SPLINE
  5
7C
330
70
100
AcDbEntity
  8
Layer 1
100
AcDbSpline
210
0.0
220
0.0
230
1.0
 70
     9
 71
     3
 72
    29
 73
    25
 74
     0
 42
0.0000000001
 43
0.0000000001
 40
0.0
 40
0.0
 40
0.0
 40
0.0
 40
1.0
 40
1.0
 40
1.0
 40
2.0
 40
2.0
 40
2.0
 40
3.0
 40
3.0
 40
3.0
 40
4.0
 40
4.0
 40
4.0
 40
5.0
 40
5.0
 40
5.0
 40
6.0
 40
6.0
 40
6.0
 40
7.0
 40
7.0
 40
7.0
 40
8.0
 40
8.0
 40
8.0
 40
8.0
 10
157.669953126332
 20
-173.3222801951316
 30
0.0
 10
164.2053015255835
 20
-173.3222801951316
 30
0.0
 10
170.6062133378932
 20
-173.3222801951316
 30
0.0
 10
177.1612408177236
 20
-173.3222801951316
 30
0.0
 10
176.883951433278
 20
-172.7618075231268
 30
0.0
 10
176.6715906379596
 20
-172.4197505238465
 30
0.0
 10
176.5383545987009
 20
-172.0492352144262
 30
0.0
 10
175.615987428267
 20
-169.4839005994231
 30
0.0
 10
174.7284485174219
 20
-166.9058352869344
 30
0.0
 10
173.785325486529
 20
-164.3482654066813
 30
0.0
 10
173.5637563667133
 20
-163.7474706033398
 30
0.0
 10
173.203035106686
 20
-163.2710477794255
 30
0.0
 10
172.3654736344407
 20
-163.3379334770155
 30
0.0
 10
170.7230872736784
 20
-163.4690794754359
 30
0.0
 10
169.0717401240241
 20
-163.5179589141302
 30
0.0
 10
167.4233757784076
 20
-163.5371416479875
 30
0.0
 10
164.5513315474694
 20
-163.570553536915
 30
0.0
 10
161.6787179846403
 20
-163.5557051844967
 30
0.0
 10
158.8063519574171
 20
-163.5608816743307
 30
0.0
 10
158.4461010150381
 20
-163.5615256395732
 30
0.0
 10
158.0858376958786
 20
-163.5609807459065
 30
0.0
 10
157.669953126332
 20
-163.5609807459065
 30
0.0
 10
157.669953126332
 20
-166.8529310654751
 30
0.0
 10
157.669953126332
 20
-170.0107632393493
 30
0.0
 10
157.669953126332
 20
-173.3222801951316
 30
0.0
  0
SPLINE
  5
7D
330
70
100
AcDbEntity
  8
Layer 1
100
AcDbSpline
210
0.0
220
0.0
230
1.0
 70
     9
 71
     3
 72
    26
 73
    22
 74
     0
 42
0.0000000001
 43
0.0000000001
 40
0.0
 40
0.0
 40
0.0
 40
0.0
 40
1.0
 40
1.0
 40
1.0
 40
2.0
 40
2.0
 40
2.0
 40
3.0
 40
3.0
 40
3.0
 40
4.0
 40
4.0
 40
4.0
 40
5.0
 40
5.0
 40
5.0
 40
6.0
 40
6.0
 40
6.0
 40
7.0
 40
7.0
 40
7.0
 40
7.0
 10
144.127849522135
 20
-69.88423618227361
 30
0.0
 10
137.373190765461
 20
-69.88423618227361
 30
0.0
 10
130.8130207334426
 20
-69.88423618227361
 30
0.0
 10
124.2152067243311
 20
-69.88423618227361
 30
0.0
 10
124.2152067243311
 20
-73.25633540663722
 30
0.0
 10
124.2152067243311
 20
-76.54959223261103
 30
0.0
 10
124.2152067243311
 20
-79.84198218229686
 30
0.0
 10
124.3667480215611
 20
-79.89223004713084
 30
0.0
 10
124.459252077058
 20
-79.94852747006023
 30
0.0
 10
124.5527400865832
 20
-79.95022407079523
 30
0.0
 10
129.0038696357577
 20
-80.03084356557513
 30
0.0
 10
133.4549806197615
 20
-80.11856525394287
 30
0.0
 10
137.9065186026835
 20
-80.15812577254136
 30
0.0
 10
138.2234879445713
 20
-80.16093692850342
 30
0.0
 10
138.6749619456915
 20
-79.8841061779177
 30
0.0
 10
138.8399444262603
 20
-79.60484817372647
 30
0.0
 10
139.6269962583552
 20
-78.27273176597024
 30
0.0
 10
140.3370150102515
 20
-76.89504862533521
 30
0.0
 10
141.0736933467795
 20
-75.5331612090615
 30
0.0
 10
142.0621649004633
 20
-73.70575503418128
 30
0.0
 10
143.0499557312336
 20
-71.87797734089215
 30
0.0
 10
144.127849522135
 20
-69.88423618227361
 30
0.0
  0
SPLINE
  5
7E
330
70
100
AcDbEntity
  8
Layer 1
100
AcDbSpline
210
0.0
220
0.0
230
1.0
 70
     9
 71
     3
 72
    23
 73
    19
 74
     0
 42
0.0000000001
 43
0.0000000001
 40
0.0
 40
0.0
 40
0.0
 40
0.0
 40
1.0
 40
1.0
 40
1.0
 40
2.0
 40
2.0
 40
2.0
 40
3.0
 40
3.0
 40
3.0
 40
4.0
 40
4.0
 40
4.0
 40
5.0
 40
5.0
 40
5.0
 40
6.0
 40
6.0
 40
6.0
 40
6.0
 10
149.0602316056811
 20
-124.3583458311658
 30
0.0
 10
155.3421282992258
 20
-124.3583458311658
 30
0.0
 10
161.3220191781901
 20
-124.342271467998
 30
0.0
 10
167.3016377679887
 20
-124.3760796432284
 30
0.0
 10
168.1755745973531
 20
-124.3810208380696
 30
0.0
 10
168.4332591619022
 20
-124.0752364194664
 30
0.0
 10
168.3816851186518
 20
-123.2528680369224
 30
0.0
 10
168.2229034049821
 20
-120.720276577711
 30
0.0
 10
168.0383903651984
 20
-118.1866200990583
 30
0.0
 10
167.9847617764283
 20
-115.6508088136341
 30
0.0
 10
167.9168998903854
 20
-112.4423634484894
 30
0.0
 10
167.9693155546918
 20
-109.231391758163
 30
0.0
 10
167.9654787528182
 20
-106.0215098551704
 30
0.0
 10
167.9651074494112
 20
-105.7089885694151
 30
0.0
 10
167.9339798471133
 20
-105.3964920515539
 30
0.0
 10
167.9141769987328
 20
-105.0292461041344
 30
0.0
 10
161.6334932296523
 20
-111.4682174118718
 30
0.0
 10
155.434657108283
 20
-117.8232750949352
 30
0.0
 10
149.0602316056811
 20
-124.3583458311658
 30
0.0
  0
SPLINE
  5
7F
330
70
100
AcDbEntity
  8
Layer 1
100
AcDbSpline
210
0.0
220
0.0
230
1.0
 70
     9
 71
     3
 72
    26
 73
    22
 74
     0
 42
0.0000000001
 43
0.0000000001
 40
0.0
 40
0.0
 40
0.0
 40
0.0
 40
1.0
 40
1.0
 40
1.0
 40
2.0
 40
2.0
 40
2.0
 40
3.0
 40
3.0
 40
3.0
 40
4.0
 40
4.0
 40
4.0
 40
5.0
 40
5.0
 40
5.0
 40
6.0
 40
6.0
 40
6.0
 40
7.0
 40
7.0
 40
7.0
 40
7.0
 10
124.7418387234451
 20
-163.9217622730069
 30
0.0
 10
123.2797016016746
 20
-164.0038554574765
 30
0.0
 10
121.9461716033538
 20
-164.1248218514874
 30
0.0
 10
120.6110821307236
 20
-164.1456640342393
 30
0.0
 10
115.084558900256
 20
-164.2320172964665
 30
0.0
 10
109.5576210476505
 20
-164.2941475584187
 30
0.0
 10
104.030664629875
 20
-164.3466678775222
 30
0.0
 10
103.4199757277767
 20
-164.3524759486517
 30
0.0
 10
103.1500814695238
 20
-164.5184579899016
 30
0.0
 10
103.0553124632435
 20
-165.1856802847947
 30
0.0
 10
102.9263835435074
 20
-166.0933988298614
 30
0.0
 10
102.4623966175666
 20
-166.9643989721595
 30
0.0
 10
102.4018989157645
 20
-167.8685509404977
 30
0.0
 10
102.2910462835655
 20
-169.5251762946771
 30
0.0
 10
102.3703257493782
 20
-171.1945447302893
 30
0.0
 10
102.3703257493782
 20
-172.9761241094037
 30
0.0
 10
109.8692745624264
 20
-172.9761241094037
 30
0.0
 10
117.2976324093884
 20
-172.9761241094037
 30
0.0
 10
124.7418387234451
 20
-172.9761241094037
 30
0.0
 10
124.7418387234451
 20
-169.9788498080057
 30
0.0
 10
124.7418387234451
 20
-167.050170188879
 30
0.0
 10
124.7418387234451
 20
-163.9217622730069
 30
0.0
  0
SPLINE
  5
80
330
70
100
AcDbEntity
  8
Layer 1
100
AcDbSpline
210
0.0
220
0.0
230
1.0
 70
     9
 71
     3
 72
    32
 73
    28
 74
     0
 42
0.0000000001
 43
0.0000000001
 40
0.0
 40
0.0
 40
0.0
 40
0.0
 40
1.0
 40
1.0
 40
1.0
 40
2.0
 40
2.0
 40
2.0
 40
3.0
 40
3.0
 40
3.0
 40
4.0
 40
4.0
 40
4.0
 40
5.0
 40
5.0
 40
5.0
 40
6.0
 40
6.0
 40
6.0
 40
7.0
 40
7.0
 40
7.0
 40
8.0
 40
8.0
 40
8.0
 40
9.0
 40
9.0
 40
9.0
 40
9.0
 10
153.8364558529693
 20
-27.56740393081031
 30
0.0
 10
153.7151757834202
 20
-27.24005596454433
 30
0.0
 10
153.6746665817027
 20
-27.07973648304689
 30
0.0
 10
153.6001583646713
 20
-26.93722821328
 30
0.0
 10
152.4801711441817
 20
-24.79546792849332
 30
0.0
 10
151.3681050630447
 20
-22.6494197020676
 30
0.0
 10
150.2290452242087
 20
-20.51783282971718
 30
0.0
 10
148.947899948244
 20
-18.12036261590322
 30
0.0
 10
147.634401768738
 20
-15.74020670794802
 30
0.0
 10
146.3505212243414
 20
-13.34418386793633
 30
0.0
 10
145.9947259228484
 20
-12.68019378320246
 30
0.0
 10
145.5122171452815
 20
-12.38386605610478
 30
0.0
 10
144.7294105488077
 20
-12.3959187324944
 30
0.0
 10
142.1288262388237
 20
-12.43595603305052
 30
0.0
 10
139.5268433526721
 20
-12.44000403571673
 30
0.0
 10
136.92638281049
 20
-12.39728561064094
 30
0.0
 10
136.1369732017593
 20
-12.38431807016909
 30
0.0
 10
135.8840846395526
 20
-12.60281733453539
 30
0.0
 10
135.8921976189986
 20
-13.41907578724211
 30
0.0
 10
135.9361970727434
 20
-17.8466402360072
 30
0.0
 10
135.9201629539454
 20
-22.27479292225344
 30
0.0
 10
135.9304604351033
 20
-26.70272888942776
 30
0.0
 10
135.9311349696262
 20
-26.99232748934019
 30
0.0
 10
135.9789836020252
 20
-27.2818177297165
 30
0.0
 10
136.0045416532161
 20
-27.56740393081031
 30
0.0
 10
141.9667151712701
 20
-27.56740393081031
 30
0.0
 10
147.8282716543816
 20
-27.56740393081031
 30
0.0
 10
153.8364558529693
 20
-27.56740393081031
 30
0.0
  0
SPLINE
  5
81
330
70
100
AcDbEntity
  8
Layer 1
100
AcDbSpline
210
0.0
220
0.0
230
1.0
 70
     9
 71
     3
 72
    32
 73
    28
 74
     0
 42
0.0000000001
 43
0.0000000001
 40
0.0
 40
0.0
 40
0.0
 40
0.0
 40
1.0
 40
1.0
 40
1.0
 40
2.0
 40
2.0
 40
2.0
 40
3.0
 40
3.0
 40
3.0
 40
4.0
 40
4.0
 40
4.0
 40
5.0
 40
5.0
 40
5.0
 40
6.0
 40
6.0
 40
6.0
 40
7.0
 40
7.0
 40
7.0
 40
8.0
 40
8.0
 40
8.0
 40
9.0
 40
9.0
 40
9.0
 40
9.0
 10
153.8109349321192
 20
-163.3979089321949
 30
0.0
 10
153.3596156407513
 20
-163.3979089321949
 30
0.0
 10
153.0253806904324
 20
-163.3940575246871
 30
0.0
 10
152.691257131136
 20
-163.3984785937555
 30
0.0
 10
147.9038071441724
 20
-163.461847250405
 30
0.0
 10
143.1164437946709
 20
-163.5326215073431
 30
0.0
 10
138.3289071702455
 20
-163.5881387416131
 30
0.0
 10
135.460575973379
 20
-163.6214020231774
 30
0.0
 10
132.5919662989572
 20
-163.6443742448075
 30
0.0
 10
129.7234927691182
 20
-163.6435321364139
 30
0.0
 10
128.8690369918479
 20
-163.6432844574748
 30
0.0
 10
128.4655353909287
 20
-163.8787280572837
 30
0.0
 10
128.4924734531161
 20
-164.8562920632652
 30
0.0
 10
128.5612945396281
 20
-167.3533663625655
 30
0.0
 10
128.5490539039727
 20
-169.8543168372669
 30
0.0
 10
128.4965392254243
 20
-172.3521837091736
 30
0.0
 10
128.4789518207066
 20
-173.1886574073161
 30
0.0
 10
128.7115238981531
 20
-173.4342063078538
 30
0.0
 10
129.5624151627144
 20
-173.4311474729524
 30
0.0
 10
134.6244316424709
 20
-173.412955454852
 30
0.0
 10
139.6866523391014
 20
-173.459605783091
 30
0.0
 10
144.7488173402202
 20
-173.475296243903
 30
0.0
 10
147.7454586178108
 20
-173.4845718201838
 30
0.0
 10
150.7421370257422
 20
-173.476980460691
 30
0.0
 10
153.8109349321192
 20
-173.476980460691
 30
0.0
 10
153.8109349321192
 20
-170.1107264592982
 30
0.0
 10
153.8109349321192
 20
-166.8196058641764
 30
0.0
 10
153.8109349321192
 20
-163.3979089321949
 30
0.0
  0
SPLINE
  5
82
330
70
100
AcDbEntity
  8
Layer 1
100
AcDbSpline
210
0.0
220
0.0
230
1.0
 70
     9
 71
     3
 72
    32
 73
    28
 74
     0
 42
0.0000000001
 43
0.0000000001
 40
0.0
 40
0.0
 40
0.0
 40
0.0
 40
1.0
 40
1.0
 40
1.0
 40
2.0
 40
2.0
 40
2.0
 40
3.0
 40
3.0
 40
3.0
 40
4.0
 40
4.0
 40
4.0
 40
5.0
 40
5.0
 40
5.0
 40
6.0
 40
6.0
 40
6.0
 40
7.0
 40
7.0
 40
7.0
 40
8.0
 40
8.0
 40
8.0
 40
9.0
 40
9.0
 40
9.0
 40
9.0
 10
157.4009438078655
 20
-196.3832328060285
 30
0.0
 10
158.6006251163053
 20
-196.0889035383736
 30
0.0
 10
159.6527875810928
 20
-195.8587354999739
 30
0.0
 10
160.688872608351
 20
-195.5707220452737
 30
0.0
 10
162.7652383913675
 20
-194.9935558127524
 30
0.0
 10
164.8112068021203
 20
-194.2903086161205
 30
0.0
 10
166.9087492561241
 20
-193.8096628662902
 30
0.0
 10
170.6805482800016
 20
-192.9453500553563
 30
0.0
 10
173.4051850583087
 20
-190.7138990346325
 30
0.0
 10
175.5001902723627
 20
-187.5779616790026
 30
0.0
 10
175.9596411083464
 20
-186.8902191839786
 30
0.0
 10
176.5972185655111
 20
-186.2442601260349
 30
0.0
 10
176.809319448445
 20
-185.4832418167844
 30
0.0
 10
177.3927237385097
 20
-183.3899337245204
 30
0.0
 10
177.830255296692
 20
-181.2529722191847
 30
0.0
 10
178.2528233275679
 20
-179.1188961734931
 30
0.0
 10
178.4910144632417
 20
-177.9159443326429
 30
0.0
 10
178.0163401875659
 20
-177.435286198865
 30
0.0
 10
176.7820162712403
 20
-177.4309765853187
 30
0.0
 10
170.7030121361329
 20
-177.4097381162639
 30
0.0
 10
164.6240080010248
 20
-177.3889950050879
 30
0.0
 10
158.5450038659174
 20
-177.3683385815401
 30
0.0
 10
158.181275048292
 20
-177.3671001868429
 30
0.0
 10
157.8175462306665
 20
-177.3681652062829
 30
0.0
 10
157.4009438078655
 20
-177.3681652062829
 30
0.0
 10
157.4009438078655
 20
-183.7563623314402
 30
0.0
 10
157.4009438078655
 20
-190.0502185485733
 30
0.0
 10
157.4009438078655
 20
-196.3832328060285
 30
0.0
  0
SPLINE
  5
83
330
70
100
AcDbEntity
  8
Layer 1
100
AcDbSpline
210
0.0
220
0.0
230
1.0
 70
     9
 71
     3
 72
    47
 73
    43
 74
     0
 42
0.0000000001
 43
0.0000000001
 40
0.0
 40
0.0
 40
0.0
 40
0.0
 40
1.0
 40
1.0
 40
1.0
 40
2.0
 40
2.0
 40
2.0
 40
3.0
 40
3.0
 40
3.0
 40
4.0
 40
4.0
 40
4.0
 40
5.0
 40
5.0
 40
5.0
 40
6.0
 40
6.0
 40
6.0
 40
7.0
 40
7.0
 40
7.0
 40
8.0
 40
8.0
 40
8.0
 40
9.0
 40
9.0
 40
9.0
 40
10.0
 40
10.0
 40
10.0
 40
11.0
 40
11.0
 40
11.0
 40
12.0
 40
12.0
 40
12.0
 40
13.0
 40
13.0
 40
13.0
 40
14.0
 40
14.0
 40
14.0
 40
14.0
 10
120.3686457594274
 20
-124.5397211185007
 30
0.0
 10
120.3686457594274
 20
-123.9446105468188
 30
0.0
 10
120.3686519478177
 20
-123.5118782878174
 30
0.0
 10
120.3686519478177
 20
-123.0791460288166
 30
0.0
 10
120.3686519478177
 20
-106.4143038851906
 30
0.0
 10
120.3686581362076
 20
-89.74946793353884
 30
0.0
 10
120.3686395710372
 20
-73.08462578991353
 30
0.0
 10
120.3686395710372
 20
-72.17194747408514
 30
0.0
 10
120.3482859559365
 20
-71.25864996090847
 30
0.0
 10
120.3759728133281
 20
-70.34681375347441
 30
0.0
 10
120.3923534819727
 20
-69.80724518395613
 30
0.0
 10
120.2474028202189
 20
-69.54422253424323
 30
0.0
 10
119.6439976532904
 20
-69.55346095868309
 30
0.0
 10
117.8201243755129
 20
-69.58139295107585
 30
0.0
 10
115.9954651721899
 20
-69.57354772066988
 30
0.0
 10
114.171307228467
 20
-69.55748574144902
 30
0.0
 10
113.6168707925492
 20
-69.55261265831589
 30
0.0
 10
113.3647681558873
 20
-69.74559789593534
 30
0.0
 10
113.4133903370511
 20
-70.32868365510899
 30
0.0
 10
113.5111235821982
 20
-71.50089234760469
 30
0.0
 10
113.6743114296322
 20
-72.67841375335052
 30
0.0
 10
113.6411911657162
 20
-73.84894442103138
 30
0.0
 10
113.4793090685972
 20
-79.57009881852617
 30
0.0
 10
113.1884485446209
 20
-85.28839871624446
 30
0.0
 10
113.0889763618509
 20
-91.01024661476946
 30
0.0
 10
113.0204151877241
 20
-94.95394548749102
 30
0.0
 10
113.1774950941108
 20
-98.90203446941393
 30
0.0
 10
113.2592065972401
 20
-102.8476404699689
 30
0.0
 10
113.2863303111309
 20
-104.1570942547684
 30
0.0
 10
113.3517044643467
 20
-105.4686533105527
 30
0.0
 10
113.4709733071072
 20
-106.7727200784201
 30
0.0
 10
113.7691670733741
 20
-110.0331408690009
 30
0.0
 10
114.1466712474039
 20
-113.2866390332248
 30
0.0
 10
114.4182363709893
 20
-116.5490784071615
 30
0.0
 10
114.6186968921091
 20
-118.9572731190516
 30
0.0
 10
114.6821650211682
 20
-121.3767619905804
 30
0.0
 10
114.8666223654406
 20
-123.7866161513652
 30
0.0
 10
114.8870192992721
 20
-124.0531186901764
 30
0.0
 10
115.2926373296121
 20
-124.4958324104361
 30
0.0
 10
115.5345229341877
 20
-124.506135854316
 30
0.0
 10
117.0802033225625
 20
-124.5720184522002
 30
0.0
 10
118.6300608742677
 20
-124.5397211185007
 30
0.0
 10
120.3686457594274
 20
-124.5397211185007
 30
0.0
  0
SPLINE
  5
84
330
70
100
AcDbEntity
  8
Layer 1
100
AcDbSpline
210
0.0
220
0.0
230
1.0
 70
     9
 71
     3
 72
    35
 73
    31
 74
     0
 42
0.0000000001
 43
0.0000000001
 40
0.0
 40
0.0
 40
0.0
 40
0.0
 40
1.0
 40
1.0
 40
1.0
 40
2.0
 40
2.0
 40
2.0
 40
3.0
 40
3.0
 40
3.0
 40
4.0
 40
4.0
 40
4.0
 40
5.0
 40
5.0
 40
5.0
 40
6.0
 40
6.0
 40
6.0
 40
7.0
 40
7.0
 40
7.0
 40
8.0
 40
8.0
 40
8.0
 40
9.0
 40
9.0
 40
9.0
 40
10.0
 40
10.0
 40
10.0
 40
10.0
 10
165.281017003163
 20
-101.8350051261658
 30
0.0
 10
163.1580526425511
 20
-101.7141873395186
 30
0.0
 10
161.4243751507562
 20
-101.5521557773527
 30
0.0
 10
159.6887792580238
 20
-101.5279451610245
 30
0.0
 10
152.8809560418386
 20
-101.4329726717057
 30
0.0
 10
146.0726253776647
 20
-101.3659383667526
 30
0.0
 10
139.2642699599293
 20
-101.3221115784229
 30
0.0
 10
136.8415276051801
 20
-101.3065201891865
 30
0.0
 10
137.1976508913497
 20
-100.9719430938761
 30
0.0
 10
137.1922174848256
 20
-103.4117044865952
 30
0.0
 10
137.1774643627821
 20
-110.0330913332123
 30
0.0
 10
137.2000705518864
 20
-116.6546020193002
 30
0.0
 10
137.1709356112067
 20
-123.2758897943411
 30
0.0
 10
137.1672720842564
 20
-124.1090445946968
 30
0.0
 10
137.3965333729895
 20
-124.4245999474595
 30
0.0
 10
138.2550054154463
 20
-124.3737638451447
 30
0.0
 10
139.3653016170095
 20
-124.3079803188358
 30
0.0
 10
140.4984329781117
 20
-124.2391503415718
 30
0.0
 10
141.5926641189264
 20
-124.3870518202448
 30
0.0
 10
143.038494832734
 20
-124.5824457355499
 30
0.0
 10
143.8415993487976
 20
-123.799247777275
 30
0.0
 10
144.5920777952903
 20
-122.8036898963449
 30
0.0
 10
144.6915747316216
 20
-122.6717017895295
 30
0.0
 10
144.7634590712416
 20
-122.5151067800839
 30
0.0
 10
144.8771521745056
 20
-122.3981775527849
 30
0.0
 10
148.9875799056861
 20
-118.1707686469362
 30
0.0
 10
153.078798873938
 20
-113.9243008466988
 30
0.0
 10
157.2232132436524
 20
-109.7304524371401
 30
0.0
 10
159.8035986482886
 20
-107.1192724504508
 30
0.0
 10
162.4651633545044
 20
-104.5884023598678
 30
0.0
 10
165.281017003163
 20
-101.8350051261658
 30
0.0
  0
SPLINE
  5
85
330
70
100
AcDbEntity
  8
Layer 1
100
AcDbSpline
210
0.0
220
0.0
230
1.0
 70
     9
 71
     3
 72
    32
 73
    28
 74
     0
 42
0.0000000001
 43
0.0000000001
 40
0.0
 40
0.0
 40
0.0
 40
0.0
 40
1.0
 40
1.0
 40
1.0
 40
2.0
 40
2.0
 40
2.0
 40
3.0
 40
3.0
 40
3.0
 40
4.0
 40
4.0
 40
4.0
 40
5.0
 40
5.0
 40
5.0
 40
6.0
 40
6.0
 40
6.0
 40
7.0
 40
7.0
 40
7.0
 40
8.0
 40
8.0
 40
8.0
 40
9.0
 40
9.0
 40
9.0
 40
9.0
 10
124.9838295306523
 20
-201.5105955221934
 30
0.0
 10
124.9838295306523
 20
-193.3646581158408
 30
0.0
 10
124.9838295306523
 20
-185.2927890963198
 30
0.0
 10
124.9838295306523
 20
-177.044585055883
 30
0.0
 10
123.1362856606701
 20
-177.044585055883
 30
0.0
 10
121.386277007351
 20
-177.0468265502847
 30
0.0
 10
119.636280730812
 20
-177.0441020819512
 30
0.0
 10
116.5278399973342
 20
-177.0392723426322
 30
0.0
 10
113.4193930754666
 20
-177.0344549872608
 30
0.0
 10
110.3109709071592
 20
-177.0238543286533
 30
0.0
 10
107.9797362770977
 20
-177.0159038346986
 30
0.0
 10
105.6482541114312
 20
-176.9792968874521
 30
0.0
 10
103.317663073942
 20
-177.0116809087812
 30
0.0
 10
103.0390184320607
 20
-177.015532316289
 30
0.0
 10
102.5014948663374
 20
-177.4308155940085
 30
0.0
 10
102.529330245092
 20
-177.5571813888985
 30
0.0
 10
102.8764618004188
 20
-179.1331500964562
 30
0.0
 10
103.24205951186
 20
-180.711125003424
 30
0.0
 10
103.7274768327824
 20
-182.249235985093
 30
0.0
 10
104.7664394614459
 20
-185.5413225280776
 30
0.0
 10
106.4341425261841
 20
-188.5476494947108
 30
0.0
 10
108.5922383775006
 20
-191.1972692527977
 30
0.0
 10
110.5613593597576
 20
-193.614888148333
 30
0.0
 10
112.9243342427388
 20
-195.7007287205733
 30
0.0
 10
115.5519803827129
 20
-197.4239549415615
 30
0.0
 10
118.4210727515641
 20
-199.3055099245711
 30
0.0
 10
121.6087991392445
 20
-200.4762387354037
 30
0.0
 10
124.9838295306523
 20
-201.5105955221934
 30
0.0
  0
SPLINE
  5
86
330
70
100
AcDbEntity
  8
Layer 1
100
AcDbSpline
210
0.0
220
0.0
230
1.0
 70
     9
 71
     3
 72
    32
 73
    28
 74
     0
 42
0.0000000001
 43
0.0000000001
 40
0.0
 40
0.0
 40
0.0
 40
0.0
 40
1.0
 40
1.0
 40
1.0
 40
2.0
 40
2.0
 40
2.0
 40
3.0
 40
3.0
 40
3.0
 40
4.0
 40
4.0
 40
4.0
 40
5.0
 40
5.0
 40
5.0
 40
6.0
 40
6.0
 40
6.0
 40
7.0
 40
7.0
 40
7.0
 40
8.0
 40
8.0
 40
8.0
 40
9.0
 40
9.0
 40
9.0
 40
9.0
 10
136.4540848766195
 20
-84.37458726926825
 30
0.0
 10
132.4312476191805
 20
-84.24752178137426
 30
0.0
 10
128.6670850687095
 20
-84.14077215848598
 30
0.0
 10
124.9041911382128
 20
-83.99983664998456
 30
0.0
 10
124.1217187148055
 20
-83.97053003947839
 30
0.0
 10
123.9370633420491
 20
-84.3054786531977
 30
0.0
 10
123.9378987747155
 20
-85.02330794738702
 30
0.0
 10
123.9527694761708
 20
-97.82710168037427
 30
0.0
 10
123.9532893009408
 20
-110.6309139892813
 30
0.0
 10
123.9370014581479
 20
-123.4347139142421
 30
0.0
 10
123.9360484460694
 20
-124.1847228946352
 30
0.0
 10
124.1873218384555
 20
-124.4400798811734
 30
0.0
 10
124.9356034064562
 20
-124.4298012051874
 30
0.0
 10
127.4336460921713
 20
-124.3955100560253
 30
0.0
 10
129.9338423376478
 20
-124.3672003532504
 30
0.0
 10
132.4302760419319
 20
-124.4389281741051
 30
0.0
 10
133.4708043332953
 20
-124.4688354060397
 30
0.0
 10
133.7358468936958
 20
-124.1352490264868
 30
0.0
 10
133.7326227424436
 20
-123.1187622751758
 30
0.0
 10
133.6981719746522
 20
-112.2744742794064
 30
0.0
 10
133.7240703872992
 20
-101.4300129083795
 30
0.0
 10
133.6905973851466
 20
-90.58571872063659
 30
0.0
 10
133.6873979874553
 20
-89.54750433436556
 30
0.0
 10
133.9961491472646
 20
-88.6916373752658
 30
0.0
 10
134.5016849244636
 20
-87.83784472728376
 30
0.0
 10
135.1314216913476
 20
-86.77427420958961
 30
0.0
 10
135.7181677120759
 20
-85.68522991297696
 30
0.0
 10
136.4540848766195
 20
-84.37458726926825
 30
0.0
  0
SPLINE
  5
87
330
70
100
AcDbEntity
  8
Layer 1
100
AcDbSpline
210
0.0
220
0.0
230
1.0
 70
     9
 71
     3
 72
    38
 73
    34
 74
     0
 42
0.0000000001
 43
0.0000000001
 40
0.0
 40
0.0
 40
0.0
 40
0.0
 40
1.0
 40
1.0
 40
1.0
 40
2.0
 40
2.0
 40
2.0
 40
3.0
 40
3.0
 40
3.0
 40
4.0
 40
4.0
 40
4.0
 40
5.0
 40
5.0
 40
5.0
 40
6.0
 40
6.0
 40
6.0
 40
7.0
 40
7.0
 40
7.0
 40
8.0
 40
8.0
 40
8.0
 40
9.0
 40
9.0
 40
9.0
 40
10.0
 40
10.0
 40
10.0
 40
11.0
 40
11.0
 40
11.0
 40
11.0
 10
166.0649498866389
 20
-65.73146532481745
 30
0.0
 10
165.8505840529215
 20
-61.12700238554775
 30
0.0
 10
165.6478028855073
 20
-56.67725828775797
 30
0.0
 10
165.4345014548908
 20
-52.22802812376742
 30
0.0
 10
165.32250397052
 20
-49.89228569362998
 30
0.0
 10
165.2871311326006
 20
-47.62077260445582
 30
0.0
 10
163.9182468615309
 20
-45.470241389227
 30
0.0
 10
162.1423521723449
 20
-42.68034556781532
 30
0.0
 10
160.7434789627592
 20
-39.649888480509
 30
0.0
 10
159.1879404689252
 20
-36.71998285063239
 30
0.0
 10
158.3615923595749
 20
-35.16353433948701
 30
0.0
 10
157.5840087643614
 20
-33.57925909949791
 30
0.0
 10
156.6976085172975
 20
-32.05818842886134
 30
0.0
 10
156.5104963536642
 20
-31.7370881638419
 30
0.0
 10
155.9553853832236
 20
-31.49368478211743
 30
0.0
 10
155.5509369586161
 20
-31.46289828994816
 30
0.0
 10
154.476186869895
 20
-31.38109612823248
 30
0.0
 10
153.3880946120782
 20
-31.48458258109409
 30
0.0
 10
152.3111662100357
 20
-31.41863806347434
 30
0.0
 10
151.4966626793737
 20
-31.36875862106285
 30
0.0
 10
151.2817893976665
 20
-31.65066988589304
 30
0.0
 10
151.2836087843619
 20
-32.45117131407308
 30
0.0
 10
151.3081148092317
 20
-43.2331309047382
 30
0.0
 10
151.3089192999482
 20
-54.01518647099246
 30
0.0
 10
151.2824206134586
 20
-64.79713367771059
 30
0.0
 10
151.2804031982798
 20
-65.61773734781084
 30
0.0
 10
151.5315528228636
 20
-65.82496412444694
 30
0.0
 10
152.3218968785018
 20
-65.81840063255261
 30
0.0
 10
156.54409931201
 20
-65.78335406262533
 30
0.0
 10
160.7667225560453
 20
-65.80332317711546
 30
0.0
 10
164.9892096554991
 20
-65.79911263514571
 30
0.0
 10
165.3175903887655
 20
-65.79878446055061
 30
0.0
 10
165.6459339916911
 20
-65.75890195933116
 30
0.0
 10
166.0649498866389
 20
-65.73146532481745
 30
0.0
  0
SPLINE
  5
88
330
70
100
AcDbEntity
  8
Layer 1
100
AcDbSpline
210
0.0
220
0.0
230
1.0
 70
     9
 71
     3
 72
    35
 73
    31
 74
     0
 42
0.0000000001
 43
0.0000000001
 40
0.0
 40
0.0
 40
0.0
 40
0.0
 40
1.0
 40
1.0
 40
1.0
 40
2.0
 40
2.0
 40
2.0
 40
3.0
 40
3.0
 40
3.0
 40
4.0
 40
4.0
 40
4.0
 40
5.0
 40
5.0
 40
5.0
 40
6.0
 40
6.0
 40
6.0
 40
7.0
 40
7.0
 40
7.0
 40
8.0
 40
8.0
 40
8.0
 40
9.0
 40
9.0
 40
9.0
 40
10.0
 40
10.0
 40
10.0
 40
10.0
 10
166.131734992801
 20
-83.73262203422207
 30
0.0
 10
166.131734992801
 20
-79.30272321145288
 30
0.0
 10
166.1128727797185
 20
-74.87267578132019
 30
0.0
 10
166.1488644566502
 20
-70.44306798130515
 30
0.0
 10
166.1554612805167
 20
-69.63067486804661
 30
0.0
 10
165.9071706921683
 20
-69.40196194341571
 30
0.0
 10
165.1066281696136
 20
-69.40876073030274
 30
0.0
 10
160.9161598006357
 20
-69.44432742600309
 30
0.0
 10
156.7247631731396
 20
-69.45986308747804
 30
0.0
 10
152.5348270057112
 20
-69.40075450858628
 30
0.0
 10
151.5083092295775
 20
-69.38627148260408
 30
0.0
 10
151.29706234448
 20
-69.74206227907531
 30
0.0
 10
151.3163577448707
 20
-70.68014626211412
 30
0.0
 10
151.4204712202304
 20
-75.73919293481482
 30
0.0
 10
151.4623913748955
 20
-80.79949038615941
 30
0.0
 10
151.5392388033907
 20
-85.85914387226143
 30
0.0
 10
151.5950209519224
 20
-89.53266836589461
 30
0.0
 10
151.6857798814054
 20
-93.2057098855954
 30
0.0
 10
151.7265242419477
 20
-96.87935202672463
 30
0.0
 10
151.7340988314536
 20
-97.56245054163478
 30
0.0
 10
151.9205921560753
 20
-97.83435867329911
 30
0.0
 10
152.6477403718197
 20
-97.84032154376561
 30
0.0
 10
156.7586136670895
 20
-97.87401207149965
 30
0.0
 10
160.8699449032277
 20
-97.92207416969334
 30
0.0
 10
164.9791720867263
 20
-98.0358392985406
 30
0.0
 10
165.9586333443969
 20
-98.06295395043333
 30
0.0
 10
166.1602882248096
 20
-97.72784434540289
 30
0.0
 10
166.1512407984561
 20
-96.81922796418138
 30
0.0
 10
166.1078230533819
 20
-92.45739131396412
 30
0.0
 10
166.131734992801
 20
-88.09488593060999
 30
0.0
 10
166.131734992801
 20
-83.73262203422207
 30
0.0
  0
SPLINE
  5
89
330
70
100
AcDbEntity
  8
Layer 1
100
AcDbSpline
210
0.0
220
0.0
230
1.0
 70
     9
 71
     3
 72
    38
 73
    34
 74
     0
 42
0.0000000001
 43
0.0000000001
 40
0.0
 40
0.0
 40
0.0
 40
0.0
 40
1.0
 40
1.0
 40
1.0
 40
2.0
 40
2.0
 40
2.0
 40
3.0
 40
3.0
 40
3.0
 40
4.0
 40
4.0
 40
4.0
 40
5.0
 40
5.0
 40
5.0
 40
6.0
 40
6.0
 40
6.0
 40
7.0
 40
7.0
 40
7.0
 40
8.0
 40
8.0
 40
8.0
 40
9.0
 40
9.0
 40
9.0
 40
10.0
 40
10.0
 40
10.0
 40
11.0
 40
11.0
 40
11.0
 40
11.0
 10
135.7421910425176
 20
-31.43583626983011
 30
0.0
 10
135.7421910425176
 20
-31.95196821970602
 30
0.0
 10
135.7395052812061
 20
-32.32130086218989
 30
0.0
 10
135.7425870994849
 20
-32.69058396888614
 30
0.0
 10
135.8111358968315
 20
-40.89866402113828
 30
0.0
 10
135.8811018355151
 20
-49.1067347854305
 30
0.0
 10
135.9489142144377
 20
-57.31482722162994
 30
0.0
 10
135.9701342041554
 20
-59.88326401534882
 30
0.0
 10
136.0049377101834
 20
-62.45185560840533
 30
0.0
 10
135.9911004698779
 20
-65.02014379476102
 30
0.0
 10
135.9875297687793
 20
-65.68355183398725
 30
0.0
 10
136.196264167488
 20
-65.89318109633552
 30
0.0
 10
136.8619492925726
 20
-65.88767023993366
 30
0.0
 10
140.2734231133903
 20
-65.85942245689307
 30
0.0
 10
143.6852434840544
 20
-65.87551539598205
 30
0.0
 10
147.0969400869162
 20
-65.87174448412929
 30
0.0
 10
147.2909337403621
 20
-65.87152776505707
 30
0.0
 10
147.4848778866868
 20
-65.83264217156894
 30
0.0
 10
147.7300000192944
 20
-65.80624578860069
 30
0.0
 10
147.7562387933982
 20
-65.53267201606849
 30
0.0
 10
147.7970079075015
 20
-65.30571761190784
 30
0.0
 10
147.7970821681825
 20
-65.07875082380022
 30
0.0
 10
147.800213493583
 20
-54.12796707605568
 30
0.0
 10
147.7920695721867
 20
-43.17716475239034
 30
0.0
 10
147.8164889595957
 20
-32.22643673240692
 30
0.0
 10
147.818196955268
 20
-31.45785183155725
 30
0.0
 10
147.5150648536867
 20
-31.34630342921806
 30
0.0
 10
146.8612490608501
 20
-31.35093502538498
 30
0.0
 10
143.4834895893997
 20
-31.37486390691937
 30
0.0
 10
140.1054949591252
 20
-31.3603901688974
 30
0.0
 10
136.7275807779222
 20
-31.36494436539566
 30
0.0
 10
136.4311507028389
 20
-31.3653437476856
 30
0.0
 10
136.1347825116574
 20
-31.40643987570829
 30
0.0
 10
135.7421910425176
 20
-31.43583626983011
 30
0.0
  0
SPLINE
  5
8A
330
70
100
AcDbEntity
  8
Layer 1
100
AcDbSpline
210
0.0
220
0.0
230
1.0
 70
     9
 71
     3
 72
    35
 73
    31
 74
     0
 42
0.0000000001
 43
0.0000000001
 40
0.0
 40
0.0
 40
0.0
 40
0.0
 40
1.0
 40
1.0
 40
1.0
 40
2.0
 40
2.0
 40
2.0
 40
3.0
 40
3.0
 40
3.0
 40
4.0
 40
4.0
 40
4.0
 40
5.0
 40
5.0
 40
5.0
 40
6.0
 40
6.0
 40
6.0
 40
7.0
 40
7.0
 40
7.0
 40
8.0
 40
8.0
 40
8.0
 40
9.0
 40
9.0
 40
9.0
 40
10.0
 40
10.0
 40
10.0
 40
10.0
 10
128.6784717065281
 20
-128.1005888465398
 30
0.0
 10
128.6425728554488
 20
-128.5820519368712
 30
0.0
 10
128.5920694036887
 20
-128.9445919844415
 30
0.0
 10
128.5919146939361
 20
-129.3071567999058
 30
0.0
 10
128.5876261395836
 20
-139.1786238413838
 30
0.0
 10
128.5966116820361
 20
-149.0501032668075
 30
0.0
 10
128.5729534666116
 20
-158.9215083885498
 30
0.0
 10
128.5710721960156
 20
-159.7069230733332
 30
0.0
 10
128.7627018844358
 20
-159.9846826199414
 30
0.0
 10
129.5903557441012
 20
-159.9639271248184
 30
0.0
 10
133.674934569756
 20
-159.8615614191577
 30
0.0
 10
137.7608253341157
 20
-159.8008676950538
 30
0.0
 10
141.8465985190633
 20
-159.7663040990579
 30
0.0
 10
142.6004310730008
 20
-159.7599263663684
 30
0.0
 10
142.7473063240817
 20
-159.4188600828456
 30
0.0
 10
142.7526159628035
 20
-158.776764816356
 30
0.0
 10
142.7716019436883
 20
-156.4797160285281
 30
0.0
 10
142.8288940594083
 20
-154.1830016072688
 30
0.0
 10
142.8589943889467
 20
-151.8860147391758
 30
0.0
 10
142.9595185980369
 20
-144.2153360657222
 30
0.0
 10
143.0472080860206
 20
-136.5444840170107
 30
0.0
 10
143.1643171806299
 20
-128.8740777903901
 30
0.0
 10
143.1746889224694
 20
-128.1948182990405
 30
0.0
 10
142.944864490235
 20
-127.9853686039235
 30
0.0
 10
142.2936230676877
 20
-128.0054553659099
 30
0.0
 10
140.50563626421
 20
-128.0606258496656
 30
0.0
 10
138.7163870291473
 20
-128.0876104701144
 30
0.0
 10
136.9274781555409
 20
-128.0969231982362
 30
0.0
 10
134.2265367229992
 20
-128.1109789780487
 30
0.0
 10
131.5254653342648
 20
-128.1005888465398
 30
0.0
 10
128.6784717065281
 20
-128.1005888465398
 30
0.0
  0
SPLINE
  5
8B
330
70
100
AcDbEntity
  8
Layer 1
100
AcDbSpline
210
0.0
220
0.0
230
1.0
 70
     9
 71
     3
 72
    44
 73
    40
 74
     0
 42
0.0000000001
 43
0.0000000001
 40
0.0
 40
0.0
 40
0.0
 40
0.0
 40
1.0
 40
1.0
 40
1.0
 40
2.0
 40
2.0
 40
2.0
 40
3.0
 40
3.0
 40
3.0
 40
4.0
 40
4.0
 40
4.0
 40
5.0
 40
5.0
 40
5.0
 40
6.0
 40
6.0
 40
6.0
 40
7.0
 40
7.0
 40
7.0
 40
8.0
 40
8.0
 40
8.0
 40
9.0
 40
9.0
 40
9.0
 40
10.0
 40
10.0
 40
10.0
 40
11.0
 40
11.0
 40
11.0
 40
12.0
 40
12.0
 40
12.0
 40
13.0
 40
13.0
 40
13.0
 40
13.0
 10
125.0231938801986
 20
-128.1256291873145
 30
0.0
 10
121.8947708350267
 20
-128.1256291873145
 30
0.0
 10
118.860640290096
 20
-128.1654188089322
 30
0.0
 10
115.8287932611192
 20
-128.0995981307824
 30
0.0
 10
114.9980637715652
 20
-128.0815671039928
 30
0.0
 10
114.7415488127483
 20
-128.5006522534322
 30
0.0
 10
114.6667621181624
 20
-129.114970326866
 30
0.0
 10
114.4224320994897
 20
-131.1219994605839
 30
0.0
 10
114.2353880081475
 20
-133.1360255243407
 30
0.0
 10
114.0285658219854
 20
-135.147599566597
 30
0.0
 10
114.0078780338181
 20
-135.3487644011907
 30
0.0
 10
114.039772996491
 20
-135.5623503345962
 30
0.0
 10
113.9844611656087
 20
-135.7518247232502
 30
0.0
 10
113.4059333269579
 20
-137.7333553101551
 30
0.0
 10
112.8173679195345
 20
-139.7119880534694
 30
0.0
 10
112.2259125339256
 20
-141.6897043847074
 30
0.0
 10
111.730711368225
 20
-143.3455619341744
 30
0.0
 10
111.2905249906815
 20
-145.0215433974688
 30
0.0
 10
110.7093794630104
 20
-146.6468869015995
 30
0.0
 10
110.2163627990221
 20
-148.02575270917
 30
0.0
 10
109.546327235684
 20
-149.3405315911672
 30
0.0
 10
108.972941949222
 20
-150.6914592143724
 30
0.0
 10
107.793564748762
 20
-153.4701196998936
 30
0.0
 10
106.6464352492115
 20
-156.2626749739177
 30
0.0
 10
105.4448417282245
 20
-159.0316140610679
 30
0.0
 10
104.9336002553361
 20
-160.2097113203482
 30
0.0
 10
104.9549006941254
 20
-160.3022194042198
 30
0.0
 10
106.2757506810921
 20
-160.2865165594609
 30
0.0
 10
112.1795800571059
 20
-160.2162995801365
 30
0.0
 10
118.0832299698059
 20
-160.1187512298471
 30
0.0
 10
123.9872326207424
 20
-160.0897108742008
 30
0.0
 10
124.8972477644994
 20
-160.0852278853973
 30
0.0
 10
125.1087483735914
 20
-159.8217841814876
 30
0.0
 10
125.1060873658403
 20
-158.9443567707114
 30
0.0
 10
125.0760674853741
 20
-149.0454964385348
 30
0.0
 10
125.0877264123577
 20
-139.1464874989944
 30
0.0
 10
125.0844775075451
 20
-129.247528095242
 30
0.0
 10
125.0843537397428
 20
-128.8862388263152
 30
0.0
 10
125.0459300254949
 20
-128.5249495573891
 30
0.0
 10
125.0231938801986
 20
-128.1256291873145
 30
0.0
  0
SPLINE
  5
8C
330
70
100
AcDbEntity
  8
Layer 1
100
AcDbSpline
210
0.0
220
0.0
230
1.0
 70
     9
 71
     3
 72
    38
 73
    34
 74
     0
 42
0.0000000001
 43
0.0000000001
 40
0.0
 40
0.0
 40
0.0
 40
0.0
 40
1.0
 40
1.0
 40
1.0
 40
2.0
 40
2.0
 40
2.0
 40
3.0
 40
3.0
 40
3.0
 40
4.0
 40
4.0
 40
4.0
 40
5.0
 40
5.0
 40
5.0
 40
6.0
 40
6.0
 40
6.0
 40
7.0
 40
7.0
 40
7.0
 40
8.0
 40
8.0
 40
8.0
 40
9.0
 40
9.0
 40
9.0
 40
10.0
 40
10.0
 40
10.0
 40
11.0
 40
11.0
 40
11.0
 40
11.0
 10
128.6651914213331
 20
-202.4009517736071
 30
0.0
 10
129.6033575517407
 20
-202.5129274221166
 30
0.0
 10
130.4254975558101
 20
-202.6717143901767
 30
0.0
 10
131.2518270999898
 20
-202.6977702146034
 30
0.0
 10
133.3352971548629
 20
-202.7634918211774
 30
0.0
 10
135.4258095976914
 20
-202.8742662268307
 30
0.0
 10
137.5039081299413
 20
-202.7719748248525
 30
0.0
 10
139.9372326317938
 20
-202.6521725218568
 30
0.0
 10
142.3143665513662
 20
-202.0832539980179
 30
0.0
 10
144.6831461442791
 20
-201.5072642404583
 30
0.0
 10
147.5306595967859
 20
-200.8148529974261
 30
0.0
 10
150.3571201461083
 20
-200.1078286969689
 30
0.0
 10
152.993126801133
 20
-198.7460651201654
 30
0.0
 10
153.6883057935236
 20
-198.3869182740651
 30
0.0
 10
153.8175936398868
 20
-198.0140623986678
 30
0.0
 10
153.8165416135669
 20
-197.3627906274721
 30
0.0
 10
153.8063679002114
 20
-191.0400178941625
 30
0.0
 10
153.7965654902628
 20
-184.7171337053294
 30
0.0
 10
153.8272846588129
 20
-178.3944848114884
 30
0.0
 10
153.8313071123906
 20
-177.5668904033238
 30
0.0
 10
153.6153322972429
 20
-177.3007222310793
 30
0.0
 10
152.7573367608243
 20
-177.3002268732005
 30
0.0
 10
145.0873099029411
 20
-177.2958305720267
 30
0.0
 10
137.4171469004754
 20
-177.2638552209475
 30
0.0
 10
129.7475717950704
 20
-177.1859478105544
 30
0.0
 10
128.7876225314446
 20
-177.1761892603412
 30
0.0
 10
128.5665422944487
 20
-177.4672739338905
 30
0.0
 10
128.5704162266631
 20
-178.377803634919
 30
0.0
 10
128.6026267972314
 20
-185.9515036196445
 30
0.0
 10
128.5876013860232
 20
-193.5254141314688
 30
0.0
 10
128.5917042886716
 20
-201.0992503396113
 30
0.0
 10
128.591920882326
 20
-201.5012827940717
 30
0.0
 10
128.6359389012416
 20
-201.9032904806381
 30
0.0
 10
128.6651914213331
 20
-202.4009517736071
 30
0.0
  0
SPLINE
  5
8D
330
70
100
AcDbEntity
  8
Layer 1
100
AcDbSpline
210
0.0
220
0.0
230
1.0
 70
     9
 71
     3
 72
    44
 73
    40
 74
     0
 42
0.0000000001
 43
0.0000000001
 40
0.0
 40
0.0
 40
0.0
 40
0.0
 40
1.0
 40
1.0
 40
1.0
 40
2.0
 40
2.0
 40
2.0
 40
3.0
 40
3.0
 40
3.0
 40
4.0
 40
4.0
 40
4.0
 40
5.0
 40
5.0
 40
5.0
 40
6.0
 40
6.0
 40
6.0
 40
7.0
 40
7.0
 40
7.0
 40
8.0
 40
8.0
 40
8.0
 40
9.0
 40
9.0
 40
9.0
 40
10.0
 40
10.0
 40
10.0
 40
11.0
 40
11.0
 40
11.0
 40
12.0
 40
12.0
 40
12.0
 40
13.0
 40
13.0
 40
13.0
 40
13.0
 10
172.2520156900015
 20
-159.3402715553683
 30
0.0
 10
172.0426129451599
 20
-158.8509941944984
 30
0.0
 10
171.8878908154088
 20
-158.5604172627761
 30
0.0
 10
171.7914880741371
 20
-158.2516111611119
 30
0.0
 10
171.4216822574155
 20
-157.0670247136185
 30
0.0
 10
171.0363312047141
 20
-155.885658092338
 30
0.0
 10
170.7198445572561
 20
-154.6864090516318
 30
0.0
 10
170.1176028076699
 20
-152.404344839639
 30
0.0
 10
169.3511583146703
 20
-150.1390113400042
 30
0.0
 10
169.0359836059172
 20
-147.8147178688409
 30
0.0
 10
168.6679352919893
 20
-145.1006520507188
 30
0.0
 10
168.6454590590775
 20
-142.3322826251286
 30
0.0
 10
168.5894046213809
 20
-139.5851021328066
 30
0.0
 10
168.5170252105508
 20
-136.0375347638133
 30
0.0
 10
168.5340432833775
 20
-132.4873419980629
 30
0.0
 10
168.571829593443
 20
-128.9389077527818
 30
0.0
 10
168.5809512804781
 20
-128.0831894010459
 30
0.0
 10
168.3158158942261
 20
-127.8468665410024
 30
0.0
 10
167.4763855281653
 20
-127.8538015513062
 30
0.0
 10
160.8897601283887
 20
-127.9081918464019
 30
0.0
 10
154.302775801985
 20
-127.9315479703879
 30
0.0
 10
147.7159276201641
 20
-127.9275603394639
 30
0.0
 10
146.9608078810819
 20
-127.9271021334261
 30
0.0
 10
146.7406992213351
 20
-128.1372948653615
 30
0.0
 10
146.7358351467014
 20
-128.8958116173237
 30
0.0
 10
146.7148688809792
 20
-132.1698423656255
 30
0.0
 10
146.6110524483448
 20
-135.4432415326317
 30
0.0
 10
146.5693922060648
 20
-138.7172846648799
 30
0.0
 10
146.4890050184207
 20
-145.0328004052653
 30
0.0
 10
146.4270592333314
 20
-151.3485514406434
 30
0.0
 10
146.3644079717677
 20
-157.6642777081269
 30
0.0
 10
146.3441224289583
 20
-159.7091521837879
 30
0.0
 10
146.3540981138299
 20
-159.7146011204548
 30
0.0
 10
148.3021785696831
 20
-159.6946258139906
 30
0.0
 10
155.8978952390196
 20
-159.6167431714915
 30
0.0
 10
163.493599531575
 20
-159.5364085074925
 30
0.0
 10
171.0892295634506
 20
-159.4509716573403
 30
0.0
 10
171.4425495088963
 20
-159.4469964103626
 30
0.0
 10
171.7952258617687
 20
-159.3853119705012
 30
0.0
 10
172.2520156900015
 20
-159.3402715553683
 30
0.0
  0
SPLINE
  5
8E
330
70
100
AcDbEntity
  8
Layer 1
100
AcDbSpline
210
0.0
220
0.0
230
1.0
 70
     9
 71
     3
 72
    80
 73
    76
 74
     0
 42
0.0000000001
 43
0.0000000001
 40
0.0
 40
0.0
 40
0.0
 40
0.0
 40
1.0
 40
1.0
 40
1.0
 40
2.0
 40
2.0
 40
2.0
 40
3.0
 40
3.0
 40
3.0
 40
4.0
 40
4.0
 40
4.0
 40
5.0
 40
5.0
 40
5.0
 40
6.0
 40
6.0
 40
6.0
 40
7.0
 40
7.0
 40
7.0
 40
8.0
 40
8.0
 40
8.0
 40
9.0
 40
9.0
 40
9.0
 40
10.0
 40
10.0
 40
10.0
 40
11.0
 40
11.0
 40
11.0
 40
12.0
 40
12.0
 40
12.0
 40
13.0
 40
13.0
 40
13.0
 40
14.0
 40
14.0
 40
14.0
 40
15.0
 40
15.0
 40
15.0
 40
16.0
 40
16.0
 40
16.0
 40
17.0
 40
17.0
 40
17.0
 40
18.0
 40
18.0
 40
18.0
 40
19.0
 40
19.0
 40
19.0
 40
20.0
 40
20.0
 40
20.0
 40
21.0
 40
21.0
 40
21.0
 40
22.0
 40
22.0
 40
22.0
 40
23.0
 40
23.0
 40
23.0
 40
24.0
 40
24.0
 40
24.0
 40
25.0
 40
25.0
 40
25.0
 40
25.0
 10
169.5146308280502
 20
-91.79421237775647
 30
0.0
 10
169.5983844999183
 20
-91.80307928378775
 30
0.0
 10
169.682138171787
 20
-91.81195238179219
 30
0.0
 10
169.7658794668753
 20
-91.82081928782347
 30
0.0
 10
169.8320581108062
 20
-91.71759908982172
 30
0.0
 10
169.9298594282444
 20
-91.62274424799866
 30
0.0
 10
169.9596627150568
 20
-91.50990791517434
 30
0.0
 10
170.3719580183351
 20
-89.94896093529147
 30
0.0
 10
170.6045672261221
 20
-88.3151034676182
 30
0.0
 10
171.214940520324
 20
-86.8370979725727
 30
0.0
 10
172.5691583068121
 20
-83.55787215851711
 30
0.0
 10
174.0230463045544
 20
-80.31222541667236
 30
0.0
 10
175.6067172198693
 20
-77.13800308898179
 30
0.0
 10
176.7827588780549
 20
-74.78083023861096
 30
0.0
 10
178.2601132511277
 20
-72.57604804768978
 30
0.0
 10
179.5412585270918
 20
-70.26891872702766
 30
0.0
 10
180.6233480464934
 20
-68.32027990327727
 30
0.0
 10
181.3972928683172
 20
-66.17827813152439
 30
0.0
 10
181.4575306577342
 20
-63.98986132652455
 30
0.0
 10
181.5524358085967
 20
-60.54257296812784
 30
0.0
 10
181.2598363469975
 20
-57.08412048153704
 30
0.0
 10
181.1144710631056
 20
-53.6311045476662
 30
0.0
 10
181.0849648190192
 20
-52.93037748424353
 30
0.0
 10
180.9954559443406
 20
-52.23098169512012
 30
0.0
 10
180.9085461935104
 20
-51.53410603920494
 30
0.0
 10
180.6570128887398
 20
-49.5172007077777
 30
0.0
 10
180.3840801309388
 20
-47.5029517329755
 30
0.0
 10
180.1364578887229
 20
-45.4855850995237
 30
0.0
 10
179.9704481353945
 20
-44.13313115485487
 30
0.0
 10
179.967712866962
 20
-42.7452219700089
 30
0.0
 10
179.6556942371698
 20
-41.42924803712893
 30
0.0
 10
178.9678422986798
 20
-38.5280422043572
 30
0.0
 10
178.0818257318035
 20
-35.67433809617874
 30
0.0
 10
177.3678216566713
 20
-32.7787514793447
 30
0.0
 10
176.6466638025608
 20
-29.85419261857242
 30
0.0
 10
175.4481582882439
 20
-27.12992242814594
 30
0.0
 10
174.0515500294417
 20
-24.49014481191472
 30
0.0
 10
172.560977255075
 20
-21.67278139612188
 30
0.0
 10
170.7738196958727
 20
-19.0489125077679
 30
0.0
 10
168.1292235553631
 20
-17.17897985898984
 30
0.0
 10
166.0162348796227
 20
-15.68493870061048
 30
0.0
 10
163.7746267036528
 20
-14.38780075107344
 30
0.0
 10
161.1668762379106
 20
-13.93465355549108
 30
0.0
 10
159.9307205581103
 20
-13.71984780330919
 30
0.0
 10
158.6838960937452
 20
-13.56426053754791
 30
0.0
 10
157.4397326371308
 20
-13.39814691686162
 30
0.0
 10
155.4675298365941
 20
-13.13482860041477
 30
0.0
 10
153.4959334982898
 20
-12.86359074987972
 30
0.0
 10
151.5190646516039
 20
-12.64020137445351
 30
0.0
 10
150.7063062469544
 20
-12.54835892773134
 30
0.0
 10
150.5883926616299
 20
-12.95853382732503
 30
0.0
 10
150.9526784343665
 20
-13.62397438184792
 30
0.0
 10
151.8719266561804
 20
-15.30317567135491
 30
0.0
 10
152.7869543959332
 20
-16.98485375025569
 30
0.0
 10
153.6844318613098
 20
-18.67577025359696
 30
0.0
 10
155.1218463645554
 20
-21.38399239674262
 30
0.0
 10
156.5219448753846
 20
-24.11223319016666
 30
0.0
 10
157.9776770133814
 20
-26.81047232406063
 30
0.0
 10
159.7607873654462
 20
-30.11550009162983
 30
0.0
 10
161.5936771276275
 20
-33.39358967855116
 30
0.0
 10
163.38863205838
 20
-36.69227067329828
 30
0.0
 10
164.8292769012675
 20
-39.33980683230722
 30
0.0
 10
166.2621367493852
 20
-41.99191266774782
 30
0.0
 10
167.6626313171823
 20
-44.66081423126783
 30
0.0
 10
168.1017842335755
 20
-45.49768111972745
 30
0.0
 10
168.7288166739783
 20
-46.38728195037571
 30
0.0
 10
168.7530256561228
 20
-47.26699419936739
 30
0.0
 10
168.9682454876767
 20
-55.08374771931575
 30
0.0
 10
169.8329987461042
 20
-62.87029060062835
 30
0.0
 10
169.5619596356791
 20
-70.71478416179154
 30
0.0
 10
169.3320980731044
 20
-77.36781199291925
 30
0.0
 10
169.5145936977087
 20
-84.03509374701027
 30
0.0
 10
169.5146184512697
 20
-90.69607207209333
 30
0.0
 10
169.5146184512697
 20
-91.06211677665655
 30
0.0
 10
169.5146308280502
 20
-91.42816767319326
 30
0.0
 10
169.5146308280502
 20
-91.79421237775647
 30
0.0
  0
SPLINE
  5
8F
330
70
100
AcDbEntity
  8
Layer 1
100
AcDbSpline
210
0.0
220
0.0
230
1.0
 70
     9
 71
     3
 72
    47
 73
    43
 74
     0
 42
0.0000000001
 43
0.0000000001
 40
0.0
 40
0.0
 40
0.0
 40
0.0
 40
1.0
 40
1.0
 40
1.0
 40
2.0
 40
2.0
 40
2.0
 40
3.0
 40
3.0
 40
3.0
 40
4.0
 40
4.0
 40
4.0
 40
5.0
 40
5.0
 40
5.0
 40
6.0
 40
6.0
 40
6.0
 40
7.0
 40
7.0
 40
7.0
 40
8.0
 40
8.0
 40
8.0
 40
9.0
 40
9.0
 40
9.0
 40
10.0
 40
10.0
 40
10.0
 40
11.0
 40
11.0
 40
11.0
 40
12.0
 40
12.0
 40
12.0
 40
13.0
 40
13.0
 40
13.0
 40
14.0
 40
14.0
 40
14.0
 40
14.0
 10
131.9975281093109
 20
-12.4189048860652
 30
0.0
 10
128.5943096009122
 20
-12.61761150718559
 30
0.0
 10
125.4512881434501
 20
-12.79711372254058
 30
0.0
 10
122.3088236410984
 20
-12.98578470263428
 30
0.0
 10
119.4004721253335
 20
-13.16039680692936
 30
0.0
 10
116.5734422441201
 20
-13.609605907375
 30
0.0
 10
114.2002070103222
 20
-15.50596899497488
 30
0.0
 10
113.0506269082843
 20
-16.42455135752193
 30
0.0
 10
111.7807259371658
 20
-17.23592124716179
 30
0.0
 10
110.7951072313269
 20
-18.30746238272481
 30
0.0
 10
108.6429027274036
 20
-20.64731473526372
 30
0.0
 10
106.9207294528391
 20
-23.29475337068983
 30
0.0
 10
105.9302652375371
 20
-26.35680809869198
 30
0.0
 10
105.0782786279249
 20
-28.99077145182049
 30
0.0
 10
104.8921504183203
 20
-31.68896724190002
 30
0.0
 10
105.2300488955894
 20
-34.42747277936965
 30
0.0
 10
105.6291134207934
 20
-37.66172319401401
 30
0.0
 10
107.137805801428
 20
-40.54962866773963
 30
0.0
 10
108.1093521081368
 20
-43.60527779917119
 30
0.0
 10
108.8730118255829
 20
-46.0070731064645
 30
0.0
 10
109.766268808898
 20
-48.37664538373989
 30
0.0
 10
110.3591165822838
 20
-50.81953372306915
 30
0.0
 10
110.6109902485108
 20
-51.85740135882523
 30
0.0
 10
111.0823908658141
 20
-52.07094394841658
 30
0.0
 10
111.9227309252229
 20
-52.08684493632696
 30
0.0
 10
113.5102138888508
 20
-52.11688219970461
 30
0.0
 10
115.0980929094459
 20
-52.12535901140618
 30
0.0
 10
116.685631568585
 20
-52.15296902117767
 30
0.0
 10
121.6492155151109
 20
-52.23927893959041
 30
0.0
 10
126.6128427803676
 20
-52.32437523120055
 30
0.0
 10
131.5760925538273
 20
-52.42736632618308
 30
0.0
 10
132.1708587281499
 20
-52.43971312131328
 30
0.0
 10
132.3288792698346
 20
-52.18653570944185
 30
0.0
 10
132.319844220261
 20
-51.6403664961883
 30
0.0
 10
132.2505156857595
 20
-47.45026113460163
 30
0.0
 10
132.1809581808238
 20
-43.2600288375587
 30
0.0
 10
132.1443600416609
 20
-39.06954576558932
 30
0.0
 10
132.0826494153958
 20
-32.00468977794735
 30
0.0
 10
132.0428333133714
 20
-24.93963564715395
 30
0.0
 10
131.9991742210823
 20
-17.87462950415478
 30
0.0
 10
131.9881836402317
 20
-16.0960810960614
 30
0.0
 10
131.9975281093109
 20
-14.31740575251143
 30
0.0
 10
131.9975281093109
 20
-12.4189048860652
 30
0.0
  0
SPLINE
  5
90
330
70
100
AcDbEntity
  8
Layer 1
100
AcDbSpline
210
0.0
220
0.0
230
1.0
 70
     9
 71
     3
 72
   311
 73
   307
 74
     0
 42
0.0000000001
 43
0.0000000001
 40
0.0
 40
0.0
 40
0.0
 40
0.0
 40
1.0
 40
1.0
 40
1.0
 40
2.0
 40
2.0
 40
2.0
 40
3.0
 40
3.0
 40
3.0
 40
4.0
 40
4.0
 40
4.0
 40
5.0
 40
5.0
 40
5.0
 40
6.0
 40
6.0
 40
6.0
 40
7.0
 40
7.0
 40
7.0
 40
8.0
 40
8.0
 40
8.0
 40
9.0
 40
9.0
 40
9.0
 40
10.0
 40
10.0
 40
10.0
 40
11.0
 40
11.0
 40
11.0
 40
12.0
 40
12.0
 40
12.0
 40
13.0
 40
13.0
 40
13.0
 40
14.0
 40
14.0
 40
14.0
 40
15.0
 40
15.0
 40
15.0
 40
16.0
 40
16.0
 40
16.0
 40
17.0
 40
17.0
 40
17.0
 40
18.0
 40
18.0
 40
18.0
 40
19.0
 40
19.0
 40
19.0
 40
20.0
 40
20.0
 40
20.0
 40
21.0
 40
21.0
 40
21.0
 40
22.0
 40
22.0
 40
22.0
 40
23.0
 40
23.0
 40
23.0
 40
24.0
 40
24.0
 40
24.0
 40
25.0
 40
25.0
 40
25.0
 40
26.0
 40
26.0
 40
26.0
 40
27.0
 40
27.0
 40
27.0
 40
28.0
 40
28.0
 40
28.0
 40
29.0
 40
29.0
 40
29.0
 40
30.0
 40
30.0
 40
30.0
 40
31.0
 40
31.0
 40
31.0
 40
32.0
 40
32.0
 40
32.0
 40
33.0
 40
33.0
 40
33.0
 40
34.0
 40
34.0
 40
34.0
 40
35.0
 40
35.0
 40
35.0
 40
36.0
 40
36.0
 40
36.0
 40
37.0
 40
37.0
 40
37.0
 40
38.0
 40
38.0
 40
38.0
 40
39.0
 40
39.0
 40
39.0
 40
40.0
 40
40.0
 40
40.0
 40
41.0
 40
41.0
 40
41.0
 40
42.0
 40
42.0
 40
42.0
 40
43.0
 40
43.0
 40
43.0
 40
44.0
 40
44.0
 40
44.0
 40
45.0
 40
45.0
 40
45.0
 40
46.0
 40
46.0
 40
46.0
 40
47.0
 40
47.0
 40
47.0
 40
48.0
 40
48.0
 40
48.0
 40
49.0
 40
49.0
 40
49.0
 40
50.0
 40
50.0
 40
50.0
 40
51.0
 40
51.0
 40
51.0
 40
52.0
 40
52.0
 40
52.0
 40
53.0
 40
53.0
 40
53.0
 40
54.0
 40
54.0
 40
54.0
 40
55.0
 40
55.0
 40
55.0
 40
56.0
 40
56.0
 40
56.0
 40
57.0
 40
57.0
 40
57.0
 40
58.0
 40
58.0
 40
58.0
 40
59.0
 40
59.0
 40
59.0
 40
60.0
 40
60.0
 40
60.0
 40
61.0
 40
61.0
 40
61.0
 40
62.0
 40
62.0
 40
62.0
 40
63.0
 40
63.0
 40
63.0
 40
64.0
 40
64.0
 40
64.0
 40
65.0
 40
65.0
 40
65.0
 40
66.0
 40
66.0
 40
66.0
 40
67.0
 40
67.0
 40
67.0
 40
68.0
 40
68.0
 40
68.0
 40
69.0
 40
69.0
 40
69.0
 40
70.0
 40
70.0
 40
70.0
 40
71.0
 40
71.0
 40
71.0
 40
72.0
 40
72.0
 40
72.0
 40
73.0
 40
73.0
 40
73.0
 40
74.0
 40
74.0
 40
74.0
 40
75.0
 40
75.0
 40
75.0
 40
76.0
 40
76.0
 40
76.0
 40
77.0
 40
77.0
 40
77.0
 40
78.0
 40
78.0
 40
78.0
 40
79.0
 40
79.0
 40
79.0
 40
80.0
 40
80.0
 40
80.0
 40
81.0
 40
81.0
 40
81.0
 40
82.0
 40
82.0
 40
82.0
 40
83.0
 40
83.0
 40
83.0
 40
84.0
 40
84.0
 40
84.0
 40
85.0
 40
85.0
 40
85.0
 40
86.0
 40
86.0
 40
86.0
 40
87.0
 40
87.0
 40
87.0
 40
88.0
 40
88.0
 40
88.0
 40
89.0
 40
89.0
 40
89.0
 40
90.0
 40
90.0
 40
90.0
 40
91.0
 40
91.0
 40
91.0
 40
92.0
 40
92.0
 40
92.0
 40
93.0
 40
93.0
 40
93.0
 40
94.0
 40
94.0
 40
94.0
 40
95.0
 40
95.0
 40
95.0
 40
96.0
 40
96.0
 40
96.0
 40
97.0
 40
97.0
 40
97.0
 40
98.0
 40
98.0
 40
98.0
 40
99.0
 40
99.0
 40
99.0
 40
100.0
 40
100.0
 40
100.0
 40
101.0
 40
101.0
 40
101.0
 40
102.0
 40
102.0
 40
102.0
 40
102.0
 10
108.6247769327452
 20
-95.76284632770398
 30
0.0
 10
100.2336479162634
 20
-95.76284632770398
 30
0.0
 10
91.8638874108614
 20
-95.76284632770398
 30
0.0
 10
83.45051113190178
 20
-95.76284632770398
 30
0.0
 10
83.45051113190178
 20
-94.49957847313193
 30
0.0
 10
83.45051113190178
 20
-93.29282476056151
 30
0.0
 10
83.45051113190178
 20
-91.93677637528448
 30
0.0
 10
83.7858259562966
 20
-91.93677637528448
 30
0.0
 10
84.1402195874277
 20
-91.93677637528448
 30
0.0
 10
84.49461631275388
 20
-91.93677637528448
 30
0.0
 10
92.26696820125228
 20
-91.93677637528448
 30
0.0
 10
100.0393572200918
 20
-91.9246029554124
 30
0.0
 10
107.8116039059583
 20
-91.95395910170651
 30
0.0
 10
108.6722480733472
 20
-91.95720988778621
 30
0.0
 10
108.9871381161544
 20
-91.75946921453
 30
0.0
 10
108.9819336800649
 20
-90.83459890290905
 30
0.0
 10
108.97022524596
 20
-88.75407104391916
 30
0.0
 10
109.0546163220105
 20
-86.670657725285
 30
0.0
 10
109.1700916816285
 20
-84.59231563293538
 30
0.0
 10
109.3367574043093
 20
-81.59273172542755
 30
0.0
 10
109.7705449864701
 20
-78.59241716504826
 30
0.0
 10
109.7091747216614
 20
-75.60023266585528
 30
0.0
 10
109.6503726387521
 20
-72.73292169594251
 30
0.0
 10
109.1047794123139
 20
-69.87563553110252
 30
0.0
 10
108.7748330163475
 20
-67.01374872996274
 30
0.0
 10
108.7594424901219
 20
-66.88026216556443
 30
0.0
 10
108.7540214603776
 20
-66.74478178570381
 30
0.0
 10
108.7552096312806
 20
-66.61033546541545
 30
0.0
 10
108.7737438596865
 20
-64.51526266070811
 30
0.0
 10
108.4283821839339
 20
-62.47461111096417
 30
0.0
 10
107.9732879745936
 20
-60.43270259060288
 30
0.0
 10
107.6448144154754
 20
-58.95892621344758
 30
0.0
 10
107.6241204389176
 20
-57.41746537412373
 30
0.0
 10
107.3120894323452
 20
-55.93874780212722
 30
0.0
 10
106.9524697057587
 20
-54.23445663605729
 30
0.0
 10
106.4165179911259
 20
-52.56778790088525
 30
0.0
 10
105.9713870898767
 20
-50.88102001977912
 30
0.0
 10
105.7977037328013
 20
-50.22286896604192
 30
0.0
 10
105.7048716926286
 20
-49.54128748463613
 30
0.0
 10
105.502047206483
 20
-48.8933098433355
 30
0.0
 10
104.9832620860399
 20
-47.23600027608644
 30
0.0
 10
104.4412209955301
 20
-45.58540280809519
 30
0.0
 10
103.874649126589
 20
-43.94380846955205
 30
0.0
 10
103.3605733710261
 20
-42.45429519178361
 30
0.0
 10
102.7378851804874
 20
-40.9997015484865
 30
0.0
 10
102.2795235011645
 20
-39.49421917109927
 30
0.0
 10
101.7426682815742
 20
-37.7309339776475
 30
0.0
 10
101.1300795437091
 20
-35.95202024311807
 30
0.0
 10
100.9255408735009
 20
-34.13754290887569
 30
0.0
 10
100.7379522038286
 20
-32.47348409052754
 30
0.0
 10
101.0472541303588
 20
-30.75296376195276
 30
0.0
 10
101.1447707818512
 20
-29.0577283571053
 30
0.0
 10
101.1541090625406
 20
-28.89543054007925
 30
0.0
 10
101.2411858999033
 20
-28.7369407867469
 30
0.0
 10
101.2465202921854
 20
-28.57517547944056
 30
0.0
 10
101.3047716083741
 20
-26.80704816272282
 30
0.0
 10
102.0368024639231
 20
-25.24373584896906
 30
0.0
 10
102.6164070824543
 20
-23.61059045824645
 30
0.0
 10
103.7341912360613
 20
-20.46099825308797
 30
0.0
 10
105.6832061388222
 20
-17.92366374218552
 30
0.0
 10
107.8038065344087
 20
-15.40975501497216
 30
0.0
 10
109.528319020438
 20
-13.36539447311073
 30
0.0
 10
111.6756037542169
 20
-11.97995124170492
 30
0.0
 10
113.8982197609124
 20
-10.67017547428418
 30
0.0
 10
114.7597117377476
 20
-10.16250176018936
 30
0.0
 10
115.8594257922077
 20
-10.06516548499241
 30
0.0
 10
116.842371113515
 20
-9.754771142129262
 30
0.0
 10
117.1362639486491
 20
-9.661965843529975
 30
0.0
 10
117.4075382178991
 20
-9.490041055727736
 30
0.0
 10
117.6790414575832
 20
-9.336419741548068
 30
0.0
 10
117.8438197212779
 20
-9.243182552798321
 30
0.0
 10
117.9762079510903
 20
-9.045965101301264
 30
0.0
 10
118.1452933343076
 20
-9.014460340207502
 30
0.0
 10
119.4359130355443
 20
-8.773988083931667
 30
0.0
 10
120.7311121454686
 20
-8.377818654365059
 30
0.0
 10
122.0265030954867
 20
-8.371673894677687
 30
0.0
 10
132.8399660329701
 20
-8.320378812327918
 30
0.0
 10
143.6537817086904
 20
-8.338877333115503
 30
0.0
 10
154.4674612398272
 20
-8.356988855560448
 30
0.0
 10
154.867528284231
 20
-8.35765836269352
 30
0.0
 10
155.2609366208665
 20
-8.609057130181154
 30
0.0
 10
155.6685411244348
 20
-8.676684316595233
 30
0.0
 10
156.3847730200096
 20
-8.795518349736813
 30
0.0
 10
157.1186294506443
 20
-8.818461933490331
 30
0.0
 10
157.8282150152314
 20
-8.964031360148871
 30
0.0
 10
158.4943580811845
 20
-9.10068666697874
 30
0.0
 10
159.1338168089452
 20
-9.362723244913928
 30
0.0
 10
159.7944645844737
 20
-9.53287403231282
 30
0.0
 10
160.1508292178571
 20
-9.624654559300065
 30
0.0
 10
160.5368238631305
 20
-9.602004320290593
 30
0.0
 10
160.8925201503815
 20
-9.695458228112252
 30
0.0
 10
162.5605016926757
 20
-10.13369360354869
 30
0.0
 10
164.3167915619652
 20
-10.38879362318696
 30
0.0
 10
165.8632454991049
 20
-11.0983535367867
 30
0.0
 10
167.849396930969
 20
-12.00966342647453
 30
0.0
 10
169.8761442020128
 20
-13.05224005806651
 30
0.0
 10
171.4989381196585
 20
-14.47850232668122
 30
0.0
 10
173.3523609602538
 20
-16.10746039533436
 30
0.0
 10
174.9132709767114
 20
-18.12627749857517
 30
0.0
 10
176.3523687220691
 20
-20.15266738538861
 30
0.0
 10
177.5080505767637
 20
-21.78001863692205
 30
0.0
 10
178.3671105162826
 20
-23.63647600340221
 30
0.0
 10
179.2168012331611
 20
-25.45713911915683
 30
0.0
 10
179.8433509791338
 20
-26.79968900223568
 30
0.0
 10
180.2515000610327
 20
-28.24535072378049
 30
0.0
 10
180.7403209965205
 20
-29.65086368924535
 30
0.0
 10
181.153792093921
 20
-30.83976903824426
 30
0.0
 10
181.5786003220195
 20
-32.02661865204591
 30
0.0
 10
181.933987189764
 20
-33.23336926862959
 30
0.0
 10
182.3189669390584
 20
-34.54072397441766
 30
0.0
 10
182.6549841457313
 20
-35.86407254771817
 30
0.0
 10
182.9654928083346
 20
-37.1914242318774
 30
0.0
 10
183.3145675181588
 20
-38.68352885054923
 30
0.0
 10
183.6725411329732
 20
-40.17813812249619
 30
0.0
 10
183.9132200014761
 20
-41.68973816968661
 30
0.0
 10
184.1475619584963
 20
-43.1614433317106
 30
0.0
 10
184.2741764203282
 20
-44.65348603064783
 30
0.0
 10
184.3794656898108
 20
-46.141460603005
 30
0.0
 10
184.4463745637745
 20
-47.08700901008032
 30
0.0
 10
184.4120166218355
 20
-48.02135613712058
 30
0.0
 10
185.1215155489611
 20
-48.7945478662432
 30
0.0
 10
185.2643559696843
 20
-48.95021407966651
 30
0.0
 10
185.2006155514605
 20
-49.31276651118382
 30
0.0
 10
185.2007764496037
 20
-49.57995016707918
 30
0.0
 10
185.2043409623117
 20
-55.4971176772277
 30
0.0
 10
185.2353571735877
 20
-61.41467528170626
 30
0.0
 10
185.1639679051763
 20
-67.33098210754064
 30
0.0
 10
185.1548462181413
 20
-68.08725117312757
 30
0.0
 10
184.6297365629964
 20
-68.84671529703279
 30
0.0
 10
184.3051183709226
 20
-69.58779545166001
 30
0.0
 10
183.6041841757209
 20
-71.1879995434399
 30
0.0
 10
182.9640694786071
 20
-72.82325639712087
 30
0.0
 10
182.1413477658672
 20
-74.35961505029303
 30
0.0
 10
181.0466958145242
 20
-76.40378983295
 30
0.0
 10
179.7552654341821
 20
-78.34176607835887
 30
0.0
 10
178.6360579508479
 20
-80.37372409732965
 30
0.0
 10
177.7168963664949
 20
-82.04246714361941
 30
0.0
 10
176.8915755299046
 20
-83.76597819538783
 30
0.0
 10
176.0912062822735
 20
-85.49603416313043
 30
0.0
 10
175.6453451509908
 20
-86.45980245218648
 30
0.0
 10
175.3171005623065
 20
-87.48022110666068
 30
0.0
 10
174.9708725119373
 20
-88.48715983485716
 30
0.0
 10
174.7509990110147
 20
-89.1266792403767
 30
0.0
 10
174.5572776467344
 20
-89.78031015346955
 30
0.0
 10
174.4182616511043
 20
-90.44160053776391
 30
0.0
 10
174.0076000828179
 20
-92.39493287741646
 30
0.0
 10
173.6096742213952
 20
-94.3514540834141
 30
0.0
 10
173.2459206502095
 20
-96.31398769566654
 30
0.0
 10
172.9604502140268
 20
-97.85408630082365
 30
0.0
 10
172.730056449902
 20
-99.40448834986037
 30
0.0
 10
172.4816916008727
 20
-100.9513485900639
 30
0.0
 10
172.3872196373184
 20
-101.5396975266997
 30
0.0
 10
172.2635632259639
 20
-102.1286285088438
 30
0.0
 10
172.23421788002
 20
-102.7212994429729
 30
0.0
 10
172.0817235707109
 20
-105.8006421609461
 30
0.0
 10
171.8010058181396
 20
-108.8841582690494
 30
0.0
 10
171.8584464552229
 20
-111.9607393668479
 30
0.0
 10
171.9326576295282
 20
-115.9354166829167
 30
0.0
 10
172.2843685935429
 20
-119.9049051252052
 30
0.0
 10
172.5220894115683
 20
-123.9707654428201
 30
0.0
 10
182.1643314467681
 20
-123.9707654428201
 30
0.0
 10
191.8430107229883
 20
-123.9707654428201
 30
0.0
 10
201.575009168472
 20
-123.9707654428201
 30
0.0
 10
201.575009168472
 20
-125.2928880053711
 30
0.0
 10
201.575009168472
 20
-126.5231959850802
 30
0.0
 10
201.575009168472
 20
-127.8015784469298
 30
0.0
 10
191.9500822488248
 20
-127.9040803760067
 30
0.0
 10
182.3498717593114
 20
-128.0063098582513
 30
0.0
 10
172.6310669615619
 20
-128.1098148870334
 30
0.0
 10
172.6310669615619
 20
-128.4674632755504
 30
0.0
 10
172.6271682757864
 20
-128.8262014514002
 30
0.0
 10
172.6316610470125
 20
-129.1848405556754
 30
0.0
 10
172.6984090228345
 20
-134.5123154709415
 30
0.0
 10
172.7181747408741
 20
-139.8411154685338
 30
0.0
 10
172.8659039897915
 20
-145.1663488893982
 30
0.0
 10
172.9054725562116
 20
-146.5926823657081
 30
0.0
 10
173.3276197765585
 20
-148.0097526496841
 30
0.0
 10
173.5901560389609
 20
-149.4280984801977
 30
0.0
 10
173.7988038002074
 20
-150.5553720211102
 30
0.0
 10
173.9824999724955
 20
-151.6909056546507
 30
0.0
 10
174.2687996529542
 20
-152.7990955332806
 30
0.0
 10
174.5259396391727
 20
-153.7944552710596
 30
0.0
 10
174.9008323125724
 20
-154.759944928745
 30
0.0
 10
175.2360326517496
 20
-155.7343757961426
 30
0.0
 10
175.7818115298919
 20
-157.3208708586265
 30
0.0
 10
176.3177756213045
 20
-158.9111677928296
 30
0.0
 10
176.8943850590181
 20
-160.4864925351453
 30
0.0
 10
177.5245116944799
 20
-162.2080097714514
 30
0.0
 10
178.2254211361212
 20
-163.9039293893692
 30
0.0
 10
178.8384183077345
 20
-165.6312670807517
 30
0.0
 10
179.1936690308968
 20
-166.6323358180838
 30
0.0
 10
179.4024405599463
 20
-167.684773167451
 30
0.0
 10
179.7402400229732
 20
-168.6929131385037
 30
0.0
 10
180.0451172505683
 20
-169.6028484100775
 30
0.0
 10
180.4725741096377
 20
-170.4715822900805
 30
0.0
 10
180.779221216807
 20
-171.3810222037755
 30
0.0
 10
181.14179899387
 20
-172.4563822389856
 30
0.0
 10
181.4112043693044
 20
-173.5628879008281
 30
0.0
 10
181.7592394295887
 20
-174.6435606492882
 30
0.0
 10
182.5189880844799
 20
-177.0025787077575
 30
0.0
 10
182.0975834709469
 20
-179.4262533533615
 30
0.0
 10
182.1190819382198
 20
-181.8173829863262
 30
0.0
 10
182.1272258596155
 20
-182.7201479526047
 30
0.0
 10
181.6172777602623
 20
-183.6191358150566
 30
0.0
 10
181.4039887064257
 20
-184.5339627456837
 30
0.0
 10
180.8290006269236
 20
-187.0000524096635
 30
0.0
 10
179.5067520637894
 20
-189.1115649039742
 30
0.0
 10
178.1457394249509
 20
-191.1706809186511
 30
0.0
 10
176.9265028037353
 20
-193.015306971794
 30
0.0
 10
175.1950283788221
 20
-194.401689835176
 30
0.0
 10
173.3237705979044
 20
-195.5754403290698
 30
0.0
 10
172.4939693668686
 20
-196.0959128523588
 30
0.0
 10
171.6465312239931
 20
-196.627815758702
 30
0.0
 10
170.7384344811735
 20
-196.9744052825744
 30
0.0
 10
169.3971256764735
 20
-197.4863328824534
 30
0.0
 10
167.9930542191879
 20
-197.8327737989619
 30
0.0
 10
166.6184394988687
 20
-198.2585338958178
 30
0.0
 10
165.2495923581391
 20
-198.6825354722051
 30
0.0
 10
163.887861866047
 20
-199.1299179404724
 30
0.0
 10
162.5156111107532
 20
-199.5424272140699
 30
0.0
 10
161.8299374855852
 20
-199.7485456274518
 30
0.0
 10
161.1056359292945
 20
-199.8399886918847
 30
0.0
 10
160.4374506946016
 20
-200.0876676313006
 30
0.0
 10
158.8274914980629
 20
-200.6844624197711
 30
0.0
 10
157.0830833378006
 20
-201.1051698662636
 30
0.0
 10
155.6819080470913
 20
-202.0335696027708
 30
0.0
 10
153.7269461014262
 20
-203.3289056880235
 30
0.0
 10
151.5675816301348
 20
-204.0611932403017
 30
0.0
 10
149.4358792626759
 20
-204.845493369857
 30
0.0
 10
147.803778006291
 20
-205.4459414226836
 30
0.0
 10
145.9319632702628
 20
-205.3997493004824
 30
0.0
 10
144.307300458801
 20
-206.0135224802494
 30
0.0
 10
141.4762233704501
 20
-207.0830992122245
 30
0.0
 10
138.6062831921526
 20
-206.4107994990734
 30
0.0
 10
135.7629469029762
 20
-206.5449671805549
 30
0.0
 10
132.8632220030367
 20
-206.6818345624759
 30
0.0
 10
129.9503034553636
 20
-206.6311594514713
 30
0.0
 10
127.0468469561827
 20
-206.5421931764334
 30
0.0
 10
126.1429954489841
 20
-206.5145026710065
 30
0.0
 10
125.2484141501838
 20
-206.1044454189095
 30
0.0
 10
124.3545383278567
 20
-205.8519119722807
 30
0.0
 10
123.3273460171996
 20
-205.5616570231787
 30
0.0
 10
122.2560552385552
 20
-205.3621516374791
 30
0.0
 10
121.2919411883795
 20
-204.9276732419553
 30
0.0
 10
119.3288972052189
 20
-204.0430383740423
 30
0.0
 10
117.414246432788
 20
-203.0477777078391
 30
0.0
 10
115.5010746855951
 20
-202.0567275836063
 30
0.0
 10
114.5074791448934
 20
-201.5420259796059
 30
0.0
 10
113.560834920023
 20
-200.9368472590355
 30
0.0
 10
112.5907119430413
 20
-200.3764736586066
 30
0.0
 10
110.2791873355085
 20
-199.0412860320019
 30
0.0
 10
108.3854533216794
 20
-197.2158303287699
 30
0.0
 10
106.6548205178222
 20
-195.2199343633785
 30
0.0
 10
105.7238019780022
 20
-194.1462090091686
 30
0.0
 10
104.8023692544761
 20
-193.0393937486528
 30
0.0
 10
104.0550468869435
 20
-191.8365285954308
 30
0.0
 10
102.7959632217525
 20
-189.809994745234
 30
0.0
 10
101.5211053501491
 20
-187.7656032435042
 30
0.0
 10
100.5529317160551
 20
-185.5947344913627
 30
0.0
 10
99.80240995083134
 20
-183.9118551696054
 30
0.0
 10
99.78390047598574
 20
-181.883315119999
 30
0.0
 10
98.94922279353561
 20
-180.261253361816
 30
0.0
 10
97.70851245860772
 20
-177.85013603844
 30
0.0
 10
98.36956247949315
 20
-175.3969628311513
 30
0.0
 10
98.23929067910153
 20
-172.9710590750927
 30
0.0
 10
98.10530584463798
 20
-170.4761519665128
 30
0.0
 10
98.20956165297047
 20
-167.9684150888707
 30
0.0
 10
98.2107250703128
 20
-165.4663005231533
 30
0.0
 10
98.21076838904387
 20
-165.3654828108644
 30
0.0
 10
98.18374368939469
 20
-165.2065967712286
 30
0.0
 10
98.23473602397424
 20
-165.1723427739073
 30
0.0
 10
99.53456404970751
 20
-164.2999308616543
 30
0.0
 10
99.1040625026995
 20
-162.6905007293812
 30
0.0
 10
99.79042922756143
 20
-161.532775062868
 30
0.0
 10
100.5276583308096
 20
-160.2892286438474
 30
0.0
 10
101.0381200665432
 20
-158.908294717133
 30
0.0
 10
101.6156948931155
 20
-157.5735157607776
 30
0.0
 10
102.3246678070815
 20
-155.9350700407521
 30
0.0
 10
103.0026863936726
 20
-154.2832001222098
 30
0.0
 10
103.6903155501185
 20
-152.6355531295848
 30
0.0
 10
104.3510437747179
 20
-151.052352196995
 30
0.0
 10
105.0384501491199
 20
-149.479306100922
 30
0.0
 10
105.6559648455193
 20
-147.8793249201876
 30
0.0
 10
106.2548153573201
 20
-146.3276906684265
 30
0.0
 10
106.7788915513153
 20
-144.7471646683835
 30
0.0
 10
107.3373442524202
 20
-143.1798771076515
 30
0.0
 10
107.7187285470547
 20
-142.1095201870176
 30
0.0
 10
108.165295154811
 20
-141.0576524992111
 30
0.0
 10
108.4712244087266
 20
-139.9662304847802
 30
0.0
 10
108.9530400865999
 20
-138.2473262612847
 30
0.0
 10
109.3396845128355
 20
-136.5017346320675
 30
0.0
 10
109.7690535844515
 20
-134.7680563598356
 30
0.0
 10
110.9609684632923
 20
-129.9553821201465
 30
0.0
 10
110.5801782541093
 20
-125.0495434473948
 30
0.0
 10
110.5376702023828
 20
-120.1770052080478
 30
0.0
 10
110.5181767735082
 20
-117.9432136213471
 30
0.0
 10
110.0494062220055
 20
-115.7137068802987
 30
0.0
 10
109.7930583497224
 20
-113.4812403759241
 30
0.0
 10
109.7585766399804
 20
-113.1809048939879
 30
0.0
 10
109.7816964654642
 20
-112.8744022064603
 30
0.0
 10
109.7670609228334
 20
-112.5712927204027
 30
0.0
 10
109.56538128886
 20
-108.3920697522172
 30
0.0
 10
109.3873908122614
 20
-104.2114597819703
 30
0.0
 10
109.1441251966897
 20
-100.0346516834433
 30
0.0
 10
109.0634533431004
 20
-98.64953817462605
 30
0.0
 10
108.8136899179036
 20
-97.27428847957099
 30
0.0
 10
108.6247769327452
 20
-95.76284632770398
 30
0.0
  0
HATCH
  5
91
330
70
100
AcDbEntity
  8
Layer 1
 62
   251
420
  5197391
440
 33554687
100
AcDbHatch
 10
0.0
 20
0.0
 30
0.0
210
0.0
220
0.0
230
1.0
  2
SOLID
 70
     1
 71
     1
 91
       24
 92
        1
 93
        1
 72
     4
 94
        3
 73
     0
 74
     0
 95
       26
 96
       22
 40
0.0
 40
0.0
 40
0.0
 40
0.0
 40
1.0
 40
1.0
 40
1.0
 40
2.0
 40
2.0
 40
2.0
 40
3.0
 40
3.0
 40
3.0
 40
4.0
 40
4.0
 40
4.0
 40
5.0
 40
5.0
 40
5.0
 40
6.0
 40
6.0
 40
6.0
 40
7.0
 40
7.0
 40
7.0
 40
7.0
 10
132.0899207737855
 20
-65.51552644148741
 10
132.0899207737855
 20
-64.375348827832
 10
132.0902611352419
 20
-63.34151835878851
 10
132.089834136324
 20
-62.3076940817182
 10
132.0892029205319
 20
-60.78965747808941
 10
132.0151773979297
 20
-59.26697070237324
 10
132.1114378062286
 20
-57.75513226420335
 10
132.1812985422805
 20
-56.6579331385101
 10
131.6560836845034
 20
-56.4204957232389
 10
130.7495959231143
 20
-56.42772794826976
 10
129.2662450000166
 20
-56.43956700157357
 10
127.7827269903855
 20
-56.42983321925464
 10
126.2992770530455
 20
-56.42931309348191
 10
125.742996476872
 20
-56.42912114230364
 10
125.186722089089
 20
-56.42928213361445
 10
124.6254908008203
 20
-56.42928213361445
 10
124.6254908008203
 20
-59.55214204124336
 10
124.6254908008203
 20
-62.50409728870195
 10
124.6254908008203
 20
-65.51552644148741
 10
127.1721494793093
 20
-65.51552644148741
 10
129.6496714633903
 20
-65.51552644148741
 10
132.0899207737855
 20
-65.51552644148741
 97
        0
 97
        1
330
79
 92
        1
 93
        1
 72
     4
 94
        3
 73
     0
 74
     0
 95
       35
 96
       31
 40
0.0
 40
0.0
 40
0.0
 40
0.0
 40
1.0
 40
1.0
 40
1.0
 40
2.0
 40
2.0
 40
2.0
 40
3.0
 40
3.0
 40
3.0
 40
4.0
 40
4.0
 40
4.0
 40
5.0
 40
5.0
 40
5.0
 40
6.0
 40
6.0
 40
6.0
 40
7.0
 40
7.0
 40
7.0
 40
8.0
 40
8.0
 40
8.0
 40
9.0
 40
9.0
 40
9.0
 40
10.0
 40
10.0
 40
10.0
 40
10.0
 10
120.7329129669933
 20
-61.09610443785561
 10
120.7329129669933
 20
-59.77773421123727
 10
120.7077757263304
 20
-58.45869525148238
 10
120.7431114339089
 20
-57.14127239680742
 10
120.7618746327494
 20
-56.44160416085035
 10
120.5039734745463
 20
-56.17118829479577
 10
119.7993571872242
 20
-56.18628432615341
 10
118.516571987878
 20
-56.21376430448156
 10
117.232004532178
 20
-56.19554132651376
 10
115.9489903623975
 20
-56.16381365437458
 10
114.806830140112
 20
-56.13557825528133
 10
113.6661241895049
 20
-56.03830235182592
 10
112.5240506046815
 20
-56.02172643880519
 10
112.0095602269806
 20
-56.01425891878193
 10
111.5317422491241
 20
-56.05719406292964
 10
111.6655971273948
 20
-56.87800826012831
 10
112.0803677867205
 20
-59.42146044083393
 10
112.4331184002749
 20
-61.97559377580221
 10
112.7705218063347
 20
-64.53078593823609
 10
112.873676081226
 20
-65.31200246499564
 10
113.1525992006629
 20
-65.78799804273923
 10
114.0167893155894
 20
-65.78183702912127
 10
115.9762007137502
 20
-65.76786174496449
 10
117.9359029662464
 20
-65.76533541978244
 10
119.8952277269454
 20
-65.78432620246204
 10
120.498106880714
 20
-65.79015904148554
 10
120.7511872830141
 20
-65.56322940521886
 10
120.7397511380745
 20
-64.94966056057676
 10
120.7158268218752
 20
-63.66554433127962
 10
120.7325045332452
 20
-62.38066648924355
 10
120.7329129669933
 20
-61.09610443785561
 97
        0
 97
        1
330
7A
 92
        1
 93
        1
 72
     4
 94
        3
 73
     0
 74
     0
 95
       26
 96
       22
 40
0.0
 40
0.0
 40
0.0
 40
0.0
 40
1.0
 40
1.0
 40
1.0
 40
2.0
 40
2.0
 40
2.0
 40
3.0
 40
3.0
 40
3.0
 40
4.0
 40
4.0
 40
4.0
 40
5.0
 40
5.0
 40
5.0
 40
6.0
 40
6.0
 40
6.0
 40
7.0
 40
7.0
 40
7.0
 40
7.0
 10
147.9423236842721
 20
-97.43066057797085
 10
147.83704679157
 20
-89.09969461992764
 10
147.7341833710147
 20
-80.95993061113933
 10
147.6293025352807
 20
-72.66066136536783
 10
147.4384154536742
 20
-72.86988814943973
 10
147.3354282653166
 20
-72.94728162603391
 10
147.2786807279266
 20
-73.05020460930802
 10
146.1284075261957
 20
-75.13646623574553
 10
144.9836048613292
 20
-77.22573716129684
 10
143.8373417363956
 20
-79.31422170621525
 10
142.3514350081781
 20
-82.02158780902653
 10
140.8512578523474
 20
-84.72123871287518
 10
139.385525275918
 20
-87.43950268902102
 10
138.7346922871189
 20
-88.64648550461035
 10
137.8189405057216
 20
-89.83896052632351
 10
137.6185171149426
 20
-91.13047616393547
 10
137.3175880802433
 20
-93.06960411641266
 10
137.5402092263785
 20
-95.09008221654122
 10
137.5402092263785
 20
-97.27540922677151
 10
141.0002619096296
 20
-97.56028335091434
 10
144.383071107416
 20
-97.34116798518682
 10
147.9423236842721
 20
-97.43066057797085
 97
        0
 97
        1
330
7B
 92
        1
 93
        1
 72
     4
 94
        3
 73
     0
 74
     0
 95
       29
 96
       25
 40
0.0
 40
0.0
 40
0.0
 40
0.0
 40
1.0
 40
1.0
 40
1.0
 40
2.0
 40
2.0
 40
2.0
 40
3.0
 40
3.0
 40
3.0
 40
4.0
 40
4.0
 40
4.0
 40
5.0
 40
5.0
 40
5.0
 40
6.0
 40
6.0
 40
6.0
 40
7.0
 40
7.0
 40
7.0
 40
8.0
 40
8.0
 40
8.0
 40
8.0
 10
157.669953126332
 20
-173.3222801951316
 10
164.2053015255835
 20
-173.3222801951316
 10
170.6062133378932
 20
-173.3222801951316
 10
177.1612408177236
 20
-173.3222801951316
 10
176.883951433278
 20
-172.7618075231268
 10
176.6715906379596
 20
-172.4197505238465
 10
176.5383545987009
 20
-172.0492352144262
 10
175.615987428267
 20
-169.4839005994231
 10
174.7284485174219
 20
-166.9058352869344
 10
173.785325486529
 20
-164.3482654066813
 10
173.5637563667133
 20
-163.7474706033398
 10
173.203035106686
 20
-163.2710477794255
 10
172.3654736344407
 20
-163.3379334770155
 10
170.7230872736784
 20
-163.4690794754359
 10
169.0717401240241
 20
-163.5179589141302
 10
167.4233757784076
 20
-163.5371416479875
 10
164.5513315474694
 20
-163.570553536915
 10
161.6787179846403
 20
-163.5557051844967
 10
158.8063519574171
 20
-163.5608816743307
 10
158.4461010150381
 20
-163.5615256395732
 10
158.0858376958786
 20
-163.5609807459065
 10
157.669953126332
 20
-163.5609807459065
 10
157.669953126332
 20
-166.8529310654751
 10
157.669953126332
 20
-170.0107632393493
 10
157.669953126332
 20
-173.3222801951316
 97
        0
 97
        1
330
7C
 92
        1
 93
        1
 72
     4
 94
        3
 73
     0
 74
     0
 95
       26
 96
       22
 40
0.0
 40
0.0
 40
0.0
 40
0.0
 40
1.0
 40
1.0
 40
1.0
 40
2.0
 40
2.0
 40
2.0
 40
3.0
 40
3.0
 40
3.0
 40
4.0
 40
4.0
 40
4.0
 40
5.0
 40
5.0
 40
5.0
 40
6.0
 40
6.0
 40
6.0
 40
7.0
 40
7.0
 40
7.0
 40
7.0
 10
144.127849522135
 20
-69.88423618227361
 10
137.373190765461
 20
-69.88423618227361
 10
130.8130207334426
 20
-69.88423618227361
 10
124.2152067243311
 20
-69.88423618227361
 10
124.2152067243311
 20
-73.25633540663722
 10
124.2152067243311
 20
-76.54959223261103
 10
124.2152067243311
 20
-79.84198218229686
 10
124.3667480215611
 20
-79.89223004713084
 10
124.459252077058
 20
-79.94852747006023
 10
124.5527400865832
 20
-79.95022407079523
 10
129.0038696357577
 20
-80.03084356557513
 10
133.4549806197615
 20
-80.11856525394287
 10
137.9065186026835
 20
-80.15812577254136
 10
138.2234879445713
 20
-80.16093692850342
 10
138.6749619456915
 20
-79.8841061779177
 10
138.8399444262603
 20
-79.60484817372647
 10
139.6269962583552
 20
-78.27273176597024
 10
140.3370150102515
 20
-76.89504862533521
 10
141.0736933467795
 20
-75.5331612090615
 10
142.0621649004633
 20
-73.70575503418128
 10
143.0499557312336
 20
-71.87797734089215
 10
144.127849522135
 20
-69.88423618227361
 97
        0
 97
        1
330
7D
 92
        1
 93
        1
 72
     4
 94
        3
 73
     0
 74
     0
 95
       23
 96
       19
 40
0.0
 40
0.0
 40
0.0
 40
0.0
 40
1.0
 40
1.0
 40
1.0
 40
2.0
 40
2.0
 40
2.0
 40
3.0
 40
3.0
 40
3.0
 40
4.0
 40
4.0
 40
4.0
 40
5.0
 40
5.0
 40
5.0
 40
6.0
 40
6.0
 40
6.0
 40
6.0
 10
149.0602316056811
 20
-124.3583458311658
 10
155.3421282992258
 20
-124.3583458311658
 10
161.3220191781901
 20
-124.342271467998
 10
167.3016377679887
 20
-124.3760796432284
 10
168.1755745973531
 20
-124.3810208380696
 10
168.4332591619022
 20
-124.0752364194664
 10
168.3816851186518
 20
-123.2528680369224
 10
168.2229034049821
 20
-120.720276577711
 10
168.0383903651984
 20
-118.1866200990583
 10
167.9847617764283
 20
-115.6508088136341
 10
167.9168998903854
 20
-112.4423634484894
 10
167.9693155546918
 20
-109.231391758163
 10
167.9654787528182
 20
-106.0215098551704
 10
167.9651074494112
 20
-105.7089885694151
 10
167.9339798471133
 20
-105.3964920515539
 10
167.9141769987328
 20
-105.0292461041344
 10
161.6334932296523
 20
-111.4682174118718
 10
155.434657108283
 20
-117.8232750949352
 10
149.0602316056811
 20
-124.3583458311658
 97
        0
 97
        1
330
7E
 92
        1
 93
        1
 72
     4
 94
        3
 73
     0
 74
     0
 95
       26
 96
       22
 40
0.0
 40
0.0
 40
0.0
 40
0.0
 40
1.0
 40
1.0
 40
1.0
 40
2.0
 40
2.0
 40
2.0
 40
3.0
 40
3.0
 40
3.0
 40
4.0
 40
4.0
 40
4.0
 40
5.0
 40
5.0
 40
5.0
 40
6.0
 40
6.0
 40
6.0
 40
7.0
 40
7.0
 40
7.0
 40
7.0
 10
124.7418387234451
 20
-163.9217622730069
 10
123.2797016016746
 20
-164.0038554574765
 10
121.9461716033538
 20
-164.1248218514874
 10
120.6110821307236
 20
-164.1456640342393
 10
115.084558900256
 20
-164.2320172964665
 10
109.5576210476505
 20
-164.2941475584187
 10
104.030664629875
 20
-164.3466678775222
 10
103.4199757277767
 20
-164.3524759486517
 10
103.1500814695238
 20
-164.5184579899016
 10
103.0553124632435
 20
-165.1856802847947
 10
102.9263835435074
 20
-166.0933988298614
 10
102.4623966175666
 20
-166.9643989721595
 10
102.4018989157645
 20
-167.8685509404977
 10
102.2910462835655
 20
-169.5251762946771
 10
102.3703257493782
 20
-171.1945447302893
 10
102.3703257493782
 20
-172.9761241094037
 10
109.8692745624264
 20
-172.9761241094037
 10
117.2976324093884
 20
-172.9761241094037
 10
124.7418387234451
 20
-172.9761241094037
 10
124.7418387234451
 20
-169.9788498080057
 10
124.7418387234451
 20
-167.050170188879
 10
124.7418387234451
 20
-163.9217622730069
 97
        0
 97
        1
330
7F
 92
        1
 93
        1
 72
     4
 94
        3
 73
     0
 74
     0
 95
       32
 96
       28
 40
0.0
 40
0.0
 40
0.0
 40
0.0
 40
1.0
 40
1.0
 40
1.0
 40
2.0
 40
2.0
 40
2.0
 40
3.0
 40
3.0
 40
3.0
 40
4.0
 40
4.0
 40
4.0
 40
5.0
 40
5.0
 40
5.0
 40
6.0
 40
6.0
 40
6.0
 40
7.0
 40
7.0
 40
7.0
 40
8.0
 40
8.0
 40
8.0
 40
9.0
 40
9.0
 40
9.0
 40
9.0
 10
153.8364558529693
 20
-27.56740393081031
 10
153.7151757834202
 20
-27.24005596454433
 10
153.6746665817027
 20
-27.07973648304689
 10
153.6001583646713
 20
-26.93722821328
 10
152.4801711441817
 20
-24.79546792849332
 10
151.3681050630447
 20
-22.6494197020676
 10
150.2290452242087
 20
-20.51783282971718
 10
148.947899948244
 20
-18.12036261590322
 10
147.634401768738
 20
-15.74020670794802
 10
146.3505212243414
 20
-13.34418386793633
 10
145.9947259228484
 20
-12.68019378320246
 10
145.5122171452815
 20
-12.38386605610478
 10
144.7294105488077
 20
-12.3959187324944
 10
142.1288262388237
 20
-12.43595603305052
 10
139.5268433526721
 20
-12.44000403571673
 10
136.92638281049
 20
-12.39728561064094
 10
136.1369732017593
 20
-12.38431807016909
 10
135.8840846395526
 20
-12.60281733453539
 10
135.8921976189986
 20
-13.41907578724211
 10
135.9361970727434
 20
-17.8466402360072
 10
135.9201629539454
 20
-22.27479292225344
 10
135.9304604351033
 20
-26.70272888942776
 10
135.9311349696262
 20
-26.99232748934019
 10
135.9789836020252
 20
-27.2818177297165
 10
136.0045416532161
 20
-27.56740393081031
 10
141.9667151712701
 20
-27.56740393081031
 10
147.8282716543816
 20
-27.56740393081031
 10
153.8364558529693
 20
-27.56740393081031
 97
        0
 97
        1
330
80
 92
        1
 93
        1
 72
     4
 94
        3
 73
     0
 74
     0
 95
       32
 96
       28
 40
0.0
 40
0.0
 40
0.0
 40
0.0
 40
1.0
 40
1.0
 40
1.0
 40
2.0
 40
2.0
 40
2.0
 40
3.0
 40
3.0
 40
3.0
 40
4.0
 40
4.0
 40
4.0
 40
5.0
 40
5.0
 40
5.0
 40
6.0
 40
6.0
 40
6.0
 40
7.0
 40
7.0
 40
7.0
 40
8.0
 40
8.0
 40
8.0
 40
9.0
 40
9.0
 40
9.0
 40
9.0
 10
153.8109349321192
 20
-163.3979089321949
 10
153.3596156407513
 20
-163.3979089321949
 10
153.0253806904324
 20
-163.3940575246871
 10
152.691257131136
 20
-163.3984785937555
 10
147.9038071441724
 20
-163.461847250405
 10
143.1164437946709
 20
-163.5326215073431
 10
138.3289071702455
 20
-163.5881387416131
 10
135.460575973379
 20
-163.6214020231774
 10
132.5919662989572
 20
-163.6443742448075
 10
129.7234927691182
 20
-163.6435321364139
 10
128.8690369918479
 20
-163.6432844574748
 10
128.4655353909287
 20
-163.8787280572837
 10
128.4924734531161
 20
-164.8562920632652
 10
128.5612945396281
 20
-167.3533663625655
 10
128.5490539039727
 20
-169.8543168372669
 10
128.4965392254243
 20
-172.3521837091736
 10
128.4789518207066
 20
-173.1886574073161
 10
128.7115238981531
 20
-173.4342063078538
 10
129.5624151627144
 20
-173.4311474729524
 10
134.6244316424709
 20
-173.412955454852
 10
139.6866523391014
 20
-173.459605783091
 10
144.7488173402202
 20
-173.475296243903
 10
147.7454586178108
 20
-173.4845718201838
 10
150.7421370257422
 20
-173.476980460691
 10
153.8109349321192
 20
-173.476980460691
 10
153.8109349321192
 20
-170.1107264592982
 10
153.8109349321192
 20
-166.8196058641764
 10
153.8109349321192
 20
-163.3979089321949
 97
        0
 97
        1
330
81
 92
        1
 93
        1
 72
     4
 94
        3
 73
     0
 74
     0
 95
       32
 96
       28
 40
0.0
 40
0.0
 40
0.0
 40
0.0
 40
1.0
 40
1.0
 40
1.0
 40
2.0
 40
2.0
 40
2.0
 40
3.0
 40
3.0
 40
3.0
 40
4.0
 40
4.0
 40
4.0
 40
5.0
 40
5.0
 40
5.0
 40
6.0
 40
6.0
 40
6.0
 40
7.0
 40
7.0
 40
7.0
 40
8.0
 40
8.0
 40
8.0
 40
9.0
 40
9.0
 40
9.0
 40
9.0
 10
157.4009438078655
 20
-196.3832328060285
 10
158.6006251163053
 20
-196.0889035383736
 10
159.6527875810928
 20
-195.8587354999739
 10
160.688872608351
 20
-195.5707220452737
 10
162.7652383913675
 20
-194.9935558127524
 10
164.8112068021203
 20
-194.2903086161205
 10
166.9087492561241
 20
-193.8096628662902
 10
170.6805482800016
 20
-192.9453500553563
 10
173.4051850583087
 20
-190.7138990346325
 10
175.5001902723627
 20
-187.5779616790026
 10
175.9596411083464
 20
-186.8902191839786
 10
176.5972185655111
 20
-186.2442601260349
 10
176.809319448445
 20
-185.4832418167844
 10
177.3927237385097
 20
-183.3899337245204
 10
177.830255296692
 20
-181.2529722191847
 10
178.2528233275679
 20
-179.1188961734931
 10
178.4910144632417
 20
-177.9159443326429
 10
178.0163401875659
 20
-177.435286198865
 10
176.7820162712403
 20
-177.4309765853187
 10
170.7030121361329
 20
-177.4097381162639
 10
164.6240080010248
 20
-177.3889950050879
 10
158.5450038659174
 20
-177.3683385815401
 10
158.181275048292
 20
-177.3671001868429
 10
157.8175462306665
 20
-177.3681652062829
 10
157.4009438078655
 20
-177.3681652062829
 10
157.4009438078655
 20
-183.7563623314402
 10
157.4009438078655
 20
-190.0502185485733
 10
157.4009438078655
 20
-196.3832328060285
 97
        0
 97
        1
330
82
 92
        1
 93
        1
 72
     4
 94
        3
 73
     0
 74
     0
 95
       47
 96
       43
 40
0.0
 40
0.0
 40
0.0
 40
0.0
 40
1.0
 40
1.0
 40
1.0
 40
2.0
 40
2.0
 40
2.0
 40
3.0
 40
3.0
 40
3.0
 40
4.0
 40
4.0
 40
4.0
 40
5.0
 40
5.0
 40
5.0
 40
6.0
 40
6.0
 40
6.0
 40
7.0
 40
7.0
 40
7.0
 40
8.0
 40
8.0
 40
8.0
 40
9.0
 40
9.0
 40
9.0
 40
10.0
 40
10.0
 40
10.0
 40
11.0
 40
11.0
 40
11.0
 40
12.0
 40
12.0
 40
12.0
 40
13.0
 40
13.0
 40
13.0
 40
14.0
 40
14.0
 40
14.0
 40
14.0
 10
120.3686457594274
 20
-124.5397211185007
 10
120.3686457594274
 20
-123.9446105468188
 10
120.3686519478177
 20
-123.5118782878174
 10
120.3686519478177
 20
-123.0791460288166
 10
120.3686519478177
 20
-106.4143038851906
 10
120.3686581362076
 20
-89.74946793353884
 10
120.3686395710372
 20
-73.08462578991353
 10
120.3686395710372
 20
-72.17194747408514
 10
120.3482859559365
 20
-71.25864996090847
 10
120.3759728133281
 20
-70.34681375347441
 10
120.3923534819727
 20
-69.80724518395613
 10
120.2474028202189
 20
-69.54422253424323
 10
119.6439976532904
 20
-69.55346095868309
 10
117.8201243755129
 20
-69.58139295107585
 10
115.9954651721899
 20
-69.57354772066988
 10
114.171307228467
 20
-69.55748574144902
 10
113.6168707925492
 20
-69.55261265831589
 10
113.3647681558873
 20
-69.74559789593534
 10
113.4133903370511
 20
-70.32868365510899
 10
113.5111235821982
 20
-71.50089234760469
 10
113.6743114296322
 20
-72.67841375335052
 10
113.6411911657162
 20
-73.84894442103138
 10
113.4793090685972
 20
-79.57009881852617
 10
113.1884485446209
 20
-85.28839871624446
 10
113.0889763618509
 20
-91.01024661476946
 10
113.0204151877241
 20
-94.95394548749102
 10
113.1774950941108
 20
-98.90203446941393
 10
113.2592065972401
 20
-102.8476404699689
 10
113.2863303111309
 20
-104.1570942547684
 10
113.3517044643467
 20
-105.4686533105527
 10
113.4709733071072
 20
-106.7727200784201
 10
113.7691670733741
 20
-110.0331408690009
 10
114.1466712474039
 20
-113.2866390332248
 10
114.4182363709893
 20
-116.5490784071615
 10
114.6186968921091
 20
-118.9572731190516
 10
114.6821650211682
 20
-121.3767619905804
 10
114.8666223654406
 20
-123.7866161513652
 10
114.8870192992721
 20
-124.0531186901764
 10
115.2926373296121
 20
-124.4958324104361
 10
115.5345229341877
 20
-124.506135854316
 10
117.0802033225625
 20
-124.5720184522002
 10
118.6300608742677
 20
-124.5397211185007
 10
120.3686457594274
 20
-124.5397211185007
 97
        0
 97
        1
330
83
 92
        1
 93
        1
 72
     4
 94
        3
 73
     0
 74
     0
 95
       35
 96
       31
 40
0.0
 40
0.0
 40
0.0
 40
0.0
 40
1.0
 40
1.0
 40
1.0
 40
2.0
 40
2.0
 40
2.0
 40
3.0
 40
3.0
 40
3.0
 40
4.0
 40
4.0
 40
4.0
 40
5.0
 40
5.0
 40
5.0
 40
6.0
 40
6.0
 40
6.0
 40
7.0
 40
7.0
 40
7.0
 40
8.0
 40
8.0
 40
8.0
 40
9.0
 40
9.0
 40
9.0
 40
10.0
 40
10.0
 40
10.0
 40
10.0
 10
165.281017003163
 20
-101.8350051261658
 10
163.1580526425511
 20
-101.7141873395186
 10
161.4243751507562
 20
-101.5521557773527
 10
159.6887792580238
 20
-101.5279451610245
 10
152.8809560418386
 20
-101.4329726717057
 10
146.0726253776647
 20
-101.3659383667526
 10
139.2642699599293
 20
-101.3221115784229
 10
136.8415276051801
 20
-101.3065201891865
 10
137.1976508913497
 20
-100.9719430938761
 10
137.1922174848256
 20
-103.4117044865952
 10
137.1774643627821
 20
-110.0330913332123
 10
137.2000705518864
 20
-116.6546020193002
 10
137.1709356112067
 20
-123.2758897943411
 10
137.1672720842564
 20
-124.1090445946968
 10
137.3965333729895
 20
-124.4245999474595
 10
138.2550054154463
 20
-124.3737638451447
 10
139.3653016170095
 20
-124.3079803188358
 10
140.4984329781117
 20
-124.2391503415718
 10
141.5926641189264
 20
-124.3870518202448
 10
143.038494832734
 20
-124.5824457355499
 10
143.8415993487976
 20
-123.799247777275
 10
144.5920777952903
 20
-122.8036898963449
 10
144.6915747316216
 20
-122.6717017895295
 10
144.7634590712416
 20
-122.5151067800839
 10
144.8771521745056
 20
-122.3981775527849
 10
148.9875799056861
 20
-118.1707686469362
 10
153.078798873938
 20
-113.9243008466988
 10
157.2232132436524
 20
-109.7304524371401
 10
159.8035986482886
 20
-107.1192724504508
 10
162.4651633545044
 20
-104.5884023598678
 10
165.281017003163
 20
-101.8350051261658
 97
        0
 97
        1
330
84
 92
        1
 93
        1
 72
     4
 94
        3
 73
     0
 74
     0
 95
       32
 96
       28
 40
0.0
 40
0.0
 40
0.0
 40
0.0
 40
1.0
 40
1.0
 40
1.0
 40
2.0
 40
2.0
 40
2.0
 40
3.0
 40
3.0
 40
3.0
 40
4.0
 40
4.0
 40
4.0
 40
5.0
 40
5.0
 40
5.0
 40
6.0
 40
6.0
 40
6.0
 40
7.0
 40
7.0
 40
7.0
 40
8.0
 40
8.0
 40
8.0
 40
9.0
 40
9.0
 40
9.0
 40
9.0
 10
124.9838295306523
 20
-201.5105955221934
 10
124.9838295306523
 20
-193.3646581158408
 10
124.9838295306523
 20
-185.2927890963198
 10
124.9838295306523
 20
-177.044585055883
 10
123.1362856606701
 20
-177.044585055883
 10
121.386277007351
 20
-177.0468265502847
 10
119.636280730812
 20
-177.0441020819512
 10
116.5278399973342
 20
-177.0392723426322
 10
113.4193930754666
 20
-177.0344549872608
 10
110.3109709071592
 20
-177.0238543286533
 10
107.9797362770977
 20
-177.0159038346986
 10
105.6482541114312
 20
-176.9792968874521
 10
103.317663073942
 20
-177.0116809087812
 10
103.0390184320607
 20
-177.015532316289
 10
102.5014948663374
 20
-177.4308155940085
 10
102.529330245092
 20
-177.5571813888985
 10
102.8764618004188
 20
-179.1331500964562
 10
103.24205951186
 20
-180.711125003424
 10
103.7274768327824
 20
-182.249235985093
 10
104.7664394614459
 20
-185.5413225280776
 10
106.4341425261841
 20
-188.5476494947108
 10
108.5922383775006
 20
-191.1972692527977
 10
110.5613593597576
 20
-193.614888148333
 10
112.9243342427388
 20
-195.7007287205733
 10
115.5519803827129
 20
-197.4239549415615
 10
118.4210727515641
 20
-199.3055099245711
 10
121.6087991392445
 20
-200.4762387354037
 10
124.9838295306523
 20
-201.5105955221934
 97
        0
 97
        1
330
85
 92
        1
 93
        1
 72
     4
 94
        3
 73
     0
 74
     0
 95
       32
 96
       28
 40
0.0
 40
0.0
 40
0.0
 40
0.0
 40
1.0
 40
1.0
 40
1.0
 40
2.0
 40
2.0
 40
2.0
 40
3.0
 40
3.0
 40
3.0
 40
4.0
 40
4.0
 40
4.0
 40
5.0
 40
5.0
 40
5.0
 40
6.0
 40
6.0
 40
6.0
 40
7.0
 40
7.0
 40
7.0
 40
8.0
 40
8.0
 40
8.0
 40
9.0
 40
9.0
 40
9.0
 40
9.0
 10
136.4540848766195
 20
-84.37458726926825
 10
132.4312476191805
 20
-84.24752178137426
 10
128.6670850687095
 20
-84.14077215848598
 10
124.9041911382128
 20
-83.99983664998456
 10
124.1217187148055
 20
-83.97053003947839
 10
123.9370633420491
 20
-84.3054786531977
 10
123.9378987747155
 20
-85.02330794738702
 10
123.9527694761708
 20
-97.82710168037427
 10
123.9532893009408
 20
-110.6309139892813
 10
123.9370014581479
 20
-123.4347139142421
 10
123.9360484460694
 20
-124.1847228946352
 10
124.1873218384555
 20
-124.4400798811734
 10
124.9356034064562
 20
-124.4298012051874
 10
127.4336460921713
 20
-124.3955100560253
 10
129.9338423376478
 20
-124.3672003532504
 10
132.4302760419319
 20
-124.4389281741051
 10
133.4708043332953
 20
-124.4688354060397
 10
133.7358468936958
 20
-124.1352490264868
 10
133.7326227424436
 20
-123.1187622751758
 10
133.6981719746522
 20
-112.2744742794064
 10
133.7240703872992
 20
-101.4300129083795
 10
133.6905973851466
 20
-90.58571872063659
 10
133.6873979874553
 20
-89.54750433436556
 10
133.9961491472646
 20
-88.6916373752658
 10
134.5016849244636
 20
-87.83784472728376
 10
135.1314216913476
 20
-86.77427420958961
 10
135.7181677120759
 20
-85.68522991297696
 10
136.4540848766195
 20
-84.37458726926825
 97
        0
 97
        1
330
86
 92
        1
 93
        1
 72
     4
 94
        3
 73
     0
 74
     0
 95
       38
 96
       34
 40
0.0
 40
0.0
 40
0.0
 40
0.0
 40
1.0
 40
1.0
 40
1.0
 40
2.0
 40
2.0
 40
2.0
 40
3.0
 40
3.0
 40
3.0
 40
4.0
 40
4.0
 40
4.0
 40
5.0
 40
5.0
 40
5.0
 40
6.0
 40
6.0
 40
6.0
 40
7.0
 40
7.0
 40
7.0
 40
8.0
 40
8.0
 40
8.0
 40
9.0
 40
9.0
 40
9.0
 40
10.0
 40
10.0
 40
10.0
 40
11.0
 40
11.0
 40
11.0
 40
11.0
 10
166.0649498866389
 20
-65.73146532481745
 10
165.8505840529215
 20
-61.12700238554775
 10
165.6478028855073
 20
-56.67725828775797
 10
165.4345014548908
 20
-52.22802812376742
 10
165.32250397052
 20
-49.89228569362998
 10
165.2871311326006
 20
-47.62077260445582
 10
163.9182468615309
 20
-45.470241389227
 10
162.1423521723449
 20
-42.68034556781532
 10
160.7434789627592
 20
-39.649888480509
 10
159.1879404689252
 20
-36.71998285063239
 10
158.3615923595749
 20
-35.16353433948701
 10
157.5840087643614
 20
-33.57925909949791
 10
156.6976085172975
 20
-32.05818842886134
 10
156.5104963536642
 20
-31.7370881638419
 10
155.9553853832236
 20
-31.49368478211743
 10
155.5509369586161
 20
-31.46289828994816
 10
154.476186869895
 20
-31.38109612823248
 10
153.3880946120782
 20
-31.48458258109409
 10
152.3111662100357
 20
-31.41863806347434
 10
151.4966626793737
 20
-31.36875862106285
 10
151.2817893976665
 20
-31.65066988589304
 10
151.2836087843619
 20
-32.45117131407308
 10
151.3081148092317
 20
-43.2331309047382
 10
151.3089192999482
 20
-54.01518647099246
 10
151.2824206134586
 20
-64.79713367771059
 10
151.2804031982798
 20
-65.61773734781084
 10
151.5315528228636
 20
-65.82496412444694
 10
152.3218968785018
 20
-65.81840063255261
 10
156.54409931201
 20
-65.78335406262533
 10
160.7667225560453
 20
-65.80332317711546
 10
164.9892096554991
 20
-65.79911263514571
 10
165.3175903887655
 20
-65.79878446055061
 10
165.6459339916911
 20
-65.75890195933116
 10
166.0649498866389
 20
-65.73146532481745
 97
        0
 97
        1
330
87
 92
        1
 93
        1
 72
     4
 94
        3
 73
     0
 74
     0
 95
       35
 96
       31
 40
0.0
 40
0.0
 40
0.0
 40
0.0
 40
1.0
 40
1.0
 40
1.0
 40
2.0
 40
2.0
 40
2.0
 40
3.0
 40
3.0
 40
3.0
 40
4.0
 40
4.0
 40
4.0
 40
5.0
 40
5.0
 40
5.0
 40
6.0
 40
6.0
 40
6.0
 40
7.0
 40
7.0
 40
7.0
 40
8.0
 40
8.0
 40
8.0
 40
9.0
 40
9.0
 40
9.0
 40
10.0
 40
10.0
 40
10.0
 40
10.0
 10
166.131734992801
 20
-83.73262203422207
 10
166.131734992801
 20
-79.30272321145288
 10
166.1128727797185
 20
-74.87267578132019
 10
166.1488644566502
 20
-70.44306798130515
 10
166.1554612805167
 20
-69.63067486804661
 10
165.9071706921683
 20
-69.40196194341571
 10
165.1066281696136
 20
-69.40876073030274
 10
160.9161598006357
 20
-69.44432742600309
 10
156.7247631731396
 20
-69.45986308747804
 10
152.5348270057112
 20
-69.40075450858628
 10
151.5083092295775
 20
-69.38627148260408
 10
151.29706234448
 20
-69.74206227907531
 10
151.3163577448707
 20
-70.68014626211412
 10
151.4204712202304
 20
-75.73919293481482
 10
151.4623913748955
 20
-80.79949038615941
 10
151.5392388033907
 20
-85.85914387226143
 10
151.5950209519224
 20
-89.53266836589461
 10
151.6857798814054
 20
-93.2057098855954
 10
151.7265242419477
 20
-96.87935202672463
 10
151.7340988314536
 20
-97.56245054163478
 10
151.9205921560753
 20
-97.83435867329911
 10
152.6477403718197
 20
-97.84032154376561
 10
156.7586136670895
 20
-97.87401207149965
 10
160.8699449032277
 20
-97.92207416969334
 10
164.9791720867263
 20
-98.0358392985406
 10
165.9586333443969
 20
-98.06295395043333
 10
166.1602882248096
 20
-97.72784434540289
 10
166.1512407984561
 20
-96.81922796418138
 10
166.1078230533819
 20
-92.45739131396412
 10
166.131734992801
 20
-88.09488593060999
 10
166.131734992801
 20
-83.73262203422207
 97
        0
 97
        1
330
88
 92
        1
 93
        1
 72
     4
 94
        3
 73
     0
 74
     0
 95
       38
 96
       34
 40
0.0
 40
0.0
 40
0.0
 40
0.0
 40
1.0
 40
1.0
 40
1.0
 40
2.0
 40
2.0
 40
2.0
 40
3.0
 40
3.0
 40
3.0
 40
4.0
 40
4.0
 40
4.0
 40
5.0
 40
5.0
 40
5.0
 40
6.0
 40
6.0
 40
6.0
 40
7.0
 40
7.0
 40
7.0
 40
8.0
 40
8.0
 40
8.0
 40
9.0
 40
9.0
 40
9.0
 40
10.0
 40
10.0
 40
10.0
 40
11.0
 40
11.0
 40
11.0
 40
11.0
 10
135.7421910425176
 20
-31.43583626983011
 10
135.7421910425176
 20
-31.95196821970602
 10
135.7395052812061
 20
-32.32130086218989
 10
135.7425870994849
 20
-32.69058396888614
 10
135.8111358968315
 20
-40.89866402113828
 10
135.8811018355151
 20
-49.1067347854305
 10
135.9489142144377
 20
-57.31482722162994
 10
135.9701342041554
 20
-59.88326401534882
 10
136.0049377101834
 20
-62.45185560840533
 10
135.9911004698779
 20
-65.02014379476102
 10
135.9875297687793
 20
-65.68355183398725
 10
136.196264167488
 20
-65.89318109633552
 10
136.8619492925726
 20
-65.88767023993366
 10
140.2734231133903
 20
-65.85942245689307
 10
143.6852434840544
 20
-65.87551539598205
 10
147.0969400869162
 20
-65.87174448412929
 10
147.2909337403621
 20
-65.87152776505707
 10
147.4848778866868
 20
-65.83264217156894
 10
147.7300000192944
 20
-65.80624578860069
 10
147.7562387933982
 20
-65.53267201606849
 10
147.7970079075015
 20
-65.30571761190784
 10
147.7970821681825
 20
-65.07875082380022
 10
147.800213493583
 20
-54.12796707605568
 10
147.7920695721867
 20
-43.17716475239034
 10
147.8164889595957
 20
-32.22643673240692
 10
147.818196955268
 20
-31.45785183155725
 10
147.5150648536867
 20
-31.34630342921806
 10
146.8612490608501
 20
-31.35093502538498
 10
143.4834895893997
 20
-31.37486390691937
 10
140.1054949591252
 20
-31.3603901688974
 10
136.7275807779222
 20
-31.36494436539566
 10
136.4311507028389
 20
-31.3653437476856
 10
136.1347825116574
 20
-31.40643987570829
 10
135.7421910425176
 20
-31.43583626983011
 97
        0
 97
        1
330
89
 92
        1
 93
        1
 72
     4
 94
        3
 73
     0
 74
     0
 95
       35
 96
       31
 40
0.0
 40
0.0
 40
0.0
 40
0.0
 40
1.0
 40
1.0
 40
1.0
 40
2.0
 40
2.0
 40
2.0
 40
3.0
 40
3.0
 40
3.0
 40
4.0
 40
4.0
 40
4.0
 40
5.0
 40
5.0
 40
5.0
 40
6.0
 40
6.0
 40
6.0
 40
7.0
 40
7.0
 40
7.0
 40
8.0
 40
8.0
 40
8.0
 40
9.0
 40
9.0
 40
9.0
 40
10.0
 40
10.0
 40
10.0
 40
10.0
 10
128.6784717065281
 20
-128.1005888465398
 10
128.6425728554488
 20
-128.5820519368712
 10
128.5920694036887
 20
-128.9445919844415
 10
128.5919146939361
 20
-129.3071567999058
 10
128.5876261395836
 20
-139.1786238413838
 10
128.5966116820361
 20
-149.0501032668075
 10
128.5729534666116
 20
-158.9215083885498
 10
128.5710721960156
 20
-159.7069230733332
 10
128.7627018844358
 20
-159.9846826199414
 10
129.5903557441012
 20
-159.9639271248184
 10
133.674934569756
 20
-159.8615614191577
 10
137.7608253341157
 20
-159.8008676950538
 10
141.8465985190633
 20
-159.7663040990579
 10
142.6004310730008
 20
-159.7599263663684
 10
142.7473063240817
 20
-159.4188600828456
 10
142.7526159628035
 20
-158.776764816356
 10
142.7716019436883
 20
-156.4797160285281
 10
142.8288940594083
 20
-154.1830016072688
 10
142.8589943889467
 20
-151.8860147391758
 10
142.9595185980369
 20
-144.2153360657222
 10
143.0472080860206
 20
-136.5444840170107
 10
143.1643171806299
 20
-128.8740777903901
 10
143.1746889224694
 20
-128.1948182990405
 10
142.944864490235
 20
-127.9853686039235
 10
142.2936230676877
 20
-128.0054553659099
 10
140.50563626421
 20
-128.0606258496656
 10
138.7163870291473
 20
-128.0876104701144
 10
136.9274781555409
 20
-128.0969231982362
 10
134.2265367229992
 20
-128.1109789780487
 10
131.5254653342648
 20
-128.1005888465398
 10
128.6784717065281
 20
-128.1005888465398
 97
        0
 97
        1
330
8A
 92
        1
 93
        1
 72
     4
 94
        3
 73
     0
 74
     0
 95
       44
 96
       40
 40
0.0
 40
0.0
 40
0.0
 40
0.0
 40
1.0
 40
1.0
 40
1.0
 40
2.0
 40
2.0
 40
2.0
 40
3.0
 40
3.0
 40
3.0
 40
4.0
 40
4.0
 40
4.0
 40
5.0
 40
5.0
 40
5.0
 40
6.0
 40
6.0
 40
6.0
 40
7.0
 40
7.0
 40
7.0
 40
8.0
 40
8.0
 40
8.0
 40
9.0
 40
9.0
 40
9.0
 40
10.0
 40
10.0
 40
10.0
 40
11.0
 40
11.0
 40
11.0
 40
12.0
 40
12.0
 40
12.0
 40
13.0
 40
13.0
 40
13.0
 40
13.0
 10
125.0231938801986
 20
-128.1256291873145
 10
121.8947708350267
 20
-128.1256291873145
 10
118.860640290096
 20
-128.1654188089322
 10
115.8287932611192
 20
-128.0995981307824
 10
114.9980637715652
 20
-128.0815671039928
 10
114.7415488127483
 20
-128.5006522534322
 10
114.6667621181624
 20
-129.114970326866
 10
114.4224320994897
 20
-131.1219994605839
 10
114.2353880081475
 20
-133.1360255243407
 10
114.0285658219854
 20
-135.147599566597
 10
114.0078780338181
 20
-135.3487644011907
 10
114.039772996491
 20
-135.5623503345962
 10
113.9844611656087
 20
-135.7518247232502
 10
113.4059333269579
 20
-137.7333553101551
 10
112.8173679195345
 20
-139.7119880534694
 10
112.2259125339256
 20
-141.6897043847074
 10
111.730711368225
 20
-143.3455619341744
 10
111.2905249906815
 20
-145.0215433974688
 10
110.7093794630104
 20
-146.6468869015995
 10
110.2163627990221
 20
-148.02575270917
 10
109.546327235684
 20
-149.3405315911672
 10
108.972941949222
 20
-150.6914592143724
 10
107.793564748762
 20
-153.4701196998936
 10
106.6464352492115
 20
-156.2626749739177
 10
105.4448417282245
 20
-159.0316140610679
 10
104.9336002553361
 20
-160.2097113203482
 10
104.9549006941254
 20
-160.3022194042198
 10
106.2757506810921
 20
-160.2865165594609
 10
112.1795800571059
 20
-160.2162995801365
 10
118.0832299698059
 20
-160.1187512298471
 10
123.9872326207424
 20
-160.0897108742008
 10
124.8972477644994
 20
-160.0852278853973
 10
125.1087483735914
 20
-159.8217841814876
 10
125.1060873658403
 20
-158.9443567707114
 10
125.0760674853741
 20
-149.0454964385348
 10
125.0877264123577
 20
-139.1464874989944
 10
125.0844775075451
 20
-129.247528095242
 10
125.0843537397428
 20
-128.8862388263152
 10
125.0459300254949
 20
-128.5249495573891
 10
125.0231938801986
 20
-128.1256291873145
 97
        0
 97
        1
330
8B
 92
        1
 93
        1
 72
     4
 94
        3
 73
     0
 74
     0
 95
       38
 96
       34
 40
0.0
 40
0.0
 40
0.0
 40
0.0
 40
1.0
 40
1.0
 40
1.0
 40
2.0
 40
2.0
 40
2.0
 40
3.0
 40
3.0
 40
3.0
 40
4.0
 40
4.0
 40
4.0
 40
5.0
 40
5.0
 40
5.0
 40
6.0
 40
6.0
 40
6.0
 40
7.0
 40
7.0
 40
7.0
 40
8.0
 40
8.0
 40
8.0
 40
9.0
 40
9.0
 40
9.0
 40
10.0
 40
10.0
 40
10.0
 40
11.0
 40
11.0
 40
11.0
 40
11.0
 10
128.6651914213331
 20
-202.4009517736071
 10
129.6033575517407
 20
-202.5129274221166
 10
130.4254975558101
 20
-202.6717143901767
 10
131.2518270999898
 20
-202.6977702146034
 10
133.3352971548629
 20
-202.7634918211774
 10
135.4258095976914
 20
-202.8742662268307
 10
137.5039081299413
 20
-202.7719748248525
 10
139.9372326317938
 20
-202.6521725218568
 10
142.3143665513662
 20
-202.0832539980179
 10
144.6831461442791
 20
-201.5072642404583
 10
147.5306595967859
 20
-200.8148529974261
 10
150.3571201461083
 20
-200.1078286969689
 10
152.993126801133
 20
-198.7460651201654
 10
153.6883057935236
 20
-198.3869182740651
 10
153.8175936398868
 20
-198.0140623986678
 10
153.8165416135669
 20
-197.3627906274721
 10
153.8063679002114
 20
-191.0400178941625
 10
153.7965654902628
 20
-184.7171337053294
 10
153.8272846588129
 20
-178.3944848114884
 10
153.8313071123906
 20
-177.5668904033238
 10
153.6153322972429
 20
-177.3007222310793
 10
152.7573367608243
 20
-177.3002268732005
 10
145.0873099029411
 20
-177.2958305720267
 10
137.4171469004754
 20
-177.2638552209475
 10
129.7475717950704
 20
-177.1859478105544
 10
128.7876225314446
 20
-177.1761892603412
 10
128.5665422944487
 20
-177.4672739338905
 10
128.5704162266631
 20
-178.377803634919
 10
128.6026267972314
 20
-185.9515036196445
 10
128.5876013860232
 20
-193.5254141314688
 10
128.5917042886716
 20
-201.0992503396113
 10
128.591920882326
 20
-201.5012827940717
 10
128.6359389012416
 20
-201.9032904806381
 10
128.6651914213331
 20
-202.4009517736071
 97
        0
 97
        1
330
8C
 92
        1
 93
        1
 72
     4
 94
        3
 73
     0
 74
     0
 95
       44
 96
       40
 40
0.0
 40
0.0
 40
0.0
 40
0.0
 40
1.0
 40
1.0
 40
1.0
 40
2.0
 40
2.0
 40
2.0
 40
3.0
 40
3.0
 40
3.0
 40
4.0
 40
4.0
 40
4.0
 40
5.0
 40
5.0
 40
5.0
 40
6.0
 40
6.0
 40
6.0
 40
7.0
 40
7.0
 40
7.0
 40
8.0
 40
8.0
 40
8.0
 40
9.0
 40
9.0
 40
9.0
 40
10.0
 40
10.0
 40
10.0
 40
11.0
 40
11.0
 40
11.0
 40
12.0
 40
12.0
 40
12.0
 40
13.0
 40
13.0
 40
13.0
 40
13.0
 10
172.2520156900015
 20
-159.3402715553683
 10
172.0426129451599
 20
-158.8509941944984
 10
171.8878908154088
 20
-158.5604172627761
 10
171.7914880741371
 20
-158.2516111611119
 10
171.4216822574155
 20
-157.0670247136185
 10
171.0363312047141
 20
-155.885658092338
 10
170.7198445572561
 20
-154.6864090516318
 10
170.1176028076699
 20
-152.404344839639
 10
169.3511583146703
 20
-150.1390113400042
 10
169.0359836059172
 20
-147.8147178688409
 10
168.6679352919893
 20
-145.1006520507188
 10
168.6454590590775
 20
-142.3322826251286
 10
168.5894046213809
 20
-139.5851021328066
 10
168.5170252105508
 20
-136.0375347638133
 10
168.5340432833775
 20
-132.4873419980629
 10
168.571829593443
 20
-128.9389077527818
 10
168.5809512804781
 20
-128.0831894010459
 10
168.3158158942261
 20
-127.8468665410024
 10
167.4763855281653
 20
-127.8538015513062
 10
160.8897601283887
 20
-127.9081918464019
 10
154.302775801985
 20
-127.9315479703879
 10
147.7159276201641
 20
-127.9275603394639
 10
146.9608078810819
 20
-127.9271021334261
 10
146.7406992213351
 20
-128.1372948653615
 10
146.7358351467014
 20
-128.8958116173237
 10
146.7148688809792
 20
-132.1698423656255
 10
146.6110524483448
 20
-135.4432415326317
 10
146.5693922060648
 20
-138.7172846648799
 10
146.4890050184207
 20
-145.0328004052653
 10
146.4270592333314
 20
-151.3485514406434
 10
146.3644079717677
 20
-157.6642777081269
 10
146.3441224289583
 20
-159.7091521837879
 10
146.3540981138299
 20
-159.7146011204548
 10
148.3021785696831
 20
-159.6946258139906
 10
155.8978952390196
 20
-159.6167431714915
 10
163.493599531575
 20
-159.5364085074925
 10
171.0892295634506
 20
-159.4509716573403
 10
171.4425495088963
 20
-159.4469964103626
 10
171.7952258617687
 20
-159.3853119705012
 10
172.2520156900015
 20
-159.3402715553683
 97
        0
 97
        1
330
8D
 92
        1
 93
        1
 72
     4
 94
        3
 73
     0
 74
     0
 95
       80
 96
       76
 40
0.0
 40
0.0
 40
0.0
 40
0.0
 40
1.0
 40
1.0
 40
1.0
 40
2.0
 40
2.0
 40
2.0
 40
3.0
 40
3.0
 40
3.0
 40
4.0
 40
4.0
 40
4.0
 40
5.0
 40
5.0
 40
5.0
 40
6.0
 40
6.0
 40
6.0
 40
7.0
 40
7.0
 40
7.0
 40
8.0
 40
8.0
 40
8.0
 40
9.0
 40
9.0
 40
9.0
 40
10.0
 40
10.0
 40
10.0
 40
11.0
 40
11.0
 40
11.0
 40
12.0
 40
12.0
 40
12.0
 40
13.0
 40
13.0
 40
13.0
 40
14.0
 40
14.0
 40
14.0
 40
15.0
 40
15.0
 40
15.0
 40
16.0
 40
16.0
 40
16.0
 40
17.0
 40
17.0
 40
17.0
 40
18.0
 40
18.0
 40
18.0
 40
19.0
 40
19.0
 40
19.0
 40
20.0
 40
20.0
 40
20.0
 40
21.0
 40
21.0
 40
21.0
 40
22.0
 40
22.0
 40
22.0
 40
23.0
 40
23.0
 40
23.0
 40
24.0
 40
24.0
 40
24.0
 40
25.0
 40
25.0
 40
25.0
 40
25.0
 10
169.5146308280502
 20
-91.79421237775647
 10
169.5983844999183
 20
-91.80307928378775
 10
169.682138171787
 20
-91.81195238179219
 10
169.7658794668753
 20
-91.82081928782347
 10
169.8320581108062
 20
-91.71759908982172
 10
169.9298594282444
 20
-91.62274424799866
 10
169.9596627150568
 20
-91.50990791517434
 10
170.3719580183351
 20
-89.94896093529147
 10
170.6045672261221
 20
-88.3151034676182
 10
171.214940520324
 20
-86.8370979725727
 10
172.5691583068121
 20
-83.55787215851711
 10
174.0230463045544
 20
-80.31222541667236
 10
175.6067172198693
 20
-77.13800308898179
 10
176.7827588780549
 20
-74.78083023861096
 10
178.2601132511277
 20
-72.57604804768978
 10
179.5412585270918
 20
-70.26891872702766
 10
180.6233480464934
 20
-68.32027990327727
 10
181.3972928683172
 20
-66.17827813152439
 10
181.4575306577342
 20
-63.98986132652455
 10
181.5524358085967
 20
-60.54257296812784
 10
181.2598363469975
 20
-57.08412048153704
 10
181.1144710631056
 20
-53.6311045476662
 10
181.0849648190192
 20
-52.93037748424353
 10
180.9954559443406
 20
-52.23098169512012
 10
180.9085461935104
 20
-51.53410603920494
 10
180.6570128887398
 20
-49.5172007077777
 10
180.3840801309388
 20
-47.5029517329755
 10
180.1364578887229
 20
-45.4855850995237
 10
179.9704481353945
 20
-44.13313115485487
 10
179.967712866962
 20
-42.7452219700089
 10
179.6556942371698
 20
-41.42924803712893
 10
178.9678422986798
 20
-38.5280422043572
 10
178.0818257318035
 20
-35.67433809617874
 10
177.3678216566713
 20
-32.7787514793447
 10
176.6466638025608
 20
-29.85419261857242
 10
175.4481582882439
 20
-27.12992242814594
 10
174.0515500294417
 20
-24.49014481191472
 10
172.560977255075
 20
-21.67278139612188
 10
170.7738196958727
 20
-19.0489125077679
 10
168.1292235553631
 20
-17.17897985898984
 10
166.0162348796227
 20
-15.68493870061048
 10
163.7746267036528
 20
-14.38780075107344
 10
161.1668762379106
 20
-13.93465355549108
 10
159.9307205581103
 20
-13.71984780330919
 10
158.6838960937452
 20
-13.56426053754791
 10
157.4397326371308
 20
-13.39814691686162
 10
155.4675298365941
 20
-13.13482860041477
 10
153.4959334982898
 20
-12.86359074987972
 10
151.5190646516039
 20
-12.64020137445351
 10
150.7063062469544
 20
-12.54835892773134
 10
150.5883926616299
 20
-12.95853382732503
 10
150.9526784343665
 20
-13.62397438184792
 10
151.8719266561804
 20
-15.30317567135491
 10
152.7869543959332
 20
-16.98485375025569
 10
153.6844318613098
 20
-18.67577025359696
 10
155.1218463645554
 20
-21.38399239674262
 10
156.5219448753846
 20
-24.11223319016666
 10
157.9776770133814
 20
-26.81047232406063
 10
159.7607873654462
 20
-30.11550009162983
 10
161.5936771276275
 20
-33.39358967855116
 10
163.38863205838
 20
-36.69227067329828
 10
164.8292769012675
 20
-39.33980683230722
 10
166.2621367493852
 20
-41.99191266774782
 10
167.6626313171823
 20
-44.66081423126783
 10
168.1017842335755
 20
-45.49768111972745
 10
168.7288166739783
 20
-46.38728195037571
 10
168.7530256561228
 20
-47.26699419936739
 10
168.9682454876767
 20
-55.08374771931575
 10
169.8329987461042
 20
-62.87029060062835
 10
169.5619596356791
 20
-70.71478416179154
 10
169.3320980731044
 20
-77.36781199291925
 10
169.5145936977087
 20
-84.03509374701027
 10
169.5146184512697
 20
-90.69607207209333
 10
169.5146184512697
 20
-91.06211677665655
 10
169.5146308280502
 20
-91.42816767319326
 10
169.5146308280502
 20
-91.79421237775647
 97
        0
 97
        1
330
8E
 92
        1
 93
        1
 72
     4
 94
        3
 73
     0
 74
     0
 95
       47
 96
       43
 40
0.0
 40
0.0
 40
0.0
 40
0.0
 40
1.0
 40
1.0
 40
1.0
 40
2.0
 40
2.0
 40
2.0
 40
3.0
 40
3.0
 40
3.0
 40
4.0
 40
4.0
 40
4.0
 40
5.0
 40
5.0
 40
5.0
 40
6.0
 40
6.0
 40
6.0
 40
7.0
 40
7.0
 40
7.0
 40
8.0
 40
8.0
 40
8.0
 40
9.0
 40
9.0
 40
9.0
 40
10.0
 40
10.0
 40
10.0
 40
11.0
 40
11.0
 40
11.0
 40
12.0
 40
12.0
 40
12.0
 40
13.0
 40
13.0
 40
13.0
 40
14.0
 40
14.0
 40
14.0
 40
14.0
 10
131.9975281093109
 20
-12.4189048860652
 10
128.5943096009122
 20
-12.61761150718559
 10
125.4512881434501
 20
-12.79711372254058
 10
122.3088236410984
 20
-12.98578470263428
 10
119.4004721253335
 20
-13.16039680692936
 10
116.5734422441201
 20
-13.609605907375
 10
114.2002070103222
 20
-15.50596899497488
 10
113.0506269082843
 20
-16.42455135752193
 10
111.7807259371658
 20
-17.23592124716179
 10
110.7951072313269
 20
-18.30746238272481
 10
108.6429027274036
 20
-20.64731473526372
 10
106.9207294528391
 20
-23.29475337068983
 10
105.9302652375371
 20
-26.35680809869198
 10
105.0782786279249
 20
-28.99077145182049
 10
104.8921504183203
 20
-31.68896724190002
 10
105.2300488955894
 20
-34.42747277936965
 10
105.6291134207934
 20
-37.66172319401401
 10
107.137805801428
 20
-40.54962866773963
 10
108.1093521081368
 20
-43.60527779917119
 10
108.8730118255829
 20
-46.0070731064645
 10
109.766268808898
 20
-48.37664538373989
 10
110.3591165822838
 20
-50.81953372306915
 10
110.6109902485108
 20
-51.85740135882523
 10
111.0823908658141
 20
-52.07094394841658
 10
111.9227309252229
 20
-52.08684493632696
 10
113.5102138888508
 20
-52.11688219970461
 10
115.0980929094459
 20
-52.12535901140618
 10
116.685631568585
 20
-52.15296902117767
 10
121.6492155151109
 20
-52.23927893959041
 10
126.6128427803676
 20
-52.32437523120055
 10
131.5760925538273
 20
-52.42736632618308
 10
132.1708587281499
 20
-52.43971312131328
 10
132.3288792698346
 20
-52.18653570944185
 10
132.319844220261
 20
-51.6403664961883
 10
132.2505156857595
 20
-47.45026113460163
 10
132.1809581808238
 20
-43.2600288375587
 10
132.1443600416609
 20
-39.06954576558932
 10
132.0826494153958
 20
-32.00468977794735
 10
132.0428333133714
 20
-24.93963564715395
 10
131.9991742210823
 20
-17.87462950415478
 10
131.9881836402317
 20
-16.0960810960614
 10
131.9975281093109
 20
-14.31740575251143
 10
131.9975281093109
 20
-12.4189048860652
 97
        0
 97
        1
330
8F
 92
        1
 93
        1
 72
     4
 94
        3
 73
     0
 74
     0
 95
      311
 96
      307
 40
0.0
 40
0.0
 40
0.0
 40
0.0
 40
1.0
 40
1.0
 40
1.0
 40
2.0
 40
2.0
 40
2.0
 40
3.0
 40
3.0
 40
3.0
 40
4.0
 40
4.0
 40
4.0
 40
5.0
 40
5.0
 40
5.0
 40
6.0
 40
6.0
 40
6.0
 40
7.0
 40
7.0
 40
7.0
 40
8.0
 40
8.0
 40
8.0
 40
9.0
 40
9.0
 40
9.0
 40
10.0
 40
10.0
 40
10.0
 40
11.0
 40
11.0
 40
11.0
 40
12.0
 40
12.0
 40
12.0
 40
13.0
 40
13.0
 40
13.0
 40
14.0
 40
14.0
 40
14.0
 40
15.0
 40
15.0
 40
15.0
 40
16.0
 40
16.0
 40
16.0
 40
17.0
 40
17.0
 40
17.0
 40
18.0
 40
18.0
 40
18.0
 40
19.0
 40
19.0
 40
19.0
 40
20.0
 40
20.0
 40
20.0
 40
21.0
 40
21.0
 40
21.0
 40
22.0
 40
22.0
 40
22.0
 40
23.0
 40
23.0
 40
23.0
 40
24.0
 40
24.0
 40
24.0
 40
25.0
 40
25.0
 40
25.0
 40
26.0
 40
26.0
 40
26.0
 40
27.0
 40
27.0
 40
27.0
 40
28.0
 40
28.0
 40
28.0
 40
29.0
 40
29.0
 40
29.0
 40
30.0
 40
30.0
 40
30.0
 40
31.0
 40
31.0
 40
31.0
 40
32.0
 40
32.0
 40
32.0
 40
33.0
 40
33.0
 40
33.0
 40
34.0
 40
34.0
 40
34.0
 40
35.0
 40
35.0
 40
35.0
 40
36.0
 40
36.0
 40
36.0
 40
37.0
 40
37.0
 40
37.0
 40
38.0
 40
38.0
 40
38.0
 40
39.0
 40
39.0
 40
39.0
 40
40.0
 40
40.0
 40
40.0
 40
41.0
 40
41.0
 40
41.0
 40
42.0
 40
42.0
 40
42.0
 40
43.0
 40
43.0
 40
43.0
 40
44.0
 40
44.0
 40
44.0
 40
45.0
 40
45.0
 40
45.0
 40
46.0
 40
46.0
 40
46.0
 40
47.0
 40
47.0
 40
47.0
 40
48.0
 40
48.0
 40
48.0
 40
49.0
 40
49.0
 40
49.0
 40
50.0
 40
50.0
 40
50.0
 40
51.0
 40
51.0
 40
51.0
 40
52.0
 40
52.0
 40
52.0
 40
53.0
 40
53.0
 40
53.0
 40
54.0
 40
54.0
 40
54.0
 40
55.0
 40
55.0
 40
55.0
 40
56.0
 40
56.0
 40
56.0
 40
57.0
 40
57.0
 40
57.0
 40
58.0
 40
58.0
 40
58.0
 40
59.0
 40
59.0
 40
59.0
 40
60.0
 40
60.0
 40
60.0
 40
61.0
 40
61.0
 40
61.0
 40
62.0
 40
62.0
 40
62.0
 40
63.0
 40
63.0
 40
63.0
 40
64.0
 40
64.0
 40
64.0
 40
65.0
 40
65.0
 40
65.0
 40
66.0
 40
66.0
 40
66.0
 40
67.0
 40
67.0
 40
67.0
 40
68.0
 40
68.0
 40
68.0
 40
69.0
 40
69.0
 40
69.0
 40
70.0
 40
70.0
 40
70.0
 40
71.0
 40
71.0
 40
71.0
 40
72.0
 40
72.0
 40
72.0
 40
73.0
 40
73.0
 40
73.0
 40
74.0
 40
74.0
 40
74.0
 40
75.0
 40
75.0
 40
75.0
 40
76.0
 40
76.0
 40
76.0
 40
77.0
 40
77.0
 40
77.0
 40
78.0
 40
78.0
 40
78.0
 40
79.0
 40
79.0
 40
79.0
 40
80.0
 40
80.0
 40
80.0
 40
81.0
 40
81.0
 40
81.0
 40
82.0
 40
82.0
 40
82.0
 40
83.0
 40
83.0
 40
83.0
 40
84.0
 40
84.0
 40
84.0
 40
85.0
 40
85.0
 40
85.0
 40
86.0
 40
86.0
 40
86.0
 40
87.0
 40
87.0
 40
87.0
 40
88.0
 40
88.0
 40
88.0
 40
89.0
 40
89.0
 40
89.0
 40
90.0
 40
90.0
 40
90.0
 40
91.0
 40
91.0
 40
91.0
 40
92.0
 40
92.0
 40
92.0
 40
93.0
 40
93.0
 40
93.0
 40
94.0
 40
94.0
 40
94.0
 40
95.0
 40
95.0
 40
95.0
 40
96.0
 40
96.0
 40
96.0
 40
97.0
 40
97.0
 40
97.0
 40
98.0
 40
98.0
 40
98.0
 40
99.0
 40
99.0
 40
99.0
 40
100.0
 40
100.0
 40
100.0
 40
101.0
 40
101.0
 40
101.0
 40
102.0
 40
102.0
 40
102.0
 40
102.0
 10
108.6247769327452
 20
-95.76284632770398
 10
100.2336479162634
 20
-95.76284632770398
 10
91.8638874108614
 20
-95.76284632770398
 10
83.45051113190178
 20
-95.76284632770398
 10
83.45051113190178
 20
-94.49957847313193
 10
83.45051113190178
 20
-93.29282476056151
 10
83.45051113190178
 20
-91.93677637528448
 10
83.7858259562966
 20
-91.93677637528448
 10
84.1402195874277
 20
-91.93677637528448
 10
84.49461631275388
 20
-91.93677637528448
 10
92.26696820125228
 20
-91.93677637528448
 10
100.0393572200918
 20
-91.9246029554124
 10
107.8116039059583
 20
-91.95395910170651
 10
108.6722480733472
 20
-91.95720988778621
 10
108.9871381161544
 20
-91.75946921453
 10
108.9819336800649
 20
-90.83459890290905
 10
108.97022524596
 20
-88.75407104391916
 10
109.0546163220105
 20
-86.670657725285
 10
109.1700916816285
 20
-84.59231563293538
 10
109.3367574043093
 20
-81.59273172542755
 10
109.7705449864701
 20
-78.59241716504826
 10
109.7091747216614
 20
-75.60023266585528
 10
109.6503726387521
 20
-72.73292169594251
 10
109.1047794123139
 20
-69.87563553110252
 10
108.7748330163475
 20
-67.01374872996274
 10
108.7594424901219
 20
-66.88026216556443
 10
108.7540214603776
 20
-66.74478178570381
 10
108.7552096312806
 20
-66.61033546541545
 10
108.7737438596865
 20
-64.51526266070811
 10
108.4283821839339
 20
-62.47461111096417
 10
107.9732879745936
 20
-60.43270259060288
 10
107.6448144154754
 20
-58.95892621344758
 10
107.6241204389176
 20
-57.41746537412373
 10
107.3120894323452
 20
-55.93874780212722
 10
106.9524697057587
 20
-54.23445663605729
 10
106.4165179911259
 20
-52.56778790088525
 10
105.9713870898767
 20
-50.88102001977912
 10
105.7977037328013
 20
-50.22286896604192
 10
105.7048716926286
 20
-49.54128748463613
 10
105.502047206483
 20
-48.8933098433355
 10
104.9832620860399
 20
-47.23600027608644
 10
104.4412209955301
 20
-45.58540280809519
 10
103.874649126589
 20
-43.94380846955205
 10
103.3605733710261
 20
-42.45429519178361
 10
102.7378851804874
 20
-40.9997015484865
 10
102.2795235011645
 20
-39.49421917109927
 10
101.7426682815742
 20
-37.7309339776475
 10
101.1300795437091
 20
-35.95202024311807
 10
100.9255408735009
 20
-34.13754290887569
 10
100.7379522038286
 20
-32.47348409052754
 10
101.0472541303588
 20
-30.75296376195276
 10
101.1447707818512
 20
-29.0577283571053
 10
101.1541090625406
 20
-28.89543054007925
 10
101.2411858999033
 20
-28.7369407867469
 10
101.2465202921854
 20
-28.57517547944056
 10
101.3047716083741
 20
-26.80704816272282
 10
102.0368024639231
 20
-25.24373584896906
 10
102.6164070824543
 20
-23.61059045824645
 10
103.7341912360613
 20
-20.46099825308797
 10
105.6832061388222
 20
-17.92366374218552
 10
107.8038065344087
 20
-15.40975501497216
 10
109.528319020438
 20
-13.36539447311073
 10
111.6756037542169
 20
-11.97995124170492
 10
113.8982197609124
 20
-10.67017547428418
 10
114.7597117377476
 20
-10.16250176018936
 10
115.8594257922077
 20
-10.06516548499241
 10
116.842371113515
 20
-9.754771142129262
 10
117.1362639486491
 20
-9.661965843529975
 10
117.4075382178991
 20
-9.490041055727736
 10
117.6790414575832
 20
-9.336419741548068
 10
117.8438197212779
 20
-9.243182552798321
 10
117.9762079510903
 20
-9.045965101301264
 10
118.1452933343076
 20
-9.014460340207502
 10
119.4359130355443
 20
-8.773988083931667
 10
120.7311121454686
 20
-8.377818654365059
 10
122.0265030954867
 20
-8.371673894677687
 10
132.8399660329701
 20
-8.320378812327918
 10
143.6537817086904
 20
-8.338877333115503
 10
154.4674612398272
 20
-8.356988855560448
 10
154.867528284231
 20
-8.35765836269352
 10
155.2609366208665
 20
-8.609057130181154
 10
155.6685411244348
 20
-8.676684316595233
 10
156.3847730200096
 20
-8.795518349736813
 10
157.1186294506443
 20
-8.818461933490331
 10
157.8282150152314
 20
-8.964031360148871
 10
158.4943580811845
 20
-9.10068666697874
 10
159.1338168089452
 20
-9.362723244913928
 10
159.7944645844737
 20
-9.53287403231282
 10
160.1508292178571
 20
-9.624654559300065
 10
160.5368238631305
 20
-9.602004320290593
 10
160.8925201503815
 20
-9.695458228112252
 10
162.5605016926757
 20
-10.13369360354869
 10
164.3167915619652
 20
-10.38879362318696
 10
165.8632454991049
 20
-11.0983535367867
 10
167.849396930969
 20
-12.00966342647453
 10
169.8761442020128
 20
-13.05224005806651
 10
171.4989381196585
 20
-14.47850232668122
 10
173.3523609602538
 20
-16.10746039533436
 10
174.9132709767114
 20
-18.12627749857517
 10
176.3523687220691
 20
-20.15266738538861
 10
177.5080505767637
 20
-21.78001863692205
 10
178.3671105162826
 20
-23.63647600340221
 10
179.2168012331611
 20
-25.45713911915683
 10
179.8433509791338
 20
-26.79968900223568
 10
180.2515000610327
 20
-28.24535072378049
 10
180.7403209965205
 20
-29.65086368924535
 10
181.153792093921
 20
-30.83976903824426
 10
181.5786003220195
 20
-32.02661865204591
 10
181.933987189764
 20
-33.23336926862959
 10
182.3189669390584
 20
-34.54072397441766
 10
182.6549841457313
 20
-35.86407254771817
 10
182.9654928083346
 20
-37.1914242318774
 10
183.3145675181588
 20
-38.68352885054923
 10
183.6725411329732
 20
-40.17813812249619
 10
183.9132200014761
 20
-41.68973816968661
 10
184.1475619584963
 20
-43.1614433317106
 10
184.2741764203282
 20
-44.65348603064783
 10
184.3794656898108
 20
-46.141460603005
 10
184.4463745637745
 20
-47.08700901008032
 10
184.4120166218355
 20
-48.02135613712058
 10
185.1215155489611
 20
-48.7945478662432
 10
185.2643559696843
 20
-48.95021407966651
 10
185.2006155514605
 20
-49.31276651118382
 10
185.2007764496037
 20
-49.57995016707918
 10
185.2043409623117
 20
-55.4971176772277
 10
185.2353571735877
 20
-61.41467528170626
 10
185.1639679051763
 20
-67.33098210754064
 10
185.1548462181413
 20
-68.08725117312757
 10
184.6297365629964
 20
-68.84671529703279
 10
184.3051183709226
 20
-69.58779545166001
 10
183.6041841757209
 20
-71.1879995434399
 10
182.9640694786071
 20
-72.82325639712087
 10
182.1413477658672
 20
-74.35961505029303
 10
181.0466958145242
 20
-76.40378983295
 10
179.7552654341821
 20
-78.34176607835887
 10
178.6360579508479
 20
-80.37372409732965
 10
177.7168963664949
 20
-82.04246714361941
 10
176.8915755299046
 20
-83.76597819538783
 10
176.0912062822735
 20
-85.49603416313043
 10
175.6453451509908
 20
-86.45980245218648
 10
175.3171005623065
 20
-87.48022110666068
 10
174.9708725119373
 20
-88.48715983485716
 10
174.7509990110147
 20
-89.1266792403767
 10
174.5572776467344
 20
-89.78031015346955
 10
174.4182616511043
 20
-90.44160053776391
 10
174.0076000828179
 20
-92.39493287741646
 10
173.6096742213952
 20
-94.3514540834141
 10
173.2459206502095
 20
-96.31398769566654
 10
172.9604502140268
 20
-97.85408630082365
 10
172.730056449902
 20
-99.40448834986037
 10
172.4816916008727
 20
-100.9513485900639
 10
172.3872196373184
 20
-101.5396975266997
 10
172.2635632259639
 20
-102.1286285088438
 10
172.23421788002
 20
-102.7212994429729
 10
172.0817235707109
 20
-105.8006421609461
 10
171.8010058181396
 20
-108.8841582690494
 10
171.8584464552229
 20
-111.9607393668479
 10
171.9326576295282
 20
-115.9354166829167
 10
172.2843685935429
 20
-119.9049051252052
 10
172.5220894115683
 20
-123.9707654428201
 10
182.1643314467681
 20
-123.9707654428201
 10
191.8430107229883
 20
-123.9707654428201
 10
201.575009168472
 20
-123.9707654428201
 10
201.575009168472
 20
-125.2928880053711
 10
201.575009168472
 20
-126.5231959850802
 10
201.575009168472
 20
-127.8015784469298
 10
191.9500822488248
 20
-127.9040803760067
 10
182.3498717593114
 20
-128.0063098582513
 10
172.6310669615619
 20
-128.1098148870334
 10
172.6310669615619
 20
-128.4674632755504
 10
172.6271682757864
 20
-128.8262014514002
 10
172.6316610470125
 20
-129.1848405556754
 10
172.6984090228345
 20
-134.5123154709415
 10
172.7181747408741
 20
-139.8411154685338
 10
172.8659039897915
 20
-145.1663488893982
 10
172.9054725562116
 20
-146.5926823657081
 10
173.3276197765585
 20
-148.0097526496841
 10
173.5901560389609
 20
-149.4280984801977
 10
173.7988038002074
 20
-150.5553720211102
 10
173.9824999724955
 20
-151.6909056546507
 10
174.2687996529542
 20
-152.7990955332806
 10
174.5259396391727
 20
-153.7944552710596
 10
174.9008323125724
 20
-154.759944928745
 10
175.2360326517496
 20
-155.7343757961426
 10
175.7818115298919
 20
-157.3208708586265
 10
176.3177756213045
 20
-158.9111677928296
 10
176.8943850590181
 20
-160.4864925351453
 10
177.5245116944799
 20
-162.2080097714514
 10
178.2254211361212
 20
-163.9039293893692
 10
178.8384183077345
 20
-165.6312670807517
 10
179.1936690308968
 20
-166.6323358180838
 10
179.4024405599463
 20
-167.684773167451
 10
179.7402400229732
 20
-168.6929131385037
 10
180.0451172505683
 20
-169.6028484100775
 10
180.4725741096377
 20
-170.4715822900805
 10
180.779221216807
 20
-171.3810222037755
 10
181.14179899387
 20
-172.4563822389856
 10
181.4112043693044
 20
-173.5628879008281
 10
181.7592394295887
 20
-174.6435606492882
 10
182.5189880844799
 20
-177.0025787077575
 10
182.0975834709469
 20
-179.4262533533615
 10
182.1190819382198
 20
-181.8173829863262
 10
182.1272258596155
 20
-182.7201479526047
 10
181.6172777602623
 20
-183.6191358150566
 10
181.4039887064257
 20
-184.5339627456837
 10
180.8290006269236
 20
-187.0000524096635
 10
179.5067520637894
 20
-189.1115649039742
 10
178.1457394249509
 20
-191.1706809186511
 10
176.9265028037353
 20
-193.015306971794
 10
175.1950283788221
 20
-194.401689835176
 10
173.3237705979044
 20
-195.5754403290698
 10
172.4939693668686
 20
-196.0959128523588
 10
171.6465312239931
 20
-196.627815758702
 10
170.7384344811735
 20
-196.9744052825744
 10
169.3971256764735
 20
-197.4863328824534
 10
167.9930542191879
 20
-197.8327737989619
 10
166.6184394988687
 20
-198.2585338958178
 10
165.2495923581391
 20
-198.6825354722051
 10
163.887861866047
 20
-199.1299179404724
 10
162.5156111107532
 20
-199.5424272140699
 10
161.8299374855852
 20
-199.7485456274518
 10
161.1056359292945
 20
-199.8399886918847
 10
160.4374506946016
 20
-200.0876676313006
 10
158.8274914980629
 20
-200.6844624197711
 10
157.0830833378006
 20
-201.1051698662636
 10
155.6819080470913
 20
-202.0335696027708
 10
153.7269461014262
 20
-203.3289056880235
 10
151.5675816301348
 20
-204.0611932403017
 10
149.4358792626759
 20
-204.845493369857
 10
147.803778006291
 20
-205.4459414226836
 10
145.9319632702628
 20
-205.3997493004824
 10
144.307300458801
 20
-206.0135224802494
 10
141.4762233704501
 20
-207.0830992122245
 10
138.6062831921526
 20
-206.4107994990734
 10
135.7629469029762
 20
-206.5449671805549
 10
132.8632220030367
 20
-206.6818345624759
 10
129.9503034553636
 20
-206.6311594514713
 10
127.0468469561827
 20
-206.5421931764334
 10
126.1429954489841
 20
-206.5145026710065
 10
125.2484141501838
 20
-206.1044454189095
 10
124.3545383278567
 20
-205.8519119722807
 10
123.3273460171996
 20
-205.5616570231787
 10
122.2560552385552
 20
-205.3621516374791
 10
121.2919411883795
 20
-204.9276732419553
 10
119.3288972052189
 20
-204.0430383740423
 10
117.414246432788
 20
-203.0477777078391
 10
115.5010746855951
 20
-202.0567275836063
 10
114.5074791448934
 20
-201.5420259796059
 10
113.560834920023
 20
-200.9368472590355
 10
112.5907119430413
 20
-200.3764736586066
 10
110.2791873355085
 20
-199.0412860320019
 10
108.3854533216794
 20
-197.2158303287699
 10
106.6548205178222
 20
-195.2199343633785
 10
105.7238019780022
 20
-194.1462090091686
 10
104.8023692544761
 20
-193.0393937486528
 10
104.0550468869435
 20
-191.8365285954308
 10
102.7959632217525
 20
-189.809994745234
 10
101.5211053501491
 20
-187.7656032435042
 10
100.5529317160551
 20
-185.5947344913627
 10
99.80240995083134
 20
-183.9118551696054
 10
99.78390047598574
 20
-181.883315119999
 10
98.94922279353561
 20
-180.261253361816
 10
97.70851245860772
 20
-177.85013603844
 10
98.36956247949315
 20
-175.3969628311513
 10
98.23929067910153
 20
-172.9710590750927
 10
98.10530584463798
 20
-170.4761519665128
 10
98.20956165297047
 20
-167.9684150888707
 10
98.2107250703128
 20
-165.4663005231533
 10
98.21076838904387
 20
-165.3654828108644
 10
98.18374368939469
 20
-165.2065967712286
 10
98.23473602397424
 20
-165.1723427739073
 10
99.53456404970751
 20
-164.2999308616543
 10
99.1040625026995
 20
-162.6905007293812
 10
99.79042922756143
 20
-161.532775062868
 10
100.5276583308096
 20
-160.2892286438474
 10
101.0381200665432
 20
-158.908294717133
 10
101.6156948931155
 20
-157.5735157607776
 10
102.3246678070815
 20
-155.9350700407521
 10
103.0026863936726
 20
-154.2832001222098
 10
103.6903155501185
 20
-152.6355531295848
 10
104.3510437747179
 20
-151.052352196995
 10
105.0384501491199
 20
-149.479306100922
 10
105.6559648455193
 20
-147.8793249201876
 10
106.2548153573201
 20
-146.3276906684265
 10
106.7788915513153
 20
-144.7471646683835
 10
107.3373442524202
 20
-143.1798771076515
 10
107.7187285470547
 20
-142.1095201870176
 10
108.165295154811
 20
-141.0576524992111
 10
108.4712244087266
 20
-139.9662304847802
 10
108.9530400865999
 20
-138.2473262612847
 10
109.3396845128355
 20
-136.5017346320675
 10
109.7690535844515
 20
-134.7680563598356
 10
110.9609684632923
 20
-129.9553821201465
 10
110.5801782541093
 20
-125.0495434473948
 10
110.5376702023828
 20
-120.1770052080478
 10
110.5181767735082
 20
-117.9432136213471
 10
110.0494062220055
 20
-115.7137068802987
 10
109.7930583497224
 20
-113.4812403759241
 10
109.7585766399804
 20
-113.1809048939879
 10
109.7816964654642
 20
-112.8744022064603
 10
109.7670609228334
 20
-112.5712927204027
 10
109.56538128886
 20
-108.3920697522172
 10
109.3873908122614
 20
-104.2114597819703
 10
109.1441251966897
 20
-100.0346516834433
 10
109.0634533431004
 20
-98.64953817462605
 10
108.8136899179036
 20
-97.27428847957099
 10
108.6247769327452
 20
-95.76284632770398
 97
        0
 97
        1
330
90
 75
     2
 76
     1
 98
        1
 10
0.0
 20
0.0
450
        0
451
        0
460
0.0
461
0.0
452
        0
462
0.0
453
        0
470

  0
ENDSEC
  0
SECTION
  2
OBJECTS
  0
DICTIONARY
  5
C
330
0
100
AcDbDictionary
281
     1
  3
ACAD_COLOR
350
63
  3
ACAD_DETAILVIEWSTYLE
350
6A
  3
ACAD_GROUP
350
D
  3
ACAD_LAYOUT
350
62
  3
ACAD_MATERIAL
350
10
  3
ACAD_MLEADERSTYLE
350
66
  3
ACAD_MLINESTYLE
350
5F
  3
ACAD_PLOTSETTINGS
350
61
  3
ACAD_PLOTSTYLENAME
350
E
  3
ACAD_SCALELIST
350
42
  3
ACAD_SECTIONVIEWSTYLE
350
68
  3
ACAD_TABLESTYLE
350
64
  3
ACAD_VISUALSTYLE
350
29
  3
ACDB_RECOMPOSE_DATA
350
9A
  3
AcDbVariableDictionary
350
92
  0
DICTIONARY
  5
63
102
{ACAD_REACTORS
330
C
102
}
330
C
100
AcDbDictionary
281
     1
  0
DICTIONARY
  5
6A
102
{ACAD_REACTORS
330
C
102
}
330
C
100
AcDbDictionary
281
     1
  3
Imperial24
350
6B
  0
DICTIONARY
  5
D
102
{ACAD_REACTORS
330
C
102
}
330
C
100
AcDbDictionary
281
     1
  0
DICTIONARY
  5
62
102
{ACAD_REACTORS
330
C
102
}
330
C
100
AcDbDictionary
281
     1
  3
Layout1
350
6F
  3
Layout2
350
77
  3
Model
350
73
  0
DICTIONARY
  5
10
102
{ACAD_REACTORS
330
C
102
}
330
C
100
AcDbDictionary
281
     1
  3
ByBlock
350
19
  3
ByLayer
350
11
  3
Global
350
21
  0
DICTIONARY
  5
66
102
{ACAD_REACTORS
330
C
102
}
330
C
100
AcDbDictionary
281
     1
  3
Standard
350
67
  0
DICTIONARY
  5
5F
102
{ACAD_REACTORS
330
C
102
}
330
C
100
AcDbDictionary
281
     1
  3
Standard
350
60
  0
DICTIONARY
  5
61
102
{ACAD_REACTORS
330
C
102
}
330
C
100
AcDbDictionary
281
     1
  0
ACDBDICTIONARYWDFLT
  5
E
102
{ACAD_REACTORS
330
C
102
}
330
C
100
AcDbDictionary
281
     1
  3
Normal
350
F
100
AcDbDictionaryWithDefault
340
F
  0
DICTIONARY
  5
42
102
{ACAD_REACTORS
330
C
102
}
330
C
100
AcDbDictionary
281
     1
  3
A0
350
43
  3
A1
350
44
  3
A2
350
45
  3
A3
350
46
  3
A4
350
47
  3
A5
350
48
  3
A6
350
49
  3
A7
350
4A
  3
A8
350
4B
  3
A9
350
4C
  3
B0
350
4D
  3
B1
350
4E
  3
B2
350
4F
  3
B3
350
50
  3
B4
350
51
  3
B5
350
52
  3
B6
350
53
  0
DICTIONARY
  5
68
102
{ACAD_REACTORS
330
C
102
}
330
C
100
AcDbDictionary
281
     1
  3
Imperial24
350
69
  0
DICTIONARY
  5
64
102
{ACAD_REACTORS
330
C
102
}
330
C
100
AcDbDictionary
281
     1
  3
Standard
350
65
  0
DICTIONARY
  5
29
102
{ACAD_REACTORS
330
C
102
}
330
C
100
AcDbDictionary
281
     1
  3
2dWireframe
350
2F
  3
Basic
350
2E
  3
Brighten
350
35
  3
ColorChange
350
39
  3
Conceptual
350
32
  3
Dim
350
34
  3
EdgeColorOff
350
41
  3
Facepattern
350
38
  3
Flat
350
2A
  3
FlatWithEdges
350
2B
  3
Gouraud
350
2C
  3
GouraudWithEdges
350
2D
  3
Hidden
350
31
  3
JitterOff
350
3F
  3
Linepattern
350
37
  3
OverhangOff
350
40
  3
Realistic
350
33
  3
Shaded
350
3E
  3
Shaded with edges
350
3D
  3
Shades of Gray
350
3A
  3
Sketchy
350
3B
  3
Thicken
350
36
  3
Wireframe
350
30
  3
X-Ray
350
3C
  0
XRECORD
  5
9A
102
{ACAD_REACTORS
330
C
102
}
330
C
100
AcDbXrecord
280
     1
 90
        1
330
65
  0
DICTIONARY
  5
92
102
{ACAD_REACTORS
330
C
102
}
330
C
100
AcDbDictionary
281
     1
  3
CANNOSCALE
350
97
  3
CMLEADERSTYLE
350
94
  3
CTABLESTYLE
350
93
  3
CVIEWDETAILSTYLE
350
95
  3
CVIEWSECTIONSTYLE
350
96
  0
ACDBDETAILVIEWSTYLE
  5
6B
102
{ACAD_REACTORS
330
6A
102
}
330
6A
100
AcDbModelDocViewStyle
 70
     0
  3
Imperial24
290
     1
300
Imperial24
 90
        0
100
AcDbDetailViewStyle
 70
     0
 71
     0
 90
        3
 71
     1
340
55
 62
   256
 40
0.24
340
0
 62
   256
 40
0.24
300

 40
0.36
280
     3
 71
     2
340
5D
 90
       25
 62
   256
 71
     3
340
55
 62
   256
 40
0.24
 90
        1
 40
0.75
 90
        1
300
%<\AcVar ViewType \f "%tc1">% %<\AcVar ViewDetailId>%\PSCALE %<\AcVar ViewScale \f "%sn">%
 71
     4
340
5D
 90
       25
 62
   256
340
5D
 90
       25
 62
   256
280
     0
  0
LAYOUT
  5
6F
102
{ACAD_REACTORS
330
62
102
}
330
62
100
AcDbPlotSettings
  1

  2

  4

  6

 40
0.0
 41
0.0
 42
0.0
 43
0.0
 44
0.0
 45
0.0
 46
0.0
 47
0.0
 48
0.0
 49
0.0
140
0.0
141
0.0
142
1.0
143
1.0
 70
   688
 72
     0
 73
     0
 74
     5
  7

 75
    16
147
1.0
 76
     0
 77
     2
 78
   300
148
0.0
149
0.0
100
AcDbLayout
  1
Layout1
 70
     1
 71
     1
 10
0.0
 20
0.0
 11
12.0
 21
9.0
 12
0.0
 22
0.0
 32
0.0
 14
0.0
 24
0.0
 34
0.0
 15
0.0
 25
0.0
 35
0.0
146
0.0
 13
0.0
 23
0.0
 33
0.0
 16
1.0
 26
0.0
 36
0.0
 17
0.0
 27
1.0
 37
0.0
 76
     0
330
6C
  0
LAYOUT
  5
77
102
{ACAD_REACTORS
330
62
102
}
330
62
100
AcDbPlotSettings
  1

  2

  4

  6

 40
0.0
 41
0.0
 42
0.0
 43
0.0
 44
0.0
 45
0.0
 46
0.0
 47
0.0
 48
0.0
 49
0.0
140
0.0
141
0.0
142
1.0
143
1.0
 70
   688
 72
     0
 73
     0
 74
     5
  7

 75
    16
147
1.0
 76
     0
 77
     2
 78
   300
148
0.0
149
0.0
100
AcDbLayout
  1
Layout2
 70
     1
 71
     2
 10
0.0
 20
0.0
 11
12.0
 21
9.0
 12
0.0
 22
0.0
 32
0.0
 14
0.0
 24
0.0
 34
0.0
 15
0.0
 25
0.0
 35
0.0
146
0.0
 13
0.0
 23
0.0
 33
0.0
 16
1.0
 26
0.0
 36
0.0
 17
0.0
 27
1.0
 37
0.0
 76
     0
330
74
  0
LAYOUT
  5
73
102
{ACAD_REACTORS
330
62
102
}
330
62
100
AcDbPlotSettings
  1

  2

  4

  6

 40
0.0
 41
0.0
 42
0.0
 43
0.0
 44
0.0
 45
0.0
 46
0.0
 47
0.0
 48
0.0
 49
0.0
140
0.0
141
0.0
142
1.0
143
1.0
 70
  1712
 72
     0
 73
     0
 74
     0
  7

 75
     0
147
1.0
 76
     0
 77
     2
 78
   300
148
0.0
149
0.0
100
AcDbLayout
  1
Model
 70
     1
 71
     0
 10
0.0
 20
0.0
 11
12.0
 21
9.0
 12
0.0
 22
0.0
 32
0.0
 14
0.0
 24
0.0
 34
0.0
 15
0.0
 25
0.0
 35
0.0
146
0.0
 13
0.0
 23
0.0
 33
0.0
 16
1.0
 26
0.0
 36
0.0
 17
0.0
 27
1.0
 37
0.0
 76
     0
330
70
  0
MATERIAL
  5
19
102
{ACAD_XDICTIONARY
360
1A
102
}
102
{ACAD_REACTORS
330
10
102
}
330
10
100
AcDbMaterial
  1
ByBlock
 72
     0
 43
0.0208333333333333
 43
0.0
 43
0.0
 43
0.0
 43
0.0
 43
0.0208333333333333
 43
0.0
 43
0.0
 43
0.0
 43
0.0
 43
1.0
 43
0.0
 43
0.0
 43
0.0
 43
0.0
 43
1.0
 77
     0
 47
0.0208333333333333
 47
0.0
 47
0.0
 47
0.0
 47
0.0
 47
0.0208333333333333
 47
0.0
 47
0.0
 47
0.0
 47
0.0
 47
1.0
 47
0.0
 47
0.0
 47
0.0
 47
0.0
 47
1.0
171
     0
 49
0.0208333333333333
 49
0.0
 49
0.0
 49
0.0
 49
0.0
 49
0.0208333333333333
 49
0.0
 49
0.0
 49
0.0
 49
0.0
 49
1.0
 49
0.0
 49
0.0
 49
0.0
 49
0.0
 49
1.0
175
     0
142
0.0208333333333333
142
0.0
142
0.0
142
0.0
142
0.0
142
0.0208333333333333
142
0.0
142
0.0
142
0.0
142
0.0
142
1.0
142
0.0
142
0.0
142
0.0
142
0.0
142
1.0
179
     0
144
0.0208333333333333
144
0.0
144
0.0
144
0.0
144
0.0
144
0.0208333333333333
144
0.0
144
0.0
144
0.0
144
0.0
144
1.0
144
0.0
144
0.0
144
0.0
144
0.0
144
1.0
147
0.0208333333333333
147
0.0
147
0.0
147
0.0
147
0.0
147
0.0208333333333333
147
0.0
147
0.0
147
0.0
147
0.0
147
1.0
147
0.0
147
0.0
147
0.0
147
0.0
147
1.0
  0
MATERIAL
  5
11
102
{ACAD_XDICTIONARY
360
12
102
}
102
{ACAD_REACTORS
330
10
102
}
330
10
100
AcDbMaterial
  1
ByLayer
 72
     0
 43
0.0208333333333333
 43
0.0
 43
0.0
 43
0.0
 43
0.0
 43
0.0208333333333333
 43
0.0
 43
0.0
 43
0.0
 43
0.0
 43
1.0
 43
0.0
 43
0.0
 43
0.0
 43
0.0
 43
1.0
 77
     0
 47
0.0208333333333333
 47
0.0
 47
0.0
 47
0.0
 47
0.0
 47
0.0208333333333333
 47
0.0
 47
0.0
 47
0.0
 47
0.0
 47
1.0
 47
0.0
 47
0.0
 47
0.0
 47
0.0
 47
1.0
171
     0
 49
0.0208333333333333
 49
0.0
 49
0.0
 49
0.0
 49
0.0
 49
0.0208333333333333
 49
0.0
 49
0.0
 49
0.0
 49
0.0
 49
1.0
 49
0.0
 49
0.0
 49
0.0
 49
0.0
 49
1.0
175
     0
142
0.0208333333333333
142
0.0
142
0.0
142
0.0
142
0.0
142
0.0208333333333333
142
0.0
142
0.0
142
0.0
142
0.0
142
1.0
142
0.0
142
0.0
142
0.0
142
0.0
142
1.0
179
     0
144
0.0208333333333333
144
0.0
144
0.0
144
0.0
144
0.0
144
0.0208333333333333
144
0.0
144
0.0
144
0.0
144
0.0
144
1.0
144
0.0
144
0.0
144
0.0
144
0.0
144
1.0
147
0.0208333333333333
147
0.0
147
0.0
147
0.0
147
0.0
147
0.0208333333333333
147
0.0
147
0.0
147
0.0
147
0.0
147
1.0
147
0.0
147
0.0
147
0.0
147
0.0
147
1.0
  0
MATERIAL
  5
21
102
{ACAD_XDICTIONARY
360
22
102
}
102
{ACAD_REACTORS
330
10
102
}
330
10
100
AcDbMaterial
  1
Global
 72
     0
 43
0.0208333333333333
 43
0.0
 43
0.0
 43
0.0
 43
0.0
 43
0.0208333333333333
 43
0.0
 43
0.0
 43
0.0
 43
0.0
 43
1.0
 43
0.0
 43
0.0
 43
0.0
 43
0.0
 43
1.0
 77
     0
 47
0.0208333333333333
 47
0.0
 47
0.0
 47
0.0
 47
0.0
 47
0.0208333333333333
 47
0.0
 47
0.0
 47
0.0
 47
0.0
 47
1.0
 47
0.0
 47
0.0
 47
0.0
 47
0.0
 47
1.0
171
     0
 49
0.0208333333333333
 49
0.0
 49
0.0
 49
0.0
 49
0.0
 49
0.0208333333333333
 49
0.0
 49
0.0
 49
0.0
 49
0.0
 49
1.0
 49
0.0
 49
0.0
 49
0.0
 49
0.0
 49
1.0
175
     0
142
0.0208333333333333
142
0.0
142
0.0
142
0.0
142
0.0
142
0.0208333333333333
142
0.0
142
0.0
142
0.0
142
0.0
142
1.0
142
0.0
142
0.0
142
0.0
142
0.0
142
1.0
179
     0
144
0.0208333333333333
144
0.0
144
0.0
144
0.0
144
0.0
144
0.0208333333333333
144
0.0
144
0.0
144
0.0
144
0.0
144
1.0
144
0.0
144
0.0
144
0.0
144
0.0
144
1.0
147
0.0208333333333333
147
0.0
147
0.0
147
0.0
147
0.0
147
0.0208333333333333
147
0.0
147
0.0
147
0.0
147
0.0
147
1.0
147
0.0
147
0.0
147
0.0
147
0.0
147
1.0
  0
MLEADERSTYLE
  5
67
102
{ACAD_REACTORS
330
66
102
}
330
66
100
AcDbMLeaderStyle
179
     2
170
     2
171
     1
172
     0
 90
        2
 40
0.0
 41
0.0
173
     1
 91
-1056964608
340
5B
 92
       -2
290
     1
 42
0.09
291
     1
 43
0.36
  3
Standard
 44
0.18
300

342
55
174
     1
178
     6
175
     1
176
     0
 93
-1056964608
 45
0.18
292
     0
297
     0
 46
0.18
 94
-1056964608
 47
1.0
 49
1.0
140
1.0
293
     1
141
0.0
294
     1
177
     0
142
1.0
295
     1
296
     0
143
0.125
271
     0
272
     9
273
     9
298
     1
  0
MLINESTYLE
  5
60
102
{ACAD_REACTORS
330
5F
102
}
330
5F
100
AcDbMlineStyle
  2
STANDARD
 70
     0
  3

 62
   256
 51
90.0
 52
90.0
 71
     2
 49
0.5
 62
   256
  6
BYLAYER
 49
-0.5
 62
   256
  6
BYLAYER
  0
ACDBPLACEHOLDER
  5
F
102
{ACAD_REACTORS
330
E
102
}
330
E
  0
SCALE
  5
43
102
{ACAD_REACTORS
330
42
102
}
330
42
100
AcDbScale
 70
     0
300
1:1
140
1.0
141
1.0
290
     1
  0
SCALE
  5
44
102
{ACAD_REACTORS
330
42
102
}
330
42
100
AcDbScale
 70
     0
300
1/128" = 1'-0"
140
0.0078125
141
12.0
290
     0
  0
SCALE
  5
45
102
{ACAD_REACTORS
330
42
102
}
330
42
100
AcDbScale
 70
     0
300
1/64" = 1'-0"
140
0.015625
141
12.0
290
     0
  0
SCALE
  5
46
102
{ACAD_REACTORS
330
42
102
}
330
42
100
AcDbScale
 70
     0
300
1/32" = 1'-0"
140
0.03125
141
12.0
290
     0
  0
SCALE
  5
47
102
{ACAD_REACTORS
330
42
102
}
330
42
100
AcDbScale
 70
     0
300
1/16" = 1'-0"
140
0.0625
141
12.0
290
     0
  0
SCALE
  5
48
102
{ACAD_REACTORS
330
42
102
}
330
42
100
AcDbScale
 70
     0
300
3/32" = 1'-0"
140
0.09375
141
12.0
290
     0
  0
SCALE
  5
49
102
{ACAD_REACTORS
330
42
102
}
330
42
100
AcDbScale
 70
     0
300
1/8" = 1'-0"
140
0.125
141
12.0
290
     0
  0
SCALE
  5
4A
102
{ACAD_REACTORS
330
42
102
}
330
42
100
AcDbScale
 70
     0
300
3/16" = 1'-0"
140
0.1875
141
12.0
290
     0
  0
SCALE
  5
4B
102
{ACAD_REACTORS
330
42
102
}
330
42
100
AcDbScale
 70
     0
300
1/4" = 1'-0"
140
0.25
141
12.0
290
     0
  0
SCALE
  5
4C
102
{ACAD_REACTORS
330
42
102
}
330
42
100
AcDbScale
 70
     0
300
3/8" = 1'-0"
140
0.375
141
12.0
290
     0
  0
SCALE
  5
4D
102
{ACAD_REACTORS
330
42
102
}
330
42
100
AcDbScale
 70
     0
300
1/2" = 1'-0"
140
0.5
141
12.0
290
     0
  0
SCALE
  5
4E
102
{ACAD_REACTORS
330
42
102
}
330
42
100
AcDbScale
 70
     0
300
3/4" = 1'-0"
140
0.75
141
12.0
290
     0
  0
SCALE
  5
4F
102
{ACAD_REACTORS
330
42
102
}
330
42
100
AcDbScale
 70
     0
300
1" = 1'-0"
140
1.0
141
12.0
290
     0
  0
SCALE
  5
50
102
{ACAD_REACTORS
330
42
102
}
330
42
100
AcDbScale
 70
     0
300
1-1/2" = 1'-0"
140
1.5
141
12.0
290
     0
  0
SCALE
  5
51
102
{ACAD_REACTORS
330
42
102
}
330
42
100
AcDbScale
 70
     0
300
3" = 1'-0"
140
3.0
141
12.0
290
     0
  0
SCALE
  5
52
102
{ACAD_REACTORS
330
42
102
}
330
42
100
AcDbScale
 70
     0
300
6" = 1'-0"
140
6.0
141
12.0
290
     0
  0
SCALE
  5
53
102
{ACAD_REACTORS
330
42
102
}
330
42
100
AcDbScale
 70
     0
300
1'-0" = 1'-0"
140
12.0
141
12.0
290
     0
  0
ACDBSECTIONVIEWSTYLE
  5
69
102
{ACAD_REACTORS
330
68
102
}
330
68
100
AcDbModelDocViewStyle
 70
     0
  3
Imperial24
290
     1
300
Imperial24
 90
        0
100
AcDbSectionViewStyle
 70
     0
 71
     0
 90
       78
 71
     1
340
55
 62
   256
 40
0.24
340
0
340
0
 62
   256
 40
0.24
300
I, O, Q, S, X, Z
 40
0.48
 90
        3
 40
0.18
 90
        1
 71
     2
340
5D
 90
       25
 62
   256
340
5D
 90
       50
 62
   256
 40
0.24
 40
0.0
 40
0.24
 71
     3
340
55
 62
   256
 40
0.24
 90
        1
 40
0.75
 90
        1
300
%<\AcVar ViewType \f "%tc1">% %<\AcVar ViewSectionStartId>%-%<\AcVar ViewSectionEndId>%\PSCALE %<\AcVar ViewScale \f "%sn">%
 71
     4
 62
   256
 62
   257
300
ANSI31
 40
1.0
 90
        0
290
     0
290
     0
 90
        6
 40
0.0
 40
1.570796326794896
 40
0.2617993877991494
 40
1.308996938995747
 40
-0.2617993877991494
 40
1.832595714594046
  0
TABLESTYLE
  5
65
102
{ACAD_XDICTIONARY
360
98
102
}
102
{ACAD_REACTORS
330
64
102
}
330
64
100
AcDbTableStyle
280
     0
  3
Standard
 70
     0
 71
     0
 40
0.06
 41
0.06
280
     0
281
     0
  7
Standard
140
0.18
170
     2
 62
     0
 63
     7
283
     0
 90
      512
 91
        0
  1

274
    -2
284
     1
 64
     0
275
    -2
285
     1
 65
     0
276
    -2
286
     1
 66
     0
277
    -2
287
     1
 67
     0
278
    -2
288
     1
 68
     0
279
    -2
289
     1
 69
     0
  7
Standard
140
0.25
170
     5
 62
     0
 63
     7
283
     0
 90
      512
 91
        0
  1

274
    -2
284
     1
 64
     0
275
    -2
285
     1
 65
     0
276
    -2
286
     1
 66
     0
277
    -2
287
     1
 67
     0
278
    -2
288
     1
 68
     0
279
    -2
289
     1
 69
     0
  7
Standard
140
0.18
170
     5
 62
     0
 63
     7
283
     0
 90
      512
 91
        0
  1

274
    -2
284
     1
 64
     0
275
    -2
285
     1
 65
     0
276
    -2
286
     1
 66
     0
277
    -2
287
     1
 67
     0
278
    -2
288
     1
 68
     0
279
    -2
289
     1
 69
     0
  0
VISUALSTYLE
  5
2F
102
{ACAD_REACTORS
330
29
102
}
330
29
100
AcDbVisualStyle
  2
2dWireframe
 70
     4
177
     3
291
     0
 70
    58
 90
        0
176
     1
 90
        2
176
     1
 90
        0
176
     1
 90
        0
176
     1
 40
0.6
176
     1
 40
30.0
176
     1
 62
     7
420
 16777215
176
     1
 90
        1
176
     1
 90
        4
176
     1
 62
     7
176
     1
 62
   257
176
     1
 90
        1
176
     1
 90
        1
176
     1
 40
1.0
176
     1
 90
        0
176
     1
 62
   257
176
     1
 40
1.0
176
     1
 90
        1
176
     1
 90
        6
176
     1
 90
        2
176
     1
 62
     7
176
     1
 90
        5
176
     1
 90
        0
176
     1
 90
        0
176
     1
290
     0
176
     1
 90
        1
176
     1
 40
0.0
176
     1
 90
        0
176
     1
290
     1
176
     1
290
     1
176
     1
290
     0
176
     1
290
     0
176
     1
290
     0
176
     1
290
     0
176
     1
290
     0
176
     1
290
     0
176
     1
290
     0
176
     1
 90
       50
176
     1
 40
0.0
176
     1
 40
1.0
176
     1
 90
        0
176
     1
 62
    18
420
        0
176
     1
 90
       50
176
     1
 90
        3
176
     1
 62
     5
420
      255
176
     1
290
     0
176
     1
 90
       50
176
     1
 90
       50
176
     1
 90
       50
176
     1
290
     0
176
     1
 90
       50
176
     1
 62
   256
176
     0
 40
1.0
176
     0
 90
        2
176
     1
  1
strokes_ogs.tif
176
     1
290
     0
176
     1
 40
1.0
176
     1
 40
1.0
176
     1
  0
VISUALSTYLE
  5
2E
102
{ACAD_REACTORS
330
29
102
}
330
29
100
AcDbVisualStyle
  2
Basic
 70
     7
177
     3
291
     1
 70
    58
 90
        1
176
     1
 90
        0
176
     1
 90
        1
176
     1
 90
        0
176
     1
 40
0.6
176
     1
 40
30.0
176
     1
 62
     7
420
 16777215
176
     1
 90
        0
176
     1
 90
        4
176
     1
 62
     7
176
     1
 62
   257
176
     1
 90
        1
176
     1
 90
        1
176
     1
 40
1.0
176
     1
 90
        8
176
     1
 62
     7
176
     1
 40
1.0
176
     1
 90
        1
176
     1
 90
        6
176
     1
 90
        2
176
     1
 62
     7
176
     1
 90
        5
176
     1
 90
        0
176
     1
 90
        0
176
     1
290
     0
176
     1
 90
        1
176
     1
 40
0.0
176
     1
 90
        0
176
     1
290
     0
176
     1
290
     1
176
     1
290
     1
176
     1
290
     0
176
     1
290
     0
176
     1
290
     0
176
     1
290
     0
176
     1
290
     0
176
     1
290
     0
176
     1
 90
       50
176
     1
 40
0.0
176
     1
 40
1.0
176
     1
 90
        0
176
     1
 62
    18
420
        0
176
     1
 90
       50
176
     1
 90
        3
176
     1
 62
     5
420
      255
176
     1
290
     0
176
     1
 90
       50
176
     1
 90
       50
176
     1
 90
       50
176
     1
290
     0
176
     1
 90
       50
176
     1
 62
   256
176
     0
 40
1.0
176
     0
 90
        2
176
     1
  1
strokes_ogs.tif
176
     1
290
     0
176
     1
 40
1.0
176
     1
 40
1.0
176
     1
  0
VISUALSTYLE
  5
35
102
{ACAD_REACTORS
330
29
102
}
330
29
100
AcDbVisualStyle
  2
Brighten
 70
    12
177
     3
291
     1
 70
    58
 90
        2
176
     1
 90
        2
176
     1
 90
        0
176
     1
 90
        0
176
     1
 40
0.6
176
     1
 40
30.0
176
     1
 62
     7
420
 16777215
176
     1
 90
        1
176
     1
 90
        4
176
     1
 62
     7
176
     1
 62
   257
176
     1
 90
        1
176
     1
 90
        1
176
     1
 40
1.0
176
     1
 90
        8
176
     1
 62
     7
176
     1
 40
1.0
176
     1
 90
        1
176
     1
 90
        6
176
     1
 90
        2
176
     1
 62
     7
176
     1
 90
        5
176
     1
 90
        0
176
     1
 90
        0
176
     1
290
     0
176
     1
 90
        1
176
     1
 40
50.0
176
     1
 90
        0
176
     1
290
     0
176
     1
290
     1
176
     1
290
     1
176
     1
290
     0
176
     1
290
     0
176
     1
290
     0
176
     1
290
     0
176
     1
290
     0
176
     1
290
     0
176
     1
 90
       50
176
     1
 40
0.0
176
     1
 40
1.0
176
     1
 90
        0
176
     1
 62
    18
420
        0
176
     1
 90
       50
176
     1
 90
        3
176
     1
 62
     5
420
      255
176
     1
290
     0
176
     1
 90
       50
176
     1
 90
       50
176
     1
 90
       50
176
     1
290
     0
176
     1
 90
       50
176
     1
 62
   256
176
     0
 40
1.0
176
     0
 90
        2
176
     1
  1
strokes_ogs.tif
176
     1
290
     0
176
     1
 40
1.0
176
     1
 40
1.0
176
     1
  0
VISUALSTYLE
  5
39
102
{ACAD_REACTORS
330
29
102
}
330
29
100
AcDbVisualStyle
  2
ColorChange
 70
    16
177
     3
291
     1
 70
    58
 90
        2
176
     1
 90
        2
176
     1
 90
        3
176
     1
 90
        0
176
     1
 40
0.6
176
     1
 40
30.0
176
     1
 62
     8
420
  8421504
176
     1
 90
        1
176
     1
 90
        4
176
     1
 62
     7
176
     1
 62
   257
176
     1
 90
        1
176
     1
 90
        1
176
     1
 40
1.0
176
     1
 90
        8
176
     1
 62
     8
420
  8421504
176
     1
 40
1.0
176
     1
 90
        1
176
     1
 90
        6
176
     1
 90
        2
176
     1
 62
     7
176
     1
 90
        5
176
     1
 90
        0
176
     1
 90
        0
176
     1
290
     0
176
     1
 90
        1
176
     1
 40
0.0
176
     1
 90
        0
176
     1
290
     0
176
     1
290
     1
176
     1
290
     1
176
     1
290
     0
176
     1
290
     0
176
     1
290
     0
176
     1
290
     0
176
     1
290
     0
176
     1
290
     0
176
     1
 90
       50
176
     1
 40
0.0
176
     1
 40
1.0
176
     1
 90
        0
176
     1
 62
    18
420
        0
176
     1
 90
       50
176
     1
 90
        3
176
     1
 62
     5
420
      255
176
     1
290
     0
176
     1
 90
       50
176
     1
 90
       50
176
     1
 90
       50
176
     1
290
     0
176
     1
 90
       50
176
     1
 62
   256
176
     0
 40
1.0
176
     0
 90
        2
176
     1
  1
strokes_ogs.tif
176
     1
290
     0
176
     1
 40
1.0
176
     1
 40
1.0
176
     1
  0
VISUALSTYLE
  5
32
102
{ACAD_REACTORS
330
29
102
}
330
29
100
AcDbVisualStyle
  2
Conceptual
 70
     9
177
     3
291
     0
 70
    58
 90
        3
176
     1
 90
        2
176
     1
 90
        0
176
     1
 90
        0
176
     1
 40
0.6
176
     1
 40
30.0
176
     1
 62
     7
420
 16777215
176
     1
 90
        2
176
     1
 90
        2
176
     1
 62
     7
176
     1
 62
   257
176
     1
 90
        1
176
     1
 90
        1
176
     1
 40
179.0
176
     1
 90
        8
176
     1
 62
     7
176
     1
 40
1.0
176
     1
 90
        1
176
     1
 90
        6
176
     1
 90
        2
176
     1
 62
     7
176
     1
 90
        3
176
     1
 90
        0
176
     1
 90
        0
176
     1
290
     0
176
     1
 90
        1
176
     1
 40
0.0
176
     1
 90
        0
176
     1
290
     0
176
     1
290
     1
176
     1
290
     1
176
     1
290
     0
176
     1
290
     0
176
     1
290
     0
176
     1
290
     0
176
     1
290
     0
176
     1
290
     0
176
     1
 90
       50
176
     1
 40
0.0
176
     1
 40
1.0
176
     1
 90
        0
176
     1
 62
    18
420
        0
176
     1
 90
       50
176
     1
 90
        3
176
     1
 62
     5
420
      255
176
     1
290
     0
176
     1
 90
       50
176
     1
 90
       50
176
     1
 90
       50
176
     1
290
     0
176
     1
 90
       50
176
     1
 62
   256
176
     0
 40
1.0
176
     0
 90
        2
176
     1
  1
strokes_ogs.tif
176
     1
290
     0
176
     1
 40
1.0
176
     1
 40
1.0
176
     1
  0
VISUALSTYLE
  5
34
102
{ACAD_REACTORS
330
29
102
}
330
29
100
AcDbVisualStyle
  2
Dim
 70
    11
177
     3
291
     1
 70
    58
 90
        2
176
     1
 90
        2
176
     1
 90
        0
176
     1
 90
        0
176
     1
 40
0.6
176
     1
 40
30.0
176
     1
 62
     7
420
 16777215
176
     1
 90
        1
176
     1
 90
        4
176
     1
 62
     7
176
     1
 62
   257
176
     1
 90
        1
176
     1
 90
        1
176
     1
 40
1.0
176
     1
 90
        8
176
     1
 62
     7
176
     1
 40
1.0
176
     1
 90
        1
176
     1
 90
        6
176
     1
 90
        2
176
     1
 62
     7
176
     1
 90
        5
176
     1
 90
        0
176
     1
 90
        0
176
     1
290
     0
176
     1
 90
        1
176
     1
 40
-50.0
176
     1
 90
        0
176
     1
290
     0
176
     1
290
     1
176
     1
290
     1
176
     1
290
     0
176
     1
290
     0
176
     1
290
     0
176
     1
290
     0
176
     1
290
     0
176
     1
290
     0
176
     1
 90
       50
176
     1
 40
0.0
176
     1
 40
1.0
176
     1
 90
        0
176
     1
 62
    18
420
        0
176
     1
 90
       50
176
     1
 90
        3
176
     1
 62
     5
420
      255
176
     1
290
     0
176
     1
 90
       50
176
     1
 90
       50
176
     1
 90
       50
176
     1
290
     0
176
     1
 90
       50
176
     1
 62
   256
176
     0
 40
1.0
176
     0
 90
        2
176
     1
  1
strokes_ogs.tif
176
     1
290
     0
176
     1
 40
1.0
176
     1
 40
1.0
176
     1
  0
VISUALSTYLE
  5
41
102
{ACAD_REACTORS
330
29
102
}
330
29
100
AcDbVisualStyle
  2
EdgeColorOff
 70
    22
177
     3
291
     1
 70
    58
 90
        2
176
     0
 90
        2
176
     0
 90
        0
176
     0
 90
        0
176
     0
 40
0.6
176
     0
 40
30.0
176
     0
 62
     7
420
 16777215
176
     0
 90
        1
176
     0
 90
        4
176
     0
 62
     7
176
     0
 62
   257
176
     0
 90
        1
176
     0
 90
        1
176
     0
 40
1.0
176
     0
 90
        8
176
     2
 62
     7
176
     0
 40
1.0
176
     0
 90
        1
176
     0
 90
        6
176
     0
 90
        2
176
     0
 62
     7
176
     0
 90
        5
176
     0
 90
        0
176
     0
 90
        0
176
     0
290
     0
176
     0
 90
        1
176
     0
 40
0.0
176
     0
 90
        0
176
     0
290
     0
176
     0
290
     1
176
     0
290
     1
176
     0
290
     0
176
     0
290
     0
176
     0
290
     0
176
     0
290
     0
176
     0
290
     0
176
     0
290
     0
176
     0
 90
       50
176
     0
 40
0.0
176
     0
 40
1.0
176
     0
 90
        0
176
     0
 62
    18
420
        0
176
     0
 90
       50
176
     0
 90
        3
176
     0
 62
     5
420
      255
176
     0
290
     0
176
     0
 90
       50
176
     0
 90
       50
176
     0
 90
       50
176
     0
290
     0
176
     0
 90
       50
176
     0
 62
   256
176
     0
 40
1.0
176
     0
 90
        2
176
     0
  1
strokes_ogs.tif
176
     0
290
     0
176
     0
 40
1.0
176
     0
 40
1.0
176
     0
  0
VISUALSTYLE
  5
38
102
{ACAD_REACTORS
330
29
102
}
330
29
100
AcDbVisualStyle
  2
Facepattern
 70
    15
177
     3
291
     1
 70
    58
 90
        2
176
     1
 90
        2
176
     1
 90
        0
176
     1
 90
        0
176
     1
 40
0.6
176
     1
 40
30.0
176
     1
 62
     7
420
 16777215
176
     1
 90
        1
176
     1
 90
        4
176
     1
 62
     7
176
     1
 62
   257
176
     1
 90
        1
176
     1
 90
        1
176
     1
 40
1.0
176
     1
 90
        8
176
     1
 62
     7
176
     1
 40
1.0
176
     1
 90
        1
176
     1
 90
        6
176
     1
 90
        2
176
     1
 62
     7
176
     1
 90
        5
176
     1
 90
        0
176
     1
 90
        0
176
     1
290
     0
176
     1
 90
        1
176
     1
 40
0.0
176
     1
 90
        0
176
     1
290
     0
176
     1
290
     1
176
     1
290
     1
176
     1
290
     0
176
     1
290
     0
176
     1
290
     0
176
     1
290
     0
176
     1
290
     0
176
     1
290
     0
176
     1
 90
       50
176
     1
 40
0.0
176
     1
 40
1.0
176
     1
 90
        0
176
     1
 62
    18
420
        0
176
     1
 90
       50
176
     1
 90
        3
176
     1
 62
     5
420
      255
176
     1
290
     0
176
     1
 90
       50
176
     1
 90
       50
176
     1
 90
       50
176
     1
290
     0
176
     1
 90
       50
176
     1
 62
   256
176
     0
 40
1.0
176
     0
 90
        2
176
     1
  1
strokes_ogs.tif
176
     1
290
     0
176
     1
 40
1.0
176
     1
 40
1.0
176
     1
  0
VISUALSTYLE
  5
2A
102
{ACAD_REACTORS
330
29
102
}
330
29
100
AcDbVisualStyle
  2
Flat
 70
     0
177
     3
291
     1
 70
    58
 90
        2
176
     1
 90
        1
176
     1
 90
        1
176
     1
 90
        2
176
     1
 40
0.6
176
     1
 40
30.0
176
     1
 62
     7
420
 16777215
176
     1
 90
        0
176
     1
 90
        0
176
     1
 62
     7
176
     1
 62
   257
176
     1
 90
        1
176
     1
 90
        1
176
     1
 40
1.0
176
     1
 90
        8
176
     1
 62
     7
176
     1
 40
1.0
176
     1
 90
        1
176
     1
 90
        6
176
     1
 90
        2
176
     1
 62
     7
176
     1
 90
        5
176
     1
 90
        0
176
     1
 90
        0
176
     1
290
     0
176
     1
 90
       13
176
     1
 40
0.0
176
     1
 90
        0
176
     1
290
     0
176
     1
290
     1
176
     1
290
     1
176
     1
290
     0
176
     1
290
     0
176
     1
290
     0
176
     1
290
     0
176
     1
290
     0
176
     1
290
     0
176
     1
 90
       50
176
     1
 40
0.0
176
     1
 40
1.0
176
     1
 90
        0
176
     1
 62
    18
420
        0
176
     1
 90
       50
176
     1
 90
        3
176
     1
 62
     5
420
      255
176
     1
290
     0
176
     1
 90
       50
176
     1
 90
       50
176
     1
 90
       50
176
     1
290
     0
176
     1
 90
       50
176
     1
 62
   256
176
     0
 40
1.0
176
     0
 90
        2
176
     1
  1
strokes_ogs.tif
176
     1
290
     0
176
     1
 40
1.0
176
     1
 40
1.0
176
     1
  0
VISUALSTYLE
  5
2B
102
{ACAD_REACTORS
330
29
102
}
330
29
100
AcDbVisualStyle
  2
FlatWithEdges
 70
     1
177
     3
291
     1
 70
    58
 90
        2
176
     1
 90
        1
176
     1
 90
        1
176
     1
 90
        2
176
     1
 40
0.6
176
     1
 40
30.0
176
     1
 62
     7
420
 16777215
176
     1
 90
        1
176
     1
 90
        0
176
     1
 62
     7
176
     1
 62
   257
176
     1
 90
        1
176
     1
 90
        1
176
     1
 40
1.0
176
     1
 90
        0
176
     1
 62
   257
176
     1
 40
1.0
176
     1
 90
        1
176
     1
 90
        6
176
     1
 90
        2
176
     1
 62
     7
176
     1
 90
        5
176
     1
 90
        0
176
     1
 90
        0
176
     1
290
     0
176
     1
 90
       13
176
     1
 40
0.0
176
     1
 90
        0
176
     1
290
     0
176
     1
290
     1
176
     1
290
     1
176
     1
290
     0
176
     1
290
     0
176
     1
290
     0
176
     1
290
     0
176
     1
290
     0
176
     1
290
     0
176
     1
 90
       50
176
     1
 40
0.0
176
     1
 40
1.0
176
     1
 90
        0
176
     1
 62
    18
420
        0
176
     1
 90
       50
176
     1
 90
        3
176
     1
 62
     5
420
      255
176
     1
290
     0
176
     1
 90
       50
176
     1
 90
       50
176
     1
 90
       50
176
     1
290
     0
176
     1
 90
       50
176
     1
 62
   256
176
     0
 40
1.0
176
     0
 90
        2
176
     1
  1
strokes_ogs.tif
176
     1
290
     0
176
     1
 40
1.0
176
     1
 40
1.0
176
     1
  0
VISUALSTYLE
  5
2C
102
{ACAD_REACTORS
330
29
102
}
330
29
100
AcDbVisualStyle
  2
Gouraud
 70
     2
177
     3
291
     1
 70
    58
 90
        2
176
     1
 90
        2
176
     1
 90
        1
176
     1
 90
        2
176
     1
 40
0.6
176
     1
 40
30.0
176
     1
 62
     7
420
 16777215
176
     1
 90
        0
176
     1
 90
        0
176
     1
 62
     7
176
     1
 62
   257
176
     1
 90
        1
176
     1
 90
        1
176
     1
 40
1.0
176
     1
 90
        0
176
     1
 62
     7
176
     1
 40
1.0
176
     1
 90
        1
176
     1
 90
        6
176
     1
 90
        2
176
     1
 62
     7
176
     1
 90
        5
176
     1
 90
        0
176
     1
 90
        0
176
     1
290
     0
176
     1
 90
       13
176
     1
 40
0.0
176
     1
 90
        0
176
     1
290
     0
176
     1
290
     1
176
     1
290
     1
176
     1
290
     0
176
     1
290
     0
176
     1
290
     0
176
     1
290
     0
176
     1
290
     0
176
     1
290
     0
176
     1
 90
       50
176
     1
 40
0.0
176
     1
 40
1.0
176
     1
 90
        0
176
     1
 62
    18
420
        0
176
     1
 90
       50
176
     1
 90
        3
176
     1
 62
     5
420
      255
176
     1
290
     0
176
     1
 90
       50
176
     1
 90
       50
176
     1
 90
       50
176
     1
290
     0
176
     1
 90
       50
176
     1
 62
   256
176
     0
 40
1.0
176
     0
 90
        2
176
     1
  1
strokes_ogs.tif
176
     1
290
     0
176
     1
 40
1.0
176
     1
 40
1.0
176
     1
  0
VISUALSTYLE
  5
2D
102
{ACAD_REACTORS
330
29
102
}
330
29
100
AcDbVisualStyle
  2
GouraudWithEdges
 70
     3
177
     3
291
     1
 70
    58
 90
        2
176
     1
 90
        2
176
     1
 90
        1
176
     1
 90
        2
176
     1
 40
0.6
176
     1
 40
30.0
176
     1
 62
     7
420
 16777215
176
     1
 90
        1
176
     1
 90
        0
176
     1
 62
     7
176
     1
 62
   257
176
     1
 90
        1
176
     1
 90
        1
176
     1
 40
1.0
176
     1
 90
        0
176
     1
 62
   257
176
     1
 40
1.0
176
     1
 90
        1
176
     1
 90
        6
176
     1
 90
        2
176
     1
 62
     7
176
     1
 90
        5
176
     1
 90
        0
176
     1
 90
        0
176
     1
290
     0
176
     1
 90
       13
176
     1
 40
0.0
176
     1
 90
        0
176
     1
290
     0
176
     1
290
     1
176
     1
290
     1
176
     1
290
     0
176
     1
290
     0
176
     1
290
     0
176
     1
290
     0
176
     1
290
     0
176
     1
290
     0
176
     1
 90
       50
176
     1
 40
0.0
176
     1
 40
1.0
176
     1
 90
        0
176
     1
 62
    18
420
        0
176
     1
 90
       50
176
     1
 90
        3
176
     1
 62
     5
420
      255
176
     1
290
     0
176
     1
 90
       50
176
     1
 90
       50
176
     1
 90
       50
176
     1
290
     0
176
     1
 90
       50
176
     1
 62
   256
176
     0
 40
1.0
176
     0
 90
        2
176
     1
  1
strokes_ogs.tif
176
     1
290
     0
176
     1
 40
1.0
176
     1
 40
1.0
176
     1
  0
VISUALSTYLE
  5
31
102
{ACAD_REACTORS
330
29
102
}
330
29
100
AcDbVisualStyle
  2
Hidden
 70
     6
177
     3
291
     0
 70
    58
 90
        1
176
     1
 90
        2
176
     1
 90
        2
176
     1
 90
        0
176
     1
 40
0.6
176
     1
 40
30.0
176
     1
 62
     7
420
 16777215
176
     1
 90
        2
176
     1
 90
        2
176
     1
 62
     7
176
     1
 62
   257
176
     1
 90
        2
176
     1
 90
        1
176
     1
 40
40.0
176
     1
 90
        0
176
     1
 62
   257
176
     1
 40
1.0
176
     1
 90
        1
176
     1
 90
        6
176
     1
 90
        2
176
     1
 62
     7
176
     1
 90
        3
176
     1
 90
        0
176
     1
 90
        0
176
     1
290
     0
176
     1
 90
        1
176
     1
 40
0.0
176
     1
 90
        0
176
     1
290
     0
176
     1
290
     1
176
     1
290
     1
176
     1
290
     0
176
     1
290
     0
176
     1
290
     0
176
     1
290
     0
176
     1
290
     0
176
     1
290
     0
176
     1
 90
       50
176
     1
 40
0.0
176
     1
 40
1.0
176
     1
 90
        0
176
     1
 62
    18
420
        0
176
     1
 90
       50
176
     1
 90
        3
176
     1
 62
     5
420
      255
176
     1
290
     0
176
     1
 90
       50
176
     1
 90
       50
176
     1
 90
       50
176
     1
290
     0
176
     1
 90
       50
176
     1
 62
   256
176
     0
 40
1.0
176
     0
 90
        2
176
     1
  1
strokes_ogs.tif
176
     1
290
     0
176
     1
 40
1.0
176
     1
 40
1.0
176
     1
  0
VISUALSTYLE
  5
3F
102
{ACAD_REACTORS
330
29
102
}
330
29
100
AcDbVisualStyle
  2
JitterOff
 70
    20
177
     3
291
     1
 70
    58
 90
        2
176
     0
 90
        2
176
     0
 90
        0
176
     0
 90
        0
176
     0
 40
0.6
176
     0
 40
30.0
176
     0
 62
     7
420
 16777215
176
     0
 90
        1
176
     0
 90
        4
176
     0
 62
     7
176
     0
 62
   257
176
     0
 90
        1
176
     0
 90
        1
176
     0
 40
1.0
176
     0
 90
       10
176
     2
 62
     7
176
     0
 40
1.0
176
     0
 90
        1
176
     0
 90
        6
176
     0
 90
        2
176
     0
 62
     7
176
     0
 90
        5
176
     0
 90
        0
176
     0
 90
        0
176
     0
290
     0
176
     0
 90
        1
176
     0
 40
0.0
176
     0
 90
        0
176
     0
290
     0
176
     0
290
     1
176
     0
290
     1
176
     0
290
     0
176
     0
290
     0
176
     0
290
     0
176
     0
290
     0
176
     0
290
     0
176
     0
290
     0
176
     0
 90
       50
176
     0
 40
0.0
176
     0
 40
1.0
176
     0
 90
        0
176
     0
 62
    18
420
        0
176
     0
 90
       50
176
     0
 90
        3
176
     0
 62
     5
420
      255
176
     0
290
     0
176
     0
 90
       50
176
     0
 90
       50
176
     0
 90
       50
176
     0
290
     0
176
     0
 90
       50
176
     0
 62
   256
176
     0
 40
1.0
176
     0
 90
        2
176
     0
  1
strokes_ogs.tif
176
     0
290
     0
176
     0
 40
1.0
176
     0
 40
1.0
176
     0
  0
VISUALSTYLE
  5
37
102
{ACAD_REACTORS
330
29
102
}
330
29
100
AcDbVisualStyle
  2
Linepattern
 70
    14
177
     3
291
     1
 70
    58
 90
        2
176
     1
 90
        2
176
     1
 90
        0
176
     1
 90
        0
176
     1
 40
0.6
176
     1
 40
30.0
176
     1
 62
     7
420
 16777215
176
     1
 90
        1
176
     1
 90
        4
176
     1
 62
     7
176
     1
 62
   257
176
     1
 90
        7
176
     1
 90
        7
176
     1
 40
1.0
176
     1
 90
        8
176
     1
 62
     7
176
     1
 40
1.0
176
     1
 90
        1
176
     1
 90
        6
176
     1
 90
        2
176
     1
 62
     7
176
     1
 90
        5
176
     1
 90
        0
176
     1
 90
        0
176
     1
290
     0
176
     1
 90
        1
176
     1
 40
0.0
176
     1
 90
        0
176
     1
290
     0
176
     1
290
     1
176
     1
290
     1
176
     1
290
     0
176
     1
290
     0
176
     1
290
     0
176
     1
290
     0
176
     1
290
     0
176
     1
290
     0
176
     1
 90
       50
176
     1
 40
0.0
176
     1
 40
1.0
176
     1
 90
        0
176
     1
 62
    18
420
        0
176
     1
 90
       50
176
     1
 90
        3
176
     1
 62
     5
420
      255
176
     1
290
     0
176
     1
 90
       50
176
     1
 90
       50
176
     1
 90
       50
176
     1
290
     0
176
     1
 90
       50
176
     1
 62
   256
176
     0
 40
1.0
176
     0
 90
        2
176
     1
  1
strokes_ogs.tif
176
     1
290
     0
176
     1
 40
1.0
176
     1
 40
1.0
176
     1
  0
VISUALSTYLE
  5
40
102
{ACAD_REACTORS
330
29
102
}
330
29
100
AcDbVisualStyle
  2
OverhangOff
 70
    21
177
     3
291
     1
 70
    58
 90
        2
176
     0
 90
        2
176
     0
 90
        0
176
     0
 90
        0
176
     0
 40
0.6
176
     0
 40
30.0
176
     0
 62
     7
420
 16777215
176
     0
 90
        1
176
     0
 90
        4
176
     0
 62
     7
176
     0
 62
   257
176
     0
 90
        1
176
     0
 90
        1
176
     0
 40
1.0
176
     0
 90
        9
176
     2
 62
     7
176
     0
 40
1.0
176
     0
 90
        1
176
     0
 90
        6
176
     0
 90
        2
176
     0
 62
     7
176
     0
 90
        5
176
     0
 90
        0
176
     0
 90
        0
176
     0
290
     0
176
     0
 90
        1
176
     0
 40
0.0
176
     0
 90
        0
176
     0
290
     0
176
     0
290
     1
176
     0
290
     1
176
     0
290
     0
176
     0
290
     0
176
     0
290
     0
176
     0
290
     0
176
     0
290
     0
176
     0
290
     0
176
     0
 90
       50
176
     0
 40
0.0
176
     0
 40
1.0
176
     0
 90
        0
176
     0
 62
    18
420
        0
176
     0
 90
       50
176
     0
 90
        3
176
     0
 62
     5
420
      255
176
     0
290
     0
176
     0
 90
       50
176
     0
 90
       50
176
     0
 90
       50
176
     0
290
     0
176
     0
 90
       50
176
     0
 62
   256
176
     0
 40
1.0
176
     0
 90
        2
176
     0
  1
strokes_ogs.tif
176
     0
290
     0
176
     0
 40
1.0
176
     0
 40
1.0
176
     0
  0
VISUALSTYLE
  5
33
102
{ACAD_REACTORS
330
29
102
}
330
29
100
AcDbVisualStyle
  2
Realistic
 70
     8
177
     3
291
     0
 70
    58
 90
        2
176
     1
 90
        3
176
     1
 90
        0
176
     1
 90
        2
176
     1
 40
0.6
176
     1
 40
30.0
176
     1
 62
     7
420
 16777215
176
     1
 90
        0
176
     1
 90
        0
176
     1
 62
     7
176
     1
 62
   257
176
     1
 90
        1
176
     1
 90
        1
176
     1
 40
1.0
176
     1
 90
        8
176
     1
 62
   257
176
     1
 40
1.0
176
     1
 90
        1
176
     1
 90
        6
176
     1
 90
        2
176
     1
 62
     7
176
     1
 90
        3
176
     1
 90
        0
176
     1
 90
        0
176
     1
290
     0
176
     1
 90
       13
176
     1
 40
0.0
176
     1
 90
        0
176
     1
290
     0
176
     1
290
     1
176
     1
290
     1
176
     1
290
     0
176
     1
290
     0
176
     1
290
     0
176
     1
290
     0
176
     1
290
     0
176
     1
290
     0
176
     1
 90
       50
176
     1
 40
0.0
176
     1
 40
1.0
176
     1
 90
        0
176
     1
 62
    18
420
        0
176
     1
 90
       50
176
     1
 90
        3
176
     1
 62
     5
420
      255
176
     1
290
     0
176
     1
 90
       50
176
     1
 90
       50
176
     1
 90
       50
176
     1
290
     0
176
     1
 90
       50
176
     1
 62
   256
176
     0
 40
1.0
176
     0
 90
        2
176
     1
  1
strokes_ogs.tif
176
     1
290
     0
176
     1
 40
1.0
176
     1
 40
1.0
176
     1
  0
VISUALSTYLE
  5
3E
102
{ACAD_REACTORS
330
29
102
}
330
29
100
AcDbVisualStyle
  2
Shaded
 70
    27
177
     3
291
     0
 70
    58
 90
        2
176
     1
 90
        2
176
     1
 90
        1
176
     1
 90
        2
176
     1
 40
0.6
176
     1
 40
30.0
176
     1
 62
     7
420
 16777215
176
     1
 90
        0
176
     1
 90
        4
176
     1
 62
     7
176
     1
 62
   257
176
     1
 90
        1
176
     1
 90
        1
176
     1
 40
1.0
176
     1
 90
        8
176
     1
 62
   257
176
     1
 40
1.0
176
     1
 90
        1
176
     1
 90
        6
176
     1
 90
        2
176
     1
 62
     8
420
  7895160
176
     1
 90
        3
176
     1
 90
        0
176
     1
 90
        0
176
     1
290
     0
176
     1
 90
        5
176
     1
 40
0.0
176
     1
 90
        0
176
     1
290
     0
176
     1
290
     1
176
     1
290
     1
176
     1
290
     0
176
     1
290
     0
176
     1
290
     0
176
     1
290
     0
176
     1
290
     0
176
     1
290
     0
176
     1
 90
       50
176
     1
 40
0.0
176
     1
 40
1.0
176
     1
 90
        0
176
     1
 62
    18
420
        0
176
     1
 90
       50
176
     1
 90
        3
176
     1
 62
     5
420
      255
176
     1
290
     0
176
     1
 90
       50
176
     1
 90
       50
176
     1
 90
       50
176
     1
290
     0
176
     1
 90
       50
176
     1
 62
   256
176
     0
 40
1.0
176
     0
 90
        2
176
     1
  1
strokes_ogs.tif
176
     1
290
     0
176
     1
 40
1.0
176
     1
 40
1.0
176
     1
  0
VISUALSTYLE
  5
3D
102
{ACAD_REACTORS
330
29
102
}
330
29
100
AcDbVisualStyle
  2
Shaded with edges
 70
    26
177
     3
291
     0
 70
    58
 90
        2
176
     1
 90
        2
176
     1
 90
        1
176
     1
 90
        2
176
     1
 40
0.6
176
     1
 40
30.0
176
     1
 62
     7
420
 16777215
176
     1
 90
        1
176
     1
 90
        2
176
     1
 62
     7
176
     1
 62
   257
176
     1
 90
        2
176
     1
 90
        1
176
     1
 40
1.0
176
     1
 90
        8
176
     1
 62
   257
176
     1
 40
1.0
176
     1
 90
        1
176
     1
 90
        6
176
     1
 90
        2
176
     1
 62
     7
176
     1
 90
        3
176
     1
 90
        0
176
     1
 90
        0
176
     1
290
     0
176
     1
 90
        5
176
     1
 40
0.0
176
     1
 90
        0
176
     1
290
     0
176
     1
290
     1
176
     1
290
     1
176
     1
290
     0
176
     1
290
     0
176
     1
290
     0
176
     1
290
     0
176
     1
290
     0
176
     1
290
     0
176
     1
 90
       50
176
     1
 40
0.0
176
     1
 40
1.0
176
     1
 90
        0
176
     1
 62
    18
420
        0
176
     1
 90
       50
176
     1
 90
        3
176
     1
 62
     5
420
      255
176
     1
290
     0
176
     1
 90
       50
176
     1
 90
       50
176
     1
 90
       50
176
     1
290
     0
176
     1
 90
       50
176
     1
 62
   256
176
     0
 40
1.0
176
     0
 90
        2
176
     1
  1
strokes_ogs.tif
176
     1
290
     0
176
     1
 40
1.0
176
     1
 40
1.0
176
     1
  0
VISUALSTYLE
  5
3A
102
{ACAD_REACTORS
330
29
102
}
330
29
100
AcDbVisualStyle
  2
Shades of Gray
 70
    23
177
     3
291
     0
 70
    58
 90
        2
176
     1
 90
        2
176
     1
 90
        3
176
     1
 90
        0
176
     1
 40
0.6
176
     1
 40
30.0
176
     1
 62
     7
420
 16777215
176
     1
 90
        2
176
     1
 90
        2
176
     1
 62
     7
176
     1
 62
     7
176
     1
 90
        1
176
     1
 90
        1
176
     1
 40
40.0
176
     1
 90
        8
176
     1
 62
     7
176
     1
 40
1.0
176
     1
 90
        1
176
     1
 90
        6
176
     1
 90
        2
176
     1
 62
     7
176
     1
 90
        3
176
     1
 90
        0
176
     1
 90
        0
176
     1
290
     0
176
     1
 90
        1
176
     1
 40
0.0
176
     1
 90
        0
176
     1
290
     0
176
     1
290
     1
176
     1
290
     1
176
     1
290
     0
176
     1
290
     0
176
     1
290
     0
176
     1
290
     0
176
     1
290
     0
176
     1
290
     0
176
     1
 90
       50
176
     1
 40
0.0
176
     1
 40
1.0
176
     1
 90
        0
176
     1
 62
    18
420
        0
176
     1
 90
       50
176
     1
 90
        3
176
     1
 62
     5
420
      255
176
     1
290
     0
176
     1
 90
       50
176
     1
 90
       50
176
     1
 90
       50
176
     1
290
     0
176
     1
 90
       50
176
     1
 62
   256
176
     0
 40
1.0
176
     0
 90
        2
176
     1
  1
strokes_ogs.tif
176
     1
290
     0
176
     1
 40
1.0
176
     1
 40
1.0
176
     1
  0
VISUALSTYLE
  5
3B
102
{ACAD_REACTORS
330
29
102
}
330
29
100
AcDbVisualStyle
  2
Sketchy
 70
    24
177
     3
291
     0
 70
    58
 90
        1
176
     1
 90
        2
176
     1
 90
        2
176
     1
 90
        0
176
     1
 40
0.6
176
     1
 40
30.0
176
     1
 62
     7
420
 16777215
176
     1
 90
        2
176
     1
 90
        2
176
     1
 62
     7
176
     1
 62
     7
176
     1
 90
        1
176
     1
 90
        1
176
     1
 40
40.0
176
     1
 90
       11
176
     1
 62
     7
176
     1
 40
1.0
176
     1
 90
        1
176
     1
 90
        6
176
     1
 90
        2
176
     1
 62
     7
176
     1
 90
        6
176
     1
 90
        0
176
     1
 90
        0
176
     1
290
     0
176
     1
 90
        1
176
     1
 40
0.0
176
     1
 90
        0
176
     1
290
     0
176
     1
290
     1
176
     1
290
     1
176
     1
290
     0
176
     1
290
     0
176
     1
290
     0
176
     1
290
     0
176
     1
290
     0
176
     1
290
     0
176
     1
 90
       50
176
     1
 40
0.0
176
     1
 40
1.0
176
     1
 90
        0
176
     1
 62
    18
420
        0
176
     1
 90
       50
176
     1
 90
        3
176
     1
 62
     5
420
      255
176
     1
290
     0
176
     1
 90
       50
176
     1
 90
       50
176
     1
 90
       50
176
     1
290
     0
176
     1
 90
       50
176
     1
 62
   256
176
     0
 40
1.0
176
     0
 90
        2
176
     1
  1
strokes_ogs.tif
176
     1
290
     0
176
     1
 40
1.0
176
     1
 40
1.0
176
     1
  0
VISUALSTYLE
  5
36
102
{ACAD_REACTORS
330
29
102
}
330
29
100
AcDbVisualStyle
  2
Thicken
 70
    13
177
     3
291
     1
 70
    58
 90
        2
176
     1
 90
        2
176
     1
 90
        0
176
     1
 90
        0
176
     1
 40
0.6
176
     1
 40
30.0
176
     1
 62
     7
420
 16777215
176
     1
 90
        1
176
     1
 90
        4
176
     1
 62
     7
176
     1
 62
   257
176
     1
 90
        1
176
     1
 90
        1
176
     1
 40
1.0
176
     1
 90
       12
176
     1
 62
     7
176
     1
 40
1.0
176
     1
 90
        1
176
     1
 90
        6
176
     1
 90
        2
176
     1
 62
     7
176
     1
 90
        5
176
     1
 90
        0
176
     1
 90
        0
176
     1
290
     0
176
     1
 90
        1
176
     1
 40
0.0
176
     1
 90
        0
176
     1
290
     0
176
     1
290
     1
176
     1
290
     1
176
     1
290
     0
176
     1
290
     0
176
     1
290
     0
176
     1
290
     0
176
     1
290
     0
176
     1
290
     0
176
     1
 90
       50
176
     1
 40
0.0
176
     1
 40
1.0
176
     1
 90
        0
176
     1
 62
    18
420
        0
176
     1
 90
       50
176
     1
 90
        3
176
     1
 62
     5
420
      255
176
     1
290
     0
176
     1
 90
       50
176
     1
 90
       50
176
     1
 90
       50
176
     1
290
     0
176
     1
 90
       50
176
     1
 62
   256
176
     0
 40
1.0
176
     0
 90
        2
176
     1
  1
strokes_ogs.tif
176
     1
290
     0
176
     1
 40
1.0
176
     1
 40
1.0
176
     1
  0
VISUALSTYLE
  5
30
102
{ACAD_REACTORS
330
29
102
}
330
29
100
AcDbVisualStyle
  2
Wireframe
 70
     5
177
     3
291
     0
 70
    58
 90
        0
176
     1
 90
        2
176
     1
 90
        0
176
     1
 90
        0
176
     1
 40
0.6
176
     1
 40
30.0
176
     1
 62
     7
420
 16777215
176
     1
 90
        1
176
     1
 90
        4
176
     1
 62
     7
176
     1
 62
   257
176
     1
 90
        1
176
     1
 90
        1
176
     1
 40
1.0
176
     1
 90
        0
176
     1
 62
   257
176
     1
 40
1.0
176
     1
 90
        1
176
     1
 90
        6
176
     1
 90
        2
176
     1
 62
     7
176
     1
 90
        3
176
     1
 90
        0
176
     1
 90
        0
176
     1
290
     0
176
     1
 90
        1
176
     1
 40
0.0
176
     1
 90
        0
176
     1
290
     0
176
     1
290
     1
176
     1
290
     1
176
     1
290
     0
176
     1
290
     0
176
     1
290
     0
176
     1
290
     0
176
     1
290
     0
176
     1
290
     0
176
     1
 90
       50
176
     1
 40
0.0
176
     1
 40
1.0
176
     1
 90
        0
176
     1
 62
    18
420
        0
176
     1
 90
       50
176
     1
 90
        3
176
     1
 62
     5
420
      255
176
     1
290
     0
176
     1
 90
       50
176
     1
 90
       50
176
     1
 90
       50
176
     1
290
     0
176
     1
 90
       50
176
     1
 62
   256
176
     0
 40
1.0
176
     0
 90
        2
176
     1
  1
strokes_ogs.tif
176
     1
290
     0
176
     1
 40
1.0
176
     1
 40
1.0
176
     1
  0
VISUALSTYLE
  5
3C
102
{ACAD_REACTORS
330
29
102
}
330
29
100
AcDbVisualStyle
  2
X-Ray
 70
    25
177
     3
291
     0
 70
    58
 90
        2
176
     1
 90
        2
176
     1
 90
        1
176
     1
 90
        1
176
     1
 40
0.5
176
     1
 40
30.0
176
     1
 62
     7
420
 16777215
176
     1
 90
        1
176
     1
 90
        0
176
     1
 62
     7
176
     1
 62
   257
176
     1
 90
        1
176
     1
 90
        1
176
     1
 40
1.0
176
     1
 90
        8
176
     1
 62
     7
176
     1
 40
1.0
176
     1
 90
        1
176
     1
 90
        6
176
     1
 90
        2
176
     1
 62
     7
176
     1
 90
        3
176
     1
 90
        0
176
     1
 90
        0
176
     1
290
     0
176
     1
 90
       13
176
     1
 40
0.0
176
     1
 90
        0
176
     1
290
     0
176
     1
290
     1
176
     1
290
     1
176
     1
290
     0
176
     1
290
     0
176
     1
290
     0
176
     1
290
     0
176
     1
290
     0
176
     1
290
     0
176
     1
 90
       50
176
     1
 40
0.0
176
     1
 40
1.0
176
     1
 90
        0
176
     1
 62
    18
420
        0
176
     1
 90
       50
176
     1
 90
        3
176
     1
 62
     5
420
      255
176
     1
290
     0
176
     1
 90
       50
176
     1
 90
       50
176
     1
 90
       50
176
     1
290
     0
176
     1
 90
       50
176
     1
 62
   256
176
     0
 40
1.0
176
     0
 90
        2
176
     1
  1
strokes_ogs.tif
176
     1
290
     0
176
     1
 40
1.0
176
     1
 40
1.0
176
     1
  0
DICTIONARYVAR
  5
97
102
{ACAD_REACTORS
330
92
102
}
330
92
100
DictionaryVariables
280
     0
  1
1:1
  0
DICTIONARYVAR
  5
94
102
{ACAD_REACTORS
330
92
102
}
330
92
100
DictionaryVariables
280
     0
  1
STANDARD
  0
DICTIONARYVAR
  5
93
102
{ACAD_REACTORS
330
92
102
}
330
92
100
DictionaryVariables
280
     0
  1
STANDARD
  0
DICTIONARYVAR
  5
95
102
{ACAD_REACTORS
330
92
102
}
330
92
100
DictionaryVariables
280
     0
  1
Imperial24
  0
DICTIONARYVAR
  5
96
102
{ACAD_REACTORS
330
92
102
}
330
92
100
DictionaryVariables
280
     0
  1
Imperial24
  0
DICTIONARY
  5
1A
330
19
100
AcDbDictionary
280
     1
281
     1
  3
BUMPTILE
360
1C
  3
DIFFUSETILE
360
1B
  3
OPACITYTILE
360
1F
  3
REFLECTIONTILE
360
1E
  3
REFRACTIONTILE
360
20
  3
SPECULARTILE
360
1D
  0
DICTIONARY
  5
12
330
11
100
AcDbDictionary
280
     1
281
     1
  3
BUMPTILE
360
14
  3
DIFFUSETILE
360
13
  3
OPACITYTILE
360
17
  3
REFLECTIONTILE
360
16
  3
REFRACTIONTILE
360
18
  3
SPECULARTILE
360
15
  0
DICTIONARY
  5
22
330
21
100
AcDbDictionary
280
     1
281
     1
  3
BUMPTILE
360
24
  3
DIFFUSETILE
360
23
  3
OPACITYTILE
360
27
  3
REFLECTIONTILE
360
26
  3
REFRACTIONTILE
360
28
  3
SPECULARTILE
360
25
  0
DICTIONARY
  5
98
330
65
100
AcDbDictionary
280
     1
281
     1
  3
ACAD_ROUNDTRIP_2008_TABLESTYLE_CELLSTYLEMAP
360
99
  0
XRECORD
  5
1C
102
{ACAD_REACTORS
330
1A
102
}
330
1A
100
AcDbXrecord
280
     1
270
     1
271
     1
  0
XRECORD
  5
1B
102
{ACAD_REACTORS
330
1A
102
}
330
1A
100
AcDbXrecord
280
     1
270
     1
271
     1
  0
XRECORD
  5
1F
102
{ACAD_REACTORS
330
1A
102
}
330
1A
100
AcDbXrecord
280
     1
270
     1
271
     1
  0
XRECORD
  5
1E
102
{ACAD_REACTORS
330
1A
102
}
330
1A
100
AcDbXrecord
280
     1
270
     1
271
     1
  0
XRECORD
  5
20
102
{ACAD_REACTORS
330
1A
102
}
330
1A
100
AcDbXrecord
280
     1
270
     1
271
     1
  0
XRECORD
  5
1D
102
{ACAD_REACTORS
330
1A
102
}
330
1A
100
AcDbXrecord
280
     1
270
     1
271
     1
  0
XRECORD
  5
14
102
{ACAD_REACTORS
330
12
102
}
330
12
100
AcDbXrecord
280
     1
270
     1
271
     1
  0
XRECORD
  5
13
102
{ACAD_REACTORS
330
12
102
}
330
12
100
AcDbXrecord
280
     1
270
     1
271
     1
  0
XRECORD
  5
17
102
{ACAD_REACTORS
330
12
102
}
330
12
100
AcDbXrecord
280
     1
270
     1
271
     1
  0
XRECORD
  5
16
102
{ACAD_REACTORS
330
12
102
}
330
12
100
AcDbXrecord
280
     1
270
     1
271
     1
  0
XRECORD
  5
18
102
{ACAD_REACTORS
330
12
102
}
330
12
100
AcDbXrecord
280
     1
270
     1
271
     1
  0
XRECORD
  5
15
102
{ACAD_REACTORS
330
12
102
}
330
12
100
AcDbXrecord
280
     1
270
     1
271
     1
  0
XRECORD
  5
24
102
{ACAD_REACTORS
330
22
102
}
330
22
100
AcDbXrecord
280
     1
270
     1
271
     1
  0
XRECORD
  5
23
102
{ACAD_REACTORS
330
22
102
}
330
22
100
AcDbXrecord
280
     1
270
     1
271
     1
  0
XRECORD
  5
27
102
{ACAD_REACTORS
330
22
102
}
330
22
100
AcDbXrecord
280
     1
270
     1
271
     1
  0
XRECORD
  5
26
102
{ACAD_REACTORS
330
22
102
}
330
22
100
AcDbXrecord
280
     1
270
     1
271
     1
  0
XRECORD
  5
28
102
{ACAD_REACTORS
330
22
102
}
330
22
100
AcDbXrecord
280
     1
270
     1
271
     1
  0
XRECORD
  5
25
102
{ACAD_REACTORS
330
22
102
}
330
22
100
AcDbXrecord
280
     1
270
     1
271
     1
  0
CELLSTYLEMAP
  5
99
102
{ACAD_REACTORS
330
98
102
}
330
98
100
AcDbCellStyleMap
 90
        3
300
CELLSTYLE
  1
TABLEFORMAT_BEGIN
 90
        5
170
     1
 91
        0
 92
    32768
 62
   257
 93
        1
300
CONTENTFORMAT
  1
CONTENTFORMAT_BEGIN
 90
        0
 91
        0
 92
      512
 93
        0
300

 40
0.0
140
1.0
 94
        5
 62
     0
340
55
144
0.25
309
CONTENTFORMAT_END
171
     0
 94
        0
309
TABLEFORMAT_END
  1
CELLSTYLE_BEGIN
 90
        1
 91
        1
300
_TITLE
309
CELLSTYLE_END
300
CELLSTYLE
  1
TABLEFORMAT_BEGIN
 90
        5
170
     1
 91
        0
 92
        0
 62
   257
 93
        1
300
CONTENTFORMAT
  1
CONTENTFORMAT_BEGIN
 90
        0
 91
        0
 92
      512
 93
        0
300

 40
0.0
140
1.0
 94
        5
 62
     0
340
55
144
0.18
309
CONTENTFORMAT_END
171
     0
 94
        0
309
TABLEFORMAT_END
  1
CELLSTYLE_BEGIN
 90
        2
 91
        1
300
_HEADER
309
CELLSTYLE_END
300
CELLSTYLE
  1
TABLEFORMAT_BEGIN
 90
        5
170
     1
 91
        0
 92
        0
 62
   257
 93
        1
300
CONTENTFORMAT
  1
CONTENTFORMAT_BEGIN
 90
        0
 91
        0
 92
      512
 93
        0
300

 40
0.0
140
1.0
 94
        2
 62
     0
340
55
144
0.18
309
CONTENTFORMAT_END
171
     0
 94
        0
309
TABLEFORMAT_END
  1
CELLSTYLE_BEGIN
 90
        3
 91
        2
300
_DATA
309
CELLSTYLE_END
  0
ENDSEC
  0
EOF
